G04*
G04 #@! TF.GenerationSoftware,Altium Limited,Altium Designer,22.6.1 (34)*
G04*
G04 Layer_Physical_Order=1*
G04 Layer_Color=255*
%FSLAX44Y44*%
%MOMM*%
G71*
G04*
G04 #@! TF.SameCoordinates,BBB43125-A0E4-451D-B61F-B29EE5F4884E*
G04*
G04*
G04 #@! TF.FilePolarity,Positive*
G04*
G01*
G75*
%ADD11C,0.5000*%
%ADD12C,1.0000*%
%ADD18C,2.2700*%
%ADD19C,2.0000*%
%ADD20C,25.0000*%
%ADD21C,1.0000*%
%ADD22C,0.4000*%
G36*
X18186Y347016D02*
X36323Y345588D01*
X54360Y343214D01*
X72248Y339899D01*
X89938Y335652D01*
X107381Y330485D01*
X124530Y324412D01*
X141338Y317450D01*
X157758Y309618D01*
X173746Y300937D01*
X189258Y291431D01*
X204251Y281127D01*
X218684Y270052D01*
X232518Y258237D01*
X245714Y245714D01*
X258237Y232518D01*
X266282Y223098D01*
X266106Y221349D01*
X228169Y190629D01*
X227918Y190326D01*
X227667Y190029D01*
X227665Y190022D01*
X227661Y190017D01*
X227544Y189642D01*
X227426Y189270D01*
X227427Y189264D01*
X227425Y189257D01*
X227461Y188866D01*
X227494Y188478D01*
X227497Y188472D01*
X227498Y188465D01*
X227680Y188118D01*
X227793Y187899D01*
X226731Y187189D01*
X219305Y195983D01*
X207971Y207971D01*
X195983Y219305D01*
X183378Y229949D01*
X170196Y239869D01*
X156479Y249035D01*
X142269Y257417D01*
X127612Y264989D01*
X112553Y271728D01*
X97140Y277611D01*
X81422Y282621D01*
X65447Y286742D01*
X49266Y289960D01*
X32931Y292266D01*
X16491Y293653D01*
X0Y294116D01*
X-16491Y293653D01*
X-32931Y292266D01*
X-49266Y289960D01*
X-65447Y286742D01*
X-81422Y282621D01*
X-97140Y277611D01*
X-112553Y271728D01*
X-127612Y264989D01*
X-142269Y257417D01*
X-156479Y249035D01*
X-170196Y239869D01*
X-183378Y229949D01*
X-195983Y219305D01*
X-207971Y207971D01*
X-219305Y195983D01*
X-229949Y183378D01*
X-239869Y170196D01*
X-249035Y156479D01*
X-257417Y142269D01*
X-264989Y127612D01*
X-271728Y112553D01*
X-277611Y97140D01*
X-282621Y81422D01*
X-286742Y65447D01*
X-289960Y49266D01*
X-292266Y32931D01*
X-293653Y16491D01*
X-294116Y0D01*
X-293653Y-16491D01*
X-292266Y-32931D01*
X-289960Y-49266D01*
X-286742Y-65447D01*
X-282621Y-81422D01*
X-277611Y-97140D01*
X-271728Y-112553D01*
X-264989Y-127612D01*
X-257417Y-142269D01*
X-249035Y-156479D01*
X-239869Y-170196D01*
X-229949Y-183378D01*
X-219305Y-195983D01*
X-207971Y-207971D01*
X-195983Y-219305D01*
X-183378Y-229949D01*
X-170196Y-239869D01*
X-156479Y-249035D01*
X-142269Y-257417D01*
X-127612Y-264989D01*
X-112553Y-271728D01*
X-97140Y-277611D01*
X-81422Y-282621D01*
X-65447Y-286742D01*
X-49266Y-289960D01*
X-32931Y-292266D01*
X-16491Y-293653D01*
X0Y-294116D01*
X16491Y-293653D01*
X32931Y-292266D01*
X49266Y-289960D01*
X65447Y-286742D01*
X81422Y-282621D01*
X97140Y-277611D01*
X112553Y-271728D01*
X127612Y-264989D01*
X142269Y-257417D01*
X156479Y-249035D01*
X170196Y-239869D01*
X183378Y-229949D01*
X195983Y-219305D01*
X207971Y-207971D01*
X219305Y-195983D01*
X226314Y-187683D01*
X226436Y-187702D01*
X227456Y-188335D01*
X227414Y-188548D01*
X227435Y-188654D01*
X227425Y-188761D01*
X227427Y-188768D01*
X227426Y-188775D01*
X227513Y-189048D01*
X227569Y-189329D01*
X227629Y-189418D01*
X227661Y-189521D01*
X227665Y-189526D01*
X227667Y-189533D01*
X227852Y-189752D01*
X228011Y-189990D01*
X228101Y-190050D01*
X228169Y-190133D01*
X266356Y-221056D01*
X266620Y-222702D01*
X258237Y-232518D01*
X245714Y-245714D01*
X232518Y-258237D01*
X218684Y-270052D01*
X204251Y-281127D01*
X189258Y-291431D01*
X173746Y-300937D01*
X157758Y-309618D01*
X141338Y-317450D01*
X124530Y-324412D01*
X107381Y-330485D01*
X89938Y-335652D01*
X72248Y-339899D01*
X54360Y-343214D01*
X36323Y-345588D01*
X18186Y-347016D01*
X182Y-347487D01*
X0Y-347451D01*
X-182Y-347487D01*
X-18186Y-347016D01*
X-36323Y-345588D01*
X-54360Y-343214D01*
X-72248Y-339899D01*
X-89938Y-335652D01*
X-107381Y-330485D01*
X-124530Y-324412D01*
X-141338Y-317450D01*
X-157758Y-309618D01*
X-173746Y-300937D01*
X-189258Y-291431D01*
X-204251Y-281127D01*
X-218684Y-270052D01*
X-232518Y-258237D01*
X-245714Y-245714D01*
X-258237Y-232518D01*
X-270052Y-218684D01*
X-281127Y-204251D01*
X-291431Y-189258D01*
X-300937Y-173746D01*
X-309618Y-157758D01*
X-317450Y-141338D01*
X-324412Y-124530D01*
X-330485Y-107381D01*
X-335652Y-89938D01*
X-339899Y-72248D01*
X-343214Y-54360D01*
X-345588Y-36323D01*
X-347016Y-18186D01*
X-347487Y-182D01*
X-347451Y0D01*
X-347487Y182D01*
X-347016Y18186D01*
X-345588Y36323D01*
X-343214Y54360D01*
X-339899Y72248D01*
X-335652Y89938D01*
X-330485Y107381D01*
X-324412Y124530D01*
X-317450Y141338D01*
X-309618Y157758D01*
X-300937Y173746D01*
X-291431Y189258D01*
X-281127Y204251D01*
X-270052Y218684D01*
X-258237Y232518D01*
X-245714Y245714D01*
X-232518Y258237D01*
X-218684Y270052D01*
X-204251Y281127D01*
X-189258Y291431D01*
X-173746Y300937D01*
X-157758Y309618D01*
X-141338Y317450D01*
X-124530Y324412D01*
X-107381Y330485D01*
X-89938Y335652D01*
X-72248Y339899D01*
X-54360Y343214D01*
X-36323Y345588D01*
X-18186Y347016D01*
X-182Y347487D01*
X0Y347451D01*
X182Y347487D01*
X18186Y347016D01*
D02*
G37*
G36*
X296318Y180511D02*
D01*
X296318D01*
X296318D01*
D02*
G37*
G36*
X268310Y220510D02*
X271194Y216949D01*
X276772Y209680D01*
X282158Y202266D01*
X287348Y194714D01*
X289844Y190872D01*
X247910Y163640D01*
X247910Y163640D01*
X245750Y166919D01*
X241301Y173391D01*
X236685Y179745D01*
X231904Y185976D01*
X229453Y189044D01*
X268310Y220510D01*
D01*
X268310D01*
X268310D01*
D02*
G37*
G36*
X291820Y188494D02*
X291970Y188378D01*
X294961Y183498D01*
X294998Y183349D01*
X294510Y181804D01*
X252409Y156507D01*
X252119Y156244D01*
X251828Y155983D01*
X251825Y155977D01*
X251820Y155972D01*
X251653Y155619D01*
X251484Y155266D01*
X251483Y155259D01*
X251481Y155253D01*
X251462Y154861D01*
X250173Y154550D01*
X249035Y156479D01*
X246018Y160994D01*
X246384Y161462D01*
X246957Y161871D01*
X247130Y161756D01*
X247314Y161719D01*
X247486Y161645D01*
X247493Y161645D01*
X247499Y161642D01*
X247707Y161641D01*
X247910Y161600D01*
X248094Y161637D01*
X248282Y161635D01*
X248288Y161637D01*
X248295Y161637D01*
X248487Y161715D01*
X248691Y161756D01*
X248847Y161860D01*
X249021Y161929D01*
X290324Y188752D01*
X291820Y188494D01*
D02*
G37*
G36*
X298677Y176584D02*
X303190Y168608D01*
X307492Y160518D01*
X311580Y152317D01*
X313517Y148164D01*
X268201Y127033D01*
Y127033D01*
X266518Y130582D01*
X263014Y137610D01*
X259327Y144544D01*
X255460Y151380D01*
X253459Y154759D01*
X296318Y180511D01*
X298677Y176584D01*
D02*
G37*
G36*
X315170Y146117D02*
X317450Y141338D01*
X324412Y124530D01*
X330485Y107381D01*
X335652Y89938D01*
X339899Y72248D01*
X343214Y54360D01*
X344296Y46137D01*
X343669Y45238D01*
X343179Y44893D01*
X293824Y38833D01*
X293452Y38710D01*
X293080Y38590D01*
X293075Y38586D01*
X293069Y38584D01*
X292772Y38328D01*
X291637Y38617D01*
X291446Y38741D01*
X289960Y49266D01*
X286742Y65447D01*
X282621Y81422D01*
X277611Y97140D01*
X271728Y112553D01*
X266499Y124238D01*
X267278Y125008D01*
X267465Y125141D01*
X267504Y125117D01*
X267511Y125116D01*
X267516Y125113D01*
X267860Y125062D01*
X268201Y124994D01*
X268246Y125003D01*
X268290Y124996D01*
X268297Y124998D01*
X268304Y124997D01*
X268640Y125082D01*
X268982Y125149D01*
X269019Y125175D01*
X269063Y125185D01*
X314379Y146316D01*
X315170Y146117D01*
D02*
G37*
G36*
X344259Y38355D02*
X345137Y29233D01*
X345776Y20092D01*
X346176Y10937D01*
X346256Y6356D01*
X296263Y5484D01*
X296169Y9409D01*
X295826Y17256D01*
X295279Y25090D01*
X294526Y32908D01*
X294073Y36809D01*
X343700Y42902D01*
X344259Y38355D01*
D02*
G37*
G36*
X347406Y3292D02*
X347487Y182D01*
X347451Y0D01*
X347487Y-182D01*
X347419Y-2805D01*
X346291Y-3821D01*
X296299Y-2949D01*
X295913Y-3019D01*
X295528Y-3086D01*
X295523Y-3089D01*
X295516Y-3090D01*
X295296Y-3232D01*
X294885Y-3126D01*
X294058Y-2640D01*
X294042Y-2622D01*
X294116Y0D01*
X294028Y3139D01*
X294043Y3156D01*
X294914Y3645D01*
X295281Y3737D01*
X295516Y3586D01*
X295523Y3585D01*
X295528Y3582D01*
X295913Y3514D01*
X296299Y3445D01*
X346291Y4317D01*
X347406Y3292D01*
D02*
G37*
G36*
X346256Y-5860D02*
X346176Y-10441D01*
X345776Y-19596D01*
X345137Y-28737D01*
X344259Y-37859D01*
X343700Y-42406D01*
X294073Y-36313D01*
X294526Y-32412D01*
X295279Y-24595D01*
X295826Y-16760D01*
X296169Y-8914D01*
X296263Y-4988D01*
X346256Y-5860D01*
D02*
G37*
G36*
X293069Y-38088D02*
X293075Y-38090D01*
X293080Y-38094D01*
X293452Y-38214D01*
X293824Y-38337D01*
X343243Y-44405D01*
X343573Y-44589D01*
X344364Y-45626D01*
X343574Y-51623D01*
X343350Y-51904D01*
X343111Y-52103D01*
X342422Y-52440D01*
X342182Y-52468D01*
X292934Y-44668D01*
X292543Y-44684D01*
X292153Y-44696D01*
X292146Y-44699D01*
X292139Y-44700D01*
X291870Y-44824D01*
X291559Y-44705D01*
X290743Y-44133D01*
X290694Y-44069D01*
X291509Y-38298D01*
X291567Y-38255D01*
X292498Y-37928D01*
X292848Y-37897D01*
X293069Y-38088D01*
D02*
G37*
G36*
X342000Y-54504D02*
Y-54504D01*
X341283Y-59029D01*
X339613Y-68039D01*
X337708Y-77003D01*
X335569Y-85913D01*
X334383Y-90339D01*
X286087Y-77398D01*
X287078Y-73598D01*
X288912Y-65961D01*
X290545Y-58279D01*
X291976Y-50557D01*
X292616Y-46682D01*
X342000Y-54504D01*
D02*
G37*
G36*
X284620Y-78758D02*
X284845Y-79016D01*
X284851Y-79019D01*
X284856Y-79024D01*
X285209Y-79195D01*
X285559Y-79367D01*
X333642Y-92251D01*
X333967Y-92518D01*
X334559Y-93627D01*
X332860Y-99361D01*
X332742Y-99507D01*
X332302Y-99829D01*
X331333Y-100047D01*
X283797Y-85513D01*
X283409Y-85475D01*
X283018Y-85433D01*
X283012Y-85435D01*
X283005Y-85434D01*
X282632Y-85546D01*
X281714Y-84806D01*
X281599Y-84627D01*
X282621Y-81422D01*
X283250Y-78983D01*
X283375Y-78919D01*
X284441Y-78746D01*
X284620Y-78758D01*
D02*
G37*
G36*
X331016Y-102082D02*
Y-102082D01*
X329676Y-106464D01*
X326768Y-115154D01*
X323634Y-123765D01*
X320276Y-132290D01*
X318486Y-136508D01*
X272460Y-116971D01*
X273971Y-113347D01*
X276850Y-106039D01*
X279536Y-98659D01*
X282028Y-91211D01*
X283200Y-87464D01*
X331016Y-102082D01*
D02*
G37*
G36*
X270706Y-117945D02*
X270791Y-118073D01*
X271006Y-118401D01*
X271012Y-118405D01*
X271015Y-118410D01*
X271341Y-118629D01*
X271664Y-118848D01*
X317689Y-138385D01*
X318100Y-139768D01*
X317450Y-141338D01*
X315632Y-145149D01*
X315424Y-145338D01*
X314379Y-145820D01*
X269063Y-124689D01*
X268682Y-124596D01*
X268304Y-124501D01*
X268297Y-124502D01*
X268290Y-124500D01*
X267903Y-124560D01*
X267735Y-124585D01*
X267139Y-124071D01*
X266801Y-123562D01*
X269316Y-117942D01*
X269894Y-117847D01*
X270706Y-117945D01*
D02*
G37*
G36*
X313517Y-147669D02*
Y-147669D01*
X311580Y-151821D01*
X307492Y-160022D01*
X303190Y-168113D01*
X298677Y-176088D01*
X296318Y-180015D01*
X253459Y-154263D01*
Y-154263D01*
Y-154263D01*
D01*
X255460Y-150884D01*
X259327Y-144049D01*
X263014Y-137114D01*
X266518Y-130086D01*
X268201Y-126538D01*
X313517Y-147669D01*
D02*
G37*
G36*
X250981Y-154612D02*
X251499Y-154801D01*
X251547Y-154901D01*
X251575Y-155044D01*
X251714Y-155251D01*
X251820Y-155476D01*
X251825Y-155481D01*
X251828Y-155487D01*
X251936Y-155584D01*
X252017Y-155705D01*
X252225Y-155844D01*
X252409Y-156011D01*
X294732Y-181441D01*
X295294Y-182954D01*
X292069Y-188216D01*
X290490Y-188364D01*
X249021Y-161434D01*
X248657Y-161288D01*
X248295Y-161141D01*
X248288Y-161141D01*
X248282Y-161139D01*
X247888Y-161144D01*
X247499Y-161146D01*
X247493Y-161149D01*
X247486Y-161149D01*
X247424Y-161176D01*
X246720Y-160456D01*
X246577Y-160157D01*
X249035Y-156479D01*
X250180Y-154538D01*
X250686Y-154526D01*
X250981Y-154612D01*
D02*
G37*
G36*
X289844Y-190376D02*
X287348Y-194218D01*
X282158Y-201770D01*
X276772Y-209184D01*
X271194Y-216453D01*
X268310Y-220014D01*
X229453Y-188548D01*
Y-188548D01*
Y-188548D01*
D01*
X231904Y-185480D01*
X236685Y-179249D01*
X241301Y-172896D01*
X245750Y-166423D01*
X247910Y-163144D01*
X289844Y-190376D01*
D02*
G37*
G36*
X14159Y216025D02*
X28258Y214637D01*
X42235Y212329D01*
X56031Y209112D01*
X69588Y205000D01*
X82847Y200010D01*
X95751Y194163D01*
X108244Y187485D01*
X120275Y180004D01*
X131790Y171752D01*
X142741Y162765D01*
X153081Y153081D01*
X162765Y142741D01*
X171752Y131790D01*
X180004Y120275D01*
X187485Y108244D01*
X194163Y95751D01*
X200010Y82847D01*
X205000Y69588D01*
X209112Y56031D01*
X212329Y42235D01*
X214637Y28258D01*
X215735Y17104D01*
X215395Y16282D01*
Y14476D01*
X216068Y12851D01*
X216489Y0D01*
X216025Y-14159D01*
X214637Y-28258D01*
X212329Y-42235D01*
X209112Y-56031D01*
X205000Y-69588D01*
X200010Y-82847D01*
X194163Y-95751D01*
X187485Y-108244D01*
X180004Y-120275D01*
X171752Y-131790D01*
X162765Y-142741D01*
X153081Y-153081D01*
X142741Y-162765D01*
X131790Y-171752D01*
X120275Y-180004D01*
X108244Y-187485D01*
X95751Y-194163D01*
X82847Y-200010D01*
X69588Y-205000D01*
X56031Y-209112D01*
X42235Y-212329D01*
X28258Y-214637D01*
X14159Y-216025D01*
X0Y-216489D01*
X-14159Y-216025D01*
X-28258Y-214637D01*
X-42235Y-212329D01*
X-56031Y-209112D01*
X-69588Y-205000D01*
X-82847Y-200010D01*
X-95751Y-194163D01*
X-108244Y-187485D01*
X-120275Y-180004D01*
X-131790Y-171752D01*
X-142741Y-162765D01*
X-153081Y-153081D01*
X-162765Y-142741D01*
X-171752Y-131790D01*
X-180004Y-120275D01*
X-187485Y-108244D01*
X-194163Y-95751D01*
X-200010Y-82847D01*
X-205000Y-69588D01*
X-209112Y-56031D01*
X-212329Y-42235D01*
X-214637Y-28258D01*
X-216025Y-14159D01*
X-216489Y0D01*
X-216025Y14159D01*
X-214637Y28258D01*
X-212329Y42235D01*
X-209112Y56031D01*
X-205000Y69588D01*
X-200010Y82847D01*
X-194163Y95751D01*
X-187485Y108244D01*
X-180004Y120275D01*
X-171752Y131790D01*
X-162765Y142741D01*
X-153081Y153081D01*
X-142741Y162765D01*
X-131790Y171752D01*
X-120275Y180004D01*
X-108244Y187485D01*
X-95751Y194163D01*
X-82847Y200010D01*
X-69588Y205000D01*
X-56031Y209112D01*
X-42235Y212329D01*
X-28258Y214637D01*
X-14159Y216025D01*
X0Y216489D01*
X14159Y216025D01*
D02*
G37*
%LPC*%
G36*
X231390Y241810D02*
X228230D01*
X225178Y240992D01*
X222442Y239412D01*
X220207Y237178D01*
X218627Y234442D01*
X217810Y231390D01*
Y228230D01*
X218627Y225178D01*
X220207Y222442D01*
X222442Y220207D01*
X225178Y218627D01*
X228230Y217810D01*
X231390D01*
X234442Y218627D01*
X237178Y220207D01*
X239412Y222442D01*
X240992Y225178D01*
X241810Y228230D01*
Y231390D01*
X240992Y234442D01*
X239412Y237178D01*
X237178Y239412D01*
X234442Y240992D01*
X231390Y241810D01*
D02*
G37*
G36*
X-228230D02*
X-231390D01*
X-234442Y240992D01*
X-237178Y239412D01*
X-239412Y237178D01*
X-240992Y234442D01*
X-241810Y231390D01*
Y228230D01*
X-240992Y225178D01*
X-239412Y222442D01*
X-237178Y220207D01*
X-234442Y218627D01*
X-231390Y217810D01*
X-228230D01*
X-225178Y218627D01*
X-222442Y220207D01*
X-220207Y222442D01*
X-218627Y225178D01*
X-217810Y228230D01*
Y231390D01*
X-218627Y234442D01*
X-220207Y237178D01*
X-222442Y239412D01*
X-225178Y240992D01*
X-228230Y241810D01*
D02*
G37*
G36*
X231390Y-217810D02*
X228230D01*
X225178Y-218627D01*
X222442Y-220207D01*
X220207Y-222442D01*
X218627Y-225178D01*
X217810Y-228230D01*
Y-231390D01*
X218627Y-234442D01*
X220207Y-237178D01*
X222442Y-239412D01*
X225178Y-240992D01*
X228230Y-241810D01*
X231390D01*
X234442Y-240992D01*
X237178Y-239412D01*
X239412Y-237178D01*
X240992Y-234442D01*
X241810Y-231390D01*
Y-228230D01*
X240992Y-225178D01*
X239412Y-222442D01*
X237178Y-220207D01*
X234442Y-218627D01*
X231390Y-217810D01*
D02*
G37*
G36*
X-228230D02*
X-231390D01*
X-234442Y-218627D01*
X-237178Y-220207D01*
X-239412Y-222442D01*
X-240992Y-225178D01*
X-241810Y-228230D01*
Y-231390D01*
X-240992Y-234442D01*
X-239412Y-237178D01*
X-237178Y-239412D01*
X-234442Y-240992D01*
X-231390Y-241810D01*
X-228230D01*
X-225178Y-240992D01*
X-222442Y-239412D01*
X-220207Y-237178D01*
X-218627Y-234442D01*
X-217810Y-231390D01*
Y-228230D01*
X-218627Y-225178D01*
X-220207Y-222442D01*
X-222442Y-220207D01*
X-225178Y-218627D01*
X-228230Y-217810D01*
D02*
G37*
G36*
X193907Y77580D02*
Y71384D01*
X200102D01*
X199663Y73024D01*
X198670Y74744D01*
X197266Y76147D01*
X195547Y77140D01*
X193907Y77580D01*
D02*
G37*
G36*
X191367D02*
X189726Y77140D01*
X188007Y76147D01*
X186603Y74744D01*
X185610Y73024D01*
X185171Y71384D01*
X191367D01*
Y77580D01*
D02*
G37*
G36*
X200102Y68844D02*
X193907D01*
Y62648D01*
X195547Y63088D01*
X197266Y64081D01*
X198670Y65484D01*
X199663Y67204D01*
X200102Y68844D01*
D02*
G37*
G36*
X191367D02*
X185171D01*
X185610Y67204D01*
X186603Y65484D01*
X188007Y64081D01*
X189726Y63088D01*
X191367Y62648D01*
Y68844D01*
D02*
G37*
G36*
X201790Y50087D02*
Y43892D01*
X207985D01*
X207546Y45532D01*
X206553Y47252D01*
X205149Y48655D01*
X203430Y49648D01*
X201790Y50087D01*
D02*
G37*
G36*
X199250D02*
X197610Y49648D01*
X195890Y48655D01*
X194486Y47252D01*
X193494Y45532D01*
X193054Y43892D01*
X199250D01*
Y50087D01*
D02*
G37*
G36*
X207985Y41352D02*
X201790D01*
Y35156D01*
X203430Y35596D01*
X205149Y36588D01*
X206553Y37992D01*
X207546Y39711D01*
X207985Y41352D01*
D02*
G37*
G36*
X199250D02*
X193054D01*
X193494Y39711D01*
X194486Y37992D01*
X195890Y36588D01*
X197610Y35596D01*
X199250Y35156D01*
Y41352D01*
D02*
G37*
G36*
X-202730Y4929D02*
Y1270D01*
X-199071D01*
X-199727Y2855D01*
X-201145Y4273D01*
X-202730Y4929D01*
D02*
G37*
G36*
X-205270D02*
X-206855Y4273D01*
X-208273Y2855D01*
X-208929Y1270D01*
X-205270D01*
Y4929D01*
D02*
G37*
G36*
X-199071Y-1270D02*
X-202730D01*
Y-4929D01*
X-201145Y-4273D01*
X-199727Y-2855D01*
X-199071Y-1270D01*
D02*
G37*
G36*
X-205270D02*
X-208929D01*
X-208273Y-2855D01*
X-206855Y-4273D01*
X-205270Y-4929D01*
Y-1270D01*
D02*
G37*
G36*
X0Y192523D02*
X-13734Y192032D01*
X-27399Y190563D01*
X-40924Y188123D01*
X-54240Y184724D01*
X-67280Y180384D01*
X-79977Y175125D01*
X-92266Y168973D01*
X-104086Y161960D01*
X-115374Y154122D01*
X-126075Y145499D01*
X-136134Y136134D01*
X-145499Y126075D01*
X-154122Y115374D01*
X-161960Y104086D01*
X-168973Y92266D01*
X-175125Y79977D01*
X-180384Y67280D01*
X-184724Y54240D01*
X-188123Y40924D01*
X-190563Y27399D01*
X-192032Y13734D01*
X-192523Y0D01*
X-192032Y-13734D01*
X-190563Y-27399D01*
X-188123Y-40924D01*
X-184724Y-54240D01*
X-180384Y-67280D01*
X-175125Y-79977D01*
X-168973Y-92266D01*
X-161960Y-104086D01*
X-154122Y-115374D01*
X-145499Y-126075D01*
X-136134Y-136134D01*
X-126075Y-145499D01*
X-115374Y-154122D01*
X-104086Y-161960D01*
X-92266Y-168973D01*
X-79977Y-175125D01*
X-67280Y-180384D01*
X-54240Y-184724D01*
X-40924Y-188123D01*
X-27399Y-190563D01*
X-13734Y-192032D01*
X0Y-192523D01*
X13734Y-192032D01*
X27399Y-190563D01*
X40924Y-188123D01*
X54240Y-184724D01*
X67280Y-180384D01*
X79977Y-175125D01*
X92266Y-168973D01*
X104086Y-161960D01*
X115374Y-154122D01*
X126075Y-145499D01*
X136134Y-136134D01*
X145499Y-126075D01*
X154122Y-115374D01*
X161960Y-104086D01*
X168973Y-92266D01*
X175125Y-79977D01*
X180384Y-67280D01*
X184724Y-54240D01*
X188123Y-40924D01*
X190563Y-27399D01*
X192032Y-13734D01*
X192523Y0D01*
X192032Y13734D01*
X190563Y27399D01*
X188123Y40924D01*
X184724Y54240D01*
X180384Y67280D01*
X175125Y79977D01*
X169953Y90309D01*
X169934Y90355D01*
X169753Y90792D01*
X169633Y90948D01*
X168973Y92266D01*
X161960Y104086D01*
X156565Y111856D01*
X156516Y111975D01*
X156165Y112433D01*
X155691Y113116D01*
X154122Y115374D01*
X145499Y126075D01*
X136134Y136134D01*
X126075Y145499D01*
X115374Y154122D01*
X104086Y161960D01*
X92266Y168973D01*
X79977Y175125D01*
X67280Y180384D01*
X54240Y184724D01*
X40924Y188123D01*
X27399Y190563D01*
X13734Y192032D01*
X0Y192523D01*
D02*
G37*
%LPD*%
G36*
X11819Y165257D02*
X23579Y163992D01*
X35217Y161892D01*
X46677Y158967D01*
X57899Y155232D01*
X68825Y150707D01*
X79401Y145413D01*
X89573Y139378D01*
X99288Y132633D01*
X108496Y125211D01*
X117152Y117152D01*
X125211Y108496D01*
X129105Y103665D01*
X128938Y102406D01*
X127434Y101313D01*
X126532Y101072D01*
X124813Y100079D01*
X123409Y98675D01*
X122417Y96956D01*
X121903Y95038D01*
Y93053D01*
X122417Y91135D01*
X123409Y89416D01*
X124813Y88012D01*
X126532Y87020D01*
X128450Y86506D01*
X130435D01*
X132353Y87020D01*
X134073Y88012D01*
X135476Y89416D01*
X135761Y89909D01*
X137275Y91009D01*
X138527Y90797D01*
X139378Y89573D01*
X142277Y84687D01*
X141934Y83464D01*
X140413Y82655D01*
X140279D01*
X138361Y82142D01*
X136642Y81149D01*
X135238Y79745D01*
X134246Y78026D01*
X133732Y76108D01*
Y74123D01*
X134246Y72205D01*
X135238Y70486D01*
X136642Y69082D01*
X138361Y68089D01*
X140279Y67575D01*
X142264D01*
X144182Y68089D01*
X145901Y69082D01*
X146966Y70147D01*
X148595Y71013D01*
X149805Y70627D01*
X150707Y68825D01*
X155232Y57899D01*
X158967Y46677D01*
X161892Y35217D01*
X163992Y23579D01*
X165257Y11819D01*
X165659Y560D01*
X165585Y0D01*
X165659Y-560D01*
X165257Y-11819D01*
X163992Y-23579D01*
X161892Y-35217D01*
X158967Y-46677D01*
X155232Y-57899D01*
X150707Y-68825D01*
X145413Y-79401D01*
X139378Y-89573D01*
X132633Y-99288D01*
X125211Y-108496D01*
X117152Y-117152D01*
X108496Y-125211D01*
X99288Y-132633D01*
X89573Y-139378D01*
X79401Y-145413D01*
X68825Y-150707D01*
X57899Y-155232D01*
X46677Y-158967D01*
X35217Y-161892D01*
X23579Y-163992D01*
X11819Y-165257D01*
X0Y-165679D01*
X-11819Y-165257D01*
X-23579Y-163992D01*
X-35217Y-161892D01*
X-46677Y-158967D01*
X-57899Y-155232D01*
X-68825Y-150707D01*
X-79401Y-145413D01*
X-89573Y-139378D01*
X-99288Y-132633D01*
X-108496Y-125211D01*
X-117152Y-117152D01*
X-125211Y-108496D01*
X-132633Y-99288D01*
X-139378Y-89573D01*
X-145413Y-79401D01*
X-150707Y-68825D01*
X-155232Y-57899D01*
X-158967Y-46677D01*
X-161892Y-35217D01*
X-163992Y-23579D01*
X-165257Y-11819D01*
X-165679Y0D01*
X-165257Y11819D01*
X-163992Y23579D01*
X-161892Y35217D01*
X-158967Y46677D01*
X-155232Y57899D01*
X-150707Y68825D01*
X-145413Y79401D01*
X-139378Y89573D01*
X-132633Y99288D01*
X-125211Y108496D01*
X-117152Y117152D01*
X-108496Y125211D01*
X-99288Y132633D01*
X-89573Y139378D01*
X-79401Y145413D01*
X-68825Y150707D01*
X-57899Y155232D01*
X-46677Y158967D01*
X-35217Y161892D01*
X-23579Y163992D01*
X-11819Y165257D01*
X0Y165679D01*
X11819Y165257D01*
D02*
G37*
%LPC*%
G36*
X106580Y117000D02*
X103420D01*
X100368Y116182D01*
X97632Y114602D01*
X95398Y112368D01*
X93818Y109632D01*
X93000Y106580D01*
Y103420D01*
X93818Y100368D01*
X95398Y97632D01*
X97632Y95398D01*
X100368Y93818D01*
X103420Y93000D01*
X106580D01*
X109632Y93818D01*
X112368Y95398D01*
X114602Y97632D01*
X116182Y100368D01*
X117000Y103420D01*
Y106580D01*
X116182Y109632D01*
X114602Y112368D01*
X112368Y114602D01*
X109632Y116182D01*
X106580Y117000D01*
D02*
G37*
G36*
X-103420D02*
X-106580D01*
X-109632Y116182D01*
X-112368Y114602D01*
X-114602Y112368D01*
X-116182Y109632D01*
X-117000Y106580D01*
Y103420D01*
X-116182Y100368D01*
X-114602Y97632D01*
X-112368Y95398D01*
X-109632Y93818D01*
X-106580Y93000D01*
X-103420D01*
X-100368Y93818D01*
X-97632Y95398D01*
X-95398Y97632D01*
X-93818Y100368D01*
X-93000Y103420D01*
Y106580D01*
X-93818Y109632D01*
X-95398Y112368D01*
X-97632Y114602D01*
X-100368Y116182D01*
X-103420Y117000D01*
D02*
G37*
G36*
X106580Y-93000D02*
X103420D01*
X100368Y-93818D01*
X97632Y-95398D01*
X95398Y-97632D01*
X93818Y-100368D01*
X93000Y-103420D01*
Y-106580D01*
X93818Y-109632D01*
X95398Y-112368D01*
X97632Y-114602D01*
X100368Y-116182D01*
X103420Y-117000D01*
X106580D01*
X109632Y-116182D01*
X112368Y-114602D01*
X114602Y-112368D01*
X116182Y-109632D01*
X117000Y-106580D01*
Y-103420D01*
X116182Y-100368D01*
X114602Y-97632D01*
X112368Y-95398D01*
X109632Y-93818D01*
X106580Y-93000D01*
D02*
G37*
G36*
X-103420D02*
X-106580D01*
X-109632Y-93818D01*
X-112368Y-95398D01*
X-114602Y-97632D01*
X-116182Y-100368D01*
X-117000Y-103420D01*
Y-106580D01*
X-116182Y-109632D01*
X-114602Y-112368D01*
X-112368Y-114602D01*
X-109632Y-116182D01*
X-106580Y-117000D01*
X-103420D01*
X-100368Y-116182D01*
X-97632Y-114602D01*
X-95398Y-112368D01*
X-93818Y-109632D01*
X-93000Y-106580D01*
Y-103420D01*
X-93818Y-100368D01*
X-95398Y-97632D01*
X-97632Y-95398D01*
X-100368Y-93818D01*
X-103420Y-93000D01*
D02*
G37*
G36*
X5545Y127000D02*
X-5545D01*
X-16593Y126033D01*
X-27514Y124108D01*
X-38226Y121237D01*
X-48647Y117444D01*
X-58698Y112758D01*
X-68302Y107213D01*
X-77386Y100852D01*
X-85882Y93723D01*
X-93723Y85882D01*
X-100852Y77386D01*
X-107213Y68302D01*
X-112758Y58698D01*
X-117444Y48647D01*
X-121237Y38226D01*
X-124108Y27514D01*
X-126033Y16593D01*
X-127000Y5545D01*
Y-5545D01*
X-126033Y-16593D01*
X-124108Y-27514D01*
X-121237Y-38226D01*
X-117444Y-48647D01*
X-112758Y-58698D01*
X-107213Y-68302D01*
X-100852Y-77386D01*
X-93723Y-85882D01*
X-85882Y-93723D01*
X-77386Y-100852D01*
X-68302Y-107213D01*
X-58698Y-112758D01*
X-48647Y-117444D01*
X-38226Y-121237D01*
X-27514Y-124108D01*
X-16593Y-126033D01*
X-5545Y-127000D01*
X5545D01*
X16593Y-126033D01*
X27514Y-124108D01*
X38226Y-121237D01*
X48647Y-117444D01*
X58698Y-112758D01*
X68302Y-107213D01*
X77386Y-100852D01*
X85882Y-93723D01*
X93723Y-85882D01*
X100852Y-77386D01*
X107213Y-68302D01*
X112758Y-58698D01*
X117444Y-48647D01*
X121237Y-38226D01*
X124108Y-27514D01*
X126033Y-16593D01*
X127000Y-5545D01*
Y5545D01*
X126033Y16593D01*
X124108Y27514D01*
X121237Y38226D01*
X117444Y48647D01*
X112758Y58698D01*
X107213Y68302D01*
X100852Y77386D01*
X93723Y85882D01*
X85882Y93723D01*
X77386Y100852D01*
X68302Y107213D01*
X58698Y112758D01*
X48647Y117444D01*
X38226Y121237D01*
X27514Y124108D01*
X16593Y126033D01*
X5545Y127000D01*
D02*
G37*
%LPD*%
D11*
X-172000Y-0D02*
D03*
X-204000Y0D02*
D03*
X-223500Y100D02*
D03*
X-236200Y100D02*
D03*
X-248900Y100D02*
D03*
X-261600Y100D02*
D03*
X-274400Y100D02*
D03*
X-287000Y100D02*
D03*
D12*
X225088Y-71596D02*
G03*
X236200Y0I-225088J71596D01*
G01*
D02*
G03*
X225088Y-71596I-236200J0D01*
G01*
X287000Y0D02*
G03*
X280833Y-59176I-287000J0D01*
G01*
D02*
G03*
X287000Y0I-280833J59176D01*
G01*
X223500D02*
G03*
X223500Y0I-223500J0D01*
G01*
X248900D02*
G03*
X248900Y0I-248900J0D01*
G01*
X261600D02*
G03*
X261600Y0I-261600J0D01*
G01*
X274300D02*
G03*
X274300Y0I-274300J0D01*
G01*
X129443Y94046D02*
X144854Y105243D01*
X158092Y84059D02*
X158092D01*
X141272Y75115D02*
X158092Y84059D01*
X280833Y-59176D02*
X303226Y-64453D01*
D18*
X158092Y84059D02*
G03*
X144854Y105243I-158092J-84059D01*
G01*
X179050Y0D02*
G03*
X158092Y84059I-179050J0D01*
G01*
X144854Y105243D02*
G03*
X179050Y0I-144854J-105243D01*
G01*
X204450D02*
G03*
X204450Y0I-204450J0D01*
G01*
D19*
X-229810Y-229810D02*
D03*
X229810D02*
D03*
Y229810D02*
D03*
X-229810D02*
D03*
X105000Y105000D02*
D03*
X-105000Y-105000D02*
D03*
X105000D02*
D03*
X-105000Y105000D02*
D03*
D20*
X0Y0D02*
D03*
D21*
X192637Y70114D02*
D03*
X200520Y42622D02*
D03*
X141272Y75115D02*
D03*
X129443Y94046D02*
D03*
X250795Y-182213D02*
D03*
X273714Y-145536D02*
D03*
X291305Y-106026D02*
D03*
X303226Y-64453D02*
D03*
X309245Y-21625D02*
D03*
X250795Y182213D02*
D03*
X273714Y145536D02*
D03*
X291305Y106026D02*
D03*
X303226Y64453D02*
D03*
X309245Y21625D02*
D03*
D22*
X254912Y-92781D02*
D03*
X228305Y-121392D02*
D03*
X198915Y-144520D02*
D03*
X232604Y-16265D02*
D03*
X219935Y15379D02*
D03*
M02*
