G04*
G04 #@! TF.GenerationSoftware,Altium Limited,Altium Designer,22.6.1 (34)*
G04*
G04 Layer_Color=16711935*
%FSLAX44Y44*%
%MOMM*%
G71*
G04*
G04 #@! TF.SameCoordinates,BBB43125-A0E4-451D-B61F-B29EE5F4884E*
G04*
G04*
G04 #@! TF.FilePolarity,Negative*
G04*
G01*
G75*
%ADD14C,2.2032*%
%ADD15C,25.2032*%
%ADD16C,1.2032*%
%ADD17C,0.6032*%
G36*
X346256Y-5860D02*
X346176Y-10441D01*
X345776Y-19596D01*
X345137Y-28737D01*
X344259Y-37859D01*
X343700Y-42406D01*
X294073Y-36313D01*
X294526Y-32412D01*
X295279Y-24595D01*
X295826Y-16760D01*
X296169Y-8914D01*
X296263Y-4988D01*
X346256Y-5860D01*
D02*
G37*
G36*
X342000Y-54504D02*
Y-54504D01*
X341283Y-59029D01*
X339613Y-68039D01*
X337708Y-77003D01*
X335569Y-85913D01*
X334383Y-90339D01*
X286087Y-77398D01*
X287078Y-73598D01*
X288912Y-65961D01*
X290545Y-58279D01*
X291976Y-50557D01*
X292616Y-46682D01*
X342000Y-54504D01*
D02*
G37*
G36*
X331016Y-102082D02*
Y-102082D01*
X329676Y-106464D01*
X326768Y-115154D01*
X323634Y-123765D01*
X320276Y-132290D01*
X318486Y-136508D01*
X272460Y-116971D01*
X273971Y-113347D01*
X276850Y-106039D01*
X279536Y-98659D01*
X282028Y-91211D01*
X283200Y-87464D01*
X331016Y-102082D01*
D02*
G37*
G36*
X313517Y-147669D02*
Y-147669D01*
X311580Y-151821D01*
X307492Y-160022D01*
X303190Y-168113D01*
X298677Y-176088D01*
X296318Y-180015D01*
X253459Y-154263D01*
Y-154263D01*
Y-154263D01*
D01*
X255460Y-150884D01*
X259327Y-144049D01*
X263014Y-137114D01*
X266518Y-130086D01*
X268201Y-126538D01*
X313517Y-147669D01*
D02*
G37*
G36*
X289844Y-190376D02*
X287348Y-194218D01*
X282158Y-201770D01*
X276772Y-209184D01*
X271194Y-216453D01*
X268310Y-220014D01*
X229453Y-188548D01*
Y-188548D01*
Y-188548D01*
D01*
X231904Y-185480D01*
X236685Y-179249D01*
X241301Y-172896D01*
X245750Y-166423D01*
X247910Y-163144D01*
X289844Y-190376D01*
D02*
G37*
G36*
X296318Y180511D02*
D01*
X296318D01*
X296318D01*
D02*
G37*
G36*
X268310Y220510D02*
X271194Y216949D01*
X276772Y209680D01*
X282158Y202266D01*
X287348Y194714D01*
X289844Y190872D01*
X247910Y163640D01*
X247910Y163640D01*
X245750Y166919D01*
X241301Y173391D01*
X236685Y179745D01*
X231904Y185976D01*
X229453Y189044D01*
X268310Y220510D01*
D01*
X268310D01*
X268310D01*
D02*
G37*
G36*
X298677Y176584D02*
X303190Y168608D01*
X307492Y160518D01*
X311580Y152317D01*
X313517Y148164D01*
X268201Y127033D01*
Y127033D01*
X266518Y130582D01*
X263014Y137610D01*
X259327Y144544D01*
X255460Y151380D01*
X253459Y154759D01*
X296318Y180511D01*
X298677Y176584D01*
D02*
G37*
G36*
X334383Y90835D02*
D01*
X334383D01*
X334383D01*
D02*
G37*
G36*
X320276Y132786D02*
X323634Y124260D01*
X326768Y115649D01*
X329676Y106960D01*
X331016Y102578D01*
X283200Y87959D01*
X283200Y87959D01*
X282028Y91707D01*
X279536Y99155D01*
X276850Y106535D01*
X273971Y113842D01*
X272460Y117467D01*
X318486Y137004D01*
X320276Y132786D01*
D02*
G37*
G36*
X335569Y86409D02*
X337708Y77499D01*
X339613Y68535D01*
X341283Y59525D01*
X342000Y55000D01*
X292616Y47178D01*
X292616Y47178D01*
X291976Y51053D01*
X290545Y58775D01*
X288912Y66457D01*
X287078Y74094D01*
X286087Y77894D01*
X334383Y90835D01*
X335569Y86409D01*
D02*
G37*
G36*
X344259Y38355D02*
X345137Y29233D01*
X345776Y20092D01*
X346176Y10937D01*
X346256Y6356D01*
X296263Y5484D01*
X296169Y9409D01*
X295826Y17256D01*
X295279Y25090D01*
X294526Y32908D01*
X294073Y36809D01*
X343700Y42902D01*
X344259Y38355D01*
D02*
G37*
D14*
X-229810Y-229810D02*
D03*
X229810D02*
D03*
Y229810D02*
D03*
X-229810D02*
D03*
X105000Y105000D02*
D03*
X-105000Y-105000D02*
D03*
X105000D02*
D03*
X-105000Y105000D02*
D03*
D15*
X0Y0D02*
D03*
D16*
X192637Y70114D02*
D03*
X200520Y42622D02*
D03*
X141272Y75115D02*
D03*
X129443Y94046D02*
D03*
X250795Y-182213D02*
D03*
X273714Y-145536D02*
D03*
X291305Y-106026D02*
D03*
X303226Y-64453D02*
D03*
X309245Y-21625D02*
D03*
X250795Y182213D02*
D03*
X273714Y145536D02*
D03*
X291305Y106026D02*
D03*
X303226Y64453D02*
D03*
X309245Y21625D02*
D03*
D17*
X254912Y-92781D02*
D03*
X228305Y-121392D02*
D03*
X198915Y-144520D02*
D03*
X232604Y-16265D02*
D03*
X219935Y15379D02*
D03*
M02*
