M48
;Layer_Color=9474304
;FILE_FORMAT=4:4
METRIC,LZ
;TYPE=PLATED
T1F00S00C0.2000
T2F00S00C0.5000
T3F00S00C0.6000
T4F00S00C2.0000
T5F00S00C25.0000
%
T01
X00198915Y-0014452
X00228305Y-00121392
X00254912Y-00092781
X00232604Y-00016265
X00219935Y00015379
X0020052Y00042622
X00192637Y00070114
T02
X00250795Y-00182213
X00273714Y-00145536
X00291305Y-00106026
X00303226Y-00064453
X00309245Y-00021625
Y00021625
X00303226Y00064453
X00291305Y00106026
X00273714Y00145536
X00250795Y00182213
T03
X00141272Y00075115
X00129443Y00094046
T04
X0022981Y-0022981
X00105Y-00105
X-00105
X-0022981Y-0022981
Y0022981
X-00105Y00105
X00105
X0022981Y0022981
T05
X0Y0
M30
