ISO-10303-21;
HEADER;
FILE_DESCRIPTION(('Open CASCADE Model'),'2;1');
FILE_NAME('Open CASCADE Shape Model','2022-11-06T13:00:29',('Author'),(
    'Open CASCADE'),'Open CASCADE STEP processor 6.8','Open CASCADE 6.8'
  ,'Unknown');
FILE_SCHEMA(('AUTOMOTIVE_DESIGN { 1 0 10303 214 1 1 1 1 }'));
ENDSEC;
DATA;
#1 = APPLICATION_PROTOCOL_DEFINITION('international standard',
  'automotive_design',2000,#2);
#2 = APPLICATION_CONTEXT(
  'core data for automotive mechanical design processes');
#3 = SHAPE_DEFINITION_REPRESENTATION(#4,#10);
#4 = PRODUCT_DEFINITION_SHAPE('','',#5);
#5 = PRODUCT_DEFINITION('design','',#6,#9);
#6 = PRODUCT_DEFINITION_FORMATION('','',#7);
#7 = PRODUCT('PCB','PCB','',(#8));
#8 = PRODUCT_CONTEXT('',#2,'mechanical');
#9 = PRODUCT_DEFINITION_CONTEXT('part definition',#2,'design');
#10 = ADVANCED_BREP_SHAPE_REPRESENTATION('',(#11,#15),#263);
#11 = AXIS2_PLACEMENT_3D('',#12,#13,#14);
#12 = CARTESIAN_POINT('',(0.E+000,0.E+000,0.E+000));
#13 = DIRECTION('',(0.E+000,0.E+000,1.));
#14 = DIRECTION('',(1.,0.E+000,-0.E+000));
#15 = MANIFOLD_SOLID_BREP('',#16);
#16 = CLOSED_SHELL('',(#17,#50,#83,#116,#149,#182,#215,#239));
#17 = ADVANCED_FACE('',(#18),#45,.T.);
#18 = FACE_BOUND('',#19,.F.);
#19 = EDGE_LOOP('',(#20,#30,#37,#38));
#20 = ORIENTED_EDGE('',*,*,#21,.T.);
#21 = EDGE_CURVE('',#22,#24,#26,.T.);
#22 = VERTEX_POINT('',#23);
#23 = CARTESIAN_POINT('',(35.,0.E+000,-0.41148));
#24 = VERTEX_POINT('',#25);
#25 = CARTESIAN_POINT('',(35.,0.E+000,0.E+000));
#26 = LINE('',#27,#28);
#27 = CARTESIAN_POINT('',(35.,0.E+000,-0.41148));
#28 = VECTOR('',#29,1.);
#29 = DIRECTION('',(0.E+000,0.E+000,1.));
#30 = ORIENTED_EDGE('',*,*,#31,.T.);
#31 = EDGE_CURVE('',#24,#24,#32,.T.);
#32 = CIRCLE('',#33,35.);
#33 = AXIS2_PLACEMENT_3D('',#34,#35,#36);
#34 = CARTESIAN_POINT('',(0.E+000,0.E+000,0.E+000));
#35 = DIRECTION('',(0.E+000,0.E+000,1.));
#36 = DIRECTION('',(1.,0.E+000,-0.E+000));
#37 = ORIENTED_EDGE('',*,*,#21,.F.);
#38 = ORIENTED_EDGE('',*,*,#39,.F.);
#39 = EDGE_CURVE('',#22,#22,#40,.T.);
#40 = CIRCLE('',#41,35.);
#41 = AXIS2_PLACEMENT_3D('',#42,#43,#44);
#42 = CARTESIAN_POINT('',(0.E+000,0.E+000,-0.41148));
#43 = DIRECTION('',(0.E+000,0.E+000,1.));
#44 = DIRECTION('',(1.,0.E+000,-0.E+000));
#45 = CYLINDRICAL_SURFACE('',#46,35.);
#46 = AXIS2_PLACEMENT_3D('',#47,#48,#49);
#47 = CARTESIAN_POINT('',(0.E+000,0.E+000,-0.41148));
#48 = DIRECTION('',(-0.E+000,-0.E+000,-1.));
#49 = DIRECTION('',(1.,0.E+000,-0.E+000));
#50 = ADVANCED_FACE('',(#51),#78,.F.);
#51 = FACE_BOUND('',#52,.T.);
#52 = EDGE_LOOP('',(#53,#63,#70,#71));
#53 = ORIENTED_EDGE('',*,*,#54,.T.);
#54 = EDGE_CURVE('',#55,#57,#59,.T.);
#55 = VERTEX_POINT('',#56);
#56 = CARTESIAN_POINT('',(-6.7,-7.7,-0.41148));
#57 = VERTEX_POINT('',#58);
#58 = CARTESIAN_POINT('',(-6.7,-7.7,0.E+000));
#59 = LINE('',#60,#61);
#60 = CARTESIAN_POINT('',(-6.7,-7.7,-0.41148));
#61 = VECTOR('',#62,1.);
#62 = DIRECTION('',(0.E+000,0.E+000,1.));
#63 = ORIENTED_EDGE('',*,*,#64,.T.);
#64 = EDGE_CURVE('',#57,#57,#65,.T.);
#65 = CIRCLE('',#66,1.);
#66 = AXIS2_PLACEMENT_3D('',#67,#68,#69);
#67 = CARTESIAN_POINT('',(-7.7,-7.7,0.E+000));
#68 = DIRECTION('',(0.E+000,0.E+000,1.));
#69 = DIRECTION('',(1.,0.E+000,-0.E+000));
#70 = ORIENTED_EDGE('',*,*,#54,.F.);
#71 = ORIENTED_EDGE('',*,*,#72,.F.);
#72 = EDGE_CURVE('',#55,#55,#73,.T.);
#73 = CIRCLE('',#74,1.);
#74 = AXIS2_PLACEMENT_3D('',#75,#76,#77);
#75 = CARTESIAN_POINT('',(-7.7,-7.7,-0.41148));
#76 = DIRECTION('',(0.E+000,0.E+000,1.));
#77 = DIRECTION('',(1.,0.E+000,-0.E+000));
#78 = CYLINDRICAL_SURFACE('',#79,1.);
#79 = AXIS2_PLACEMENT_3D('',#80,#81,#82);
#80 = CARTESIAN_POINT('',(-7.7,-7.7,-0.41148));
#81 = DIRECTION('',(-0.E+000,-0.E+000,-1.));
#82 = DIRECTION('',(1.,0.E+000,-0.E+000));
#83 = ADVANCED_FACE('',(#84),#111,.F.);
#84 = FACE_BOUND('',#85,.T.);
#85 = EDGE_LOOP('',(#86,#96,#103,#104));
#86 = ORIENTED_EDGE('',*,*,#87,.T.);
#87 = EDGE_CURVE('',#88,#90,#92,.T.);
#88 = VERTEX_POINT('',#89);
#89 = CARTESIAN_POINT('',(-6.7,7.7,-0.41148));
#90 = VERTEX_POINT('',#91);
#91 = CARTESIAN_POINT('',(-6.7,7.7,0.E+000));
#92 = LINE('',#93,#94);
#93 = CARTESIAN_POINT('',(-6.7,7.7,-0.41148));
#94 = VECTOR('',#95,1.);
#95 = DIRECTION('',(0.E+000,0.E+000,1.));
#96 = ORIENTED_EDGE('',*,*,#97,.T.);
#97 = EDGE_CURVE('',#90,#90,#98,.T.);
#98 = CIRCLE('',#99,1.);
#99 = AXIS2_PLACEMENT_3D('',#100,#101,#102);
#100 = CARTESIAN_POINT('',(-7.7,7.7,0.E+000));
#101 = DIRECTION('',(0.E+000,0.E+000,1.));
#102 = DIRECTION('',(1.,0.E+000,-0.E+000));
#103 = ORIENTED_EDGE('',*,*,#87,.F.);
#104 = ORIENTED_EDGE('',*,*,#105,.F.);
#105 = EDGE_CURVE('',#88,#88,#106,.T.);
#106 = CIRCLE('',#107,1.);
#107 = AXIS2_PLACEMENT_3D('',#108,#109,#110);
#108 = CARTESIAN_POINT('',(-7.7,7.7,-0.41148));
#109 = DIRECTION('',(0.E+000,0.E+000,1.));
#110 = DIRECTION('',(1.,0.E+000,-0.E+000));
#111 = CYLINDRICAL_SURFACE('',#112,1.);
#112 = AXIS2_PLACEMENT_3D('',#113,#114,#115);
#113 = CARTESIAN_POINT('',(-7.7,7.7,-0.41148));
#114 = DIRECTION('',(-0.E+000,-0.E+000,-1.));
#115 = DIRECTION('',(1.,0.E+000,-0.E+000));
#116 = ADVANCED_FACE('',(#117),#144,.F.);
#117 = FACE_BOUND('',#118,.T.);
#118 = EDGE_LOOP('',(#119,#129,#136,#137));
#119 = ORIENTED_EDGE('',*,*,#120,.T.);
#120 = EDGE_CURVE('',#121,#123,#125,.T.);
#121 = VERTEX_POINT('',#122);
#122 = CARTESIAN_POINT('',(8.7,-7.7,-0.41148));
#123 = VERTEX_POINT('',#124);
#124 = CARTESIAN_POINT('',(8.7,-7.7,0.E+000));
#125 = LINE('',#126,#127);
#126 = CARTESIAN_POINT('',(8.7,-7.7,-0.41148));
#127 = VECTOR('',#128,1.);
#128 = DIRECTION('',(0.E+000,0.E+000,1.));
#129 = ORIENTED_EDGE('',*,*,#130,.T.);
#130 = EDGE_CURVE('',#123,#123,#131,.T.);
#131 = CIRCLE('',#132,1.);
#132 = AXIS2_PLACEMENT_3D('',#133,#134,#135);
#133 = CARTESIAN_POINT('',(7.7,-7.7,0.E+000));
#134 = DIRECTION('',(0.E+000,0.E+000,1.));
#135 = DIRECTION('',(1.,0.E+000,-0.E+000));
#136 = ORIENTED_EDGE('',*,*,#120,.F.);
#137 = ORIENTED_EDGE('',*,*,#138,.F.);
#138 = EDGE_CURVE('',#121,#121,#139,.T.);
#139 = CIRCLE('',#140,1.);
#140 = AXIS2_PLACEMENT_3D('',#141,#142,#143);
#141 = CARTESIAN_POINT('',(7.7,-7.7,-0.41148));
#142 = DIRECTION('',(0.E+000,0.E+000,1.));
#143 = DIRECTION('',(1.,0.E+000,-0.E+000));
#144 = CYLINDRICAL_SURFACE('',#145,1.);
#145 = AXIS2_PLACEMENT_3D('',#146,#147,#148);
#146 = CARTESIAN_POINT('',(7.7,-7.7,-0.41148));
#147 = DIRECTION('',(-0.E+000,-0.E+000,-1.));
#148 = DIRECTION('',(1.,0.E+000,-0.E+000));
#149 = ADVANCED_FACE('',(#150),#177,.F.);
#150 = FACE_BOUND('',#151,.T.);
#151 = EDGE_LOOP('',(#152,#162,#169,#170));
#152 = ORIENTED_EDGE('',*,*,#153,.T.);
#153 = EDGE_CURVE('',#154,#156,#158,.T.);
#154 = VERTEX_POINT('',#155);
#155 = CARTESIAN_POINT('',(8.,0.E+000,-0.41148));
#156 = VERTEX_POINT('',#157);
#157 = CARTESIAN_POINT('',(8.,0.E+000,0.E+000));
#158 = LINE('',#159,#160);
#159 = CARTESIAN_POINT('',(8.,0.E+000,-0.41148));
#160 = VECTOR('',#161,1.);
#161 = DIRECTION('',(0.E+000,0.E+000,1.));
#162 = ORIENTED_EDGE('',*,*,#163,.T.);
#163 = EDGE_CURVE('',#156,#156,#164,.T.);
#164 = CIRCLE('',#165,8.);
#165 = AXIS2_PLACEMENT_3D('',#166,#167,#168);
#166 = CARTESIAN_POINT('',(0.E+000,0.E+000,0.E+000));
#167 = DIRECTION('',(0.E+000,0.E+000,1.));
#168 = DIRECTION('',(1.,0.E+000,-0.E+000));
#169 = ORIENTED_EDGE('',*,*,#153,.F.);
#170 = ORIENTED_EDGE('',*,*,#171,.F.);
#171 = EDGE_CURVE('',#154,#154,#172,.T.);
#172 = CIRCLE('',#173,8.);
#173 = AXIS2_PLACEMENT_3D('',#174,#175,#176);
#174 = CARTESIAN_POINT('',(0.E+000,0.E+000,-0.41148));
#175 = DIRECTION('',(0.E+000,0.E+000,1.));
#176 = DIRECTION('',(1.,0.E+000,-0.E+000));
#177 = CYLINDRICAL_SURFACE('',#178,8.);
#178 = AXIS2_PLACEMENT_3D('',#179,#180,#181);
#179 = CARTESIAN_POINT('',(0.E+000,0.E+000,-0.41148));
#180 = DIRECTION('',(-0.E+000,-0.E+000,-1.));
#181 = DIRECTION('',(1.,0.E+000,-0.E+000));
#182 = ADVANCED_FACE('',(#183),#210,.F.);
#183 = FACE_BOUND('',#184,.T.);
#184 = EDGE_LOOP('',(#185,#195,#202,#203));
#185 = ORIENTED_EDGE('',*,*,#186,.T.);
#186 = EDGE_CURVE('',#187,#189,#191,.T.);
#187 = VERTEX_POINT('',#188);
#188 = CARTESIAN_POINT('',(8.7,7.7,-0.41148));
#189 = VERTEX_POINT('',#190);
#190 = CARTESIAN_POINT('',(8.7,7.7,0.E+000));
#191 = LINE('',#192,#193);
#192 = CARTESIAN_POINT('',(8.7,7.7,-0.41148));
#193 = VECTOR('',#194,1.);
#194 = DIRECTION('',(0.E+000,0.E+000,1.));
#195 = ORIENTED_EDGE('',*,*,#196,.T.);
#196 = EDGE_CURVE('',#189,#189,#197,.T.);
#197 = CIRCLE('',#198,1.);
#198 = AXIS2_PLACEMENT_3D('',#199,#200,#201);
#199 = CARTESIAN_POINT('',(7.7,7.7,0.E+000));
#200 = DIRECTION('',(0.E+000,0.E+000,1.));
#201 = DIRECTION('',(1.,0.E+000,-0.E+000));
#202 = ORIENTED_EDGE('',*,*,#186,.F.);
#203 = ORIENTED_EDGE('',*,*,#204,.F.);
#204 = EDGE_CURVE('',#187,#187,#205,.T.);
#205 = CIRCLE('',#206,1.);
#206 = AXIS2_PLACEMENT_3D('',#207,#208,#209);
#207 = CARTESIAN_POINT('',(7.7,7.7,-0.41148));
#208 = DIRECTION('',(0.E+000,0.E+000,1.));
#209 = DIRECTION('',(1.,0.E+000,-0.E+000));
#210 = CYLINDRICAL_SURFACE('',#211,1.);
#211 = AXIS2_PLACEMENT_3D('',#212,#213,#214);
#212 = CARTESIAN_POINT('',(7.7,7.7,-0.41148));
#213 = DIRECTION('',(-0.E+000,-0.E+000,-1.));
#214 = DIRECTION('',(1.,0.E+000,-0.E+000));
#215 = ADVANCED_FACE('',(#216,#219,#222,#225,#228,#231),#234,.T.);
#216 = FACE_BOUND('',#217,.F.);
#217 = EDGE_LOOP('',(#218));
#218 = ORIENTED_EDGE('',*,*,#39,.T.);
#219 = FACE_BOUND('',#220,.T.);
#220 = EDGE_LOOP('',(#221));
#221 = ORIENTED_EDGE('',*,*,#72,.T.);
#222 = FACE_BOUND('',#223,.T.);
#223 = EDGE_LOOP('',(#224));
#224 = ORIENTED_EDGE('',*,*,#105,.T.);
#225 = FACE_BOUND('',#226,.T.);
#226 = EDGE_LOOP('',(#227));
#227 = ORIENTED_EDGE('',*,*,#138,.T.);
#228 = FACE_BOUND('',#229,.T.);
#229 = EDGE_LOOP('',(#230));
#230 = ORIENTED_EDGE('',*,*,#171,.T.);
#231 = FACE_BOUND('',#232,.T.);
#232 = EDGE_LOOP('',(#233));
#233 = ORIENTED_EDGE('',*,*,#204,.T.);
#234 = PLANE('',#235);
#235 = AXIS2_PLACEMENT_3D('',#236,#237,#238);
#236 = CARTESIAN_POINT('',(35.,0.E+000,-0.41148));
#237 = DIRECTION('',(-0.E+000,0.E+000,-1.));
#238 = DIRECTION('',(-1.,0.E+000,0.E+000));
#239 = ADVANCED_FACE('',(#240,#243,#246,#249,#252,#255),#258,.F.);
#240 = FACE_BOUND('',#241,.T.);
#241 = EDGE_LOOP('',(#242));
#242 = ORIENTED_EDGE('',*,*,#31,.T.);
#243 = FACE_BOUND('',#244,.F.);
#244 = EDGE_LOOP('',(#245));
#245 = ORIENTED_EDGE('',*,*,#64,.T.);
#246 = FACE_BOUND('',#247,.F.);
#247 = EDGE_LOOP('',(#248));
#248 = ORIENTED_EDGE('',*,*,#97,.T.);
#249 = FACE_BOUND('',#250,.F.);
#250 = EDGE_LOOP('',(#251));
#251 = ORIENTED_EDGE('',*,*,#130,.T.);
#252 = FACE_BOUND('',#253,.F.);
#253 = EDGE_LOOP('',(#254));
#254 = ORIENTED_EDGE('',*,*,#163,.T.);
#255 = FACE_BOUND('',#256,.F.);
#256 = EDGE_LOOP('',(#257));
#257 = ORIENTED_EDGE('',*,*,#196,.T.);
#258 = PLANE('',#259);
#259 = AXIS2_PLACEMENT_3D('',#260,#261,#262);
#260 = CARTESIAN_POINT('',(35.,0.E+000,0.E+000));
#261 = DIRECTION('',(-0.E+000,0.E+000,-1.));
#262 = DIRECTION('',(-1.,0.E+000,0.E+000));
#263 = ( GEOMETRIC_REPRESENTATION_CONTEXT(3) 
GLOBAL_UNCERTAINTY_ASSIGNED_CONTEXT((#267)) GLOBAL_UNIT_ASSIGNED_CONTEXT
((#264,#265,#266)) REPRESENTATION_CONTEXT('Context #1',
  '3D Context with UNIT and UNCERTAINTY') );
#264 = ( LENGTH_UNIT() NAMED_UNIT(*) SI_UNIT(.MILLI.,.METRE.) );
#265 = ( NAMED_UNIT(*) PLANE_ANGLE_UNIT() SI_UNIT($,.RADIAN.) );
#266 = ( NAMED_UNIT(*) SI_UNIT($,.STERADIAN.) SOLID_ANGLE_UNIT() );
#267 = UNCERTAINTY_MEASURE_WITH_UNIT(LENGTH_MEASURE(1.E-007),#264,
  'distance_accuracy_value','confusion accuracy');
#268 = PRODUCT_RELATED_PRODUCT_CATEGORY('part',$,(#7));
#269 = MECHANICAL_DESIGN_GEOMETRIC_PRESENTATION_REPRESENTATION('',(#270)
  ,#263);
#270 = STYLED_ITEM('color',(#271),#15);
#271 = PRESENTATION_STYLE_ASSIGNMENT((#272));
#272 = SURFACE_STYLE_USAGE(.BOTH.,#273);
#273 = SURFACE_SIDE_STYLE('',(#274));
#274 = SURFACE_STYLE_FILL_AREA(#275);
#275 = FILL_AREA_STYLE('',(#276));
#276 = FILL_AREA_STYLE_COLOUR('',#277);
#277 = COLOUR_RGB('',0.141176477075,0.470588237047,0.196078434587);
ENDSEC;
END-ISO-10303-21;
