ISO-10303-21;
HEADER;
FILE_DESCRIPTION((''),'2;1');
FILE_NAME('KEEPOUT_BOTTOM','2022-09-16T16:39:50',('domen'),(''),
'CREO PARAMETRIC BY PTC INC, 2021404','CREO PARAMETRIC BY PTC INC, 2021404','');
FILE_SCHEMA(('CONFIG_CONTROL_DESIGN'));
ENDSEC;
DATA;
#1=DIRECTION('',(0.E0,0.E0,1.E0));
#2=VECTOR('',#1,5.932759137776E0);
#3=CARTESIAN_POINT('',(2.414213562373E1,0.E0,-1.593275913778E1));
#4=LINE('',#3,#2);
#5=DIRECTION('',(0.E0,0.E0,1.E0));
#6=VECTOR('',#5,2.E1);
#7=CARTESIAN_POINT('',(2.414213562373E1,0.E0,-1.E1));
#8=LINE('',#7,#6);
#9=DIRECTION('',(0.E0,0.E0,1.E0));
#10=VECTOR('',#9,5.932759137776E0);
#11=CARTESIAN_POINT('',(2.414213562373E1,0.E0,1.E1));
#12=LINE('',#11,#10);
#13=CARTESIAN_POINT('',(0.E0,0.E0,0.E0));
#14=DIRECTION('',(0.E0,-1.E0,0.E0));
#15=DIRECTION('',(8.346261005732E-1,0.E0,5.508169135403E-1));
#16=AXIS2_PLACEMENT_3D('',#13,#14,#15);
#18=DIRECTION('',(0.E0,0.E0,-1.E0));
#19=VECTOR('',#18,5.932759137776E0);
#20=CARTESIAN_POINT('',(-2.414213562373E1,0.E0,1.593275913778E1));
#21=LINE('',#20,#19);
#22=DIRECTION('',(0.E0,0.E0,-1.E0));
#23=VECTOR('',#22,2.E1);
#24=CARTESIAN_POINT('',(-2.414213562373E1,0.E0,1.E1));
#25=LINE('',#24,#23);
#26=DIRECTION('',(0.E0,0.E0,-1.E0));
#27=VECTOR('',#26,5.932759137776E0);
#28=CARTESIAN_POINT('',(-2.414213562373E1,0.E0,-1.E1));
#29=LINE('',#28,#27);
#30=CARTESIAN_POINT('',(0.E0,0.E0,0.E0));
#31=DIRECTION('',(0.E0,-1.E0,0.E0));
#32=DIRECTION('',(-8.346261005732E-1,0.E0,-5.508169135403E-1));
#33=AXIS2_PLACEMENT_3D('',#30,#31,#32);
#35=CARTESIAN_POINT('',(0.E0,0.E0,0.E0));
#36=DIRECTION('',(0.E0,1.E0,0.E0));
#37=DIRECTION('',(9.563938861888E-1,0.E0,-2.920800137988E-1));
#38=AXIS2_PLACEMENT_3D('',#35,#36,#37);
#40=CARTESIAN_POINT('',(0.E0,0.E0,0.E0));
#41=DIRECTION('',(0.E0,1.E0,0.E0));
#42=DIRECTION('',(-9.563938861888E-1,0.E0,-2.920800137988E-1));
#43=AXIS2_PLACEMENT_3D('',#40,#41,#42);
#45=CARTESIAN_POINT('',(0.E0,0.E0,0.E0));
#46=DIRECTION('',(0.E0,1.E0,0.E0));
#47=DIRECTION('',(-9.999265146408E-1,0.E0,-1.212292531739E-2));
#48=AXIS2_PLACEMENT_3D('',#45,#46,#47);
#50=CARTESIAN_POINT('',(0.E0,0.E0,0.E0));
#51=DIRECTION('',(0.E0,1.E0,0.E0));
#52=DIRECTION('',(-9.602191886459E-1,0.E0,2.792473988350E-1));
#53=AXIS2_PLACEMENT_3D('',#50,#51,#52);
#55=CARTESIAN_POINT('',(0.E0,0.E0,0.E0));
#56=DIRECTION('',(0.E0,1.E0,0.E0));
#57=DIRECTION('',(9.602191886459E-1,0.E0,2.792473988350E-1));
#58=AXIS2_PLACEMENT_3D('',#55,#56,#57);
#60=CARTESIAN_POINT('',(0.E0,0.E0,0.E0));
#61=DIRECTION('',(0.E0,1.E0,0.E0));
#62=DIRECTION('',(9.999982928128E-1,0.E0,-1.847801807027E-3));
#63=AXIS2_PLACEMENT_3D('',#60,#61,#62);
#65=DIRECTION('',(0.E0,1.E0,0.E0));
#66=VECTOR('',#65,1.E0);
#67=CARTESIAN_POINT('',(2.414213562373E1,0.E0,-1.593275913778E1));
#68=LINE('',#67,#66);
#69=DIRECTION('',(0.E0,1.E0,0.E0));
#70=VECTOR('',#69,1.E0);
#71=CARTESIAN_POINT('',(-2.414213562373E1,0.E0,-1.593275913778E1));
#72=LINE('',#71,#70);
#73=DIRECTION('',(0.E0,1.E0,0.E0));
#74=VECTOR('',#73,1.E0);
#75=CARTESIAN_POINT('',(-2.414213562373E1,0.E0,-1.E1));
#76=LINE('',#75,#74);
#77=DIRECTION('',(0.E0,1.E0,0.E0));
#78=VECTOR('',#77,1.E0);
#79=CARTESIAN_POINT('',(-2.414213562373E1,0.E0,1.E1));
#80=LINE('',#79,#78);
#81=DIRECTION('',(0.E0,1.E0,0.E0));
#82=VECTOR('',#81,1.E0);
#83=CARTESIAN_POINT('',(-2.414213562373E1,0.E0,1.593275913778E1));
#84=LINE('',#83,#82);
#85=DIRECTION('',(0.E0,1.E0,0.E0));
#86=VECTOR('',#85,1.E0);
#87=CARTESIAN_POINT('',(2.414213562373E1,0.E0,1.593275913778E1));
#88=LINE('',#87,#86);
#89=DIRECTION('',(0.E0,1.E0,0.E0));
#90=VECTOR('',#89,1.E0);
#91=CARTESIAN_POINT('',(2.414213562373E1,0.E0,1.E1));
#92=LINE('',#91,#90);
#93=DIRECTION('',(0.E0,1.E0,0.E0));
#94=VECTOR('',#93,1.E0);
#95=CARTESIAN_POINT('',(2.414213562373E1,0.E0,-1.E1));
#96=LINE('',#95,#94);
#97=DIRECTION('',(0.E0,0.E0,1.E0));
#98=VECTOR('',#97,5.932759137776E0);
#99=CARTESIAN_POINT('',(2.414213562373E1,1.E0,-1.593275913778E1));
#100=LINE('',#99,#98);
#101=CARTESIAN_POINT('',(0.E0,1.E0,0.E0));
#102=DIRECTION('',(0.E0,-1.E0,0.E0));
#103=DIRECTION('',(-8.346261005732E-1,0.E0,-5.508169135403E-1));
#104=AXIS2_PLACEMENT_3D('',#101,#102,#103);
#106=DIRECTION('',(0.E0,0.E0,-1.E0));
#107=VECTOR('',#106,5.932759137776E0);
#108=CARTESIAN_POINT('',(-2.414213562373E1,1.E0,-1.E1));
#109=LINE('',#108,#107);
#110=DIRECTION('',(0.E0,0.E0,-1.E0));
#111=VECTOR('',#110,2.E1);
#112=CARTESIAN_POINT('',(-2.414213562373E1,1.E0,1.E1));
#113=LINE('',#112,#111);
#114=DIRECTION('',(0.E0,0.E0,-1.E0));
#115=VECTOR('',#114,5.932759137776E0);
#116=CARTESIAN_POINT('',(-2.414213562373E1,1.E0,1.593275913778E1));
#117=LINE('',#116,#115);
#118=CARTESIAN_POINT('',(0.E0,1.E0,0.E0));
#119=DIRECTION('',(0.E0,-1.E0,0.E0));
#120=DIRECTION('',(8.346261005732E-1,0.E0,5.508169135403E-1));
#121=AXIS2_PLACEMENT_3D('',#118,#119,#120);
#123=DIRECTION('',(0.E0,0.E0,1.E0));
#124=VECTOR('',#123,5.932759137776E0);
#125=CARTESIAN_POINT('',(2.414213562373E1,1.E0,1.E1));
#126=LINE('',#125,#124);
#127=DIRECTION('',(0.E0,0.E0,1.E0));
#128=VECTOR('',#127,2.E1);
#129=CARTESIAN_POINT('',(2.414213562373E1,1.E0,-1.E1));
#130=LINE('',#129,#128);
#131=CARTESIAN_POINT('',(0.E0,1.E0,0.E0));
#132=DIRECTION('',(0.E0,1.E0,0.E0));
#133=DIRECTION('',(9.563938861888E-1,0.E0,-2.920800137988E-1));
#134=AXIS2_PLACEMENT_3D('',#131,#132,#133);
#136=CARTESIAN_POINT('',(0.E0,1.E0,0.E0));
#137=DIRECTION('',(0.E0,1.E0,0.E0));
#138=DIRECTION('',(9.999982928128E-1,0.E0,-1.847801807027E-3));
#139=AXIS2_PLACEMENT_3D('',#136,#137,#138);
#141=CARTESIAN_POINT('',(0.E0,1.E0,0.E0));
#142=DIRECTION('',(0.E0,1.E0,0.E0));
#143=DIRECTION('',(9.602191886459E-1,0.E0,2.792473988350E-1));
#144=AXIS2_PLACEMENT_3D('',#141,#142,#143);
#146=CARTESIAN_POINT('',(0.E0,1.E0,0.E0));
#147=DIRECTION('',(0.E0,1.E0,0.E0));
#148=DIRECTION('',(-9.602191886459E-1,0.E0,2.792473988350E-1));
#149=AXIS2_PLACEMENT_3D('',#146,#147,#148);
#151=CARTESIAN_POINT('',(0.E0,1.E0,0.E0));
#152=DIRECTION('',(0.E0,1.E0,0.E0));
#153=DIRECTION('',(-9.999265146408E-1,0.E0,-1.212292531739E-2));
#154=AXIS2_PLACEMENT_3D('',#151,#152,#153);
#156=CARTESIAN_POINT('',(0.E0,1.E0,0.E0));
#157=DIRECTION('',(0.E0,1.E0,0.E0));
#158=DIRECTION('',(-9.563938861888E-1,0.E0,-2.920800137988E-1));
#159=AXIS2_PLACEMENT_3D('',#156,#157,#158);
#161=DIRECTION('',(0.E0,1.E0,0.E0));
#162=VECTOR('',#161,1.E0);
#163=CARTESIAN_POINT('',(3.347378601661E1,0.E0,-1.022280048296E1));
#164=LINE('',#163,#162);
#165=DIRECTION('',(0.E0,1.E0,0.E0));
#166=VECTOR('',#165,1.E0);
#167=CARTESIAN_POINT('',(3.499994024845E1,0.E0,-6.467306324593E-2));
#168=LINE('',#167,#166);
#169=DIRECTION('',(0.E0,1.E0,0.E0));
#170=VECTOR('',#169,1.E0);
#171=CARTESIAN_POINT('',(3.360767160261E1,0.E0,9.773658959227E0));
#172=LINE('',#171,#170);
#173=DIRECTION('',(0.E0,1.E0,0.E0));
#174=VECTOR('',#173,1.E0);
#175=CARTESIAN_POINT('',(-3.360767160261E1,0.E0,9.773658959227E0));
#176=LINE('',#175,#174);
#177=DIRECTION('',(0.E0,1.E0,0.E0));
#178=VECTOR('',#177,1.E0);
#179=CARTESIAN_POINT('',(-3.499742801243E1,0.E0,-4.243023861087E-1));
#180=LINE('',#179,#178);
#181=DIRECTION('',(0.E0,1.E0,0.E0));
#182=VECTOR('',#181,1.E0);
#183=CARTESIAN_POINT('',(-3.347378601661E1,0.E0,-1.022280048296E1));
#184=LINE('',#183,#182);
#185=CARTESIAN_POINT('',(2.414213562373E1,0.E0,-1.593275913778E1));
#186=CARTESIAN_POINT('',(2.414213562373E1,0.E0,-1.E1));
#187=VERTEX_POINT('',#185);
#188=VERTEX_POINT('',#186);
#189=CARTESIAN_POINT('',(2.414213562373E1,0.E0,1.E1));
#190=VERTEX_POINT('',#189);
#191=CARTESIAN_POINT('',(2.414213562373E1,0.E0,1.593275913778E1));
#192=VERTEX_POINT('',#191);
#193=CARTESIAN_POINT('',(-2.414213562373E1,0.E0,1.593275913778E1));
#194=VERTEX_POINT('',#193);
#195=CARTESIAN_POINT('',(-2.414213562373E1,0.E0,1.E1));
#196=VERTEX_POINT('',#195);
#197=CARTESIAN_POINT('',(-2.414213562373E1,0.E0,-1.E1));
#198=VERTEX_POINT('',#197);
#199=CARTESIAN_POINT('',(-2.414213562373E1,0.E0,-1.593275913778E1));
#200=VERTEX_POINT('',#199);
#201=CARTESIAN_POINT('',(3.347378601661E1,0.E0,-1.022280048296E1));
#202=CARTESIAN_POINT('',(-3.347378601661E1,0.E0,-1.022280048296E1));
#203=VERTEX_POINT('',#201);
#204=VERTEX_POINT('',#202);
#205=CARTESIAN_POINT('',(-3.499742801243E1,0.E0,-4.243023861087E-1));
#206=VERTEX_POINT('',#205);
#207=CARTESIAN_POINT('',(-3.360767160261E1,0.E0,9.773658959227E0));
#208=VERTEX_POINT('',#207);
#209=CARTESIAN_POINT('',(3.360767160261E1,0.E0,9.773658959227E0));
#210=VERTEX_POINT('',#209);
#211=CARTESIAN_POINT('',(3.499994024845E1,0.E0,-6.467306324594E-2));
#212=VERTEX_POINT('',#211);
#213=CARTESIAN_POINT('',(2.414213562373E1,1.E0,-1.593275913778E1));
#214=CARTESIAN_POINT('',(2.414213562373E1,1.E0,-1.E1));
#215=VERTEX_POINT('',#213);
#216=VERTEX_POINT('',#214);
#217=CARTESIAN_POINT('',(2.414213562373E1,1.E0,1.E1));
#218=VERTEX_POINT('',#217);
#219=CARTESIAN_POINT('',(2.414213562373E1,1.E0,1.593275913778E1));
#220=VERTEX_POINT('',#219);
#221=CARTESIAN_POINT('',(-2.414213562373E1,1.E0,1.593275913778E1));
#222=VERTEX_POINT('',#221);
#223=CARTESIAN_POINT('',(-2.414213562373E1,1.E0,1.E1));
#224=VERTEX_POINT('',#223);
#225=CARTESIAN_POINT('',(-2.414213562373E1,1.E0,-1.E1));
#226=VERTEX_POINT('',#225);
#227=CARTESIAN_POINT('',(-2.414213562373E1,1.E0,-1.593275913778E1));
#228=VERTEX_POINT('',#227);
#229=CARTESIAN_POINT('',(3.347378601661E1,1.E0,-1.022280048296E1));
#230=CARTESIAN_POINT('',(-3.347378601661E1,1.E0,-1.022280048296E1));
#231=VERTEX_POINT('',#229);
#232=VERTEX_POINT('',#230);
#233=CARTESIAN_POINT('',(-3.499742801243E1,1.E0,-4.243023861087E-1));
#234=VERTEX_POINT('',#233);
#235=CARTESIAN_POINT('',(-3.360767160261E1,1.E0,9.773658959227E0));
#236=VERTEX_POINT('',#235);
#237=CARTESIAN_POINT('',(3.360767160261E1,1.E0,9.773658959227E0));
#238=VERTEX_POINT('',#237);
#239=CARTESIAN_POINT('',(3.499994024845E1,1.E0,-6.467306324594E-2));
#240=VERTEX_POINT('',#239);
#241=CARTESIAN_POINT('',(0.E0,0.E0,0.E0));
#242=DIRECTION('',(0.E0,1.E0,0.E0));
#243=DIRECTION('',(1.E0,0.E0,0.E0));
#244=AXIS2_PLACEMENT_3D('',#241,#242,#243);
#245=PLANE('',#244);
#247=ORIENTED_EDGE('',*,*,#246,.T.);
#249=ORIENTED_EDGE('',*,*,#248,.T.);
#251=ORIENTED_EDGE('',*,*,#250,.T.);
#253=ORIENTED_EDGE('',*,*,#252,.T.);
#255=ORIENTED_EDGE('',*,*,#254,.T.);
#257=ORIENTED_EDGE('',*,*,#256,.T.);
#258=EDGE_LOOP('',(#247,#249,#251,#253,#255,#257));
#259=FACE_OUTER_BOUND('',#258,.F.);
#261=ORIENTED_EDGE('',*,*,#260,.T.);
#263=ORIENTED_EDGE('',*,*,#262,.T.);
#265=ORIENTED_EDGE('',*,*,#264,.T.);
#267=ORIENTED_EDGE('',*,*,#266,.T.);
#269=ORIENTED_EDGE('',*,*,#268,.T.);
#271=ORIENTED_EDGE('',*,*,#270,.T.);
#273=ORIENTED_EDGE('',*,*,#272,.T.);
#275=ORIENTED_EDGE('',*,*,#274,.T.);
#276=EDGE_LOOP('',(#261,#263,#265,#267,#269,#271,#273,#275));
#277=FACE_BOUND('',#276,.F.);
#278=ADVANCED_FACE('',(#259,#277),#245,.F.);
#279=CARTESIAN_POINT('',(2.414213562373E1,0.E0,-1.593275913778E1));
#280=DIRECTION('',(-1.E0,0.E0,0.E0));
#281=DIRECTION('',(0.E0,0.E0,1.E0));
#282=AXIS2_PLACEMENT_3D('',#279,#280,#281);
#283=PLANE('',#282);
#284=ORIENTED_EDGE('',*,*,#260,.F.);
#286=ORIENTED_EDGE('',*,*,#285,.T.);
#288=ORIENTED_EDGE('',*,*,#287,.T.);
#290=ORIENTED_EDGE('',*,*,#289,.F.);
#291=EDGE_LOOP('',(#284,#286,#288,#290));
#292=FACE_OUTER_BOUND('',#291,.F.);
#293=ADVANCED_FACE('',(#292),#283,.T.);
#294=CARTESIAN_POINT('',(0.E0,0.E0,0.E0));
#295=DIRECTION('',(0.E0,1.E0,0.E0));
#296=DIRECTION('',(1.E0,0.E0,0.E0));
#297=AXIS2_PLACEMENT_3D('',#294,#295,#296);
#298=CYLINDRICAL_SURFACE('',#297,2.892568972759E1);
#299=ORIENTED_EDGE('',*,*,#274,.F.);
#301=ORIENTED_EDGE('',*,*,#300,.T.);
#303=ORIENTED_EDGE('',*,*,#302,.T.);
#304=ORIENTED_EDGE('',*,*,#285,.F.);
#305=EDGE_LOOP('',(#299,#301,#303,#304));
#306=FACE_OUTER_BOUND('',#305,.F.);
#307=ADVANCED_FACE('',(#306),#298,.F.);
#308=CARTESIAN_POINT('',(-2.414213562373E1,0.E0,-1.E1));
#309=DIRECTION('',(1.E0,0.E0,0.E0));
#310=DIRECTION('',(0.E0,0.E0,-1.E0));
#311=AXIS2_PLACEMENT_3D('',#308,#309,#310);
#312=PLANE('',#311);
#313=ORIENTED_EDGE('',*,*,#272,.F.);
#315=ORIENTED_EDGE('',*,*,#314,.T.);
#317=ORIENTED_EDGE('',*,*,#316,.T.);
#318=ORIENTED_EDGE('',*,*,#300,.F.);
#319=EDGE_LOOP('',(#313,#315,#317,#318));
#320=FACE_OUTER_BOUND('',#319,.F.);
#321=ADVANCED_FACE('',(#320),#312,.T.);
#322=CARTESIAN_POINT('',(-2.414213562373E1,0.E0,1.E1));
#323=DIRECTION('',(1.E0,0.E0,0.E0));
#324=DIRECTION('',(0.E0,0.E0,-1.E0));
#325=AXIS2_PLACEMENT_3D('',#322,#323,#324);
#326=PLANE('',#325);
#327=ORIENTED_EDGE('',*,*,#270,.F.);
#329=ORIENTED_EDGE('',*,*,#328,.T.);
#331=ORIENTED_EDGE('',*,*,#330,.T.);
#332=ORIENTED_EDGE('',*,*,#314,.F.);
#333=EDGE_LOOP('',(#327,#329,#331,#332));
#334=FACE_OUTER_BOUND('',#333,.F.);
#335=ADVANCED_FACE('',(#334),#326,.T.);
#336=CARTESIAN_POINT('',(-2.414213562373E1,0.E0,1.593275913778E1));
#337=DIRECTION('',(1.E0,0.E0,0.E0));
#338=DIRECTION('',(0.E0,0.E0,-1.E0));
#339=AXIS2_PLACEMENT_3D('',#336,#337,#338);
#340=PLANE('',#339);
#341=ORIENTED_EDGE('',*,*,#268,.F.);
#343=ORIENTED_EDGE('',*,*,#342,.T.);
#345=ORIENTED_EDGE('',*,*,#344,.T.);
#346=ORIENTED_EDGE('',*,*,#328,.F.);
#347=EDGE_LOOP('',(#341,#343,#345,#346));
#348=FACE_OUTER_BOUND('',#347,.F.);
#349=ADVANCED_FACE('',(#348),#340,.T.);
#350=CARTESIAN_POINT('',(0.E0,0.E0,0.E0));
#351=DIRECTION('',(0.E0,1.E0,0.E0));
#352=DIRECTION('',(1.E0,0.E0,0.E0));
#353=AXIS2_PLACEMENT_3D('',#350,#351,#352);
#354=CYLINDRICAL_SURFACE('',#353,2.892568972759E1);
#355=ORIENTED_EDGE('',*,*,#266,.F.);
#357=ORIENTED_EDGE('',*,*,#356,.T.);
#359=ORIENTED_EDGE('',*,*,#358,.T.);
#360=ORIENTED_EDGE('',*,*,#342,.F.);
#361=EDGE_LOOP('',(#355,#357,#359,#360));
#362=FACE_OUTER_BOUND('',#361,.F.);
#363=ADVANCED_FACE('',(#362),#354,.F.);
#364=CARTESIAN_POINT('',(2.414213562373E1,0.E0,1.E1));
#365=DIRECTION('',(-1.E0,0.E0,0.E0));
#366=DIRECTION('',(0.E0,0.E0,1.E0));
#367=AXIS2_PLACEMENT_3D('',#364,#365,#366);
#368=PLANE('',#367);
#369=ORIENTED_EDGE('',*,*,#264,.F.);
#371=ORIENTED_EDGE('',*,*,#370,.T.);
#373=ORIENTED_EDGE('',*,*,#372,.T.);
#374=ORIENTED_EDGE('',*,*,#356,.F.);
#375=EDGE_LOOP('',(#369,#371,#373,#374));
#376=FACE_OUTER_BOUND('',#375,.F.);
#377=ADVANCED_FACE('',(#376),#368,.T.);
#378=CARTESIAN_POINT('',(2.414213562373E1,0.E0,-1.E1));
#379=DIRECTION('',(-1.E0,0.E0,0.E0));
#380=DIRECTION('',(0.E0,0.E0,1.E0));
#381=AXIS2_PLACEMENT_3D('',#378,#379,#380);
#382=PLANE('',#381);
#383=ORIENTED_EDGE('',*,*,#262,.F.);
#384=ORIENTED_EDGE('',*,*,#289,.T.);
#386=ORIENTED_EDGE('',*,*,#385,.T.);
#387=ORIENTED_EDGE('',*,*,#370,.F.);
#388=EDGE_LOOP('',(#383,#384,#386,#387));
#389=FACE_OUTER_BOUND('',#388,.F.);
#390=ADVANCED_FACE('',(#389),#382,.T.);
#391=CARTESIAN_POINT('',(0.E0,1.E0,0.E0));
#392=DIRECTION('',(0.E0,1.E0,0.E0));
#393=DIRECTION('',(1.E0,0.E0,0.E0));
#394=AXIS2_PLACEMENT_3D('',#391,#392,#393);
#395=PLANE('',#394);
#397=ORIENTED_EDGE('',*,*,#396,.F.);
#399=ORIENTED_EDGE('',*,*,#398,.F.);
#401=ORIENTED_EDGE('',*,*,#400,.F.);
#403=ORIENTED_EDGE('',*,*,#402,.F.);
#405=ORIENTED_EDGE('',*,*,#404,.F.);
#407=ORIENTED_EDGE('',*,*,#406,.F.);
#408=EDGE_LOOP('',(#397,#399,#401,#403,#405,#407));
#409=FACE_OUTER_BOUND('',#408,.F.);
#410=ORIENTED_EDGE('',*,*,#287,.F.);
#411=ORIENTED_EDGE('',*,*,#302,.F.);
#412=ORIENTED_EDGE('',*,*,#316,.F.);
#413=ORIENTED_EDGE('',*,*,#330,.F.);
#414=ORIENTED_EDGE('',*,*,#344,.F.);
#415=ORIENTED_EDGE('',*,*,#358,.F.);
#416=ORIENTED_EDGE('',*,*,#372,.F.);
#417=ORIENTED_EDGE('',*,*,#385,.F.);
#418=EDGE_LOOP('',(#410,#411,#412,#413,#414,#415,#416,#417));
#419=FACE_BOUND('',#418,.F.);
#420=ADVANCED_FACE('',(#409,#419),#395,.T.);
#421=CARTESIAN_POINT('',(0.E0,0.E0,0.E0));
#422=DIRECTION('',(0.E0,1.E0,0.E0));
#423=DIRECTION('',(1.E0,0.E0,0.E0));
#424=AXIS2_PLACEMENT_3D('',#421,#422,#423);
#425=CYLINDRICAL_SURFACE('',#424,3.5E1);
#426=ORIENTED_EDGE('',*,*,#246,.F.);
#428=ORIENTED_EDGE('',*,*,#427,.T.);
#429=ORIENTED_EDGE('',*,*,#396,.T.);
#431=ORIENTED_EDGE('',*,*,#430,.F.);
#432=EDGE_LOOP('',(#426,#428,#429,#431));
#433=FACE_OUTER_BOUND('',#432,.F.);
#434=ADVANCED_FACE('',(#433),#425,.T.);
#435=CARTESIAN_POINT('',(0.E0,0.E0,0.E0));
#436=DIRECTION('',(0.E0,1.E0,0.E0));
#437=DIRECTION('',(1.E0,0.E0,0.E0));
#438=AXIS2_PLACEMENT_3D('',#435,#436,#437);
#439=CYLINDRICAL_SURFACE('',#438,3.5E1);
#440=ORIENTED_EDGE('',*,*,#256,.F.);
#442=ORIENTED_EDGE('',*,*,#441,.T.);
#443=ORIENTED_EDGE('',*,*,#398,.T.);
#444=ORIENTED_EDGE('',*,*,#427,.F.);
#445=EDGE_LOOP('',(#440,#442,#443,#444));
#446=FACE_OUTER_BOUND('',#445,.F.);
#447=ADVANCED_FACE('',(#446),#439,.T.);
#448=CARTESIAN_POINT('',(0.E0,0.E0,0.E0));
#449=DIRECTION('',(0.E0,1.E0,0.E0));
#450=DIRECTION('',(1.E0,0.E0,0.E0));
#451=AXIS2_PLACEMENT_3D('',#448,#449,#450);
#452=CYLINDRICAL_SURFACE('',#451,3.5E1);
#453=ORIENTED_EDGE('',*,*,#254,.F.);
#455=ORIENTED_EDGE('',*,*,#454,.T.);
#456=ORIENTED_EDGE('',*,*,#400,.T.);
#457=ORIENTED_EDGE('',*,*,#441,.F.);
#458=EDGE_LOOP('',(#453,#455,#456,#457));
#459=FACE_OUTER_BOUND('',#458,.F.);
#460=ADVANCED_FACE('',(#459),#452,.T.);
#461=CARTESIAN_POINT('',(0.E0,0.E0,0.E0));
#462=DIRECTION('',(0.E0,1.E0,0.E0));
#463=DIRECTION('',(1.E0,0.E0,0.E0));
#464=AXIS2_PLACEMENT_3D('',#461,#462,#463);
#465=CYLINDRICAL_SURFACE('',#464,3.5E1);
#466=ORIENTED_EDGE('',*,*,#252,.F.);
#468=ORIENTED_EDGE('',*,*,#467,.T.);
#469=ORIENTED_EDGE('',*,*,#402,.T.);
#470=ORIENTED_EDGE('',*,*,#454,.F.);
#471=EDGE_LOOP('',(#466,#468,#469,#470));
#472=FACE_OUTER_BOUND('',#471,.F.);
#473=ADVANCED_FACE('',(#472),#465,.T.);
#474=CARTESIAN_POINT('',(0.E0,0.E0,0.E0));
#475=DIRECTION('',(0.E0,1.E0,0.E0));
#476=DIRECTION('',(1.E0,0.E0,0.E0));
#477=AXIS2_PLACEMENT_3D('',#474,#475,#476);
#478=CYLINDRICAL_SURFACE('',#477,3.5E1);
#479=ORIENTED_EDGE('',*,*,#250,.F.);
#481=ORIENTED_EDGE('',*,*,#480,.T.);
#482=ORIENTED_EDGE('',*,*,#404,.T.);
#483=ORIENTED_EDGE('',*,*,#467,.F.);
#484=EDGE_LOOP('',(#479,#481,#482,#483));
#485=FACE_OUTER_BOUND('',#484,.F.);
#486=ADVANCED_FACE('',(#485),#478,.T.);
#487=CARTESIAN_POINT('',(0.E0,0.E0,0.E0));
#488=DIRECTION('',(0.E0,1.E0,0.E0));
#489=DIRECTION('',(1.E0,0.E0,0.E0));
#490=AXIS2_PLACEMENT_3D('',#487,#488,#489);
#491=CYLINDRICAL_SURFACE('',#490,3.5E1);
#492=ORIENTED_EDGE('',*,*,#248,.F.);
#493=ORIENTED_EDGE('',*,*,#430,.T.);
#494=ORIENTED_EDGE('',*,*,#406,.T.);
#495=ORIENTED_EDGE('',*,*,#480,.F.);
#496=EDGE_LOOP('',(#492,#493,#494,#495));
#497=FACE_OUTER_BOUND('',#496,.F.);
#498=ADVANCED_FACE('',(#497),#491,.T.);
#502=DIMENSIONAL_EXPONENTS(0.E0,0.E0,0.E0,0.E0,0.E0,0.E0,0.E0);
#504=PLANE_ANGLE_MEASURE_WITH_UNIT(PLANE_ANGLE_MEASURE(1.745329251994E-2),#503);
#505=(CONVERSION_BASED_UNIT('DEGREE',#504)NAMED_UNIT(*)PLANE_ANGLE_UNIT());
#507=UNCERTAINTY_MEASURE_WITH_UNIT(LENGTH_MEASURE(1.E-2),#501,'closure',
'Maximum model space distance between geometric entities at asserted connectivities');
#508=(GEOMETRIC_REPRESENTATION_CONTEXT(3)GLOBAL_UNCERTAINTY_ASSIGNED_CONTEXT((
#507))GLOBAL_UNIT_ASSIGNED_CONTEXT((#501,#505,#506))REPRESENTATION_CONTEXT
('ID1','3'));
#510=APPLICATION_CONTEXT(
'CONFIGURATION CONTROLLED 3D DESIGNS OF MECHANICAL PARTS AND ASSEMBLIES');
#511=APPLICATION_PROTOCOL_DEFINITION('international standard',
'config_control_design',1994,#510);
#512=DESIGN_CONTEXT('',#510,'design');
#513=MECHANICAL_CONTEXT('',#510,'mechanical');
#514=PRODUCT('KEEPOUT_BOTTOM','KEEPOUT_BOTTOM','NOT SPECIFIED',(#513));
#515=PRODUCT_DEFINITION_FORMATION_WITH_SPECIFIED_SOURCE('1','LAST_VERSION',#514,
.MADE.);
#519=PRODUCT_CATEGORY('part','');
#520=PRODUCT_RELATED_PRODUCT_CATEGORY('detail','',(#514));
#521=PRODUCT_CATEGORY_RELATIONSHIP('','',#519,#520);
#522=SECURITY_CLASSIFICATION_LEVEL('unclassified');
#523=SECURITY_CLASSIFICATION('','',#522);
#524=CC_DESIGN_SECURITY_CLASSIFICATION(#523,(#515));
#525=APPROVAL_STATUS('approved');
#526=APPROVAL(#525,'');
#527=CC_DESIGN_APPROVAL(#526,(#523,#515,#516));
#528=CALENDAR_DATE(122,16,9);
#529=COORDINATED_UNIVERSAL_TIME_OFFSET(2,0,.AHEAD.);
#530=LOCAL_TIME(16,39,5.E1,#529);
#531=DATE_AND_TIME(#528,#530);
#532=APPROVAL_DATE_TIME(#531,#526);
#533=DATE_TIME_ROLE('creation_date');
#534=CC_DESIGN_DATE_AND_TIME_ASSIGNMENT(#531,#533,(#516));
#535=DATE_TIME_ROLE('classification_date');
#536=CC_DESIGN_DATE_AND_TIME_ASSIGNMENT(#531,#535,(#523));
#537=PERSON('UNSPECIFIED','UNSPECIFIED',$,$,$,$);
#538=ORGANIZATION('UNSPECIFIED','UNSPECIFIED','UNSPECIFIED');
#539=PERSON_AND_ORGANIZATION(#537,#538);
#540=APPROVAL_ROLE('approver');
#541=APPROVAL_PERSON_ORGANIZATION(#539,#526,#540);
#542=PERSON_AND_ORGANIZATION_ROLE('creator');
#543=CC_DESIGN_PERSON_AND_ORGANIZATION_ASSIGNMENT(#539,#542,(#515,#516));
#544=PERSON_AND_ORGANIZATION_ROLE('design_supplier');
#545=CC_DESIGN_PERSON_AND_ORGANIZATION_ASSIGNMENT(#539,#544,(#515));
#546=PERSON_AND_ORGANIZATION_ROLE('classification_officer');
#547=CC_DESIGN_PERSON_AND_ORGANIZATION_ASSIGNMENT(#539,#546,(#523));
#548=PERSON_AND_ORGANIZATION_ROLE('design_owner');
#549=CC_DESIGN_PERSON_AND_ORGANIZATION_ASSIGNMENT(#539,#548,(#514));
#17=CIRCLE('',#16,2.892568972759E1);
#34=CIRCLE('',#33,2.892568972759E1);
#39=CIRCLE('',#38,3.5E1);
#44=CIRCLE('',#43,3.5E1);
#49=CIRCLE('',#48,3.5E1);
#54=CIRCLE('',#53,3.5E1);
#59=CIRCLE('',#58,3.5E1);
#64=CIRCLE('',#63,3.5E1);
#105=CIRCLE('',#104,2.892568972759E1);
#122=CIRCLE('',#121,2.892568972759E1);
#135=CIRCLE('',#134,3.5E1);
#140=CIRCLE('',#139,3.5E1);
#145=CIRCLE('',#144,3.5E1);
#150=CIRCLE('',#149,3.5E1);
#155=CIRCLE('',#154,3.5E1);
#160=CIRCLE('',#159,3.5E1);
#246=EDGE_CURVE('',#203,#204,#39,.T.);
#248=EDGE_CURVE('',#204,#206,#44,.T.);
#250=EDGE_CURVE('',#206,#208,#49,.T.);
#252=EDGE_CURVE('',#208,#210,#54,.T.);
#254=EDGE_CURVE('',#210,#212,#59,.T.);
#256=EDGE_CURVE('',#212,#203,#64,.T.);
#260=EDGE_CURVE('',#187,#188,#4,.T.);
#262=EDGE_CURVE('',#188,#190,#8,.T.);
#264=EDGE_CURVE('',#190,#192,#12,.T.);
#266=EDGE_CURVE('',#192,#194,#17,.T.);
#268=EDGE_CURVE('',#194,#196,#21,.T.);
#270=EDGE_CURVE('',#196,#198,#25,.T.);
#272=EDGE_CURVE('',#198,#200,#29,.T.);
#274=EDGE_CURVE('',#200,#187,#34,.T.);
#285=EDGE_CURVE('',#187,#215,#68,.T.);
#287=EDGE_CURVE('',#215,#216,#100,.T.);
#289=EDGE_CURVE('',#188,#216,#96,.T.);
#300=EDGE_CURVE('',#200,#228,#72,.T.);
#302=EDGE_CURVE('',#228,#215,#105,.T.);
#314=EDGE_CURVE('',#198,#226,#76,.T.);
#316=EDGE_CURVE('',#226,#228,#109,.T.);
#328=EDGE_CURVE('',#196,#224,#80,.T.);
#330=EDGE_CURVE('',#224,#226,#113,.T.);
#342=EDGE_CURVE('',#194,#222,#84,.T.);
#344=EDGE_CURVE('',#222,#224,#117,.T.);
#356=EDGE_CURVE('',#192,#220,#88,.T.);
#358=EDGE_CURVE('',#220,#222,#122,.T.);
#370=EDGE_CURVE('',#190,#218,#92,.T.);
#372=EDGE_CURVE('',#218,#220,#126,.T.);
#385=EDGE_CURVE('',#216,#218,#130,.T.);
#396=EDGE_CURVE('',#231,#232,#135,.T.);
#398=EDGE_CURVE('',#240,#231,#140,.T.);
#400=EDGE_CURVE('',#238,#240,#145,.T.);
#402=EDGE_CURVE('',#236,#238,#150,.T.);
#404=EDGE_CURVE('',#234,#236,#155,.T.);
#406=EDGE_CURVE('',#232,#234,#160,.T.);
#427=EDGE_CURVE('',#203,#231,#164,.T.);
#430=EDGE_CURVE('',#204,#232,#184,.T.);
#441=EDGE_CURVE('',#212,#240,#168,.T.);
#454=EDGE_CURVE('',#210,#238,#172,.T.);
#467=EDGE_CURVE('',#208,#236,#176,.T.);
#480=EDGE_CURVE('',#206,#234,#180,.T.);
#499=CLOSED_SHELL('',(#278,#293,#307,#321,#335,#349,#363,#377,#390,#420,#434,
#447,#460,#473,#486,#498));
#500=MANIFOLD_SOLID_BREP('',#499);
#501=(LENGTH_UNIT()NAMED_UNIT(*)SI_UNIT(.MILLI.,.METRE.));
#503=(NAMED_UNIT(*)PLANE_ANGLE_UNIT()SI_UNIT($,.RADIAN.));
#506=(NAMED_UNIT(*)SI_UNIT($,.STERADIAN.)SOLID_ANGLE_UNIT());
#509=ADVANCED_BREP_SHAPE_REPRESENTATION('',(#500),#508);
#516=PRODUCT_DEFINITION('design','',#515,#512);
#517=PRODUCT_DEFINITION_SHAPE('','SHAPE FOR KEEPOUT_BOTTOM.',#516);
#518=SHAPE_DEFINITION_REPRESENTATION(#517,#509);
ENDSEC;
END-ISO-10303-21;
