ISO-10303-21;
HEADER;
FILE_DESCRIPTION((''),'2;1');
FILE_NAME('PCB_VRTLJIVI','2022-11-04T15:09:37',('domen'),(''),
'CREO PARAMETRIC BY PTC INC, 2021404','CREO PARAMETRIC BY PTC INC, 2021404','');
FILE_SCHEMA(('CONFIG_CONTROL_DESIGN'));
ENDSEC;
DATA;
#1=CARTESIAN_POINT('',(0.E0,0.E0,0.E0));
#2=DIRECTION('',(0.E0,1.E0,0.E0));
#3=DIRECTION('',(1.E0,0.E0,0.E0));
#4=AXIS2_PLACEMENT_3D('',#1,#2,#3);
#6=CARTESIAN_POINT('',(0.E0,0.E0,0.E0));
#7=DIRECTION('',(0.E0,1.E0,0.E0));
#8=DIRECTION('',(-1.E0,0.E0,0.E0));
#9=AXIS2_PLACEMENT_3D('',#6,#7,#8);
#11=CARTESIAN_POINT('',(-2.262741699797E1,0.E0,-2.262741699797E1));
#12=DIRECTION('',(0.E0,-1.E0,0.E0));
#13=DIRECTION('',(1.E0,0.E0,0.E0));
#14=AXIS2_PLACEMENT_3D('',#11,#12,#13);
#16=CARTESIAN_POINT('',(-2.262741699797E1,0.E0,-2.262741699797E1));
#17=DIRECTION('',(0.E0,-1.E0,0.E0));
#18=DIRECTION('',(-1.E0,0.E0,0.E0));
#19=AXIS2_PLACEMENT_3D('',#16,#17,#18);
#21=CARTESIAN_POINT('',(2.262741699797E1,0.E0,2.262741699797E1));
#22=DIRECTION('',(0.E0,-1.E0,0.E0));
#23=DIRECTION('',(1.E0,0.E0,0.E0));
#24=AXIS2_PLACEMENT_3D('',#21,#22,#23);
#26=CARTESIAN_POINT('',(2.262741699797E1,0.E0,2.262741699797E1));
#27=DIRECTION('',(0.E0,-1.E0,0.E0));
#28=DIRECTION('',(-1.E0,0.E0,0.E0));
#29=AXIS2_PLACEMENT_3D('',#26,#27,#28);
#31=CARTESIAN_POINT('',(0.E0,0.E0,0.E0));
#32=DIRECTION('',(0.E0,-1.E0,0.E0));
#33=DIRECTION('',(1.E0,0.E0,0.E0));
#34=AXIS2_PLACEMENT_3D('',#31,#32,#33);
#36=CARTESIAN_POINT('',(0.E0,0.E0,0.E0));
#37=DIRECTION('',(0.E0,-1.E0,0.E0));
#38=DIRECTION('',(-1.E0,0.E0,0.E0));
#39=AXIS2_PLACEMENT_3D('',#36,#37,#38);
#41=CARTESIAN_POINT('',(-7.7E0,0.E0,-7.7E0));
#42=DIRECTION('',(0.E0,-1.E0,0.E0));
#43=DIRECTION('',(1.E0,0.E0,0.E0));
#44=AXIS2_PLACEMENT_3D('',#41,#42,#43);
#46=CARTESIAN_POINT('',(-7.7E0,0.E0,-7.7E0));
#47=DIRECTION('',(0.E0,-1.E0,0.E0));
#48=DIRECTION('',(-1.E0,0.E0,0.E0));
#49=AXIS2_PLACEMENT_3D('',#46,#47,#48);
#51=CARTESIAN_POINT('',(7.7E0,0.E0,-7.7E0));
#52=DIRECTION('',(0.E0,-1.E0,0.E0));
#53=DIRECTION('',(1.E0,0.E0,0.E0));
#54=AXIS2_PLACEMENT_3D('',#51,#52,#53);
#56=CARTESIAN_POINT('',(7.7E0,0.E0,-7.7E0));
#57=DIRECTION('',(0.E0,-1.E0,0.E0));
#58=DIRECTION('',(-1.E0,0.E0,0.E0));
#59=AXIS2_PLACEMENT_3D('',#56,#57,#58);
#61=CARTESIAN_POINT('',(7.7E0,0.E0,7.7E0));
#62=DIRECTION('',(0.E0,-1.E0,0.E0));
#63=DIRECTION('',(1.E0,0.E0,0.E0));
#64=AXIS2_PLACEMENT_3D('',#61,#62,#63);
#66=CARTESIAN_POINT('',(7.7E0,0.E0,7.7E0));
#67=DIRECTION('',(0.E0,-1.E0,0.E0));
#68=DIRECTION('',(-1.E0,0.E0,0.E0));
#69=AXIS2_PLACEMENT_3D('',#66,#67,#68);
#71=CARTESIAN_POINT('',(-7.7E0,0.E0,7.7E0));
#72=DIRECTION('',(0.E0,-1.E0,0.E0));
#73=DIRECTION('',(1.E0,0.E0,0.E0));
#74=AXIS2_PLACEMENT_3D('',#71,#72,#73);
#76=CARTESIAN_POINT('',(-7.7E0,0.E0,7.7E0));
#77=DIRECTION('',(0.E0,-1.E0,0.E0));
#78=DIRECTION('',(-1.E0,0.E0,0.E0));
#79=AXIS2_PLACEMENT_3D('',#76,#77,#78);
#81=CARTESIAN_POINT('',(2.262741699797E1,0.E0,-2.262741699797E1));
#82=DIRECTION('',(0.E0,-1.E0,0.E0));
#83=DIRECTION('',(1.E0,0.E0,0.E0));
#84=AXIS2_PLACEMENT_3D('',#81,#82,#83);
#86=CARTESIAN_POINT('',(2.262741699797E1,0.E0,-2.262741699797E1));
#87=DIRECTION('',(0.E0,-1.E0,0.E0));
#88=DIRECTION('',(-1.E0,0.E0,0.E0));
#89=AXIS2_PLACEMENT_3D('',#86,#87,#88);
#91=CARTESIAN_POINT('',(-2.262741699797E1,0.E0,2.262741699797E1));
#92=DIRECTION('',(0.E0,-1.E0,0.E0));
#93=DIRECTION('',(1.E0,0.E0,0.E0));
#94=AXIS2_PLACEMENT_3D('',#91,#92,#93);
#96=CARTESIAN_POINT('',(-2.262741699797E1,0.E0,2.262741699797E1));
#97=DIRECTION('',(0.E0,-1.E0,0.E0));
#98=DIRECTION('',(-1.E0,0.E0,0.E0));
#99=AXIS2_PLACEMENT_3D('',#96,#97,#98);
#101=DIRECTION('',(0.E0,1.E0,0.E0));
#102=VECTOR('',#101,1.6E0);
#103=CARTESIAN_POINT('',(3.5E1,0.E0,0.E0));
#104=LINE('',#103,#102);
#105=DIRECTION('',(0.E0,1.E0,0.E0));
#106=VECTOR('',#105,1.6E0);
#107=CARTESIAN_POINT('',(-3.5E1,0.E0,0.E0));
#108=LINE('',#107,#106);
#109=CARTESIAN_POINT('',(0.E0,1.6E0,0.E0));
#110=DIRECTION('',(0.E0,1.E0,0.E0));
#111=DIRECTION('',(1.E0,0.E0,0.E0));
#112=AXIS2_PLACEMENT_3D('',#109,#110,#111);
#114=CARTESIAN_POINT('',(0.E0,1.6E0,0.E0));
#115=DIRECTION('',(0.E0,1.E0,0.E0));
#116=DIRECTION('',(-1.E0,0.E0,0.E0));
#117=AXIS2_PLACEMENT_3D('',#114,#115,#116);
#119=CARTESIAN_POINT('',(-2.262741699797E1,1.6E0,-2.262741699797E1));
#120=DIRECTION('',(0.E0,-1.E0,0.E0));
#121=DIRECTION('',(1.E0,0.E0,0.E0));
#122=AXIS2_PLACEMENT_3D('',#119,#120,#121);
#124=CARTESIAN_POINT('',(-2.262741699797E1,1.6E0,-2.262741699797E1));
#125=DIRECTION('',(0.E0,-1.E0,0.E0));
#126=DIRECTION('',(-1.E0,0.E0,0.E0));
#127=AXIS2_PLACEMENT_3D('',#124,#125,#126);
#129=CARTESIAN_POINT('',(2.262741699797E1,1.6E0,2.262741699797E1));
#130=DIRECTION('',(0.E0,-1.E0,0.E0));
#131=DIRECTION('',(1.E0,0.E0,0.E0));
#132=AXIS2_PLACEMENT_3D('',#129,#130,#131);
#134=CARTESIAN_POINT('',(2.262741699797E1,1.6E0,2.262741699797E1));
#135=DIRECTION('',(0.E0,-1.E0,0.E0));
#136=DIRECTION('',(-1.E0,0.E0,0.E0));
#137=AXIS2_PLACEMENT_3D('',#134,#135,#136);
#139=CARTESIAN_POINT('',(0.E0,1.6E0,0.E0));
#140=DIRECTION('',(0.E0,-1.E0,0.E0));
#141=DIRECTION('',(1.E0,0.E0,0.E0));
#142=AXIS2_PLACEMENT_3D('',#139,#140,#141);
#144=CARTESIAN_POINT('',(0.E0,1.6E0,0.E0));
#145=DIRECTION('',(0.E0,-1.E0,0.E0));
#146=DIRECTION('',(-1.E0,0.E0,0.E0));
#147=AXIS2_PLACEMENT_3D('',#144,#145,#146);
#149=CARTESIAN_POINT('',(-7.7E0,1.6E0,-7.7E0));
#150=DIRECTION('',(0.E0,-1.E0,0.E0));
#151=DIRECTION('',(1.E0,0.E0,0.E0));
#152=AXIS2_PLACEMENT_3D('',#149,#150,#151);
#154=CARTESIAN_POINT('',(-7.7E0,1.6E0,-7.7E0));
#155=DIRECTION('',(0.E0,-1.E0,0.E0));
#156=DIRECTION('',(-1.E0,0.E0,0.E0));
#157=AXIS2_PLACEMENT_3D('',#154,#155,#156);
#159=CARTESIAN_POINT('',(7.7E0,1.6E0,-7.7E0));
#160=DIRECTION('',(0.E0,-1.E0,0.E0));
#161=DIRECTION('',(1.E0,0.E0,0.E0));
#162=AXIS2_PLACEMENT_3D('',#159,#160,#161);
#164=CARTESIAN_POINT('',(7.7E0,1.6E0,-7.7E0));
#165=DIRECTION('',(0.E0,-1.E0,0.E0));
#166=DIRECTION('',(-1.E0,0.E0,0.E0));
#167=AXIS2_PLACEMENT_3D('',#164,#165,#166);
#169=CARTESIAN_POINT('',(7.7E0,1.6E0,7.7E0));
#170=DIRECTION('',(0.E0,-1.E0,0.E0));
#171=DIRECTION('',(1.E0,0.E0,0.E0));
#172=AXIS2_PLACEMENT_3D('',#169,#170,#171);
#174=CARTESIAN_POINT('',(7.7E0,1.6E0,7.7E0));
#175=DIRECTION('',(0.E0,-1.E0,0.E0));
#176=DIRECTION('',(-1.E0,0.E0,0.E0));
#177=AXIS2_PLACEMENT_3D('',#174,#175,#176);
#179=CARTESIAN_POINT('',(-7.7E0,1.6E0,7.7E0));
#180=DIRECTION('',(0.E0,-1.E0,0.E0));
#181=DIRECTION('',(1.E0,0.E0,0.E0));
#182=AXIS2_PLACEMENT_3D('',#179,#180,#181);
#184=CARTESIAN_POINT('',(-7.7E0,1.6E0,7.7E0));
#185=DIRECTION('',(0.E0,-1.E0,0.E0));
#186=DIRECTION('',(-1.E0,0.E0,0.E0));
#187=AXIS2_PLACEMENT_3D('',#184,#185,#186);
#189=CARTESIAN_POINT('',(2.262741699797E1,1.6E0,-2.262741699797E1));
#190=DIRECTION('',(0.E0,-1.E0,0.E0));
#191=DIRECTION('',(1.E0,0.E0,0.E0));
#192=AXIS2_PLACEMENT_3D('',#189,#190,#191);
#194=CARTESIAN_POINT('',(2.262741699797E1,1.6E0,-2.262741699797E1));
#195=DIRECTION('',(0.E0,-1.E0,0.E0));
#196=DIRECTION('',(-1.E0,0.E0,0.E0));
#197=AXIS2_PLACEMENT_3D('',#194,#195,#196);
#199=CARTESIAN_POINT('',(-2.262741699797E1,1.6E0,2.262741699797E1));
#200=DIRECTION('',(0.E0,-1.E0,0.E0));
#201=DIRECTION('',(1.E0,0.E0,0.E0));
#202=AXIS2_PLACEMENT_3D('',#199,#200,#201);
#204=CARTESIAN_POINT('',(-2.262741699797E1,1.6E0,2.262741699797E1));
#205=DIRECTION('',(0.E0,-1.E0,0.E0));
#206=DIRECTION('',(-1.E0,0.E0,0.E0));
#207=AXIS2_PLACEMENT_3D('',#204,#205,#206);
#209=DIRECTION('',(0.E0,1.E0,0.E0));
#210=VECTOR('',#209,1.6E0);
#211=CARTESIAN_POINT('',(-2.162741699797E1,0.E0,-2.262741699797E1));
#212=LINE('',#211,#210);
#213=DIRECTION('',(0.E0,1.E0,0.E0));
#214=VECTOR('',#213,1.6E0);
#215=CARTESIAN_POINT('',(-2.362741699797E1,0.E0,-2.262741699797E1));
#216=LINE('',#215,#214);
#217=DIRECTION('',(0.E0,1.E0,0.E0));
#218=VECTOR('',#217,1.6E0);
#219=CARTESIAN_POINT('',(2.362741699797E1,0.E0,2.262741699797E1));
#220=LINE('',#219,#218);
#221=DIRECTION('',(0.E0,1.E0,0.E0));
#222=VECTOR('',#221,1.6E0);
#223=CARTESIAN_POINT('',(2.162741699797E1,0.E0,2.262741699797E1));
#224=LINE('',#223,#222);
#225=DIRECTION('',(0.E0,1.E0,0.E0));
#226=VECTOR('',#225,1.6E0);
#227=CARTESIAN_POINT('',(8.E0,0.E0,0.E0));
#228=LINE('',#227,#226);
#229=DIRECTION('',(0.E0,1.E0,0.E0));
#230=VECTOR('',#229,1.6E0);
#231=CARTESIAN_POINT('',(-8.E0,0.E0,0.E0));
#232=LINE('',#231,#230);
#233=DIRECTION('',(0.E0,1.E0,0.E0));
#234=VECTOR('',#233,1.6E0);
#235=CARTESIAN_POINT('',(-6.7E0,0.E0,-7.7E0));
#236=LINE('',#235,#234);
#237=DIRECTION('',(0.E0,1.E0,0.E0));
#238=VECTOR('',#237,1.6E0);
#239=CARTESIAN_POINT('',(-8.7E0,0.E0,-7.7E0));
#240=LINE('',#239,#238);
#241=DIRECTION('',(0.E0,1.E0,0.E0));
#242=VECTOR('',#241,1.6E0);
#243=CARTESIAN_POINT('',(8.7E0,0.E0,-7.7E0));
#244=LINE('',#243,#242);
#245=DIRECTION('',(0.E0,1.E0,0.E0));
#246=VECTOR('',#245,1.6E0);
#247=CARTESIAN_POINT('',(6.7E0,0.E0,-7.7E0));
#248=LINE('',#247,#246);
#249=DIRECTION('',(0.E0,1.E0,0.E0));
#250=VECTOR('',#249,1.6E0);
#251=CARTESIAN_POINT('',(8.7E0,0.E0,7.7E0));
#252=LINE('',#251,#250);
#253=DIRECTION('',(0.E0,1.E0,0.E0));
#254=VECTOR('',#253,1.6E0);
#255=CARTESIAN_POINT('',(6.7E0,0.E0,7.7E0));
#256=LINE('',#255,#254);
#257=DIRECTION('',(0.E0,1.E0,0.E0));
#258=VECTOR('',#257,1.6E0);
#259=CARTESIAN_POINT('',(-6.7E0,0.E0,7.7E0));
#260=LINE('',#259,#258);
#261=DIRECTION('',(0.E0,1.E0,0.E0));
#262=VECTOR('',#261,1.6E0);
#263=CARTESIAN_POINT('',(-8.7E0,0.E0,7.7E0));
#264=LINE('',#263,#262);
#265=DIRECTION('',(0.E0,1.E0,0.E0));
#266=VECTOR('',#265,1.6E0);
#267=CARTESIAN_POINT('',(2.362741699797E1,0.E0,-2.262741699797E1));
#268=LINE('',#267,#266);
#269=DIRECTION('',(0.E0,1.E0,0.E0));
#270=VECTOR('',#269,1.6E0);
#271=CARTESIAN_POINT('',(2.162741699797E1,0.E0,-2.262741699797E1));
#272=LINE('',#271,#270);
#273=DIRECTION('',(0.E0,1.E0,0.E0));
#274=VECTOR('',#273,1.6E0);
#275=CARTESIAN_POINT('',(-2.162741699797E1,0.E0,2.262741699797E1));
#276=LINE('',#275,#274);
#277=DIRECTION('',(0.E0,1.E0,0.E0));
#278=VECTOR('',#277,1.6E0);
#279=CARTESIAN_POINT('',(-2.362741699797E1,0.E0,2.262741699797E1));
#280=LINE('',#279,#278);
#281=CARTESIAN_POINT('',(3.5E1,0.E0,0.E0));
#282=CARTESIAN_POINT('',(-3.5E1,0.E0,0.E0));
#283=VERTEX_POINT('',#281);
#284=VERTEX_POINT('',#282);
#285=CARTESIAN_POINT('',(3.5E1,1.6E0,0.E0));
#286=CARTESIAN_POINT('',(-3.5E1,1.6E0,0.E0));
#287=VERTEX_POINT('',#285);
#288=VERTEX_POINT('',#286);
#289=CARTESIAN_POINT('',(-2.162741699797E1,0.E0,-2.262741699797E1));
#290=CARTESIAN_POINT('',(-2.362741699797E1,0.E0,-2.262741699797E1));
#291=VERTEX_POINT('',#289);
#292=VERTEX_POINT('',#290);
#293=CARTESIAN_POINT('',(2.362741699797E1,0.E0,2.262741699797E1));
#294=CARTESIAN_POINT('',(2.162741699797E1,0.E0,2.262741699797E1));
#295=VERTEX_POINT('',#293);
#296=VERTEX_POINT('',#294);
#297=CARTESIAN_POINT('',(8.E0,0.E0,0.E0));
#298=CARTESIAN_POINT('',(-8.E0,0.E0,0.E0));
#299=VERTEX_POINT('',#297);
#300=VERTEX_POINT('',#298);
#301=CARTESIAN_POINT('',(-6.7E0,0.E0,-7.7E0));
#302=CARTESIAN_POINT('',(-8.7E0,0.E0,-7.7E0));
#303=VERTEX_POINT('',#301);
#304=VERTEX_POINT('',#302);
#305=CARTESIAN_POINT('',(8.7E0,0.E0,-7.7E0));
#306=CARTESIAN_POINT('',(6.7E0,0.E0,-7.7E0));
#307=VERTEX_POINT('',#305);
#308=VERTEX_POINT('',#306);
#309=CARTESIAN_POINT('',(8.7E0,0.E0,7.7E0));
#310=CARTESIAN_POINT('',(6.7E0,0.E0,7.7E0));
#311=VERTEX_POINT('',#309);
#312=VERTEX_POINT('',#310);
#313=CARTESIAN_POINT('',(-6.7E0,0.E0,7.7E0));
#314=CARTESIAN_POINT('',(-8.7E0,0.E0,7.7E0));
#315=VERTEX_POINT('',#313);
#316=VERTEX_POINT('',#314);
#317=CARTESIAN_POINT('',(2.362741699797E1,0.E0,-2.262741699797E1));
#318=CARTESIAN_POINT('',(2.162741699797E1,0.E0,-2.262741699797E1));
#319=VERTEX_POINT('',#317);
#320=VERTEX_POINT('',#318);
#321=CARTESIAN_POINT('',(-2.162741699797E1,0.E0,2.262741699797E1));
#322=CARTESIAN_POINT('',(-2.362741699797E1,0.E0,2.262741699797E1));
#323=VERTEX_POINT('',#321);
#324=VERTEX_POINT('',#322);
#325=CARTESIAN_POINT('',(-2.162741699797E1,1.6E0,-2.262741699797E1));
#326=CARTESIAN_POINT('',(-2.362741699797E1,1.6E0,-2.262741699797E1));
#327=VERTEX_POINT('',#325);
#328=VERTEX_POINT('',#326);
#329=CARTESIAN_POINT('',(2.362741699797E1,1.6E0,2.262741699797E1));
#330=CARTESIAN_POINT('',(2.162741699797E1,1.6E0,2.262741699797E1));
#331=VERTEX_POINT('',#329);
#332=VERTEX_POINT('',#330);
#333=CARTESIAN_POINT('',(8.E0,1.6E0,0.E0));
#334=CARTESIAN_POINT('',(-8.E0,1.6E0,0.E0));
#335=VERTEX_POINT('',#333);
#336=VERTEX_POINT('',#334);
#337=CARTESIAN_POINT('',(-6.7E0,1.6E0,-7.7E0));
#338=CARTESIAN_POINT('',(-8.7E0,1.6E0,-7.7E0));
#339=VERTEX_POINT('',#337);
#340=VERTEX_POINT('',#338);
#341=CARTESIAN_POINT('',(8.7E0,1.6E0,-7.7E0));
#342=CARTESIAN_POINT('',(6.7E0,1.6E0,-7.7E0));
#343=VERTEX_POINT('',#341);
#344=VERTEX_POINT('',#342);
#345=CARTESIAN_POINT('',(8.7E0,1.6E0,7.7E0));
#346=CARTESIAN_POINT('',(6.7E0,1.6E0,7.7E0));
#347=VERTEX_POINT('',#345);
#348=VERTEX_POINT('',#346);
#349=CARTESIAN_POINT('',(-6.7E0,1.6E0,7.7E0));
#350=CARTESIAN_POINT('',(-8.7E0,1.6E0,7.7E0));
#351=VERTEX_POINT('',#349);
#352=VERTEX_POINT('',#350);
#353=CARTESIAN_POINT('',(2.362741699797E1,1.6E0,-2.262741699797E1));
#354=CARTESIAN_POINT('',(2.162741699797E1,1.6E0,-2.262741699797E1));
#355=VERTEX_POINT('',#353);
#356=VERTEX_POINT('',#354);
#357=CARTESIAN_POINT('',(-2.162741699797E1,1.6E0,2.262741699797E1));
#358=CARTESIAN_POINT('',(-2.362741699797E1,1.6E0,2.262741699797E1));
#359=VERTEX_POINT('',#357);
#360=VERTEX_POINT('',#358);
#361=CARTESIAN_POINT('',(0.E0,0.E0,0.E0));
#362=DIRECTION('',(0.E0,1.E0,0.E0));
#363=DIRECTION('',(1.E0,0.E0,0.E0));
#364=AXIS2_PLACEMENT_3D('',#361,#362,#363);
#365=PLANE('',#364);
#367=ORIENTED_EDGE('',*,*,#366,.T.);
#369=ORIENTED_EDGE('',*,*,#368,.T.);
#370=EDGE_LOOP('',(#367,#369));
#371=FACE_OUTER_BOUND('',#370,.F.);
#373=ORIENTED_EDGE('',*,*,#372,.T.);
#375=ORIENTED_EDGE('',*,*,#374,.T.);
#376=EDGE_LOOP('',(#373,#375));
#377=FACE_BOUND('',#376,.F.);
#379=ORIENTED_EDGE('',*,*,#378,.T.);
#381=ORIENTED_EDGE('',*,*,#380,.T.);
#382=EDGE_LOOP('',(#379,#381));
#383=FACE_BOUND('',#382,.F.);
#385=ORIENTED_EDGE('',*,*,#384,.T.);
#387=ORIENTED_EDGE('',*,*,#386,.T.);
#388=EDGE_LOOP('',(#385,#387));
#389=FACE_BOUND('',#388,.F.);
#391=ORIENTED_EDGE('',*,*,#390,.T.);
#393=ORIENTED_EDGE('',*,*,#392,.T.);
#394=EDGE_LOOP('',(#391,#393));
#395=FACE_BOUND('',#394,.F.);
#397=ORIENTED_EDGE('',*,*,#396,.T.);
#399=ORIENTED_EDGE('',*,*,#398,.T.);
#400=EDGE_LOOP('',(#397,#399));
#401=FACE_BOUND('',#400,.F.);
#403=ORIENTED_EDGE('',*,*,#402,.T.);
#405=ORIENTED_EDGE('',*,*,#404,.T.);
#406=EDGE_LOOP('',(#403,#405));
#407=FACE_BOUND('',#406,.F.);
#409=ORIENTED_EDGE('',*,*,#408,.T.);
#411=ORIENTED_EDGE('',*,*,#410,.T.);
#412=EDGE_LOOP('',(#409,#411));
#413=FACE_BOUND('',#412,.F.);
#415=ORIENTED_EDGE('',*,*,#414,.T.);
#417=ORIENTED_EDGE('',*,*,#416,.T.);
#418=EDGE_LOOP('',(#415,#417));
#419=FACE_BOUND('',#418,.F.);
#421=ORIENTED_EDGE('',*,*,#420,.T.);
#423=ORIENTED_EDGE('',*,*,#422,.T.);
#424=EDGE_LOOP('',(#421,#423));
#425=FACE_BOUND('',#424,.F.);
#426=ADVANCED_FACE('',(#371,#377,#383,#389,#395,#401,#407,#413,#419,#425),#365,
.F.);
#427=CARTESIAN_POINT('',(0.E0,0.E0,0.E0));
#428=DIRECTION('',(0.E0,1.E0,0.E0));
#429=DIRECTION('',(1.E0,0.E0,0.E0));
#430=AXIS2_PLACEMENT_3D('',#427,#428,#429);
#431=CYLINDRICAL_SURFACE('',#430,3.5E1);
#432=ORIENTED_EDGE('',*,*,#366,.F.);
#434=ORIENTED_EDGE('',*,*,#433,.T.);
#436=ORIENTED_EDGE('',*,*,#435,.T.);
#438=ORIENTED_EDGE('',*,*,#437,.F.);
#439=EDGE_LOOP('',(#432,#434,#436,#438));
#440=FACE_OUTER_BOUND('',#439,.F.);
#441=ADVANCED_FACE('',(#440),#431,.T.);
#442=CARTESIAN_POINT('',(0.E0,0.E0,0.E0));
#443=DIRECTION('',(0.E0,1.E0,0.E0));
#444=DIRECTION('',(1.E0,0.E0,0.E0));
#445=AXIS2_PLACEMENT_3D('',#442,#443,#444);
#446=CYLINDRICAL_SURFACE('',#445,3.5E1);
#447=ORIENTED_EDGE('',*,*,#368,.F.);
#448=ORIENTED_EDGE('',*,*,#437,.T.);
#450=ORIENTED_EDGE('',*,*,#449,.T.);
#451=ORIENTED_EDGE('',*,*,#433,.F.);
#452=EDGE_LOOP('',(#447,#448,#450,#451));
#453=FACE_OUTER_BOUND('',#452,.F.);
#454=ADVANCED_FACE('',(#453),#446,.T.);
#455=CARTESIAN_POINT('',(0.E0,1.6E0,0.E0));
#456=DIRECTION('',(0.E0,1.E0,0.E0));
#457=DIRECTION('',(1.E0,0.E0,0.E0));
#458=AXIS2_PLACEMENT_3D('',#455,#456,#457);
#459=PLANE('',#458);
#460=ORIENTED_EDGE('',*,*,#435,.F.);
#461=ORIENTED_EDGE('',*,*,#449,.F.);
#462=EDGE_LOOP('',(#460,#461));
#463=FACE_OUTER_BOUND('',#462,.F.);
#465=ORIENTED_EDGE('',*,*,#464,.F.);
#467=ORIENTED_EDGE('',*,*,#466,.F.);
#468=EDGE_LOOP('',(#465,#467));
#469=FACE_BOUND('',#468,.F.);
#471=ORIENTED_EDGE('',*,*,#470,.F.);
#473=ORIENTED_EDGE('',*,*,#472,.F.);
#474=EDGE_LOOP('',(#471,#473));
#475=FACE_BOUND('',#474,.F.);
#477=ORIENTED_EDGE('',*,*,#476,.F.);
#479=ORIENTED_EDGE('',*,*,#478,.F.);
#480=EDGE_LOOP('',(#477,#479));
#481=FACE_BOUND('',#480,.F.);
#483=ORIENTED_EDGE('',*,*,#482,.F.);
#485=ORIENTED_EDGE('',*,*,#484,.F.);
#486=EDGE_LOOP('',(#483,#485));
#487=FACE_BOUND('',#486,.F.);
#489=ORIENTED_EDGE('',*,*,#488,.F.);
#491=ORIENTED_EDGE('',*,*,#490,.F.);
#492=EDGE_LOOP('',(#489,#491));
#493=FACE_BOUND('',#492,.F.);
#495=ORIENTED_EDGE('',*,*,#494,.F.);
#497=ORIENTED_EDGE('',*,*,#496,.F.);
#498=EDGE_LOOP('',(#495,#497));
#499=FACE_BOUND('',#498,.F.);
#501=ORIENTED_EDGE('',*,*,#500,.F.);
#503=ORIENTED_EDGE('',*,*,#502,.F.);
#504=EDGE_LOOP('',(#501,#503));
#505=FACE_BOUND('',#504,.F.);
#507=ORIENTED_EDGE('',*,*,#506,.F.);
#509=ORIENTED_EDGE('',*,*,#508,.F.);
#510=EDGE_LOOP('',(#507,#509));
#511=FACE_BOUND('',#510,.F.);
#513=ORIENTED_EDGE('',*,*,#512,.F.);
#515=ORIENTED_EDGE('',*,*,#514,.F.);
#516=EDGE_LOOP('',(#513,#515));
#517=FACE_BOUND('',#516,.F.);
#518=ADVANCED_FACE('',(#463,#469,#475,#481,#487,#493,#499,#505,#511,#517),#459,
.T.);
#519=CARTESIAN_POINT('',(-2.262741699797E1,0.E0,-2.262741699797E1));
#520=DIRECTION('',(0.E0,1.E0,0.E0));
#521=DIRECTION('',(1.E0,0.E0,0.E0));
#522=AXIS2_PLACEMENT_3D('',#519,#520,#521);
#523=CYLINDRICAL_SURFACE('',#522,1.E0);
#524=ORIENTED_EDGE('',*,*,#372,.F.);
#526=ORIENTED_EDGE('',*,*,#525,.T.);
#527=ORIENTED_EDGE('',*,*,#464,.T.);
#529=ORIENTED_EDGE('',*,*,#528,.F.);
#530=EDGE_LOOP('',(#524,#526,#527,#529));
#531=FACE_OUTER_BOUND('',#530,.F.);
#532=ADVANCED_FACE('',(#531),#523,.F.);
#533=CARTESIAN_POINT('',(-2.262741699797E1,0.E0,-2.262741699797E1));
#534=DIRECTION('',(0.E0,1.E0,0.E0));
#535=DIRECTION('',(1.E0,0.E0,0.E0));
#536=AXIS2_PLACEMENT_3D('',#533,#534,#535);
#537=CYLINDRICAL_SURFACE('',#536,1.E0);
#538=ORIENTED_EDGE('',*,*,#374,.F.);
#539=ORIENTED_EDGE('',*,*,#528,.T.);
#540=ORIENTED_EDGE('',*,*,#466,.T.);
#541=ORIENTED_EDGE('',*,*,#525,.F.);
#542=EDGE_LOOP('',(#538,#539,#540,#541));
#543=FACE_OUTER_BOUND('',#542,.F.);
#544=ADVANCED_FACE('',(#543),#537,.F.);
#545=CARTESIAN_POINT('',(2.262741699797E1,0.E0,2.262741699797E1));
#546=DIRECTION('',(0.E0,1.E0,0.E0));
#547=DIRECTION('',(1.E0,0.E0,0.E0));
#548=AXIS2_PLACEMENT_3D('',#545,#546,#547);
#549=CYLINDRICAL_SURFACE('',#548,1.E0);
#550=ORIENTED_EDGE('',*,*,#378,.F.);
#552=ORIENTED_EDGE('',*,*,#551,.T.);
#553=ORIENTED_EDGE('',*,*,#470,.T.);
#555=ORIENTED_EDGE('',*,*,#554,.F.);
#556=EDGE_LOOP('',(#550,#552,#553,#555));
#557=FACE_OUTER_BOUND('',#556,.F.);
#558=ADVANCED_FACE('',(#557),#549,.F.);
#559=CARTESIAN_POINT('',(2.262741699797E1,0.E0,2.262741699797E1));
#560=DIRECTION('',(0.E0,1.E0,0.E0));
#561=DIRECTION('',(1.E0,0.E0,0.E0));
#562=AXIS2_PLACEMENT_3D('',#559,#560,#561);
#563=CYLINDRICAL_SURFACE('',#562,1.E0);
#564=ORIENTED_EDGE('',*,*,#380,.F.);
#565=ORIENTED_EDGE('',*,*,#554,.T.);
#566=ORIENTED_EDGE('',*,*,#472,.T.);
#567=ORIENTED_EDGE('',*,*,#551,.F.);
#568=EDGE_LOOP('',(#564,#565,#566,#567));
#569=FACE_OUTER_BOUND('',#568,.F.);
#570=ADVANCED_FACE('',(#569),#563,.F.);
#571=CARTESIAN_POINT('',(0.E0,0.E0,0.E0));
#572=DIRECTION('',(0.E0,1.E0,0.E0));
#573=DIRECTION('',(1.E0,0.E0,0.E0));
#574=AXIS2_PLACEMENT_3D('',#571,#572,#573);
#575=CYLINDRICAL_SURFACE('',#574,8.E0);
#576=ORIENTED_EDGE('',*,*,#384,.F.);
#578=ORIENTED_EDGE('',*,*,#577,.T.);
#579=ORIENTED_EDGE('',*,*,#476,.T.);
#581=ORIENTED_EDGE('',*,*,#580,.F.);
#582=EDGE_LOOP('',(#576,#578,#579,#581));
#583=FACE_OUTER_BOUND('',#582,.F.);
#584=ADVANCED_FACE('',(#583),#575,.F.);
#585=CARTESIAN_POINT('',(0.E0,0.E0,0.E0));
#586=DIRECTION('',(0.E0,1.E0,0.E0));
#587=DIRECTION('',(1.E0,0.E0,0.E0));
#588=AXIS2_PLACEMENT_3D('',#585,#586,#587);
#589=CYLINDRICAL_SURFACE('',#588,8.E0);
#590=ORIENTED_EDGE('',*,*,#386,.F.);
#591=ORIENTED_EDGE('',*,*,#580,.T.);
#592=ORIENTED_EDGE('',*,*,#478,.T.);
#593=ORIENTED_EDGE('',*,*,#577,.F.);
#594=EDGE_LOOP('',(#590,#591,#592,#593));
#595=FACE_OUTER_BOUND('',#594,.F.);
#596=ADVANCED_FACE('',(#595),#589,.F.);
#597=CARTESIAN_POINT('',(-7.7E0,0.E0,-7.7E0));
#598=DIRECTION('',(0.E0,1.E0,0.E0));
#599=DIRECTION('',(1.E0,0.E0,0.E0));
#600=AXIS2_PLACEMENT_3D('',#597,#598,#599);
#601=CYLINDRICAL_SURFACE('',#600,1.E0);
#602=ORIENTED_EDGE('',*,*,#390,.F.);
#604=ORIENTED_EDGE('',*,*,#603,.T.);
#605=ORIENTED_EDGE('',*,*,#482,.T.);
#607=ORIENTED_EDGE('',*,*,#606,.F.);
#608=EDGE_LOOP('',(#602,#604,#605,#607));
#609=FACE_OUTER_BOUND('',#608,.F.);
#610=ADVANCED_FACE('',(#609),#601,.F.);
#611=CARTESIAN_POINT('',(-7.7E0,0.E0,-7.7E0));
#612=DIRECTION('',(0.E0,1.E0,0.E0));
#613=DIRECTION('',(1.E0,0.E0,0.E0));
#614=AXIS2_PLACEMENT_3D('',#611,#612,#613);
#615=CYLINDRICAL_SURFACE('',#614,1.E0);
#616=ORIENTED_EDGE('',*,*,#392,.F.);
#617=ORIENTED_EDGE('',*,*,#606,.T.);
#618=ORIENTED_EDGE('',*,*,#484,.T.);
#619=ORIENTED_EDGE('',*,*,#603,.F.);
#620=EDGE_LOOP('',(#616,#617,#618,#619));
#621=FACE_OUTER_BOUND('',#620,.F.);
#622=ADVANCED_FACE('',(#621),#615,.F.);
#623=CARTESIAN_POINT('',(7.7E0,0.E0,-7.7E0));
#624=DIRECTION('',(0.E0,1.E0,0.E0));
#625=DIRECTION('',(1.E0,0.E0,0.E0));
#626=AXIS2_PLACEMENT_3D('',#623,#624,#625);
#627=CYLINDRICAL_SURFACE('',#626,1.E0);
#628=ORIENTED_EDGE('',*,*,#396,.F.);
#630=ORIENTED_EDGE('',*,*,#629,.T.);
#631=ORIENTED_EDGE('',*,*,#488,.T.);
#633=ORIENTED_EDGE('',*,*,#632,.F.);
#634=EDGE_LOOP('',(#628,#630,#631,#633));
#635=FACE_OUTER_BOUND('',#634,.F.);
#636=ADVANCED_FACE('',(#635),#627,.F.);
#637=CARTESIAN_POINT('',(7.7E0,0.E0,-7.7E0));
#638=DIRECTION('',(0.E0,1.E0,0.E0));
#639=DIRECTION('',(1.E0,0.E0,0.E0));
#640=AXIS2_PLACEMENT_3D('',#637,#638,#639);
#641=CYLINDRICAL_SURFACE('',#640,1.E0);
#642=ORIENTED_EDGE('',*,*,#398,.F.);
#643=ORIENTED_EDGE('',*,*,#632,.T.);
#644=ORIENTED_EDGE('',*,*,#490,.T.);
#645=ORIENTED_EDGE('',*,*,#629,.F.);
#646=EDGE_LOOP('',(#642,#643,#644,#645));
#647=FACE_OUTER_BOUND('',#646,.F.);
#648=ADVANCED_FACE('',(#647),#641,.F.);
#649=CARTESIAN_POINT('',(7.7E0,0.E0,7.7E0));
#650=DIRECTION('',(0.E0,1.E0,0.E0));
#651=DIRECTION('',(1.E0,0.E0,0.E0));
#652=AXIS2_PLACEMENT_3D('',#649,#650,#651);
#653=CYLINDRICAL_SURFACE('',#652,1.E0);
#654=ORIENTED_EDGE('',*,*,#402,.F.);
#656=ORIENTED_EDGE('',*,*,#655,.T.);
#657=ORIENTED_EDGE('',*,*,#494,.T.);
#659=ORIENTED_EDGE('',*,*,#658,.F.);
#660=EDGE_LOOP('',(#654,#656,#657,#659));
#661=FACE_OUTER_BOUND('',#660,.F.);
#662=ADVANCED_FACE('',(#661),#653,.F.);
#663=CARTESIAN_POINT('',(7.7E0,0.E0,7.7E0));
#664=DIRECTION('',(0.E0,1.E0,0.E0));
#665=DIRECTION('',(1.E0,0.E0,0.E0));
#666=AXIS2_PLACEMENT_3D('',#663,#664,#665);
#667=CYLINDRICAL_SURFACE('',#666,1.E0);
#668=ORIENTED_EDGE('',*,*,#404,.F.);
#669=ORIENTED_EDGE('',*,*,#658,.T.);
#670=ORIENTED_EDGE('',*,*,#496,.T.);
#671=ORIENTED_EDGE('',*,*,#655,.F.);
#672=EDGE_LOOP('',(#668,#669,#670,#671));
#673=FACE_OUTER_BOUND('',#672,.F.);
#674=ADVANCED_FACE('',(#673),#667,.F.);
#675=CARTESIAN_POINT('',(-7.7E0,0.E0,7.7E0));
#676=DIRECTION('',(0.E0,1.E0,0.E0));
#677=DIRECTION('',(1.E0,0.E0,0.E0));
#678=AXIS2_PLACEMENT_3D('',#675,#676,#677);
#679=CYLINDRICAL_SURFACE('',#678,1.E0);
#680=ORIENTED_EDGE('',*,*,#408,.F.);
#682=ORIENTED_EDGE('',*,*,#681,.T.);
#683=ORIENTED_EDGE('',*,*,#500,.T.);
#685=ORIENTED_EDGE('',*,*,#684,.F.);
#686=EDGE_LOOP('',(#680,#682,#683,#685));
#687=FACE_OUTER_BOUND('',#686,.F.);
#688=ADVANCED_FACE('',(#687),#679,.F.);
#689=CARTESIAN_POINT('',(-7.7E0,0.E0,7.7E0));
#690=DIRECTION('',(0.E0,1.E0,0.E0));
#691=DIRECTION('',(1.E0,0.E0,0.E0));
#692=AXIS2_PLACEMENT_3D('',#689,#690,#691);
#693=CYLINDRICAL_SURFACE('',#692,1.E0);
#694=ORIENTED_EDGE('',*,*,#410,.F.);
#695=ORIENTED_EDGE('',*,*,#684,.T.);
#696=ORIENTED_EDGE('',*,*,#502,.T.);
#697=ORIENTED_EDGE('',*,*,#681,.F.);
#698=EDGE_LOOP('',(#694,#695,#696,#697));
#699=FACE_OUTER_BOUND('',#698,.F.);
#700=ADVANCED_FACE('',(#699),#693,.F.);
#701=CARTESIAN_POINT('',(2.262741699797E1,0.E0,-2.262741699797E1));
#702=DIRECTION('',(0.E0,1.E0,0.E0));
#703=DIRECTION('',(1.E0,0.E0,0.E0));
#704=AXIS2_PLACEMENT_3D('',#701,#702,#703);
#705=CYLINDRICAL_SURFACE('',#704,1.E0);
#706=ORIENTED_EDGE('',*,*,#414,.F.);
#708=ORIENTED_EDGE('',*,*,#707,.T.);
#709=ORIENTED_EDGE('',*,*,#506,.T.);
#711=ORIENTED_EDGE('',*,*,#710,.F.);
#712=EDGE_LOOP('',(#706,#708,#709,#711));
#713=FACE_OUTER_BOUND('',#712,.F.);
#714=ADVANCED_FACE('',(#713),#705,.F.);
#715=CARTESIAN_POINT('',(2.262741699797E1,0.E0,-2.262741699797E1));
#716=DIRECTION('',(0.E0,1.E0,0.E0));
#717=DIRECTION('',(1.E0,0.E0,0.E0));
#718=AXIS2_PLACEMENT_3D('',#715,#716,#717);
#719=CYLINDRICAL_SURFACE('',#718,1.E0);
#720=ORIENTED_EDGE('',*,*,#416,.F.);
#721=ORIENTED_EDGE('',*,*,#710,.T.);
#722=ORIENTED_EDGE('',*,*,#508,.T.);
#723=ORIENTED_EDGE('',*,*,#707,.F.);
#724=EDGE_LOOP('',(#720,#721,#722,#723));
#725=FACE_OUTER_BOUND('',#724,.F.);
#726=ADVANCED_FACE('',(#725),#719,.F.);
#727=CARTESIAN_POINT('',(-2.262741699797E1,0.E0,2.262741699797E1));
#728=DIRECTION('',(0.E0,1.E0,0.E0));
#729=DIRECTION('',(1.E0,0.E0,0.E0));
#730=AXIS2_PLACEMENT_3D('',#727,#728,#729);
#731=CYLINDRICAL_SURFACE('',#730,1.E0);
#732=ORIENTED_EDGE('',*,*,#420,.F.);
#734=ORIENTED_EDGE('',*,*,#733,.T.);
#735=ORIENTED_EDGE('',*,*,#512,.T.);
#737=ORIENTED_EDGE('',*,*,#736,.F.);
#738=EDGE_LOOP('',(#732,#734,#735,#737));
#739=FACE_OUTER_BOUND('',#738,.F.);
#740=ADVANCED_FACE('',(#739),#731,.F.);
#741=CARTESIAN_POINT('',(-2.262741699797E1,0.E0,2.262741699797E1));
#742=DIRECTION('',(0.E0,1.E0,0.E0));
#743=DIRECTION('',(1.E0,0.E0,0.E0));
#744=AXIS2_PLACEMENT_3D('',#741,#742,#743);
#745=CYLINDRICAL_SURFACE('',#744,1.E0);
#746=ORIENTED_EDGE('',*,*,#422,.F.);
#747=ORIENTED_EDGE('',*,*,#736,.T.);
#748=ORIENTED_EDGE('',*,*,#514,.T.);
#749=ORIENTED_EDGE('',*,*,#733,.F.);
#750=EDGE_LOOP('',(#746,#747,#748,#749));
#751=FACE_OUTER_BOUND('',#750,.F.);
#752=ADVANCED_FACE('',(#751),#745,.F.);
#756=DIMENSIONAL_EXPONENTS(0.E0,0.E0,0.E0,0.E0,0.E0,0.E0,0.E0);
#758=PLANE_ANGLE_MEASURE_WITH_UNIT(PLANE_ANGLE_MEASURE(1.745329251994E-2),#757);
#759=(CONVERSION_BASED_UNIT('DEGREE',#758)NAMED_UNIT(*)PLANE_ANGLE_UNIT());
#761=UNCERTAINTY_MEASURE_WITH_UNIT(LENGTH_MEASURE(1.E-2),#755,'closure',
'Maximum model space distance between geometric entities at asserted connectivities');
#762=(GEOMETRIC_REPRESENTATION_CONTEXT(3)GLOBAL_UNCERTAINTY_ASSIGNED_CONTEXT((
#761))GLOBAL_UNIT_ASSIGNED_CONTEXT((#755,#759,#760))REPRESENTATION_CONTEXT
('ID1','3'));
#764=APPLICATION_CONTEXT(
'CONFIGURATION CONTROLLED 3D DESIGNS OF MECHANICAL PARTS AND ASSEMBLIES');
#765=APPLICATION_PROTOCOL_DEFINITION('international standard',
'config_control_design',1994,#764);
#766=DESIGN_CONTEXT('',#764,'design');
#767=MECHANICAL_CONTEXT('',#764,'mechanical');
#768=PRODUCT('PCB_VRTLJIVI','PCB_VRTLJIVI','NOT SPECIFIED',(#767));
#769=PRODUCT_DEFINITION_FORMATION_WITH_SPECIFIED_SOURCE('12','LAST_VERSION',
#768,.MADE.);
#773=PRODUCT_CATEGORY('part','');
#774=PRODUCT_RELATED_PRODUCT_CATEGORY('detail','',(#768));
#775=PRODUCT_CATEGORY_RELATIONSHIP('','',#773,#774);
#776=SECURITY_CLASSIFICATION_LEVEL('unclassified');
#777=SECURITY_CLASSIFICATION('','',#776);
#778=CC_DESIGN_SECURITY_CLASSIFICATION(#777,(#769));
#779=APPROVAL_STATUS('approved');
#780=APPROVAL(#779,'');
#781=CC_DESIGN_APPROVAL(#780,(#777,#769,#770));
#782=CALENDAR_DATE(122,4,11);
#783=COORDINATED_UNIVERSAL_TIME_OFFSET(1,0,.AHEAD.);
#784=LOCAL_TIME(15,9,3.7E1,#783);
#785=DATE_AND_TIME(#782,#784);
#786=APPROVAL_DATE_TIME(#785,#780);
#787=DATE_TIME_ROLE('creation_date');
#788=CC_DESIGN_DATE_AND_TIME_ASSIGNMENT(#785,#787,(#770));
#789=DATE_TIME_ROLE('classification_date');
#790=CC_DESIGN_DATE_AND_TIME_ASSIGNMENT(#785,#789,(#777));
#791=PERSON('UNSPECIFIED','UNSPECIFIED',$,$,$,$);
#792=ORGANIZATION('UNSPECIFIED','UNSPECIFIED','UNSPECIFIED');
#793=PERSON_AND_ORGANIZATION(#791,#792);
#794=APPROVAL_ROLE('approver');
#795=APPROVAL_PERSON_ORGANIZATION(#793,#780,#794);
#796=PERSON_AND_ORGANIZATION_ROLE('creator');
#797=CC_DESIGN_PERSON_AND_ORGANIZATION_ASSIGNMENT(#793,#796,(#769,#770));
#798=PERSON_AND_ORGANIZATION_ROLE('design_supplier');
#799=CC_DESIGN_PERSON_AND_ORGANIZATION_ASSIGNMENT(#793,#798,(#769));
#800=PERSON_AND_ORGANIZATION_ROLE('classification_officer');
#801=CC_DESIGN_PERSON_AND_ORGANIZATION_ASSIGNMENT(#793,#800,(#777));
#802=PERSON_AND_ORGANIZATION_ROLE('design_owner');
#803=CC_DESIGN_PERSON_AND_ORGANIZATION_ASSIGNMENT(#793,#802,(#768));
#5=CIRCLE('',#4,3.5E1);
#10=CIRCLE('',#9,3.5E1);
#15=CIRCLE('',#14,1.E0);
#20=CIRCLE('',#19,1.E0);
#25=CIRCLE('',#24,1.E0);
#30=CIRCLE('',#29,1.E0);
#35=CIRCLE('',#34,8.E0);
#40=CIRCLE('',#39,8.E0);
#45=CIRCLE('',#44,1.E0);
#50=CIRCLE('',#49,1.E0);
#55=CIRCLE('',#54,1.E0);
#60=CIRCLE('',#59,1.E0);
#65=CIRCLE('',#64,1.E0);
#70=CIRCLE('',#69,1.E0);
#75=CIRCLE('',#74,1.E0);
#80=CIRCLE('',#79,1.E0);
#85=CIRCLE('',#84,1.E0);
#90=CIRCLE('',#89,1.E0);
#95=CIRCLE('',#94,1.E0);
#100=CIRCLE('',#99,1.E0);
#113=CIRCLE('',#112,3.5E1);
#118=CIRCLE('',#117,3.5E1);
#123=CIRCLE('',#122,1.E0);
#128=CIRCLE('',#127,1.E0);
#133=CIRCLE('',#132,1.E0);
#138=CIRCLE('',#137,1.E0);
#143=CIRCLE('',#142,8.E0);
#148=CIRCLE('',#147,8.E0);
#153=CIRCLE('',#152,1.E0);
#158=CIRCLE('',#157,1.E0);
#163=CIRCLE('',#162,1.E0);
#168=CIRCLE('',#167,1.E0);
#173=CIRCLE('',#172,1.E0);
#178=CIRCLE('',#177,1.E0);
#183=CIRCLE('',#182,1.E0);
#188=CIRCLE('',#187,1.E0);
#193=CIRCLE('',#192,1.E0);
#198=CIRCLE('',#197,1.E0);
#203=CIRCLE('',#202,1.E0);
#208=CIRCLE('',#207,1.E0);
#366=EDGE_CURVE('',#283,#284,#5,.T.);
#368=EDGE_CURVE('',#284,#283,#10,.T.);
#372=EDGE_CURVE('',#291,#292,#15,.T.);
#374=EDGE_CURVE('',#292,#291,#20,.T.);
#378=EDGE_CURVE('',#295,#296,#25,.T.);
#380=EDGE_CURVE('',#296,#295,#30,.T.);
#384=EDGE_CURVE('',#299,#300,#35,.T.);
#386=EDGE_CURVE('',#300,#299,#40,.T.);
#390=EDGE_CURVE('',#303,#304,#45,.T.);
#392=EDGE_CURVE('',#304,#303,#50,.T.);
#396=EDGE_CURVE('',#307,#308,#55,.T.);
#398=EDGE_CURVE('',#308,#307,#60,.T.);
#402=EDGE_CURVE('',#311,#312,#65,.T.);
#404=EDGE_CURVE('',#312,#311,#70,.T.);
#408=EDGE_CURVE('',#315,#316,#75,.T.);
#410=EDGE_CURVE('',#316,#315,#80,.T.);
#414=EDGE_CURVE('',#319,#320,#85,.T.);
#416=EDGE_CURVE('',#320,#319,#90,.T.);
#420=EDGE_CURVE('',#323,#324,#95,.T.);
#422=EDGE_CURVE('',#324,#323,#100,.T.);
#433=EDGE_CURVE('',#283,#287,#104,.T.);
#435=EDGE_CURVE('',#287,#288,#113,.T.);
#437=EDGE_CURVE('',#284,#288,#108,.T.);
#449=EDGE_CURVE('',#288,#287,#118,.T.);
#464=EDGE_CURVE('',#327,#328,#123,.T.);
#466=EDGE_CURVE('',#328,#327,#128,.T.);
#470=EDGE_CURVE('',#331,#332,#133,.T.);
#472=EDGE_CURVE('',#332,#331,#138,.T.);
#476=EDGE_CURVE('',#335,#336,#143,.T.);
#478=EDGE_CURVE('',#336,#335,#148,.T.);
#482=EDGE_CURVE('',#339,#340,#153,.T.);
#484=EDGE_CURVE('',#340,#339,#158,.T.);
#488=EDGE_CURVE('',#343,#344,#163,.T.);
#490=EDGE_CURVE('',#344,#343,#168,.T.);
#494=EDGE_CURVE('',#347,#348,#173,.T.);
#496=EDGE_CURVE('',#348,#347,#178,.T.);
#500=EDGE_CURVE('',#351,#352,#183,.T.);
#502=EDGE_CURVE('',#352,#351,#188,.T.);
#506=EDGE_CURVE('',#355,#356,#193,.T.);
#508=EDGE_CURVE('',#356,#355,#198,.T.);
#512=EDGE_CURVE('',#359,#360,#203,.T.);
#514=EDGE_CURVE('',#360,#359,#208,.T.);
#525=EDGE_CURVE('',#291,#327,#212,.T.);
#528=EDGE_CURVE('',#292,#328,#216,.T.);
#551=EDGE_CURVE('',#295,#331,#220,.T.);
#554=EDGE_CURVE('',#296,#332,#224,.T.);
#577=EDGE_CURVE('',#299,#335,#228,.T.);
#580=EDGE_CURVE('',#300,#336,#232,.T.);
#603=EDGE_CURVE('',#303,#339,#236,.T.);
#606=EDGE_CURVE('',#304,#340,#240,.T.);
#629=EDGE_CURVE('',#307,#343,#244,.T.);
#632=EDGE_CURVE('',#308,#344,#248,.T.);
#655=EDGE_CURVE('',#311,#347,#252,.T.);
#658=EDGE_CURVE('',#312,#348,#256,.T.);
#681=EDGE_CURVE('',#315,#351,#260,.T.);
#684=EDGE_CURVE('',#316,#352,#264,.T.);
#707=EDGE_CURVE('',#319,#355,#268,.T.);
#710=EDGE_CURVE('',#320,#356,#272,.T.);
#733=EDGE_CURVE('',#323,#359,#276,.T.);
#736=EDGE_CURVE('',#324,#360,#280,.T.);
#753=CLOSED_SHELL('',(#426,#441,#454,#518,#532,#544,#558,#570,#584,#596,#610,
#622,#636,#648,#662,#674,#688,#700,#714,#726,#740,#752));
#754=MANIFOLD_SOLID_BREP('',#753);
#755=(LENGTH_UNIT()NAMED_UNIT(*)SI_UNIT(.MILLI.,.METRE.));
#757=(NAMED_UNIT(*)PLANE_ANGLE_UNIT()SI_UNIT($,.RADIAN.));
#760=(NAMED_UNIT(*)SI_UNIT($,.STERADIAN.)SOLID_ANGLE_UNIT());
#763=ADVANCED_BREP_SHAPE_REPRESENTATION('',(#754),#762);
#770=PRODUCT_DEFINITION('design','',#769,#766);
#771=PRODUCT_DEFINITION_SHAPE('','SHAPE FOR PCB_VRTLJIVI.',#770);
#772=SHAPE_DEFINITION_REPRESENTATION(#771,#763);
ENDSEC;
END-ISO-10303-21;
