G04*
G04 #@! TF.GenerationSoftware,Altium Limited,Altium Designer,22.6.1 (34)*
G04*
G04 Layer_Physical_Order=4*
G04 Layer_Color=16711680*
%FSLAX44Y44*%
%MOMM*%
G71*
G04*
G04 #@! TF.SameCoordinates,2749D786-5B7B-4281-819F-A1242ED465B1*
G04*
G04*
G04 #@! TF.FilePolarity,Positive*
G04*
G01*
G75*
%ADD11C,0.2540*%
%ADD13C,0.1000*%
%ADD18R,0.9000X0.7000*%
%ADD24R,0.7000X0.9000*%
G04:AMPARAMS|DCode=25|XSize=0.55mm|YSize=0.5mm|CornerRadius=0.0625mm|HoleSize=0mm|Usage=FLASHONLY|Rotation=180.000|XOffset=0mm|YOffset=0mm|HoleType=Round|Shape=RoundedRectangle|*
%AMROUNDEDRECTD25*
21,1,0.5500,0.3750,0,0,180.0*
21,1,0.4250,0.5000,0,0,180.0*
1,1,0.1250,-0.2125,0.1875*
1,1,0.1250,0.2125,0.1875*
1,1,0.1250,0.2125,-0.1875*
1,1,0.1250,-0.2125,-0.1875*
%
%ADD25ROUNDEDRECTD25*%
%ADD50C,1.0000*%
%ADD51C,0.5000*%
%ADD52C,0.3000*%
%ADD53C,0.4000*%
%ADD54C,2.0000*%
%ADD55C,0.7000*%
%ADD56C,1.5748*%
%ADD57C,16.0000*%
%ADD58C,1.5000*%
%ADD59C,1.0000*%
%ADD60C,0.6000*%
%ADD61C,0.5000*%
%ADD62R,0.9500X0.9500*%
%ADD63R,2.1900X1.6000*%
G04:AMPARAMS|DCode=64|XSize=0.5mm|YSize=1.8mm|CornerRadius=0mm|HoleSize=0mm|Usage=FLASHONLY|Rotation=315.000|XOffset=0mm|YOffset=0mm|HoleType=Round|Shape=Rectangle|*
%AMROTATEDRECTD64*
4,1,4,-0.8132,-0.4596,0.4596,0.8132,0.8132,0.4596,-0.4596,-0.8132,-0.8132,-0.4596,0.0*
%
%ADD64ROTATEDRECTD64*%

G04:AMPARAMS|DCode=65|XSize=1.4mm|YSize=1.8mm|CornerRadius=0mm|HoleSize=0mm|Usage=FLASHONLY|Rotation=315.000|XOffset=0mm|YOffset=0mm|HoleType=Round|Shape=Rectangle|*
%AMROTATEDRECTD65*
4,1,4,-1.1314,-0.1414,0.1414,1.1314,1.1314,0.1414,-0.1414,-1.1314,-1.1314,-0.1414,0.0*
%
%ADD65ROTATEDRECTD65*%

G04:AMPARAMS|DCode=66|XSize=0.5mm|YSize=1.8mm|CornerRadius=0mm|HoleSize=0mm|Usage=FLASHONLY|Rotation=225.000|XOffset=0mm|YOffset=0mm|HoleType=Round|Shape=Rectangle|*
%AMROTATEDRECTD66*
4,1,4,-0.4596,0.8132,0.8132,-0.4596,0.4596,-0.8132,-0.8132,0.4596,-0.4596,0.8132,0.0*
%
%ADD66ROTATEDRECTD66*%

G04:AMPARAMS|DCode=67|XSize=1.4mm|YSize=1.8mm|CornerRadius=0mm|HoleSize=0mm|Usage=FLASHONLY|Rotation=225.000|XOffset=0mm|YOffset=0mm|HoleType=Round|Shape=Rectangle|*
%AMROTATEDRECTD67*
4,1,4,-0.1414,1.1314,1.1314,-0.1414,0.1414,-1.1314,-1.1314,0.1414,-0.1414,1.1314,0.0*
%
%ADD67ROTATEDRECTD67*%

%ADD68R,1.8000X0.5000*%
%ADD69R,1.8000X1.4000*%
%ADD70R,0.5000X1.0000*%
%ADD71R,1.0000X0.5000*%
%ADD72R,0.5900X1.3400*%
%ADD73R,2.8000X2.0000*%
%ADD74R,1.8000X1.3000*%
%ADD75R,0.8000X1.0000*%
G04:AMPARAMS|DCode=76|XSize=0.9mm|YSize=0.7mm|CornerRadius=0mm|HoleSize=0mm|Usage=FLASHONLY|Rotation=315.000|XOffset=0mm|YOffset=0mm|HoleType=Round|Shape=Rectangle|*
%AMROTATEDRECTD76*
4,1,4,-0.5657,0.0707,-0.0707,0.5657,0.5657,-0.0707,0.0707,-0.5657,-0.5657,0.0707,0.0*
%
%ADD76ROTATEDRECTD76*%

G04:AMPARAMS|DCode=77|XSize=0.9mm|YSize=0.7mm|CornerRadius=0mm|HoleSize=0mm|Usage=FLASHONLY|Rotation=45.000|XOffset=0mm|YOffset=0mm|HoleType=Round|Shape=Rectangle|*
%AMROTATEDRECTD77*
4,1,4,-0.0707,-0.5657,-0.5657,-0.0707,0.0707,0.5657,0.5657,0.0707,-0.0707,-0.5657,0.0*
%
%ADD77ROTATEDRECTD77*%

%ADD78R,1.9500X2.9500*%
%ADD79C,1.6000*%
%ADD80C,0.6000*%
G36*
X18158Y346476D02*
X36266Y345051D01*
X54275Y342680D01*
X72135Y339370D01*
X89798Y335130D01*
X107214Y329971D01*
X124336Y323908D01*
X141118Y316956D01*
X157513Y309136D01*
X173476Y300469D01*
X188963Y290978D01*
X203933Y280690D01*
X218344Y269632D01*
X232156Y257836D01*
X245332Y245332D01*
X257835Y232156D01*
X269632Y218344D01*
X280690Y203933D01*
X290978Y188964D01*
X300469Y173476D01*
X309136Y157513D01*
X316956Y141118D01*
X323907Y124336D01*
X329971Y107214D01*
X335130Y89798D01*
X339370Y72135D01*
X342680Y54275D01*
X345051Y36266D01*
X346476Y18158D01*
X346946Y229D01*
X346900Y-0D01*
X346946Y-229D01*
X346476Y-18158D01*
X345051Y-36266D01*
X342680Y-54275D01*
X339370Y-72135D01*
X335130Y-89798D01*
X329971Y-107214D01*
X323907Y-124337D01*
X316956Y-141118D01*
X309136Y-157513D01*
X300469Y-173476D01*
X290978Y-188964D01*
X280690Y-203933D01*
X269632Y-218344D01*
X257835Y-232156D01*
X245332Y-245332D01*
X232156Y-257836D01*
X218344Y-269632D01*
X203933Y-280690D01*
X188963Y-290978D01*
X173476Y-300469D01*
X157513Y-309137D01*
X141118Y-316956D01*
X124336Y-323908D01*
X107214Y-329971D01*
X89798Y-335130D01*
X72135Y-339370D01*
X54275Y-342680D01*
X36266Y-345051D01*
X18158Y-346477D01*
X228Y-346946D01*
X-0Y-346900D01*
X-229Y-346946D01*
X-18158Y-346477D01*
X-36267Y-345051D01*
X-54275Y-342680D01*
X-72136Y-339370D01*
X-89798Y-335130D01*
X-107214Y-329971D01*
X-124337Y-323908D01*
X-141118Y-316956D01*
X-157513Y-309137D01*
X-173476Y-300469D01*
X-188964Y-290978D01*
X-203933Y-280690D01*
X-218344Y-269632D01*
X-232156Y-257836D01*
X-245332Y-245332D01*
X-257836Y-232156D01*
X-269632Y-218344D01*
X-280690Y-203933D01*
X-290979Y-188964D01*
X-300469Y-173476D01*
X-309137Y-157513D01*
X-316957Y-141118D01*
X-323908Y-124337D01*
X-329971Y-107214D01*
X-335130Y-89798D01*
X-339370Y-72135D01*
X-342681Y-54275D01*
X-345051Y-36266D01*
X-346477Y-18158D01*
X-346946Y-229D01*
X-346901Y-0D01*
X-346946Y229D01*
X-346477Y18158D01*
X-345051Y36266D01*
X-342681Y54275D01*
X-339370Y72135D01*
X-335130Y89798D01*
X-329971Y107214D01*
X-323908Y124336D01*
X-316957Y141118D01*
X-309137Y157513D01*
X-300469Y173476D01*
X-290979Y188964D01*
X-280690Y203933D01*
X-269632Y218344D01*
X-257836Y232156D01*
X-245332Y245332D01*
X-232156Y257836D01*
X-218344Y269632D01*
X-203933Y280690D01*
X-188964Y290978D01*
X-173476Y300469D01*
X-157513Y309136D01*
X-141118Y316956D01*
X-124337Y323908D01*
X-107214Y329971D01*
X-89798Y335130D01*
X-72136Y339370D01*
X-54275Y342680D01*
X-36267Y345051D01*
X-18158Y346476D01*
X-229Y346946D01*
X-0Y346900D01*
X228Y346946D01*
X18158Y346476D01*
D02*
G37*
%LPC*%
G36*
X-40898Y314540D02*
X-43102D01*
X-45138Y313697D01*
X-46697Y312138D01*
X-47540Y310102D01*
Y307898D01*
X-46697Y305862D01*
X-45138Y304303D01*
X-43102Y303460D01*
X-40898D01*
X-38862Y304303D01*
X-37303Y305862D01*
X-36460Y307898D01*
Y310102D01*
X-37303Y312138D01*
X-38862Y313697D01*
X-40898Y314540D01*
D02*
G37*
G36*
X36102Y312540D02*
X33898D01*
X31862Y311697D01*
X30303Y310138D01*
X29460Y308102D01*
Y305898D01*
X30303Y303862D01*
X31862Y302303D01*
X33898Y301460D01*
X36102D01*
X38138Y302303D01*
X39697Y303862D01*
X40540Y305898D01*
Y308102D01*
X39697Y310138D01*
X38138Y311697D01*
X36102Y312540D01*
D02*
G37*
G36*
X1102Y307540D02*
X-1102D01*
X-3138Y306697D01*
X-4697Y305138D01*
X-5540Y303102D01*
Y300898D01*
X-4697Y298862D01*
X-3138Y297303D01*
X-1102Y296460D01*
X1102D01*
X3138Y297303D01*
X4697Y298862D01*
X5540Y300898D01*
Y303102D01*
X4697Y305138D01*
X3138Y306697D01*
X1102Y307540D01*
D02*
G37*
G36*
X94102Y285540D02*
X91898D01*
X89862Y284697D01*
X88303Y283138D01*
X87460Y281102D01*
Y278898D01*
X88303Y276862D01*
X89862Y275303D01*
X91898Y274460D01*
X94102D01*
X96138Y275303D01*
X97697Y276862D01*
X98540Y278898D01*
Y281102D01*
X97697Y283138D01*
X96138Y284697D01*
X94102Y285540D01*
D02*
G37*
G36*
X-60730Y277470D02*
Y273270D01*
X-56530D01*
X-57303Y275138D01*
X-58862Y276697D01*
X-60730Y277470D01*
D02*
G37*
G36*
X-63270D02*
X-65138Y276697D01*
X-66697Y275138D01*
X-67470Y273270D01*
X-63270D01*
Y277470D01*
D02*
G37*
G36*
Y270730D02*
X-67470D01*
X-66697Y268862D01*
X-65138Y267303D01*
X-63270Y266530D01*
Y270730D01*
D02*
G37*
G36*
X-50875Y269602D02*
X-51730D01*
Y265770D01*
X-47648D01*
Y266375D01*
X-47894Y267610D01*
X-48593Y268657D01*
X-49640Y269356D01*
X-50875Y269602D01*
D02*
G37*
G36*
X-56530Y270730D02*
X-60730D01*
Y266530D01*
X-59516Y267032D01*
X-58862Y266663D01*
X-58352Y266154D01*
Y265770D01*
X-54270D01*
Y269602D01*
X-55125D01*
X-55667Y269494D01*
X-56580Y270607D01*
X-56530Y270730D01*
D02*
G37*
G36*
X35790Y275290D02*
X11210D01*
Y263683D01*
X10154Y262977D01*
X10002Y263040D01*
X7997D01*
X6145Y262273D01*
X4727Y260855D01*
X3960Y259002D01*
Y256998D01*
X4727Y255145D01*
X6145Y253727D01*
X7997Y252960D01*
X10002D01*
X10154Y253023D01*
X11210Y252317D01*
Y240710D01*
X34751D01*
X35600Y239440D01*
X35530Y239270D01*
X39730D01*
Y243470D01*
X37862Y242697D01*
X37060Y241895D01*
X35790Y242421D01*
Y247460D01*
X39730D01*
Y254750D01*
X41000D01*
Y256020D01*
X48290D01*
Y259960D01*
Y274540D01*
X35790D01*
Y275290D01*
D02*
G37*
G36*
X-118898Y263080D02*
X-121102D01*
X-123138Y262237D01*
X-124170Y261204D01*
X-125000Y260819D01*
X-125830Y261204D01*
X-126862Y262237D01*
X-128898Y263080D01*
X-131102D01*
X-133138Y262237D01*
X-134170Y261204D01*
X-135000Y260819D01*
X-135830Y261204D01*
X-136862Y262237D01*
X-138898Y263080D01*
X-141102D01*
X-143138Y262237D01*
X-144697Y260678D01*
X-145540Y258642D01*
Y256438D01*
X-145139Y255469D01*
Y243071D01*
X-145540Y242102D01*
Y239898D01*
X-144697Y237862D01*
X-143138Y236303D01*
X-141102Y235460D01*
X-138898D01*
X-136862Y236303D01*
X-136409Y236756D01*
X-135139Y236231D01*
Y234071D01*
X-135540Y233102D01*
Y230898D01*
X-134697Y228862D01*
X-133138Y227303D01*
X-131102Y226460D01*
X-128898D01*
X-126862Y227303D01*
X-126409Y227757D01*
X-125139Y227230D01*
Y225071D01*
X-125540Y224102D01*
Y221898D01*
X-124697Y219862D01*
X-123138Y218303D01*
X-121102Y217460D01*
X-118898D01*
X-116862Y218303D01*
X-115303Y219862D01*
X-114460Y221898D01*
Y224102D01*
X-114861Y225071D01*
Y255469D01*
X-114460Y256438D01*
Y258642D01*
X-115303Y260678D01*
X-116862Y262237D01*
X-118898Y263080D01*
D02*
G37*
G36*
X-98898Y268540D02*
X-101102D01*
X-103138Y267697D01*
X-104697Y266138D01*
X-105540Y264102D01*
Y261898D01*
X-104697Y259862D01*
X-103138Y258303D01*
X-101102Y257460D01*
X-98898D01*
X-96862Y258303D01*
X-95303Y259862D01*
X-94460Y261898D01*
Y264102D01*
X-95303Y266138D01*
X-96862Y267697D01*
X-98898Y268540D01*
D02*
G37*
G36*
X-7210Y275290D02*
X-31790D01*
Y274540D01*
X-44290D01*
Y259960D01*
Y256020D01*
X-37000D01*
Y254750D01*
X-35730D01*
Y247460D01*
X-31790D01*
Y240710D01*
X-7210D01*
Y252500D01*
X-5940Y253348D01*
X-5002Y252960D01*
X-2998D01*
X-1145Y253727D01*
X273Y255145D01*
X1040Y256998D01*
Y259002D01*
X273Y260855D01*
X-1145Y262273D01*
X-2998Y263040D01*
X-5002D01*
X-5940Y262652D01*
X-7210Y263500D01*
Y275290D01*
D02*
G37*
G36*
X48290Y253480D02*
X42270D01*
Y247460D01*
X48290D01*
Y253480D01*
D02*
G37*
G36*
X65002Y275040D02*
X62997D01*
X61145Y274273D01*
X59727Y272855D01*
X58960Y271003D01*
Y268997D01*
X59727Y267145D01*
X60900Y265972D01*
Y252540D01*
X49960D01*
Y238540D01*
X49270D01*
Y231000D01*
Y223460D01*
X69040D01*
Y237460D01*
X78040D01*
Y238115D01*
X91757D01*
X92145Y237727D01*
X93997Y236960D01*
X96003D01*
X97855Y237727D01*
X99273Y239145D01*
X100040Y240998D01*
Y243002D01*
X99273Y244855D01*
X97855Y246273D01*
X96003Y247040D01*
X93997D01*
X92145Y246273D01*
X91757Y245885D01*
X78040D01*
Y252540D01*
X67100D01*
Y265972D01*
X68273Y267145D01*
X69040Y268997D01*
Y271003D01*
X68273Y272855D01*
X66855Y274273D01*
X65002Y275040D01*
D02*
G37*
G36*
X39730Y236730D02*
X35530D01*
X36303Y234862D01*
X37862Y233303D01*
X39730Y232530D01*
Y236730D01*
D02*
G37*
G36*
X42270Y243470D02*
Y238000D01*
Y232348D01*
X42386Y232270D01*
X46730D01*
Y238540D01*
X46540D01*
Y239102D01*
X45697Y241138D01*
X44138Y242697D01*
X42270Y243470D01*
D02*
G37*
G36*
X46730Y229730D02*
X42960D01*
Y223460D01*
X46730D01*
Y229730D01*
D02*
G37*
G36*
X227925Y238814D02*
X224623D01*
X221434Y237960D01*
X218574Y236309D01*
X216239Y233974D01*
X214589Y231114D01*
X213734Y227925D01*
Y224623D01*
X214589Y221434D01*
X216239Y218574D01*
X218574Y216240D01*
X221434Y214589D01*
X224623Y213734D01*
X227925D01*
X231114Y214589D01*
X233974Y216240D01*
X236308Y218574D01*
X237959Y221434D01*
X238814Y224623D01*
Y227925D01*
X237959Y231114D01*
X236308Y233974D01*
X233974Y236309D01*
X231114Y237960D01*
X227925Y238814D01*
D02*
G37*
G36*
X-224624Y238814D02*
X-227925D01*
X-231115Y237959D01*
X-233974Y236309D01*
X-236309Y233974D01*
X-237960Y231114D01*
X-238814Y227925D01*
Y224623D01*
X-237960Y221434D01*
X-236309Y218574D01*
X-233974Y216240D01*
X-231115Y214589D01*
X-227925Y213734D01*
X-224624D01*
X-221434Y214589D01*
X-218575Y216240D01*
X-216240Y218574D01*
X-214589Y221434D01*
X-213734Y224623D01*
Y227925D01*
X-214589Y231114D01*
X-216240Y233974D01*
X-218575Y236309D01*
X-221434Y237959D01*
X-224624Y238814D01*
D02*
G37*
G36*
X61390Y211540D02*
X49170D01*
Y202270D01*
X61390D01*
Y211540D01*
D02*
G37*
G36*
X46630D02*
X34410D01*
Y202270D01*
X46630D01*
Y211540D01*
D02*
G37*
G36*
X61390Y199730D02*
X49170D01*
Y190460D01*
X61390D01*
Y199730D01*
D02*
G37*
G36*
X46630D02*
X34410D01*
Y190460D01*
X46630D01*
Y199730D01*
D02*
G37*
G36*
X-47648Y263230D02*
X-53000D01*
X-58352D01*
Y262625D01*
X-58106Y261390D01*
X-57407Y260343D01*
Y259657D01*
X-58106Y258610D01*
X-58352Y257375D01*
Y253625D01*
X-58106Y252390D01*
X-57407Y251343D01*
X-56360Y250644D01*
X-55125Y250398D01*
X-54851D01*
X-54267Y249523D01*
X-48661Y243917D01*
X-49040Y243002D01*
Y240998D01*
X-48273Y239145D01*
X-47885Y238757D01*
Y211540D01*
X-57390D01*
Y190460D01*
X-30410D01*
Y211540D01*
X-40115D01*
Y238757D01*
X-39727Y239145D01*
X-38960Y240998D01*
Y243002D01*
X-39727Y244855D01*
X-40708Y245836D01*
X-40779Y246190D01*
X-39973Y247460D01*
X-38270D01*
Y253480D01*
X-44290D01*
Y252193D01*
X-45463Y251707D01*
X-47635Y253879D01*
Y254270D01*
X-47648Y254334D01*
Y257375D01*
X-47894Y258610D01*
X-48593Y259657D01*
Y260343D01*
X-47894Y261390D01*
X-47648Y262625D01*
Y263230D01*
D02*
G37*
G36*
X-159177Y202466D02*
X-165025Y196618D01*
X-157763Y189356D01*
X-151915Y195204D01*
X-159177Y202466D01*
D02*
G37*
G36*
X152562Y194851D02*
X145300Y187589D01*
X151148Y181741D01*
X158410Y189003D01*
X152562Y194851D01*
D02*
G37*
G36*
X-166821Y194822D02*
X-172668Y188974D01*
X-165406Y181712D01*
X-159559Y187560D01*
X-166821Y194822D01*
D02*
G37*
G36*
X-150119Y193407D02*
X-155967Y187560D01*
X-148705Y180298D01*
X-142857Y186146D01*
X-150119Y193407D01*
D02*
G37*
G36*
X-157763Y185764D02*
X-163610Y179916D01*
X-156348Y172654D01*
X-150501Y178502D01*
X-157763Y185764D01*
D02*
G37*
G36*
X-212007Y214540D02*
X-213993D01*
X-215910Y214026D01*
X-217630Y213034D01*
X-219034Y211630D01*
X-220026Y209910D01*
X-220540Y207993D01*
Y206007D01*
X-220026Y204090D01*
X-219034Y202370D01*
X-217630Y200966D01*
X-217107Y200665D01*
X-216791Y199077D01*
X-215677Y197410D01*
X-207354Y189087D01*
X-214199Y182243D01*
X-212854Y180898D01*
X-213634Y180119D01*
X-214748Y178452D01*
X-215139Y176485D01*
Y172526D01*
X-216312Y172040D01*
X-216606Y172333D01*
X-218980Y173704D01*
X-221629Y174414D01*
X-224371D01*
X-227020Y173704D01*
X-229394Y172333D01*
X-231333Y170394D01*
X-232704Y168020D01*
X-233414Y165371D01*
Y162629D01*
X-232704Y159980D01*
X-231333Y157606D01*
X-229394Y155667D01*
X-227020Y154296D01*
X-224371Y153586D01*
X-221629D01*
X-218980Y154296D01*
X-216606Y155667D01*
X-214667Y157606D01*
X-213296Y159980D01*
X-212586Y162629D01*
Y164023D01*
X-211316Y164549D01*
X-204205Y157438D01*
X-211206Y150437D01*
X-216644Y144999D01*
X-208484Y136839D01*
X-200324Y128679D01*
X-195748Y133254D01*
X-189441Y126947D01*
X-194016Y122372D01*
X-185856Y114212D01*
X-177696Y106052D01*
X-173121Y110627D01*
X-172569Y110075D01*
X-171309Y109233D01*
X-169822Y108938D01*
X-168726D01*
X-168240Y107764D01*
X-168472Y107533D01*
X-169842Y105158D01*
X-170552Y102509D01*
Y99767D01*
X-169842Y97119D01*
X-168472Y94744D01*
X-166533Y92805D01*
X-164158Y91434D01*
X-161509Y90724D01*
X-158767D01*
X-156119Y91434D01*
X-153744Y92805D01*
X-151805Y94744D01*
X-150434Y97119D01*
X-149724Y99767D01*
Y102509D01*
X-150434Y105158D01*
X-151805Y107533D01*
X-152037Y107764D01*
X-151551Y108938D01*
X-113772D01*
X-113138Y108303D01*
X-111102Y107460D01*
X-108898D01*
X-106862Y108303D01*
X-105303Y109862D01*
X-104460Y111898D01*
Y114102D01*
X-104915Y115200D01*
X-104197Y116520D01*
X-103459Y116624D01*
X-103138Y116303D01*
X-101102Y115460D01*
X-98898D01*
X-96862Y116303D01*
X-95303Y117862D01*
X-94460Y119898D01*
Y122102D01*
X-95303Y124138D01*
X-96862Y125697D01*
X-98898Y126540D01*
X-101102D01*
X-103138Y125697D01*
X-103950Y124885D01*
X-157204D01*
X-157690Y126058D01*
X-153764Y129984D01*
X-152033Y128253D01*
X-150773Y127411D01*
X-149286Y127115D01*
X-140000D01*
X-138513Y127411D01*
X-137253Y128253D01*
X-110253Y155253D01*
X-109411Y156513D01*
X-109115Y158000D01*
Y166046D01*
X-108003Y166960D01*
X-105997D01*
X-104145Y167727D01*
X-102727Y169145D01*
X-101960Y170998D01*
Y173002D01*
X-101984Y173060D01*
X-100907Y173780D01*
X-99855Y172727D01*
X-98003Y171960D01*
X-95997D01*
X-94145Y172727D01*
X-92727Y174145D01*
X-91960Y175998D01*
Y178002D01*
X-92727Y179855D01*
X-94145Y181273D01*
X-95997Y182040D01*
X-96546D01*
X-98253Y183747D01*
X-99513Y184589D01*
X-101000Y184885D01*
X-114000D01*
X-115487Y184589D01*
X-116747Y183747D01*
X-120747Y179747D01*
X-121589Y178487D01*
X-121885Y177000D01*
Y166833D01*
X-123058Y166347D01*
X-127492Y170780D01*
X-134237Y164034D01*
X-135135Y164932D01*
X-136033Y164034D01*
X-144193Y172194D01*
X-149561Y166826D01*
X-150368Y167634D01*
X-152035Y168748D01*
X-154002Y169139D01*
X-158944D01*
X-167564Y177758D01*
X-167564Y177758D01*
X-177490Y187684D01*
X-178207Y188164D01*
X-183343Y193299D01*
X-193299Y183343D01*
X-185799Y175843D01*
X-186843Y174799D01*
X-194343Y182299D01*
X-203027Y173616D01*
X-204372Y174067D01*
X-204468Y174750D01*
X-201316Y177902D01*
X-201035Y178323D01*
X-195701Y183657D01*
X-196338Y184294D01*
X-195294Y185338D01*
X-194657Y184701D01*
X-184701Y194657D01*
X-193243Y203199D01*
X-200087Y196354D01*
X-206651Y202918D01*
X-205974Y204090D01*
X-205460Y206007D01*
Y207993D01*
X-205974Y209910D01*
X-206966Y211630D01*
X-208370Y213034D01*
X-210090Y214026D01*
X-212007Y214540D01*
D02*
G37*
G36*
X138993Y181281D02*
X131731Y174019D01*
X137578Y168172D01*
X144840Y175434D01*
X138993Y181281D01*
D02*
G37*
G36*
X-136550Y179838D02*
X-142397Y173990D01*
X-135135Y166728D01*
X-129288Y172576D01*
X-136550Y179838D01*
D02*
G37*
G36*
X146637Y173638D02*
X139375Y166376D01*
X145222Y160528D01*
X152484Y167790D01*
X146637Y173638D01*
D02*
G37*
G36*
X129935Y172223D02*
X122673Y164961D01*
X128520Y159114D01*
X135782Y166376D01*
X129935Y172223D01*
D02*
G37*
G36*
X137578Y164579D02*
X130317Y157317D01*
X136164Y151470D01*
X143426Y158732D01*
X137578Y164579D01*
D02*
G37*
G36*
X135002Y240040D02*
X132998D01*
X131145Y239273D01*
X129727Y237855D01*
X128960Y236003D01*
Y233997D01*
X129219Y233372D01*
X128997Y233040D01*
X127145Y232273D01*
X125727Y230855D01*
X124960Y229002D01*
Y226998D01*
X125727Y225145D01*
X127145Y223727D01*
X128997Y222960D01*
X131003D01*
X132855Y223727D01*
X133243Y224115D01*
X142391D01*
X161413Y205093D01*
X161620Y203909D01*
X154358Y196647D01*
X161104Y189901D01*
X160206Y189003D01*
X161104Y188105D01*
X152944Y179945D01*
X158323Y174566D01*
X157254Y172966D01*
X156863Y171000D01*
Y166057D01*
X147380Y156574D01*
X147380Y156574D01*
X140124Y149318D01*
X139243Y150199D01*
X130701Y141657D01*
X140657Y131701D01*
X148295Y139339D01*
X149026Y138608D01*
X157186Y146767D01*
X158983Y144971D01*
X150823Y136811D01*
X153411Y134223D01*
X152495Y132852D01*
X152104Y130885D01*
Y129060D01*
X147701Y124657D01*
X152228Y120130D01*
X151748Y118896D01*
X150846Y118797D01*
X146343Y123299D01*
X145731Y122687D01*
X138687Y129731D01*
X139299Y130343D01*
X129343Y140299D01*
X120801Y131757D01*
X129749Y122810D01*
X129223Y121540D01*
X128007D01*
X126090Y121026D01*
X124370Y120034D01*
X122966Y118630D01*
X121974Y116910D01*
X121460Y114993D01*
Y113007D01*
X121974Y111090D01*
X122966Y109370D01*
X124370Y107966D01*
X126090Y106974D01*
X128007Y106460D01*
X129993D01*
X131910Y106974D01*
X133630Y107966D01*
X135034Y109370D01*
X136026Y111090D01*
X136540Y113007D01*
Y113566D01*
X136883Y113909D01*
X137801Y114757D01*
X147757Y104801D01*
X150133Y107177D01*
X151150Y106397D01*
X150434Y105158D01*
X149724Y102509D01*
Y99767D01*
X150434Y97119D01*
X151805Y94744D01*
X153744Y92805D01*
X156119Y91434D01*
X158767Y90724D01*
X161509D01*
X164158Y91434D01*
X166533Y92805D01*
X168472Y94744D01*
X169842Y97119D01*
X170552Y99767D01*
Y102509D01*
X169842Y105158D01*
X168472Y107533D01*
X166533Y109472D01*
X164158Y110843D01*
X164006Y110883D01*
X163677Y112110D01*
X169601Y118033D01*
X174702Y112932D01*
X180139Y107495D01*
X188299Y115655D01*
X190095Y113859D01*
X181935Y105699D01*
X187783Y99851D01*
X188905Y100973D01*
X190079Y100487D01*
Y99917D01*
X190621Y98608D01*
X189649Y97636D01*
X188340Y98178D01*
X185937D01*
X183717Y97259D01*
X182018Y95560D01*
X181098Y93340D01*
Y90937D01*
X181640Y89628D01*
X180668Y88656D01*
X179359Y89198D01*
X176957D01*
X174737Y88278D01*
X173037Y86579D01*
X172118Y84359D01*
Y81957D01*
X172660Y80647D01*
X171688Y79675D01*
X170379Y80218D01*
X167976D01*
X165756Y79298D01*
X164057Y77599D01*
X163138Y75379D01*
Y72976D01*
X164057Y70756D01*
X165756Y69057D01*
X167976Y68138D01*
X170379D01*
X172599Y69057D01*
X174298Y70756D01*
X175218Y72976D01*
Y75379D01*
X174676Y76688D01*
X175648Y77660D01*
X176957Y77118D01*
X179359D01*
X181579Y78038D01*
X183278Y79737D01*
X184198Y81957D01*
Y84359D01*
X183656Y85668D01*
X184628Y86640D01*
X185937Y86098D01*
X188340D01*
X190560Y87018D01*
X192259Y88717D01*
X193178Y90937D01*
Y93340D01*
X192636Y94649D01*
X193608Y95621D01*
X194917Y95078D01*
X197320D01*
X199471Y95970D01*
X195221Y100220D01*
X197017Y102016D01*
X201267Y97766D01*
X202159Y99917D01*
Y102320D01*
X201616Y103629D01*
X202588Y104601D01*
X203897Y104059D01*
X206300D01*
X208520Y104978D01*
X210219Y106677D01*
X211139Y108897D01*
Y111300D01*
X210597Y112609D01*
X211569Y113581D01*
X212878Y113039D01*
X215280D01*
X217500Y113959D01*
X219200Y115658D01*
X220119Y117878D01*
Y120280D01*
X219577Y121589D01*
X220549Y122562D01*
X221858Y122019D01*
X224261D01*
X226481Y122939D01*
X228180Y124638D01*
X229099Y126858D01*
Y129261D01*
X228557Y130570D01*
X229529Y131542D01*
X230838Y130999D01*
X233241D01*
X235461Y131919D01*
X237160Y133618D01*
X238079Y135838D01*
Y138241D01*
X237537Y139550D01*
X238509Y140522D01*
X239818Y139980D01*
X242221D01*
X244441Y140899D01*
X246140Y142598D01*
X247060Y144818D01*
Y147221D01*
X246518Y148530D01*
X247490Y149502D01*
X248799Y148960D01*
X251201D01*
X253421Y149880D01*
X255121Y151579D01*
X256040Y153799D01*
Y156201D01*
X255121Y158421D01*
X253421Y160121D01*
X251201Y161040D01*
X248799D01*
X247998Y160709D01*
X247279Y161785D01*
X249747Y164253D01*
X250589Y165513D01*
X250885Y167000D01*
Y179050D01*
X251697Y179862D01*
X252540Y181898D01*
Y184102D01*
X251697Y186138D01*
X250138Y187697D01*
X248102Y188540D01*
X245898D01*
X243862Y187697D01*
X242303Y186138D01*
X241460Y184102D01*
Y181898D01*
X242303Y179862D01*
X243115Y179050D01*
Y168609D01*
X233739Y159233D01*
X232704Y159980D01*
X233414Y162629D01*
Y165371D01*
X232704Y168020D01*
X231333Y170394D01*
X229394Y172333D01*
X227020Y173704D01*
X224371Y174414D01*
X221629D01*
X218980Y173704D01*
X216606Y172333D01*
X216377Y172104D01*
X215203Y172590D01*
Y208398D01*
X214908Y209885D01*
X214540Y210435D01*
Y212102D01*
X213697Y214138D01*
X212138Y215697D01*
X210102Y216540D01*
X207898D01*
X205862Y215697D01*
X204303Y214138D01*
X203460Y212102D01*
Y209898D01*
X204303Y207862D01*
X205862Y206303D01*
X207434Y205652D01*
Y165357D01*
X203803Y161726D01*
X196052Y169476D01*
X195487Y170707D01*
X197747Y172967D01*
X198589Y174227D01*
X198885Y175714D01*
Y186000D01*
X198589Y187487D01*
X197747Y188747D01*
X148747Y237747D01*
X147487Y238589D01*
X146000Y238885D01*
X137243D01*
X136855Y239273D01*
X135002Y240040D01*
D02*
G37*
G36*
X-85898Y150540D02*
X-88102D01*
X-90138Y149697D01*
X-91697Y148138D01*
X-92540Y146102D01*
Y143898D01*
X-91697Y141862D01*
X-90138Y140303D01*
X-88102Y139460D01*
X-85898D01*
X-83862Y140303D01*
X-82303Y141862D01*
X-81460Y143898D01*
Y146102D01*
X-82303Y148138D01*
X-83862Y149697D01*
X-85898Y150540D01*
D02*
G37*
G36*
X67102Y129540D02*
X64898D01*
X62862Y128697D01*
X61303Y127138D01*
X60460Y125102D01*
Y122898D01*
X61303Y120862D01*
X62862Y119303D01*
X64898Y118460D01*
X67102D01*
X69138Y119303D01*
X70697Y120862D01*
X71540Y122898D01*
Y125102D01*
X70697Y127138D01*
X69138Y128697D01*
X67102Y129540D01*
D02*
G37*
G36*
X14002Y120040D02*
X11997D01*
X10145Y119273D01*
X8727Y117855D01*
X7960Y116003D01*
Y115454D01*
X-10609Y96885D01*
X-16192D01*
X-16718Y98155D01*
X-15727Y99145D01*
X-14960Y100997D01*
Y103003D01*
X-15727Y104855D01*
X-17145Y106273D01*
X-18997Y107040D01*
X-20036D01*
X-20389Y107604D01*
X-20659Y108310D01*
X-19960Y109998D01*
Y112002D01*
X-20727Y113855D01*
X-22145Y115273D01*
X-23997Y116040D01*
X-26003D01*
X-27855Y115273D01*
X-28243Y114885D01*
X-77875D01*
X-79362Y114589D01*
X-80622Y113747D01*
X-135747Y58622D01*
X-136589Y57362D01*
X-136885Y55875D01*
Y46609D01*
X-151287Y32207D01*
X-152460Y32693D01*
Y37605D01*
X-164000D01*
X-175540D01*
Y29915D01*
X-175540D01*
Y29773D01*
X-177289Y29425D01*
X-178956Y28312D01*
X-182253Y25014D01*
X-205960D01*
Y25040D01*
X-218040D01*
Y10960D01*
X-207540D01*
Y9040D01*
X-218040D01*
Y-2641D01*
X-219251Y-3175D01*
X-219960Y-2607D01*
Y9040D01*
X-220861D01*
Y10960D01*
X-219960D01*
Y25040D01*
X-226504D01*
X-227000Y25139D01*
X-227496Y25040D01*
X-232040D01*
Y20496D01*
X-232139Y20000D01*
X-232040Y19504D01*
Y15139D01*
X-255476D01*
X-256370Y16034D01*
X-258090Y17026D01*
X-260007Y17540D01*
X-261993D01*
X-263910Y17026D01*
X-265630Y16034D01*
X-267034Y14630D01*
X-268026Y12910D01*
X-268540Y10993D01*
Y9007D01*
X-268026Y7090D01*
X-267034Y5370D01*
X-265630Y3966D01*
X-263910Y2974D01*
X-261993Y2460D01*
X-260007D01*
X-258090Y2974D01*
X-256370Y3966D01*
X-255476Y4861D01*
X-232040D01*
Y-5040D01*
X-230932D01*
X-230748Y-5967D01*
X-229634Y-7634D01*
X-223509Y-13759D01*
X-221842Y-14872D01*
X-219875Y-15264D01*
X-207540D01*
Y-25165D01*
X-207540D01*
Y-32855D01*
X-196000D01*
X-184460D01*
Y-25885D01*
X-175540D01*
Y-32855D01*
X-164000D01*
X-152460D01*
Y-25885D01*
X-139000D01*
X-137513Y-25589D01*
X-136253Y-24747D01*
X-131046Y-19540D01*
X-129898D01*
X-127862Y-18697D01*
X-126303Y-17138D01*
X-125460Y-15102D01*
Y-12898D01*
X-126303Y-10862D01*
X-127862Y-9303D01*
X-129898Y-8460D01*
X-131648D01*
X-132578Y-7387D01*
X-132460Y-7102D01*
Y-4898D01*
X-133303Y-2862D01*
X-134862Y-1303D01*
X-136898Y-460D01*
X-139102D01*
X-141138Y-1303D01*
X-142697Y-2862D01*
X-143540Y-4898D01*
Y-6046D01*
X-148734Y-11240D01*
X-152460D01*
Y990D01*
X-141125D01*
X-139638Y1286D01*
X-138378Y2128D01*
X-122253Y18253D01*
X-121411Y19513D01*
X-121115Y21000D01*
Y52391D01*
X-87950Y85556D01*
X-87035Y84700D01*
X-88686Y81840D01*
X-89540Y78651D01*
Y75349D01*
X-88686Y72160D01*
X-87035Y69300D01*
X-84700Y66965D01*
X-81840Y65314D01*
X-78651Y64460D01*
X-75349D01*
X-73274Y65016D01*
X-72616Y63877D01*
X-106016Y30478D01*
X-106858Y29218D01*
X-107153Y27731D01*
Y-75653D01*
X-114287Y-82787D01*
X-115460Y-82301D01*
Y-81898D01*
X-116303Y-79862D01*
X-117862Y-78303D01*
X-119898Y-77460D01*
X-122102D01*
X-124138Y-78303D01*
X-125697Y-79862D01*
X-126540Y-81898D01*
Y-83046D01*
X-149399Y-105905D01*
X-150434Y-105158D01*
X-149724Y-102509D01*
Y-99767D01*
X-150434Y-97119D01*
X-151805Y-94744D01*
X-153744Y-92805D01*
X-156119Y-91434D01*
X-158767Y-90724D01*
X-161509D01*
X-164158Y-91434D01*
X-166533Y-92805D01*
X-168472Y-94744D01*
X-169842Y-97119D01*
X-170552Y-99767D01*
Y-102509D01*
X-169842Y-105158D01*
X-168472Y-107533D01*
X-166533Y-109472D01*
X-164158Y-110843D01*
X-164147Y-110845D01*
X-164314Y-112115D01*
X-169641D01*
X-171128Y-112411D01*
X-172388Y-113253D01*
X-172885Y-113749D01*
X-179139Y-107495D01*
X-187299Y-115655D01*
X-195459Y-123815D01*
X-189611Y-129663D01*
X-189611Y-129663D01*
X-183020Y-136254D01*
X-183634Y-136867D01*
X-184748Y-138534D01*
X-185139Y-140501D01*
Y-144954D01*
X-186383Y-145506D01*
X-192794Y-139095D01*
X-205229Y-151531D01*
X-209820D01*
X-210306Y-150357D01*
X-204977Y-145028D01*
X-211723Y-138282D01*
X-218468Y-131536D01*
X-225730Y-138798D01*
X-219683Y-144845D01*
X-220210Y-146115D01*
X-229064D01*
X-230550Y-146411D01*
X-230729Y-146530D01*
X-230898Y-146460D01*
X-233102D01*
X-235138Y-147303D01*
X-236697Y-148862D01*
X-237540Y-150898D01*
Y-153102D01*
X-236697Y-155138D01*
X-235138Y-156697D01*
X-233102Y-157540D01*
X-232762D01*
X-232029Y-158810D01*
X-232704Y-159980D01*
X-233414Y-162629D01*
Y-165371D01*
X-232704Y-168020D01*
X-231333Y-170394D01*
X-229394Y-172333D01*
X-227020Y-173704D01*
X-224371Y-174414D01*
X-221629D01*
X-218980Y-173704D01*
X-216606Y-172333D01*
X-214667Y-170394D01*
X-213296Y-168020D01*
X-212586Y-165371D01*
Y-162629D01*
X-213138Y-160570D01*
X-212416Y-159423D01*
X-212222Y-159300D01*
X-205229D01*
X-202112Y-162417D01*
X-207290Y-167595D01*
X-208404Y-169262D01*
X-208796Y-171229D01*
Y-183839D01*
X-212199Y-187243D01*
X-211104Y-188337D01*
X-218227Y-195460D01*
X-219993D01*
X-221910Y-195974D01*
X-223630Y-196966D01*
X-225033Y-198370D01*
X-226026Y-200090D01*
X-226540Y-202007D01*
Y-203993D01*
X-226026Y-205910D01*
X-225033Y-207630D01*
X-223630Y-209034D01*
X-221910Y-210026D01*
X-219993Y-210540D01*
X-218007D01*
X-216090Y-210026D01*
X-214370Y-209034D01*
X-212966Y-207630D01*
X-211974Y-205910D01*
X-211460Y-203993D01*
Y-203227D01*
X-203837Y-195604D01*
X-202243Y-197199D01*
X-201605Y-196561D01*
X-200561Y-197605D01*
X-201199Y-198243D01*
X-191243Y-208199D01*
X-182701Y-199657D01*
X-192657Y-189701D01*
X-193294Y-190338D01*
X-194338Y-189294D01*
X-193701Y-188657D01*
X-198401Y-183957D01*
X-198301Y-183054D01*
X-197067Y-182575D01*
X-192343Y-187299D01*
X-184786Y-179742D01*
X-183742Y-180786D01*
X-191299Y-188343D01*
X-181343Y-198299D01*
X-176350Y-193307D01*
X-175419Y-192684D01*
X-173632Y-190897D01*
X-168264Y-196265D01*
X-160104Y-188105D01*
X-151944Y-179945D01*
X-157312Y-174577D01*
X-154366Y-171632D01*
X-153252Y-169965D01*
X-152861Y-167998D01*
Y-163055D01*
X-146380Y-156574D01*
X-146099Y-156153D01*
X-138290Y-148344D01*
X-139107Y-147527D01*
X-132253Y-140674D01*
X-132253Y-140674D01*
X-100457Y-108878D01*
X-99441Y-109657D01*
X-100885Y-112160D01*
X-101740Y-115349D01*
Y-118651D01*
X-100885Y-121840D01*
X-99235Y-124700D01*
X-96900Y-127035D01*
X-94040Y-128685D01*
X-90851Y-129540D01*
X-87549D01*
X-84360Y-128685D01*
X-81500Y-127035D01*
X-79166Y-124700D01*
X-77515Y-121840D01*
X-77157Y-120507D01*
X-75843D01*
X-75485Y-121840D01*
X-73835Y-124700D01*
X-71500Y-127035D01*
X-68640Y-128685D01*
X-65451Y-129540D01*
X-62149D01*
X-58960Y-128685D01*
X-56100Y-127035D01*
X-53766Y-124700D01*
X-52115Y-121840D01*
X-51757Y-120507D01*
X-50443D01*
X-50085Y-121840D01*
X-48435Y-124700D01*
X-46100Y-127035D01*
X-43240Y-128685D01*
X-40051Y-129540D01*
X-36749D01*
X-33560Y-128685D01*
X-30700Y-127035D01*
X-28365Y-124700D01*
X-26715Y-121840D01*
X-26357Y-120507D01*
X-25043D01*
X-24685Y-121840D01*
X-23035Y-124700D01*
X-20700Y-127035D01*
X-17840Y-128685D01*
X-14651Y-129540D01*
X-11349D01*
X-8160Y-128685D01*
X-5300Y-127035D01*
X-2966Y-124700D01*
X-1315Y-121840D01*
X-957Y-120507D01*
X357D01*
X715Y-121840D01*
X2366Y-124700D01*
X4700Y-127035D01*
X7560Y-128685D01*
X10749Y-129540D01*
X14051D01*
X17240Y-128685D01*
X20100Y-127035D01*
X22434Y-124700D01*
X24085Y-121840D01*
X24443Y-120507D01*
X25757D01*
X26115Y-121840D01*
X27766Y-124700D01*
X30100Y-127035D01*
X32960Y-128685D01*
X36149Y-129540D01*
X39451D01*
X42640Y-128685D01*
X45500Y-127035D01*
X47835Y-124700D01*
X49485Y-121840D01*
X49843Y-120507D01*
X51157D01*
X51515Y-121840D01*
X53165Y-124700D01*
X55500Y-127035D01*
X58360Y-128685D01*
X61549Y-129540D01*
X64851D01*
X68040Y-128685D01*
X70900Y-127035D01*
X73235Y-124700D01*
X74885Y-121840D01*
X75243Y-120507D01*
X76557D01*
X76915Y-121840D01*
X78566Y-124700D01*
X80900Y-127035D01*
X83760Y-128685D01*
X86949Y-129540D01*
X90251D01*
X93440Y-128685D01*
X96300Y-127035D01*
X98635Y-124700D01*
X100285Y-121840D01*
X101140Y-118651D01*
Y-115349D01*
X100285Y-112160D01*
X98635Y-109300D01*
X96300Y-106966D01*
X93440Y-105315D01*
X90251Y-104460D01*
X86949D01*
X83760Y-105315D01*
X80900Y-106966D01*
X78566Y-109300D01*
X76915Y-112160D01*
X76557Y-113493D01*
X75243D01*
X74885Y-112160D01*
X73235Y-109300D01*
X70900Y-106966D01*
X68040Y-105315D01*
X64851Y-104460D01*
X61549D01*
X58360Y-105315D01*
X55500Y-106966D01*
X53165Y-109300D01*
X51515Y-112160D01*
X51157Y-113493D01*
X49843D01*
X49485Y-112160D01*
X47835Y-109300D01*
X45500Y-106966D01*
X42640Y-105315D01*
X39451Y-104460D01*
X36149D01*
X32960Y-105315D01*
X30100Y-106966D01*
X27766Y-109300D01*
X26115Y-112160D01*
X25757Y-113493D01*
X24443D01*
X24085Y-112160D01*
X22434Y-109300D01*
X20100Y-106966D01*
X17240Y-105315D01*
X14051Y-104460D01*
X10749D01*
X7560Y-105315D01*
X4700Y-106966D01*
X2366Y-109300D01*
X715Y-112160D01*
X357Y-113493D01*
X-957D01*
X-1315Y-112160D01*
X-2966Y-109300D01*
X-5300Y-106966D01*
X-8160Y-105315D01*
X-11349Y-104460D01*
X-14651D01*
X-17840Y-105315D01*
X-20700Y-106966D01*
X-23035Y-109300D01*
X-24685Y-112160D01*
X-25043Y-113493D01*
X-26357D01*
X-26715Y-112160D01*
X-28365Y-109300D01*
X-30700Y-106966D01*
X-33560Y-105315D01*
X-36749Y-104460D01*
X-40051D01*
X-43240Y-105315D01*
X-46100Y-106966D01*
X-48435Y-109300D01*
X-50085Y-112160D01*
X-50443Y-113493D01*
X-51757D01*
X-52115Y-112160D01*
X-53766Y-109300D01*
X-56100Y-106966D01*
X-58960Y-105315D01*
X-62149Y-104460D01*
X-65451D01*
X-68640Y-105315D01*
X-71500Y-106966D01*
X-73835Y-109300D01*
X-75485Y-112160D01*
X-75843Y-113493D01*
X-77157D01*
X-77515Y-112160D01*
X-79166Y-109300D01*
X-81500Y-106966D01*
X-84360Y-105315D01*
X-87549Y-104460D01*
X-90851D01*
X-94040Y-105315D01*
X-96543Y-106759D01*
X-97322Y-105743D01*
X-91253Y-99674D01*
X-90411Y-98413D01*
X-90115Y-96927D01*
Y-81411D01*
X-88845Y-81244D01*
X-88686Y-81840D01*
X-87035Y-84700D01*
X-84700Y-87035D01*
X-81840Y-88686D01*
X-78651Y-89540D01*
X-75349D01*
X-72160Y-88686D01*
X-69300Y-87035D01*
X-66966Y-84700D01*
X-65315Y-81840D01*
X-64460Y-78651D01*
Y-75349D01*
X-65315Y-72160D01*
X-66966Y-69300D01*
X-69300Y-66966D01*
X-72160Y-65315D01*
X-75349Y-64460D01*
X-78651D01*
X-81840Y-65315D01*
X-84700Y-66966D01*
X-87035Y-69300D01*
X-88686Y-72160D01*
X-88845Y-72756D01*
X-90115Y-72589D01*
Y26391D01*
X-69166Y47341D01*
X-68179Y46531D01*
X-70883Y42485D01*
X-74706Y35333D01*
X-77809Y27840D01*
X-80163Y20080D01*
X-81745Y12126D01*
X-82540Y4055D01*
Y-4055D01*
X-81745Y-12126D01*
X-80163Y-20080D01*
X-77809Y-27840D01*
X-74706Y-35333D01*
X-70883Y-42485D01*
X-66377Y-49228D01*
X-61232Y-55497D01*
X-55497Y-61232D01*
X-49229Y-66377D01*
X-42485Y-70882D01*
X-35333Y-74705D01*
X-27841Y-77809D01*
X-20080Y-80163D01*
X-12126Y-81745D01*
X-4055Y-82540D01*
X4055D01*
X12126Y-81745D01*
X20080Y-80163D01*
X27840Y-77809D01*
X35333Y-74705D01*
X42485Y-70882D01*
X49228Y-66377D01*
X55497Y-61232D01*
X61232Y-55497D01*
X66377Y-49228D01*
X70882Y-42485D01*
X74705Y-35333D01*
X77809Y-27840D01*
X80163Y-20080D01*
X81745Y-12126D01*
X82540Y-4055D01*
Y4055D01*
X81745Y12126D01*
X80163Y20080D01*
X77809Y27840D01*
X74705Y35333D01*
X70882Y42485D01*
X66377Y49228D01*
X61232Y55497D01*
X55497Y61232D01*
X49228Y66377D01*
X42485Y70882D01*
X35333Y74705D01*
X27840Y77809D01*
X20080Y80163D01*
X12126Y81745D01*
X4055Y82540D01*
X135D01*
X-251Y83810D01*
X413Y84253D01*
X18202Y102043D01*
X19855Y102727D01*
X21273Y104145D01*
X22040Y105997D01*
Y108003D01*
X21273Y109855D01*
X19855Y111273D01*
X18003Y112040D01*
X17755Y113310D01*
X18040Y113997D01*
Y116003D01*
X17273Y117855D01*
X15855Y119273D01*
X14002Y120040D01*
D02*
G37*
G36*
X119540Y211040D02*
X104460D01*
Y208801D01*
X103131Y207913D01*
X93353Y198134D01*
X78873D01*
X77297Y197821D01*
X75960Y196928D01*
X51152Y172119D01*
X48119D01*
X47697Y173138D01*
X46138Y174697D01*
X44102Y175540D01*
X41898D01*
X39862Y174697D01*
X38303Y173138D01*
X37460Y171102D01*
Y168898D01*
X38303Y166862D01*
X39336Y165830D01*
X39721Y165000D01*
X39336Y164170D01*
X38303Y163138D01*
X37460Y161102D01*
Y158898D01*
X38303Y156862D01*
X39862Y155303D01*
X41898Y154460D01*
X44102D01*
X46138Y155303D01*
X47697Y156862D01*
X48119Y157881D01*
X55343D01*
X56919Y158194D01*
X58256Y159087D01*
X83064Y183896D01*
X91323D01*
X98131Y177087D01*
X99468Y176194D01*
X101044Y175881D01*
X104460D01*
Y168119D01*
X78000D01*
X76424Y167806D01*
X75087Y166913D01*
X60294Y152119D01*
X50716D01*
X50138Y152697D01*
X48102Y153540D01*
X45898D01*
X43862Y152697D01*
X42303Y151138D01*
X41460Y149102D01*
Y146898D01*
X42303Y144862D01*
X43862Y143303D01*
X45898Y142460D01*
X48102D01*
X50138Y143303D01*
X50716Y143881D01*
X62000D01*
X63576Y144194D01*
X64913Y145087D01*
X79706Y159881D01*
X85363D01*
X86212Y158611D01*
X85960Y158003D01*
Y155997D01*
X86727Y154145D01*
X87115Y153757D01*
Y86415D01*
X85845Y85889D01*
X84699Y87035D01*
X81840Y88685D01*
X78651Y89540D01*
X75349D01*
X72160Y88685D01*
X69300Y87035D01*
X66965Y84700D01*
X65314Y81840D01*
X64460Y78651D01*
Y75349D01*
X65314Y72160D01*
X66965Y69300D01*
X69300Y66965D01*
X72160Y65315D01*
X75349Y64460D01*
X78651D01*
X81840Y65315D01*
X84699Y66965D01*
X85845Y68111D01*
X87115Y67585D01*
Y-67585D01*
X85845Y-68111D01*
X84699Y-66966D01*
X81840Y-65315D01*
X78651Y-64460D01*
X75349D01*
X72160Y-65315D01*
X69300Y-66966D01*
X66965Y-69300D01*
X65314Y-72160D01*
X64460Y-75349D01*
Y-78651D01*
X65314Y-81840D01*
X66965Y-84700D01*
X69300Y-87035D01*
X72160Y-88686D01*
X75349Y-89540D01*
X78651D01*
X81840Y-88686D01*
X84699Y-87035D01*
X87034Y-84700D01*
X88685Y-81840D01*
X89540Y-78651D01*
Y-78407D01*
X90713Y-77921D01*
X109177Y-96384D01*
X108879Y-97882D01*
X107862Y-98303D01*
X106303Y-99862D01*
X105460Y-101898D01*
Y-104102D01*
X106303Y-106138D01*
X107862Y-107697D01*
X109898Y-108540D01*
X111046D01*
X129115Y-126609D01*
Y-142998D01*
X129411Y-144485D01*
X130253Y-145745D01*
X134128Y-149620D01*
X127873Y-155874D01*
X136033Y-164034D01*
X144193Y-172194D01*
X150041Y-166346D01*
X150041Y-166346D01*
X156632Y-159755D01*
X158511Y-161634D01*
X160178Y-162748D01*
X162144Y-163139D01*
X164204D01*
X164690Y-164312D01*
X159474Y-169529D01*
X175794Y-185849D01*
X176593Y-185050D01*
X205460Y-213917D01*
Y-215102D01*
X206303Y-217138D01*
X207862Y-218697D01*
X209898Y-219540D01*
X212102D01*
X214138Y-218697D01*
X215697Y-217138D01*
X216540Y-215102D01*
Y-212898D01*
X216337Y-212407D01*
X217270Y-211343D01*
X218007Y-211540D01*
X219993D01*
X221910Y-211026D01*
X223630Y-210033D01*
X225033Y-208630D01*
X226026Y-206910D01*
X226540Y-204993D01*
Y-203007D01*
X226026Y-201090D01*
X225033Y-199370D01*
X223630Y-197966D01*
X223107Y-197665D01*
X222791Y-196077D01*
X221677Y-194410D01*
X212854Y-185587D01*
X214199Y-184243D01*
X213699Y-183743D01*
X222199Y-175243D01*
X223125Y-174414D01*
X224371D01*
X227020Y-173704D01*
X229394Y-172333D01*
X231333Y-170394D01*
X232704Y-168020D01*
X233414Y-165371D01*
Y-162629D01*
X232704Y-159980D01*
X231333Y-157606D01*
X229394Y-155667D01*
X227020Y-154296D01*
X224371Y-153586D01*
X221629D01*
X218980Y-154296D01*
X216606Y-155667D01*
X214667Y-157606D01*
X213296Y-159980D01*
X212586Y-162629D01*
Y-163834D01*
X211316Y-164360D01*
X209870Y-162914D01*
X210589Y-161839D01*
X210885Y-160352D01*
Y-154190D01*
X210589Y-152704D01*
X209928Y-151714D01*
X210796Y-150847D01*
X210796Y-150847D01*
X216644Y-144999D01*
X208484Y-136839D01*
X200324Y-128679D01*
X194956Y-134047D01*
X193275Y-132366D01*
X191608Y-131252D01*
X189642Y-130861D01*
X184699D01*
X176953Y-123115D01*
X176532Y-122834D01*
X168723Y-115025D01*
X167906Y-115842D01*
X164317Y-112253D01*
X164169Y-112154D01*
X164163Y-111429D01*
X164337Y-110739D01*
X166533Y-109472D01*
X168472Y-107533D01*
X169842Y-105158D01*
X170552Y-102509D01*
Y-99767D01*
X169842Y-97119D01*
X168472Y-94744D01*
X166533Y-92805D01*
X164158Y-91434D01*
X161509Y-90724D01*
X158767D01*
X156119Y-91434D01*
X153744Y-92805D01*
X151805Y-94744D01*
X150434Y-97119D01*
X149724Y-99767D01*
Y-102509D01*
X150434Y-105158D01*
X151805Y-107533D01*
X153744Y-109472D01*
X154391Y-109845D01*
X154051Y-111115D01*
X151609D01*
X99885Y-59391D01*
Y16960D01*
X107730D01*
Y26000D01*
Y35040D01*
X99885D01*
Y44960D01*
X103467D01*
X103685Y44793D01*
X106249Y43731D01*
X109000Y43369D01*
X131460D01*
Y41460D01*
X164540D01*
Y43369D01*
X197861D01*
Y35040D01*
X188270D01*
Y26000D01*
X187000D01*
Y24730D01*
X175460D01*
Y16960D01*
X175460D01*
Y16040D01*
X175460D01*
Y8270D01*
X187000D01*
Y7000D01*
X188270D01*
Y-2040D01*
X197861D01*
Y-11960D01*
X175460D01*
Y-14438D01*
X171251D01*
X169875Y-13644D01*
X167322Y-12960D01*
X164678D01*
X162125Y-13644D01*
X161751Y-13860D01*
X153649D01*
Y-8540D01*
X164540D01*
Y16540D01*
X140477D01*
X140162Y17810D01*
X142165Y18966D01*
X144034Y20835D01*
X145356Y23125D01*
X146040Y25678D01*
Y25730D01*
X125960D01*
Y25678D01*
X126644Y23125D01*
X127966Y20835D01*
X129835Y18966D01*
X131838Y17810D01*
X131523Y16540D01*
X131460D01*
Y8568D01*
X129429D01*
X127462Y8177D01*
X125795Y7063D01*
X109366Y-9366D01*
X108252Y-11034D01*
X107861Y-13000D01*
Y-29460D01*
X105710D01*
Y-44040D01*
Y-56540D01*
X120290D01*
Y-52639D01*
X132112D01*
X133010Y-53537D01*
X133010Y-56140D01*
X131873Y-56460D01*
X126960D01*
Y-71540D01*
X128361D01*
Y-74429D01*
X127960Y-75398D01*
Y-77602D01*
X128803Y-79638D01*
X130362Y-81197D01*
X132398Y-82040D01*
X134602D01*
X136638Y-81197D01*
X138197Y-79638D01*
X139040Y-77602D01*
Y-75398D01*
X138639Y-74429D01*
Y-71540D01*
X140040D01*
X140040Y-57057D01*
X141000Y-56506D01*
X141960Y-57057D01*
Y-71540D01*
X155040D01*
Y-71040D01*
X165040D01*
Y-64393D01*
X165749Y-63825D01*
X166960Y-64359D01*
Y-71040D01*
X171730D01*
Y-64000D01*
X173000D01*
Y-62730D01*
X179040D01*
Y-59040D01*
Y-46960D01*
X164960D01*
Y-48695D01*
X163763Y-49224D01*
X162990Y-48613D01*
Y-37660D01*
X133010D01*
Y-42361D01*
X120290D01*
Y-32588D01*
X121390Y-31953D01*
X122175Y-32406D01*
X124728Y-33090D01*
X124780D01*
Y-23050D01*
X127320D01*
Y-33090D01*
X127372D01*
X129925Y-32406D01*
X131740Y-31358D01*
X133010Y-31975D01*
Y-32340D01*
X137230D01*
Y-23100D01*
X139770D01*
Y-32340D01*
X162097D01*
X162125Y-32356D01*
X164678Y-33040D01*
X164960D01*
Y-45040D01*
X179040D01*
Y-44139D01*
X190864D01*
X192831Y-43748D01*
X194498Y-42634D01*
X206634Y-30498D01*
X207748Y-28830D01*
X208139Y-26864D01*
Y43369D01*
X280000D01*
X282752Y43731D01*
X285315Y44793D01*
X287517Y46483D01*
X289207Y48685D01*
X290269Y51248D01*
X290631Y54000D01*
X290269Y56751D01*
X289207Y59316D01*
X287517Y61517D01*
X285315Y63207D01*
X282752Y64269D01*
X280000Y64631D01*
X164540D01*
Y66540D01*
X131460D01*
Y64631D01*
X120631D01*
Y72000D01*
X120269Y74752D01*
X119207Y77316D01*
X117517Y79517D01*
X115316Y81207D01*
X112752Y82269D01*
X110000Y82631D01*
X107248Y82269D01*
X104684Y81207D01*
X102483Y79517D01*
X101155Y77786D01*
X99885Y78218D01*
Y147391D01*
X101747Y149253D01*
X102589Y150513D01*
X102885Y152000D01*
Y153757D01*
X103273Y154145D01*
X104040Y155997D01*
Y157864D01*
X104125Y158086D01*
X105018Y158960D01*
X119540D01*
Y167881D01*
X121303D01*
X122880Y168194D01*
X124216Y169087D01*
X128761Y173632D01*
X129654Y174969D01*
X129967Y176545D01*
Y177133D01*
X130697Y177862D01*
X131540Y179898D01*
Y182102D01*
X130697Y184138D01*
X129565Y185270D01*
X130697Y186402D01*
X131540Y188438D01*
Y190642D01*
X130697Y192678D01*
X130046Y193329D01*
Y194073D01*
X129732Y195650D01*
X128839Y196986D01*
X124913Y200913D01*
X123576Y201806D01*
X122000Y202119D01*
X119540D01*
Y203040D01*
Y211040D01*
D02*
G37*
G36*
X-248799Y161040D02*
X-251201D01*
X-253421Y160121D01*
X-255121Y158421D01*
X-256040Y156201D01*
Y153799D01*
X-255121Y151579D01*
X-253421Y149880D01*
X-251201Y148960D01*
X-248799D01*
X-247490Y149502D01*
X-246518Y148530D01*
X-247060Y147221D01*
Y144818D01*
X-246140Y142598D01*
X-244441Y140899D01*
X-242221Y139980D01*
X-239818D01*
X-238509Y140522D01*
X-237537Y139550D01*
X-238079Y138241D01*
Y135838D01*
X-237160Y133618D01*
X-235461Y131919D01*
X-233241Y130999D01*
X-230838D01*
X-229529Y131542D01*
X-228557Y130570D01*
X-229099Y129261D01*
Y126858D01*
X-228180Y124638D01*
X-226481Y122939D01*
X-224261Y122019D01*
X-221858D01*
X-220549Y122562D01*
X-219577Y121589D01*
X-220119Y120280D01*
Y117878D01*
X-219199Y115658D01*
X-217500Y113959D01*
X-215280Y113039D01*
X-212878D01*
X-211569Y113581D01*
X-210597Y112609D01*
X-211139Y111300D01*
Y108897D01*
X-210219Y106677D01*
X-208520Y104978D01*
X-206300Y104059D01*
X-203897D01*
X-202588Y104601D01*
X-201616Y103629D01*
X-202159Y102320D01*
Y99917D01*
X-201267Y97766D01*
X-197017Y102016D01*
X-195221Y100220D01*
X-199471Y95970D01*
X-197320Y95078D01*
X-194917D01*
X-193608Y95621D01*
X-192636Y94649D01*
X-193178Y93340D01*
Y90937D01*
X-192259Y88717D01*
X-190560Y87018D01*
X-188340Y86098D01*
X-185937D01*
X-184628Y86640D01*
X-183656Y85668D01*
X-184198Y84359D01*
Y81957D01*
X-183278Y79737D01*
X-181579Y78038D01*
X-179359Y77118D01*
X-176957D01*
X-175648Y77660D01*
X-174676Y76688D01*
X-175218Y75379D01*
Y72976D01*
X-174298Y70756D01*
X-172599Y69057D01*
X-170379Y68138D01*
X-167976D01*
X-165756Y69057D01*
X-164057Y70756D01*
X-163138Y72976D01*
Y75379D01*
X-164057Y77599D01*
X-165756Y79298D01*
X-167976Y80218D01*
X-170379D01*
X-171688Y79675D01*
X-172660Y80647D01*
X-172118Y81957D01*
Y84359D01*
X-173037Y86579D01*
X-174737Y88278D01*
X-176957Y89198D01*
X-179359D01*
X-180668Y88656D01*
X-181640Y89628D01*
X-181098Y90937D01*
Y93340D01*
X-182018Y95560D01*
X-183717Y97259D01*
X-184407Y97544D01*
X-184705Y99043D01*
X-179492Y104256D01*
X-187652Y112416D01*
X-195812Y120576D01*
X-201423Y114965D01*
X-201677Y115219D01*
X-203897Y116139D01*
X-206300D01*
X-207609Y115597D01*
X-208581Y116568D01*
X-208039Y117878D01*
Y119795D01*
X-207967Y121035D01*
X-202120Y126883D01*
X-210280Y135043D01*
X-218440Y143203D01*
X-224287Y137355D01*
X-222301Y135369D01*
X-222827Y134099D01*
X-224261D01*
X-225570Y133557D01*
X-226542Y134529D01*
X-226000Y135838D01*
Y138241D01*
X-226919Y140461D01*
X-228618Y142160D01*
X-230838Y143080D01*
X-233241D01*
X-234550Y142537D01*
X-235522Y143509D01*
X-234980Y144818D01*
Y147221D01*
X-235899Y149441D01*
X-237598Y151140D01*
X-239818Y152060D01*
X-242221D01*
X-243530Y151517D01*
X-244502Y152490D01*
X-243960Y153799D01*
Y156201D01*
X-244879Y158421D01*
X-246579Y160121D01*
X-248799Y161040D01*
D02*
G37*
G36*
X-184460Y48415D02*
X-194730D01*
Y40145D01*
X-184460D01*
Y48415D01*
D02*
G37*
G36*
X-197270D02*
X-207540D01*
Y40145D01*
X-197270D01*
Y48415D01*
D02*
G37*
G36*
X-152460D02*
X-162730D01*
Y40145D01*
X-152460D01*
Y48415D01*
D02*
G37*
G36*
X-165270D02*
X-175540D01*
Y40145D01*
X-165270D01*
Y48415D01*
D02*
G37*
G36*
X-184460Y37605D02*
X-194730D01*
Y29335D01*
X-184460D01*
Y37605D01*
D02*
G37*
G36*
X-197270D02*
X-207540D01*
Y29335D01*
X-197270D01*
Y37605D01*
D02*
G37*
G36*
X137322Y37040D02*
X137270D01*
Y28270D01*
X146040D01*
Y28322D01*
X145356Y30875D01*
X144034Y33165D01*
X142165Y35034D01*
X139875Y36356D01*
X137322Y37040D01*
D02*
G37*
G36*
X134730D02*
X134678D01*
X132125Y36356D01*
X129835Y35034D01*
X127966Y33165D01*
X126644Y30875D01*
X125960Y28322D01*
Y28270D01*
X134730D01*
Y37040D01*
D02*
G37*
G36*
X185730Y35040D02*
X175460D01*
Y27270D01*
X185730D01*
Y35040D01*
D02*
G37*
G36*
X120540D02*
X110270D01*
Y27270D01*
X120540D01*
Y35040D01*
D02*
G37*
G36*
Y24730D02*
X110270D01*
Y16960D01*
X120540D01*
Y24730D01*
D02*
G37*
G36*
X185730Y5730D02*
X175460D01*
Y-2040D01*
X185730D01*
Y5730D01*
D02*
G37*
G36*
X-152460Y-35395D02*
X-162730D01*
Y-43665D01*
X-152460D01*
Y-35395D01*
D02*
G37*
G36*
X-165270D02*
X-175540D01*
Y-43665D01*
X-165270D01*
Y-35395D01*
D02*
G37*
G36*
X-184460Y-35395D02*
X-194730D01*
Y-43665D01*
X-184460D01*
Y-35395D01*
D02*
G37*
G36*
X-197270D02*
X-207540D01*
Y-43665D01*
X-197270D01*
Y-35395D01*
D02*
G37*
G36*
X-165007Y-49460D02*
X-166993D01*
X-168910Y-49974D01*
X-170630Y-50967D01*
X-172034Y-52370D01*
X-173026Y-54090D01*
X-173540Y-56007D01*
Y-57993D01*
X-173026Y-59910D01*
X-172034Y-61630D01*
X-170630Y-63033D01*
X-168910Y-64026D01*
X-166993Y-64540D01*
X-165007D01*
X-163090Y-64026D01*
X-161370Y-63033D01*
X-159966Y-61630D01*
X-158974Y-59910D01*
X-158460Y-57993D01*
Y-56007D01*
X-158974Y-54090D01*
X-159966Y-52370D01*
X-161370Y-50967D01*
X-163090Y-49974D01*
X-165007Y-49460D01*
D02*
G37*
G36*
X179040Y-65270D02*
X174270D01*
Y-71040D01*
X179040D01*
Y-65270D01*
D02*
G37*
G36*
X-167898Y-67460D02*
X-170102D01*
X-172138Y-68303D01*
X-173697Y-69862D01*
X-174540Y-71898D01*
Y-74102D01*
X-173697Y-76138D01*
X-172138Y-77697D01*
X-170102Y-78540D01*
X-167898D01*
X-165862Y-77697D01*
X-164303Y-76138D01*
X-163460Y-74102D01*
Y-71898D01*
X-164303Y-69862D01*
X-165862Y-68303D01*
X-167898Y-67460D01*
D02*
G37*
G36*
X197270Y-100530D02*
Y-104730D01*
X201470D01*
X200697Y-102862D01*
X199138Y-101303D01*
X197270Y-100530D01*
D02*
G37*
G36*
X-186783Y-99851D02*
X-194045Y-107113D01*
X-188197Y-112961D01*
X-180935Y-105699D01*
X-186783Y-99851D01*
D02*
G37*
G36*
X177696Y-106052D02*
X171848Y-111899D01*
X179110Y-119161D01*
X184958Y-113314D01*
X177696Y-106052D01*
D02*
G37*
G36*
X185340Y-98408D02*
X179492Y-104256D01*
X187652Y-112416D01*
X195812Y-120576D01*
X201660Y-114728D01*
X198879Y-111947D01*
X199055Y-111065D01*
X199282Y-110553D01*
X200697Y-109138D01*
X201470Y-107270D01*
X196000D01*
Y-106000D01*
X194730D01*
Y-100530D01*
X192862Y-101303D01*
X191303Y-102862D01*
X191299Y-102873D01*
X190053Y-103121D01*
X185340Y-98408D01*
D02*
G37*
G36*
X-195841Y-108909D02*
X-203103Y-116171D01*
X-197255Y-122019D01*
X-189993Y-114757D01*
X-195841Y-108909D01*
D02*
G37*
G36*
X186754Y-115110D02*
X180906Y-120957D01*
X188168Y-128219D01*
X194016Y-122372D01*
X186754Y-115110D01*
D02*
G37*
G36*
X207967Y-121035D02*
X202120Y-126883D01*
X209382Y-134145D01*
X215229Y-128297D01*
X207967Y-121035D01*
D02*
G37*
G36*
X-209410Y-122478D02*
X-216672Y-129740D01*
X-210825Y-135588D01*
X-203563Y-128326D01*
X-209410Y-122478D01*
D02*
G37*
G36*
X217025Y-130093D02*
X211178Y-135941D01*
X218440Y-143203D01*
X224287Y-137355D01*
X217025Y-130093D01*
D02*
G37*
G36*
X-201767Y-130122D02*
X-209029Y-137384D01*
X-203181Y-143232D01*
X-195919Y-135970D01*
X-201767Y-130122D01*
D02*
G37*
G36*
X60102Y-132460D02*
X57898D01*
X55862Y-133303D01*
X54303Y-134862D01*
X53460Y-136898D01*
Y-139102D01*
X54303Y-141138D01*
X55862Y-142697D01*
X57898Y-143540D01*
X60102D01*
X62138Y-142697D01*
X63697Y-141138D01*
X64540Y-139102D01*
Y-136898D01*
X63697Y-134862D01*
X62138Y-133303D01*
X60102Y-132460D01*
D02*
G37*
G36*
X90379Y-148138D02*
X87976D01*
X85800Y-149039D01*
X-85800D01*
X-87976Y-148138D01*
X-90379D01*
X-92599Y-149057D01*
X-94298Y-150756D01*
X-95218Y-152976D01*
Y-155379D01*
X-94676Y-156688D01*
X-95647Y-157660D01*
X-96957Y-157118D01*
X-99359D01*
X-101579Y-158038D01*
X-103278Y-159737D01*
X-104198Y-161957D01*
Y-164359D01*
X-103656Y-165668D01*
X-104628Y-166640D01*
X-105937Y-166098D01*
X-108340D01*
X-110560Y-167018D01*
X-112259Y-168717D01*
X-113178Y-170937D01*
Y-173340D01*
X-112636Y-174649D01*
X-113608Y-175621D01*
X-114917Y-175079D01*
X-117320D01*
X-119471Y-175970D01*
X-115220Y-180221D01*
X-117016Y-182017D01*
X-121267Y-177766D01*
X-122158Y-179917D01*
Y-182320D01*
X-121616Y-183629D01*
X-122588Y-184601D01*
X-123897Y-184059D01*
X-126300D01*
X-128520Y-184978D01*
X-130219Y-186677D01*
X-131139Y-188897D01*
Y-191300D01*
X-130597Y-192609D01*
X-131568Y-193581D01*
X-132878Y-193039D01*
X-135280D01*
X-137500Y-193958D01*
X-139199Y-195658D01*
X-140119Y-197878D01*
Y-200280D01*
X-139577Y-201590D01*
X-140549Y-202561D01*
X-141858Y-202019D01*
X-144261D01*
X-146481Y-202939D01*
X-148180Y-204638D01*
X-149099Y-206858D01*
Y-209261D01*
X-148557Y-210570D01*
X-149529Y-211542D01*
X-150838Y-211000D01*
X-153241D01*
X-155461Y-211919D01*
X-157160Y-213618D01*
X-158080Y-215838D01*
Y-218241D01*
X-157537Y-219550D01*
X-158509Y-220522D01*
X-159818Y-219980D01*
X-162221D01*
X-164441Y-220899D01*
X-166140Y-222598D01*
X-167060Y-224818D01*
Y-227221D01*
X-166518Y-228530D01*
X-167490Y-229502D01*
X-168799Y-228960D01*
X-171201D01*
X-173421Y-229880D01*
X-175121Y-231579D01*
X-176040Y-233799D01*
Y-236201D01*
X-175121Y-238421D01*
X-173421Y-240121D01*
X-171201Y-241040D01*
X-168799D01*
X-166623Y-240139D01*
X-132128D01*
X-105634Y-266634D01*
X-103967Y-267748D01*
X-102000Y-268139D01*
X98000D01*
X99966Y-267748D01*
X101634Y-266634D01*
X128128Y-240139D01*
X166623D01*
X168799Y-241040D01*
X171201D01*
X173421Y-240121D01*
X175121Y-238421D01*
X176040Y-236201D01*
Y-233799D01*
X175121Y-231579D01*
X173421Y-229880D01*
X171201Y-228960D01*
X168799D01*
X167490Y-229502D01*
X166518Y-228530D01*
X167060Y-227221D01*
Y-224818D01*
X166140Y-222598D01*
X164441Y-220899D01*
X162221Y-219980D01*
X159818D01*
X158509Y-220522D01*
X157537Y-219550D01*
X158080Y-218241D01*
Y-215838D01*
X157160Y-213618D01*
X155461Y-211919D01*
X153241Y-211000D01*
X150838D01*
X149529Y-211542D01*
X148557Y-210570D01*
X149099Y-209261D01*
Y-206858D01*
X148180Y-204638D01*
X146481Y-202939D01*
X144261Y-202019D01*
X141858D01*
X140549Y-202561D01*
X139577Y-201590D01*
X140119Y-200280D01*
Y-197878D01*
X139199Y-195658D01*
X137500Y-193958D01*
X135280Y-193039D01*
X132878D01*
X131568Y-193581D01*
X130597Y-192609D01*
X131139Y-191300D01*
Y-188897D01*
X130219Y-186677D01*
X128520Y-184978D01*
X126300Y-184059D01*
X123897D01*
X122588Y-184601D01*
X121616Y-183629D01*
X122158Y-182320D01*
Y-179917D01*
X121267Y-177766D01*
X117016Y-182017D01*
X115220Y-180220D01*
X119471Y-175970D01*
X117320Y-175079D01*
X114917D01*
X113608Y-175621D01*
X112636Y-174649D01*
X113178Y-173340D01*
Y-170937D01*
X112259Y-168717D01*
X110560Y-167018D01*
X108340Y-166098D01*
X105937D01*
X104628Y-166640D01*
X103656Y-165668D01*
X104198Y-164359D01*
Y-161957D01*
X103278Y-159737D01*
X101579Y-158038D01*
X99359Y-157118D01*
X96957D01*
X95647Y-157660D01*
X94676Y-156688D01*
X95218Y-155379D01*
Y-152976D01*
X94298Y-150756D01*
X92599Y-149057D01*
X90379Y-148138D01*
D02*
G37*
G36*
X-135164Y-151470D02*
X-142426Y-158732D01*
X-136578Y-164580D01*
X-129317Y-157317D01*
X-135164Y-151470D01*
D02*
G37*
G36*
X126077Y-157670D02*
X120230Y-163518D01*
X127492Y-170780D01*
X133339Y-164932D01*
X126077Y-157670D01*
D02*
G37*
G36*
X-127520Y-159114D02*
X-134782Y-166376D01*
X-128935Y-172223D01*
X-121673Y-164961D01*
X-127520Y-159114D01*
D02*
G37*
G36*
X-144222Y-160528D02*
X-151484Y-167790D01*
X-145637Y-173638D01*
X-138375Y-166376D01*
X-144222Y-160528D01*
D02*
G37*
G36*
X135135Y-166728D02*
X129288Y-172576D01*
X136550Y-179838D01*
X142397Y-173990D01*
X135135Y-166728D01*
D02*
G37*
G36*
X-136578Y-168172D02*
X-143840Y-175434D01*
X-137993Y-181281D01*
X-130731Y-174019D01*
X-136578Y-168172D01*
D02*
G37*
G36*
X156348Y-172654D02*
X150501Y-178502D01*
X157763Y-185764D01*
X163610Y-179916D01*
X156348Y-172654D01*
D02*
G37*
G36*
X148705Y-180298D02*
X142857Y-186145D01*
X150119Y-193407D01*
X155967Y-187560D01*
X148705Y-180298D01*
D02*
G37*
G36*
X165406Y-181712D02*
X159559Y-187560D01*
X166821Y-194822D01*
X172668Y-188974D01*
X165406Y-181712D01*
D02*
G37*
G36*
X-150148Y-181741D02*
X-157410Y-189003D01*
X-151562Y-194851D01*
X-144300Y-187589D01*
X-150148Y-181741D01*
D02*
G37*
G36*
X157763Y-189356D02*
X151915Y-195203D01*
X159177Y-202465D01*
X165025Y-196618D01*
X157763Y-189356D01*
D02*
G37*
G36*
X-159206Y-190799D02*
X-166468Y-198061D01*
X-160620Y-203909D01*
X-153358Y-196647D01*
X-159206Y-190799D01*
D02*
G37*
G36*
X227925Y-213734D02*
X224623D01*
X221434Y-214589D01*
X218574Y-216240D01*
X216239Y-218575D01*
X214589Y-221434D01*
X213734Y-224623D01*
Y-227925D01*
X214589Y-231115D01*
X216239Y-233974D01*
X218574Y-236309D01*
X221434Y-237960D01*
X224623Y-238814D01*
X227925D01*
X231114Y-237960D01*
X233974Y-236309D01*
X236308Y-233974D01*
X237959Y-231115D01*
X238814Y-227925D01*
Y-224623D01*
X237959Y-221434D01*
X236308Y-218575D01*
X233974Y-216240D01*
X231114Y-214589D01*
X227925Y-213734D01*
D02*
G37*
G36*
X-224624D02*
X-227925D01*
X-231115Y-214589D01*
X-233974Y-216240D01*
X-236309Y-218575D01*
X-237960Y-221434D01*
X-238814Y-224623D01*
Y-227925D01*
X-237960Y-231115D01*
X-236309Y-233974D01*
X-233974Y-236309D01*
X-231115Y-237960D01*
X-227925Y-238814D01*
X-224624D01*
X-221434Y-237960D01*
X-218575Y-236309D01*
X-216240Y-233974D01*
X-214589Y-231115D01*
X-213734Y-227925D01*
Y-224623D01*
X-214589Y-221434D01*
X-216240Y-218575D01*
X-218575Y-216240D01*
X-221434Y-214589D01*
X-224624Y-213734D01*
D02*
G37*
%LPD*%
G36*
X-128885Y42015D02*
Y22609D01*
X-139795Y11699D01*
X-140891Y12399D01*
X-140534Y13730D01*
X-148000D01*
Y16270D01*
X-140534D01*
X-140974Y17910D01*
X-141966Y19630D01*
X-143370Y21033D01*
X-145090Y22026D01*
X-147007Y22540D01*
X-148170D01*
X-148696Y23810D01*
X-130253Y42253D01*
X-130155Y42400D01*
X-128885Y42015D01*
D02*
G37*
G36*
X-97885Y24683D02*
Y-95318D01*
X-100380Y-97813D01*
X-101205Y-97270D01*
X-105730D01*
Y-101795D01*
X-105187Y-102620D01*
X-137747Y-135180D01*
X-137747Y-135180D01*
X-144600Y-142034D01*
X-148027Y-138607D01*
X-156187Y-146768D01*
X-157983Y-144971D01*
X-149823Y-136811D01*
X-153573Y-133061D01*
X-112678Y-92166D01*
X-111697Y-92862D01*
X-112470Y-94730D01*
X-108270D01*
Y-90530D01*
X-110138Y-91303D01*
X-110834Y-90322D01*
X-100522Y-80009D01*
X-99680Y-78749D01*
X-99384Y-77262D01*
Y25209D01*
X-99155Y25362D01*
X-97885Y24683D01*
D02*
G37*
%LPC*%
G36*
X-105730Y-90530D02*
Y-94730D01*
X-101530D01*
X-102303Y-92862D01*
X-103862Y-91303D01*
X-105730Y-90530D01*
D02*
G37*
G36*
X-108270Y-97270D02*
X-112470D01*
X-111697Y-99138D01*
X-110138Y-100697D01*
X-108270Y-101470D01*
Y-97270D01*
D02*
G37*
%LPD*%
G36*
X147253Y-117747D02*
X148513Y-118589D01*
X150000Y-118885D01*
X159962D01*
X162216Y-121140D01*
X161514Y-122233D01*
X158986Y-124761D01*
X167146Y-132921D01*
X165350Y-134718D01*
X157190Y-126558D01*
X153764Y-129984D01*
X94885Y-71105D01*
Y-67038D01*
X96058Y-66552D01*
X147253Y-117747D01*
D02*
G37*
G36*
X105937Y-178178D02*
X108340D01*
X109649Y-177636D01*
X110621Y-178608D01*
X110078Y-179917D01*
Y-182320D01*
X110646Y-183690D01*
X109797Y-184960D01*
X-109797D01*
X-110646Y-183690D01*
X-110078Y-182320D01*
Y-179917D01*
X-110621Y-178608D01*
X-109649Y-177636D01*
X-108340Y-178178D01*
X-105937D01*
X-103761Y-177277D01*
X103761D01*
X105937Y-178178D01*
D02*
G37*
G36*
X121304Y-232428D02*
X95871Y-257861D01*
X-99872D01*
X-125304Y-232428D01*
X-124778Y-231159D01*
X-94461D01*
X-94243Y-231757D01*
X-94238Y-232428D01*
X-96900Y-233965D01*
X-99235Y-236300D01*
X-100885Y-239160D01*
X-101740Y-242349D01*
Y-245651D01*
X-100885Y-248840D01*
X-99235Y-251700D01*
X-96900Y-254035D01*
X-94040Y-255685D01*
X-90851Y-256540D01*
X-87549D01*
X-84360Y-255685D01*
X-81500Y-254035D01*
X-79166Y-251700D01*
X-77515Y-248840D01*
X-77157Y-247507D01*
X-75843D01*
X-75485Y-248840D01*
X-73835Y-251700D01*
X-71500Y-254035D01*
X-68640Y-255685D01*
X-65451Y-256540D01*
X-65070D01*
Y-244000D01*
X-62530D01*
Y-256540D01*
X-62149D01*
X-58960Y-255685D01*
X-56100Y-254035D01*
X-53766Y-251700D01*
X-52115Y-248840D01*
X-51757Y-247507D01*
X-50443D01*
X-50085Y-248840D01*
X-48435Y-251700D01*
X-46100Y-254035D01*
X-43240Y-255685D01*
X-40051Y-256540D01*
X-36749D01*
X-33560Y-255685D01*
X-30700Y-254035D01*
X-28365Y-251700D01*
X-26715Y-248840D01*
X-26357Y-247507D01*
X-25043D01*
X-24685Y-248840D01*
X-23035Y-251700D01*
X-20700Y-254035D01*
X-17840Y-255685D01*
X-14651Y-256540D01*
X-11349D01*
X-8160Y-255685D01*
X-5300Y-254035D01*
X-2966Y-251700D01*
X-1315Y-248840D01*
X-957Y-247507D01*
X357D01*
X715Y-248840D01*
X2366Y-251700D01*
X4700Y-254035D01*
X7560Y-255685D01*
X10749Y-256540D01*
X14051D01*
X17240Y-255685D01*
X20100Y-254035D01*
X22434Y-251700D01*
X24085Y-248840D01*
X24443Y-247507D01*
X25757D01*
X26115Y-248840D01*
X27766Y-251700D01*
X30100Y-254035D01*
X32960Y-255685D01*
X36149Y-256540D01*
X39451D01*
X42640Y-255685D01*
X45500Y-254035D01*
X47835Y-251700D01*
X49485Y-248840D01*
X49843Y-247507D01*
X51157D01*
X51515Y-248840D01*
X53165Y-251700D01*
X55500Y-254035D01*
X58360Y-255685D01*
X61549Y-256540D01*
X64851D01*
X68040Y-255685D01*
X70900Y-254035D01*
X73235Y-251700D01*
X74885Y-248840D01*
X75243Y-247507D01*
X76557D01*
X76915Y-248840D01*
X78566Y-251700D01*
X80900Y-254035D01*
X83760Y-255685D01*
X86949Y-256540D01*
X87330D01*
Y-244000D01*
X88600D01*
Y-242730D01*
X101140D01*
Y-242349D01*
X100285Y-239160D01*
X98635Y-236300D01*
X96300Y-233965D01*
X93638Y-232428D01*
X93643Y-231757D01*
X93861Y-231159D01*
X120778D01*
X121304Y-232428D01*
D02*
G37*
%LPC*%
G36*
X101140Y-245270D02*
X89870D01*
Y-256540D01*
X90251D01*
X93440Y-255685D01*
X96300Y-254035D01*
X98635Y-251700D01*
X100285Y-248840D01*
X101140Y-245651D01*
Y-245270D01*
D02*
G37*
%LPD*%
D11*
X211319Y164251D02*
G03*
X211319Y163748I11681J-251D01*
G01*
X-53000Y255500D02*
X-52750D01*
X-51520Y252270D02*
Y254270D01*
Y252270D02*
X-44471Y245221D01*
X-52750Y255500D02*
X-51520Y254270D01*
X-54000Y265500D02*
X-53000Y264500D01*
X-54000Y265500D02*
Y267250D01*
X-44471Y242471D02*
X-44000Y242000D01*
X-44471Y242471D02*
Y245221D01*
X-44000Y201100D02*
Y242000D01*
Y201100D02*
X-43900Y201000D01*
X48000Y201100D02*
Y231000D01*
X47900Y201000D02*
X48000Y201100D01*
X-114000Y181000D02*
X-101000D01*
X-97000Y177000D01*
X-118000D02*
X-114000Y181000D01*
X-154000Y-116000D02*
X-121000Y-83000D01*
X-169641Y-116000D02*
X-154000D01*
X-178298Y-124656D02*
X-169641Y-116000D01*
X-178298Y-124656D02*
X-173702Y-118321D01*
X99000Y152000D02*
Y157000D01*
X96000Y149000D02*
X99000Y152000D01*
X96000Y-61000D02*
Y149000D01*
Y-61000D02*
X150000Y-115000D01*
X91000Y-72714D02*
X159177Y-140891D01*
X91000Y-72714D02*
Y157000D01*
X-169822Y112822D02*
X-110178D01*
X-199482Y145841D02*
X-194886Y141244D01*
Y137886D02*
Y141244D01*
Y137886D02*
X-169822Y112822D01*
X-189500Y-20125D02*
X-187625Y-22000D01*
X-196000Y-20125D02*
X-189500D01*
X-187625Y-22000D02*
X-139000D01*
X133000Y-142998D02*
X145035Y-155033D01*
X111000Y-103000D02*
X133000Y-125000D01*
Y-142998D02*
Y-125000D01*
X198390Y150819D02*
X211319Y163748D01*
X209662Y210055D02*
X211319Y208398D01*
Y164251D02*
Y208398D01*
X209662Y210055D02*
Y210338D01*
X209000Y211000D02*
X209662Y210338D01*
X-35000Y87000D02*
X-2334D01*
X17000Y106334D01*
Y107000D01*
X-38000Y93000D02*
X-9000D01*
X13000Y115000D01*
X-94000Y28000D02*
X-35000Y87000D01*
X-103269Y27731D02*
X-38000Y93000D01*
X-77875Y111000D02*
X-25000D01*
X-133000Y55875D02*
X-77875Y111000D01*
X-77000Y102000D02*
X-20000D01*
X247000Y167000D02*
Y183000D01*
X231968Y151968D02*
X247000Y167000D01*
X209968Y151968D02*
X231968D01*
X187252Y129252D02*
X209968Y151968D01*
X179298Y124656D02*
X183894Y129252D01*
X187252D01*
X-164000Y4875D02*
X-141125D01*
X-125000Y21000D02*
Y54000D01*
X-141125Y4875D02*
X-125000Y21000D01*
X-152678Y25322D02*
X-133000Y45000D01*
X-163553Y25322D02*
X-152678D01*
X-133000Y45000D02*
Y55875D01*
X-164197Y24678D02*
X-163553Y25322D01*
X150000Y-115000D02*
X161570D01*
X173319Y-126749D01*
X211000Y-214000D02*
Y-213964D01*
X171198Y-174161D02*
X211000Y-213964D01*
X171198Y-174161D02*
Y-174125D01*
X-231064Y-152000D02*
X-229064Y-150000D01*
X-219092D02*
X-213677Y-155415D01*
X-232000Y-152000D02*
X-231064D01*
X-229064Y-150000D02*
X-219092D01*
X-213677Y-155415D02*
X-201986D01*
X-139000Y-22000D02*
X-131000Y-14000D01*
X-164000Y-15125D02*
X-147125D01*
X-138000Y-6000D01*
X-171580Y126749D02*
X-165831Y121000D01*
X-172317Y126749D02*
X-171580D01*
X-165831Y121000D02*
X-100000D01*
X-110178Y112822D02*
X-110000Y113000D01*
X74230Y242000D02*
X95000D01*
X73500Y242730D02*
Y243000D01*
Y242730D02*
X74230Y242000D01*
X-135000Y-137927D02*
X-94000Y-96927D01*
X-135000Y-137927D02*
Y-137927D01*
X-94000Y-96927D02*
Y28000D01*
X-150014Y-152941D02*
X-135000Y-137927D01*
X-176176Y-172032D02*
Y-172032D01*
X-103269Y-77262D02*
Y27731D01*
X-159206Y-189003D02*
Y-189003D01*
X-164156Y-138798D02*
Y-138149D01*
X-103269Y-77262D01*
X-203657Y-187243D02*
X-202950Y-187950D01*
X195000Y175714D02*
Y186000D01*
X184248Y164961D02*
X195000Y175714D01*
X146000Y235000D02*
X195000Y186000D01*
X-159177Y140891D02*
X-149286Y131000D01*
X-69000Y279000D02*
X-62000Y272000D01*
X-60522D02*
X-59253Y270730D01*
X-92000Y279000D02*
X-69000D01*
X-59253Y270730D02*
X-57480D01*
X-62000Y272000D02*
X-60522D01*
X-57480Y270730D02*
X-54000Y267250D01*
X41000Y238000D02*
Y254750D01*
Y238000D02*
X42045Y236955D01*
X44545D02*
X48000Y233500D01*
X42045Y236955D02*
X44545D01*
X48000Y231000D02*
Y233500D01*
X157763Y-187560D02*
X157763D01*
X190000Y-169586D02*
X195050Y-174636D01*
Y-175050D02*
Y-174636D01*
X190000Y-169586D02*
Y-166382D01*
X189936Y-166318D02*
X190000Y-166382D01*
X189936Y-166318D02*
Y-164579D01*
X185340Y-159983D02*
X189936Y-164579D01*
X185340Y-159983D02*
X185340D01*
X172227Y131727D02*
Y131727D01*
X-195152Y172343D02*
Y172948D01*
X-192411Y152912D02*
X-192411D01*
X-174500Y-5322D02*
X-164197D01*
X199482Y-146672D02*
X207000Y-154190D01*
Y-160352D02*
Y-154190D01*
X203050Y-164302D02*
X207000Y-160352D01*
X203050Y-166050D02*
Y-164302D01*
X199482Y-146672D02*
Y-145840D01*
X212950Y-175950D02*
Y-175950D01*
X209382Y-135941D02*
X209382D01*
X-125000Y54000D02*
X-77000Y102000D01*
X-164197Y-5322D02*
X-164000Y-5125D01*
X-195152Y172948D02*
X-195050Y173050D01*
X-149286Y131000D02*
X-140000D01*
X-113000Y158000D01*
Y169000D01*
X-110000Y172000D01*
X-118000Y161000D02*
Y177000D01*
X-132000Y147000D02*
X-118000Y161000D01*
X-110000Y172000D02*
X-107000D01*
X-135088Y147088D02*
X-135000Y147000D01*
X-132000D01*
X-145035Y155033D02*
X-144913D01*
X-136968Y147088D02*
X-135088D01*
X-144913Y155033D02*
X-136968Y147088D01*
X137578Y166376D02*
Y166376D01*
X170105Y179103D02*
X179000Y187998D01*
X130000Y228000D02*
X144000D01*
X179000Y193000D01*
Y187998D02*
Y193000D01*
X134000Y235000D02*
X146000D01*
X56000Y231000D02*
Y244500D01*
X31980Y267250D02*
X41000D01*
X23500Y258770D02*
X31980Y267250D01*
X-27980D02*
X-19500Y258770D01*
X-37000Y267250D02*
X-27980D01*
X-47645Y263770D02*
X-42105Y258230D01*
X-50520Y263770D02*
X-47645D01*
X-42105Y258230D02*
X-40480D01*
X-37000Y254750D01*
X9000Y258000D02*
X23500D01*
X-19500D02*
X-4000D01*
D13*
X64000Y231000D02*
Y270000D01*
D18*
X172000Y-39000D02*
D03*
Y-53000D02*
D03*
D24*
X159000Y-64000D02*
D03*
X173000D02*
D03*
X-226000Y2000D02*
D03*
X-212000D02*
D03*
X-226000Y18000D02*
D03*
X-212000D02*
D03*
D25*
X-53000Y255500D02*
D03*
Y264500D02*
D03*
D50*
X166000Y-23000D02*
X166957Y-22043D01*
X165950Y-23050D02*
X166000Y-23000D01*
X159550Y-23050D02*
X165950D01*
X185957Y-22043D02*
X186500Y-21500D01*
X166957Y-22043D02*
X185957D01*
X136500Y26500D02*
X186500D01*
X136000Y27000D02*
X136500Y26500D01*
X135500D02*
X136000Y27000D01*
X109000Y26000D02*
X109500Y26500D01*
X135500D01*
D51*
X203000Y-26864D02*
Y54000D01*
X190864Y-39000D02*
X203000Y-26864D01*
X172000Y-39000D02*
X190864D01*
X-147563Y-33563D02*
X-147000Y-33000D01*
X-163438Y-33563D02*
X-147563D01*
X-164000Y14875D02*
X-148000D01*
X-176640D02*
X-164000D01*
X-164000Y38875D02*
X-162000D01*
X-196000D02*
X-164000D01*
X-261000Y10000D02*
X-226000D01*
X-164000Y-152785D02*
X-107215Y-96000D01*
X-107000D01*
X-162000Y38875D02*
X-148875Y52000D01*
X-148000D01*
X-196000Y-34125D02*
X-164000D01*
X-163438Y-33563D01*
X-196119Y101121D02*
X-185340Y111899D01*
X-210825Y-137384D02*
X-186783Y-113343D01*
X-107138Y-172138D02*
X107138D01*
X-98158Y-163158D02*
X98158D01*
X196000Y-106000D02*
X196000D01*
X173000Y-83000D02*
X196000Y-106000D01*
X166248Y-133820D02*
X166820D01*
X166248D02*
X174428Y-142000D01*
X166820Y-133820D02*
X167000Y-134000D01*
X173000Y-83000D02*
Y-64000D01*
X185340Y-111899D02*
X209382Y-135941D01*
X133500Y-76500D02*
Y-64000D01*
X113000Y-38500D02*
Y-13000D01*
X113250Y-47500D02*
X138050D01*
X113000Y-13000D02*
X129429Y3429D01*
X147429D01*
X163500Y-58500D02*
Y-56650D01*
X157500Y-50650D02*
X163500Y-56650D01*
X148000Y-63500D02*
Y-46900D01*
Y-63500D02*
X148500Y-64000D01*
X138050Y-47500D02*
X138500Y-47050D01*
Y-46900D01*
X147429Y3429D02*
X148000Y4000D01*
X129707Y114000D02*
X138429Y122722D01*
X129000Y114000D02*
X129707D01*
X154118Y143040D02*
X155255D01*
X158085Y145869D01*
Y145869D02*
X168002Y155787D01*
X158085Y145869D02*
Y145869D01*
X168002Y155787D02*
Y162858D01*
X-89178Y-154178D02*
X89178D01*
X-212043Y201043D02*
X-199450Y188450D01*
X-213000Y207000D02*
X-212043Y206043D01*
Y201043D02*
Y206043D01*
X-164000Y-159856D02*
Y-152785D01*
X-130861Y-166376D02*
X-116118Y-181119D01*
X-136579Y-166376D02*
X-130861D01*
X138429Y122722D02*
X147050Y114101D01*
Y114050D02*
Y114101D01*
X157243Y126483D02*
Y130885D01*
X156537Y125777D02*
X157243Y126483D01*
X156537Y124363D02*
Y125777D01*
Y124363D02*
X156950Y123950D01*
X165156Y138798D02*
Y138798D01*
X157243Y130885D02*
X165156Y138798D01*
X116118Y-181119D02*
X132305Y-164932D01*
X135135D01*
X159000Y-63000D02*
X163500Y-58500D01*
X168000Y-54000D01*
X171000D01*
X172000Y-53000D01*
X188477Y114757D02*
X189021D01*
Y108216D02*
Y114580D01*
Y108216D02*
X196119Y101118D01*
X189197Y114757D02*
X211825Y137384D01*
X139950Y140950D02*
Y141877D01*
X151013Y152941D01*
Y152941D01*
X130050Y131050D02*
X131050Y130050D01*
X131101D02*
X138429Y122722D01*
X131050Y130050D02*
X131101D01*
X-181640Y9875D02*
X-176640Y14875D01*
X-196000Y9875D02*
X-181640D01*
X181499Y-142000D02*
X192411Y-152912D01*
X174428Y-142000D02*
X181499D01*
X218043Y-203043D02*
X219000Y-204000D01*
X204950Y-184950D02*
X218043Y-198043D01*
Y-203043D02*
Y-198043D01*
X-195000Y-101000D02*
X-186783Y-109217D01*
Y-113343D02*
Y-109217D01*
X140000Y199000D02*
X140082Y198918D01*
Y186500D02*
Y198918D01*
Y186500D02*
X148892Y177689D01*
X-134079Y-199079D02*
X134079D01*
X-125099Y-190099D02*
X125099D01*
X-120000Y223000D02*
Y257540D01*
X-130000Y232000D02*
Y257540D01*
X-140000Y241000D02*
Y257540D01*
X-203657Y-171229D02*
X-190319Y-157890D01*
X-180000Y-147572D01*
Y-140501D01*
X-171227Y-131727D01*
X-173000Y-154714D02*
Y-147643D01*
X-183248Y-164961D02*
X-173000Y-154714D01*
Y-147643D02*
X-164156Y-138798D01*
X-176176Y-172032D02*
X-164000Y-159856D01*
X-169105Y-179103D02*
X-158000Y-167998D01*
Y-160927D01*
X-150014Y-152941D01*
X-193757Y-177343D02*
Y-175929D01*
X-193050Y-174764D02*
X-183248Y-164961D01*
X-193757Y-175929D02*
X-193050Y-175222D01*
Y-174764D01*
X-193757Y-177343D02*
X-193050Y-178050D01*
X-179052Y-189050D02*
X-169105Y-179103D01*
X-169105D01*
X-203657Y-187243D02*
Y-171229D01*
X-176176Y-172032D02*
X-176176D01*
X-210825Y-137384D02*
Y-137384D01*
X-159206Y-189003D02*
X-136579Y-166376D01*
Y-166376D01*
X-150014Y-152941D02*
Y-152941D01*
X-164156Y-138798D02*
Y-138798D01*
X-218500Y-203000D02*
X-203450Y-187950D01*
X-202950D02*
X-191950Y-198950D01*
X-203450Y-187950D02*
X-202950D01*
X-219000Y-203000D02*
X-218500D01*
X204950Y-184450D02*
X212950Y-176450D01*
X204950Y-184950D02*
Y-184450D01*
X-185340Y105535D02*
Y111899D01*
X203535Y-184950D02*
X204950D01*
X192411Y-152912D02*
X192411D01*
X-162144Y158000D02*
X-151144Y147000D01*
X-209382Y135941D02*
X-186754Y113314D01*
X-169215Y158000D02*
X-162144D01*
X-178269Y167054D02*
X-169215Y158000D01*
X-178269Y167054D02*
X-178269D01*
X-151144Y147000D02*
X-150000D01*
X-209382Y135941D02*
X-209382D01*
X177176Y172032D02*
Y172032D01*
X168002Y162858D02*
X177176Y172032D01*
X-102000Y-263000D02*
X98000D01*
X-170000Y-235000D02*
X-130000D01*
X-102000Y-263000D01*
X98000D02*
X126000Y-235000D01*
X170000D01*
X-161020Y-226020D02*
X161020D01*
X-151657Y-217422D02*
X151657D01*
X152039Y-217040D01*
X-152039D02*
X-151657Y-217422D01*
X-143059Y-208059D02*
X143059D01*
X-116118Y-181119D02*
X116118D01*
X176000Y149643D02*
Y156714D01*
X165156Y138798D02*
X176000Y149643D01*
X-168286Y150000D02*
X-159177Y140891D01*
X-175357Y150000D02*
X-168286D01*
X-185340Y159983D02*
X-175357Y150000D01*
X-175428Y143000D02*
X-166248Y133820D01*
X-182499Y143000D02*
X-175428D01*
X-139991Y182705D02*
Y182709D01*
X-146449Y176246D02*
X-139991Y182705D01*
Y182709D02*
Y182990D01*
X135135Y-164932D02*
X157763Y-187560D01*
X148892Y177689D02*
X160206Y189003D01*
X137578Y166376D02*
X148892Y177689D01*
X-146449Y176246D02*
X-135135Y164932D01*
X-157763Y187560D02*
X-146449Y176246D01*
X-199450Y188450D02*
X-193950Y193950D01*
X-204950Y182950D02*
X-199450Y188450D01*
X-226000Y10000D02*
Y18000D01*
Y2000D02*
Y10000D01*
X199950Y-188535D02*
X203535Y-184950D01*
X195808Y-188535D02*
X199950D01*
X182865Y-175593D02*
X195808Y-188535D01*
X182865Y-175593D02*
Y-171650D01*
X178269Y-167054D02*
Y-167054D01*
Y-167054D02*
X182865Y-171650D01*
X162144Y-158000D02*
X169215D01*
X152106Y-147962D02*
X162144Y-158000D01*
X169215D02*
X178269Y-167054D01*
X178269D01*
X169286Y-151000D02*
X176357D01*
X185340Y-159983D01*
X159177Y-140891D02*
X169286Y-151000D01*
X182571Y-136000D02*
X189642D01*
X199482Y-145840D01*
X173319Y-126749D02*
X173319D01*
X182571Y-136000D01*
X172227Y131727D02*
X183000Y142501D01*
Y149572D01*
X191319Y157890D02*
Y157890D01*
X183000Y149572D02*
X191319Y157890D01*
X176000Y156714D02*
X184248Y164961D01*
Y164961D01*
X162002Y163929D02*
Y171000D01*
X151013Y152941D02*
X162002Y163929D01*
Y171000D02*
X170105Y179103D01*
X170105D01*
X-157763Y187560D02*
X-157763D01*
X-135135Y164932D02*
X-135135D01*
X-210000Y170501D02*
X-192411Y152912D01*
X-210000Y170501D02*
Y176485D01*
X-204950Y181535D02*
Y182950D01*
X-210000Y176485D02*
X-204950Y181535D01*
X-195757Y170400D02*
X-185340Y159983D01*
X-195757Y170400D02*
Y172343D01*
X-185340Y159983D02*
Y159983D01*
X-171198Y174125D02*
X-171198D01*
X-181123Y184050D02*
X-171198Y174125D01*
X-171198D02*
X-161073Y164000D01*
X-154002D01*
X-145035Y155033D01*
X-159177Y140891D02*
X-159177D01*
X-192411Y152912D02*
X-182499Y143000D01*
X-166248Y133820D02*
X-166248D01*
X-210875Y-125D02*
X-196000D01*
X-212000Y1000D02*
X-210875Y-125D01*
X-210125Y19875D02*
X-196000D01*
X-175322Y24678D02*
X-164197D01*
X-180125Y19875D02*
X-175322Y24678D01*
X-196000Y19875D02*
X-180125D01*
Y-125D02*
X-175125Y4875D01*
X-196000Y-125D02*
X-180125D01*
X-175125Y4875D02*
X-164000D01*
X-179500Y-10125D02*
X-174500Y-5125D01*
X-164000D01*
X-196000Y-10125D02*
X-179500D01*
X-219875D02*
X-196000D01*
X-226000Y-4000D02*
X-219875Y-10125D01*
X-226000Y-4000D02*
Y2000D01*
X-227000Y20000D02*
X-226000Y19000D01*
Y18000D02*
Y19000D01*
D52*
X78000Y164000D02*
X112000D01*
X62000Y148000D02*
X78000Y164000D01*
X47257Y148000D02*
X62000D01*
X101044Y180000D02*
X112000D01*
X93029Y188015D02*
X101044Y180000D01*
X81358Y188015D02*
X93029D01*
X55343Y162000D02*
X81358Y188015D01*
X45812Y162000D02*
X55343D01*
X43812Y160000D02*
X45812Y162000D01*
X43000Y160000D02*
X43812D01*
X111000Y205000D02*
X112000Y206000D01*
X78873Y194015D02*
X95059D01*
X43812Y170000D02*
X45812Y168000D01*
X52858D01*
X78873Y194015D01*
X43000Y170000D02*
X43812D01*
X95059Y194015D02*
X106044Y205000D01*
X111000D01*
X125848Y176545D02*
Y180848D01*
X112000Y172000D02*
X121303D01*
X125848Y176545D01*
Y180848D02*
X126000Y181000D01*
X125927Y189613D02*
Y194073D01*
X122000Y198000D02*
X125927Y194073D01*
Y189613D02*
X126000Y189540D01*
X112000Y198000D02*
X122000D01*
X101000Y190000D02*
X112000D01*
X112000Y190000D01*
D53*
X147050Y114050D02*
X147757Y113343D01*
X149879D01*
X150586Y114050D01*
X159071D01*
X167631Y122610D01*
Y127131D01*
X172227Y131727D01*
D54*
X88600Y-117000D02*
D03*
X63200D02*
D03*
X37800D02*
D03*
X12400D02*
D03*
X-13000D02*
D03*
X-38400D02*
D03*
X-63800D02*
D03*
X88600Y-244000D02*
D03*
X63200D02*
D03*
X37800D02*
D03*
X12400D02*
D03*
X-13000D02*
D03*
X-38400D02*
D03*
X-63800D02*
D03*
X-89200Y-117000D02*
D03*
Y-244000D02*
D03*
X226274Y226274D02*
D03*
X-226274Y-226274D02*
D03*
X77000Y77000D02*
D03*
X-77000Y77000D02*
D03*
Y-77000D02*
D03*
X77000D02*
D03*
X-226274Y226274D02*
D03*
X226274Y-226274D02*
D03*
D55*
X-169178Y74178D02*
D03*
X169178D02*
D03*
X178158Y83158D02*
D03*
X205099Y110099D02*
D03*
X214079Y119079D02*
D03*
X250000Y155000D02*
D03*
X241020Y146020D02*
D03*
X232040Y137039D02*
D03*
X223059Y128059D02*
D03*
X196119Y101118D02*
D03*
X187138Y92138D02*
D03*
X-98158Y-163158D02*
D03*
X98158D02*
D03*
X-89178Y-154178D02*
D03*
X89178D02*
D03*
X-178158Y83158D02*
D03*
X-125099Y-190099D02*
D03*
X-205099Y110099D02*
D03*
X125099Y-190099D02*
D03*
X-214079Y119079D02*
D03*
X-134079Y-199079D02*
D03*
X134079D02*
D03*
X170000Y-235000D02*
D03*
X161020Y-226020D02*
D03*
X152039Y-217040D02*
D03*
X143059Y-208059D02*
D03*
X116118Y-181119D02*
D03*
X107138Y-172138D02*
D03*
X-187138Y92138D02*
D03*
X-196119Y101118D02*
D03*
X-223059Y128059D02*
D03*
X-232040Y137039D02*
D03*
X-241020Y146020D02*
D03*
X-250000Y155000D02*
D03*
X-170000Y-235000D02*
D03*
X-161020Y-226020D02*
D03*
X-152039Y-217040D02*
D03*
X-143059Y-208059D02*
D03*
X-116118Y-181119D02*
D03*
X-107138Y-172138D02*
D03*
D56*
X160138Y-101138D02*
D03*
X223000Y-164000D02*
D03*
X-223000Y164000D02*
D03*
X-160138Y101138D02*
D03*
X-223000Y-164000D02*
D03*
X-160138Y-101138D02*
D03*
X223000Y164000D02*
D03*
X160138Y101138D02*
D03*
D57*
X-0Y-0D02*
D03*
D58*
X280000Y54000D02*
D03*
X166000Y-23000D02*
D03*
X126050Y-23050D02*
D03*
X136000Y27000D02*
D03*
X110000Y72000D02*
D03*
D59*
X-166000Y-57000D02*
D03*
X-261000Y10000D02*
D03*
X-148000Y52000D02*
D03*
Y-33000D02*
D03*
X129000Y114000D02*
D03*
X-148000Y15000D02*
D03*
X219000Y-204000D02*
D03*
X-195000Y-101000D02*
D03*
X140000Y199000D02*
D03*
X-219000Y-203000D02*
D03*
X-213000Y207000D02*
D03*
X-139991Y182709D02*
D03*
D60*
X-169000Y-73000D02*
D03*
X-232000Y-152000D02*
D03*
X-121000Y-83000D02*
D03*
X-107000Y-96000D02*
D03*
X196000Y-106000D02*
D03*
X167000Y-134000D02*
D03*
X154118Y143040D02*
D03*
X133500Y-76500D02*
D03*
X43000Y160000D02*
D03*
Y170000D02*
D03*
X47000Y148000D02*
D03*
X101000Y190000D02*
D03*
X111000Y-103000D02*
D03*
X209000Y211000D02*
D03*
X247000Y183000D02*
D03*
X211000Y-214000D02*
D03*
X-131000Y-14000D02*
D03*
X-138000Y-6000D02*
D03*
X-110000Y113000D02*
D03*
X-100000Y121000D02*
D03*
X126000Y189540D02*
D03*
Y181000D02*
D03*
X-120000Y223000D02*
D03*
Y257540D02*
D03*
X-130000Y232000D02*
D03*
Y257540D02*
D03*
X-140000Y241000D02*
D03*
Y257540D02*
D03*
X-100000Y263000D02*
D03*
X59000Y-138000D02*
D03*
X-150000Y147000D02*
D03*
X-62000Y272000D02*
D03*
X41000Y238000D02*
D03*
X-92000Y279000D02*
D03*
X72000Y106000D02*
D03*
X66000Y124000D02*
D03*
X-64000Y155000D02*
D03*
X-87000Y145000D02*
D03*
X98500Y265500D02*
D03*
X93000Y280000D02*
D03*
X35000Y307000D02*
D03*
X20000Y307000D02*
D03*
X0Y302000D02*
D03*
X-28000Y309000D02*
D03*
X-42000D02*
D03*
D61*
X-97000Y177000D02*
D03*
X99000Y157000D02*
D03*
X91000D02*
D03*
X17000Y107000D02*
D03*
X13000Y115000D02*
D03*
X-25000Y111000D02*
D03*
X-20000Y102000D02*
D03*
X95000Y242000D02*
D03*
X-107000Y172000D02*
D03*
X130000Y228000D02*
D03*
X134000Y235000D02*
D03*
X64000Y270000D02*
D03*
X9000Y258000D02*
D03*
X-4000D02*
D03*
X-44000Y242000D02*
D03*
D62*
X113000Y-36750D02*
D03*
Y-49250D02*
D03*
X41000Y267250D02*
D03*
Y254750D02*
D03*
X-37000Y267250D02*
D03*
Y254750D02*
D03*
D63*
X-43900Y201000D02*
D03*
X47900D02*
D03*
D64*
X170105Y179104D02*
D03*
X177176Y172032D02*
D03*
X184248Y164961D02*
D03*
X191319Y157890D02*
D03*
X198390Y150819D02*
D03*
X151013Y152941D02*
D03*
X158085Y145869D02*
D03*
X165156Y138798D02*
D03*
X172227Y131727D02*
D03*
X179298Y124656D02*
D03*
X-169105Y-179104D02*
D03*
X-176176Y-172032D02*
D03*
X-183248Y-164961D02*
D03*
X-190319Y-157890D02*
D03*
X-197390Y-150819D02*
D03*
X-150014Y-152941D02*
D03*
X-157085Y-145869D02*
D03*
X-164156Y-138798D02*
D03*
X-171227Y-131727D02*
D03*
X-178298Y-124656D02*
D03*
D65*
X160206Y189003D02*
D03*
X211825Y137384D02*
D03*
X189197Y114757D02*
D03*
X137578Y166376D02*
D03*
X-159206Y-189003D02*
D03*
X-210825Y-137384D02*
D03*
X-188197Y-114757D02*
D03*
X-136579Y-166376D02*
D03*
D66*
X199482Y-145840D02*
D03*
X192411Y-152912D02*
D03*
X185340Y-159983D02*
D03*
X178269Y-167054D02*
D03*
X171198Y-174125D02*
D03*
X173319Y-126749D02*
D03*
X166248Y-133820D02*
D03*
X159177Y-140891D02*
D03*
X152106Y-147962D02*
D03*
X145035Y-155033D02*
D03*
X-145035Y155033D02*
D03*
X-152106Y147962D02*
D03*
X-159177Y140891D02*
D03*
X-166248Y133820D02*
D03*
X-173319Y126749D02*
D03*
X-171198Y174125D02*
D03*
X-178269Y167054D02*
D03*
X-185340Y159983D02*
D03*
X-192411Y152912D02*
D03*
X-199482Y145841D02*
D03*
D67*
X209382Y-135941D02*
D03*
X157763Y-187560D02*
D03*
X135135Y-164932D02*
D03*
X186754Y-113314D02*
D03*
X-135135Y164932D02*
D03*
X-186754Y113314D02*
D03*
X-209382Y135941D02*
D03*
X-157763Y187560D02*
D03*
D68*
X-164000Y24875D02*
D03*
Y14875D02*
D03*
Y4875D02*
D03*
Y-5125D02*
D03*
Y-15125D02*
D03*
X-196000Y19875D02*
D03*
Y9875D02*
D03*
Y-125D02*
D03*
Y-10125D02*
D03*
Y-20125D02*
D03*
D69*
X-164000Y38875D02*
D03*
Y-34125D02*
D03*
X-196000D02*
D03*
Y38875D02*
D03*
D70*
X64000Y231000D02*
D03*
X56000D02*
D03*
X48000D02*
D03*
D71*
X112000Y180000D02*
D03*
Y172000D02*
D03*
Y164000D02*
D03*
Y206000D02*
D03*
Y198000D02*
D03*
Y190000D02*
D03*
D72*
X148000Y-23100D02*
D03*
X138500D02*
D03*
X157500D02*
D03*
Y-46900D02*
D03*
X148000D02*
D03*
X138500D02*
D03*
D73*
X148000Y4000D02*
D03*
Y54000D02*
D03*
D74*
X187000Y-21000D02*
D03*
Y7000D02*
D03*
X109000Y54000D02*
D03*
Y26000D02*
D03*
X187000Y54000D02*
D03*
Y26000D02*
D03*
D75*
X133500Y-64000D02*
D03*
X148500D02*
D03*
X56500Y245000D02*
D03*
X71500D02*
D03*
D76*
X-193050Y-178050D02*
D03*
X-202950Y-187950D02*
D03*
X-182050Y-189050D02*
D03*
X-191950Y-198950D02*
D03*
X130050Y131050D02*
D03*
X139950Y140950D02*
D03*
X147050Y114050D02*
D03*
X156950Y123950D02*
D03*
D77*
X212950Y-175950D02*
D03*
X203050Y-166050D02*
D03*
X204950Y-184950D02*
D03*
X195050Y-175050D02*
D03*
X-204950Y182950D02*
D03*
X-195050Y173050D02*
D03*
X-193950Y193950D02*
D03*
X-184050Y184050D02*
D03*
D78*
X-19500Y258000D02*
D03*
X23500D02*
D03*
D79*
X280000Y54000D02*
X280000Y54000D01*
X203000Y54000D02*
X280000D01*
X187000D02*
X203000D01*
X110000Y55000D02*
Y72000D01*
X109000Y54000D02*
X110000Y55000D01*
X148000Y54000D02*
X187000D01*
X109000D02*
X148000D01*
D80*
X126050Y-23050D02*
X138450D01*
X138500Y-23100D01*
X148000D02*
Y4000D01*
M02*
