G04*
G04 #@! TF.GenerationSoftware,Altium Limited,Altium Designer,22.6.1 (34)*
G04*
G04 Layer_Color=16711935*
%FSLAX44Y44*%
%MOMM*%
G71*
G04*
G04 #@! TF.SameCoordinates,2749D786-5B7B-4281-819F-A1242ED465B1*
G04*
G04*
G04 #@! TF.FilePolarity,Negative*
G04*
G01*
G75*
%ADD31R,1.1032X0.9032*%
%ADD37R,0.9032X1.1032*%
G04:AMPARAMS|DCode=38|XSize=0.7532mm|YSize=0.7032mm|CornerRadius=0.1641mm|HoleSize=0mm|Usage=FLASHONLY|Rotation=180.000|XOffset=0mm|YOffset=0mm|HoleType=Round|Shape=RoundedRectangle|*
%AMROUNDEDRECTD38*
21,1,0.7532,0.3750,0,0,180.0*
21,1,0.4250,0.7032,0,0,180.0*
1,1,0.3282,-0.2125,0.1875*
1,1,0.3282,0.2125,0.1875*
1,1,0.3282,0.2125,-0.1875*
1,1,0.3282,-0.2125,-0.1875*
%
%ADD38ROUNDEDRECTD38*%
%ADD42C,2.2032*%
%ADD43C,0.9032*%
%ADD44C,1.7780*%
%ADD45C,16.2032*%
%ADD46C,1.7032*%
%ADD47C,1.2032*%
%ADD48C,0.8032*%
%ADD49C,0.7032*%
%ADD81R,1.1532X1.1532*%
%ADD82R,2.3932X1.8032*%
G04:AMPARAMS|DCode=83|XSize=0.7032mm|YSize=2.0032mm|CornerRadius=0mm|HoleSize=0mm|Usage=FLASHONLY|Rotation=315.000|XOffset=0mm|YOffset=0mm|HoleType=Round|Shape=Rectangle|*
%AMROTATEDRECTD83*
4,1,4,-0.9569,-0.4596,0.4596,0.9569,0.9569,0.4596,-0.4596,-0.9569,-0.9569,-0.4596,0.0*
%
%ADD83ROTATEDRECTD83*%

G04:AMPARAMS|DCode=84|XSize=1.6032mm|YSize=2.0032mm|CornerRadius=0mm|HoleSize=0mm|Usage=FLASHONLY|Rotation=315.000|XOffset=0mm|YOffset=0mm|HoleType=Round|Shape=Rectangle|*
%AMROTATEDRECTD84*
4,1,4,-1.2751,-0.1414,0.1414,1.2751,1.2751,0.1414,-0.1414,-1.2751,-1.2751,-0.1414,0.0*
%
%ADD84ROTATEDRECTD84*%

G04:AMPARAMS|DCode=85|XSize=0.7032mm|YSize=2.0032mm|CornerRadius=0mm|HoleSize=0mm|Usage=FLASHONLY|Rotation=225.000|XOffset=0mm|YOffset=0mm|HoleType=Round|Shape=Rectangle|*
%AMROTATEDRECTD85*
4,1,4,-0.4596,0.9569,0.9569,-0.4596,0.4596,-0.9569,-0.9569,0.4596,-0.4596,0.9569,0.0*
%
%ADD85ROTATEDRECTD85*%

G04:AMPARAMS|DCode=86|XSize=1.6032mm|YSize=2.0032mm|CornerRadius=0mm|HoleSize=0mm|Usage=FLASHONLY|Rotation=225.000|XOffset=0mm|YOffset=0mm|HoleType=Round|Shape=Rectangle|*
%AMROTATEDRECTD86*
4,1,4,-0.1414,1.2751,1.2751,-0.1414,0.1414,-1.2751,-1.2751,0.1414,-0.1414,1.2751,0.0*
%
%ADD86ROTATEDRECTD86*%

%ADD87R,2.0032X0.7032*%
%ADD88R,2.0032X1.6032*%
%ADD89R,0.7032X1.2032*%
%ADD90R,1.2032X0.7032*%
%ADD91R,0.7932X1.5432*%
%ADD92R,3.0032X2.2032*%
%ADD93R,2.0032X1.5032*%
%ADD94R,1.0032X1.2032*%
G04:AMPARAMS|DCode=95|XSize=1.1032mm|YSize=0.9032mm|CornerRadius=0mm|HoleSize=0mm|Usage=FLASHONLY|Rotation=315.000|XOffset=0mm|YOffset=0mm|HoleType=Round|Shape=Rectangle|*
%AMROTATEDRECTD95*
4,1,4,-0.7094,0.0707,-0.0707,0.7094,0.7094,-0.0707,0.0707,-0.7094,-0.7094,0.0707,0.0*
%
%ADD95ROTATEDRECTD95*%

G04:AMPARAMS|DCode=96|XSize=1.1032mm|YSize=0.9032mm|CornerRadius=0mm|HoleSize=0mm|Usage=FLASHONLY|Rotation=45.000|XOffset=0mm|YOffset=0mm|HoleType=Round|Shape=Rectangle|*
%AMROTATEDRECTD96*
4,1,4,-0.0707,-0.7094,-0.7094,-0.0707,0.0707,0.7094,0.7094,0.0707,-0.0707,-0.7094,0.0*
%
%ADD96ROTATEDRECTD96*%

%ADD97R,2.1532X3.1532*%
D31*
X172000Y-39000D02*
D03*
Y-53000D02*
D03*
D37*
X159000Y-64000D02*
D03*
X173000D02*
D03*
X-226000Y2000D02*
D03*
X-212000D02*
D03*
X-226000Y18000D02*
D03*
X-212000D02*
D03*
D38*
X-53000Y255500D02*
D03*
Y264500D02*
D03*
D42*
X88600Y-117000D02*
D03*
X63200D02*
D03*
X37800D02*
D03*
X12400D02*
D03*
X-13000D02*
D03*
X-38400D02*
D03*
X-63800D02*
D03*
X88600Y-244000D02*
D03*
X63200D02*
D03*
X37800D02*
D03*
X12400D02*
D03*
X-13000D02*
D03*
X-38400D02*
D03*
X-63800D02*
D03*
X-89200Y-117000D02*
D03*
Y-244000D02*
D03*
X226274Y226274D02*
D03*
X-226274Y-226274D02*
D03*
X77000Y77000D02*
D03*
X-77000Y77000D02*
D03*
Y-77000D02*
D03*
X77000D02*
D03*
X-226274Y226274D02*
D03*
X226274Y-226274D02*
D03*
D43*
X-169178Y74178D02*
D03*
X169178D02*
D03*
X178158Y83158D02*
D03*
X205099Y110099D02*
D03*
X214079Y119079D02*
D03*
X250000Y155000D02*
D03*
X241020Y146020D02*
D03*
X232040Y137039D02*
D03*
X223059Y128059D02*
D03*
X196119Y101118D02*
D03*
X187138Y92138D02*
D03*
X-98158Y-163158D02*
D03*
X98158D02*
D03*
X-89178Y-154178D02*
D03*
X89178D02*
D03*
X-178158Y83158D02*
D03*
X-125099Y-190099D02*
D03*
X-205099Y110099D02*
D03*
X125099Y-190099D02*
D03*
X-214079Y119079D02*
D03*
X-134079Y-199079D02*
D03*
X134079D02*
D03*
X170000Y-235000D02*
D03*
X161020Y-226020D02*
D03*
X152039Y-217040D02*
D03*
X143059Y-208059D02*
D03*
X116118Y-181119D02*
D03*
X107138Y-172138D02*
D03*
X-187138Y92138D02*
D03*
X-196119Y101118D02*
D03*
X-223059Y128059D02*
D03*
X-232040Y137039D02*
D03*
X-241020Y146020D02*
D03*
X-250000Y155000D02*
D03*
X-170000Y-235000D02*
D03*
X-161020Y-226020D02*
D03*
X-152039Y-217040D02*
D03*
X-143059Y-208059D02*
D03*
X-116118Y-181119D02*
D03*
X-107138Y-172138D02*
D03*
D44*
X160138Y-101138D02*
D03*
X223000Y-164000D02*
D03*
X-223000Y164000D02*
D03*
X-160138Y101138D02*
D03*
X-223000Y-164000D02*
D03*
X-160138Y-101138D02*
D03*
X223000Y164000D02*
D03*
X160138Y101138D02*
D03*
D45*
X-0Y-0D02*
D03*
D46*
X280000Y54000D02*
D03*
X166000Y-23000D02*
D03*
X126050Y-23050D02*
D03*
X136000Y27000D02*
D03*
X110000Y72000D02*
D03*
D47*
X-166000Y-57000D02*
D03*
X-261000Y10000D02*
D03*
X-148000Y52000D02*
D03*
Y-33000D02*
D03*
X129000Y114000D02*
D03*
X-148000Y15000D02*
D03*
X219000Y-204000D02*
D03*
X-195000Y-101000D02*
D03*
X140000Y199000D02*
D03*
X-219000Y-203000D02*
D03*
X-213000Y207000D02*
D03*
X-139991Y182709D02*
D03*
D48*
X-169000Y-73000D02*
D03*
X-232000Y-152000D02*
D03*
X-121000Y-83000D02*
D03*
X-107000Y-96000D02*
D03*
X196000Y-106000D02*
D03*
X167000Y-134000D02*
D03*
X154118Y143040D02*
D03*
X133500Y-76500D02*
D03*
X43000Y160000D02*
D03*
Y170000D02*
D03*
X47000Y148000D02*
D03*
X101000Y190000D02*
D03*
X111000Y-103000D02*
D03*
X209000Y211000D02*
D03*
X247000Y183000D02*
D03*
X211000Y-214000D02*
D03*
X-131000Y-14000D02*
D03*
X-138000Y-6000D02*
D03*
X-110000Y113000D02*
D03*
X-100000Y121000D02*
D03*
X126000Y189540D02*
D03*
Y181000D02*
D03*
X-120000Y223000D02*
D03*
Y257540D02*
D03*
X-130000Y232000D02*
D03*
Y257540D02*
D03*
X-140000Y241000D02*
D03*
Y257540D02*
D03*
X-100000Y263000D02*
D03*
X59000Y-138000D02*
D03*
X-150000Y147000D02*
D03*
X-62000Y272000D02*
D03*
X41000Y238000D02*
D03*
X-92000Y279000D02*
D03*
X72000Y106000D02*
D03*
X66000Y124000D02*
D03*
X-64000Y155000D02*
D03*
X-87000Y145000D02*
D03*
X98500Y265500D02*
D03*
X93000Y280000D02*
D03*
X35000Y307000D02*
D03*
X20000Y307000D02*
D03*
X0Y302000D02*
D03*
X-28000Y309000D02*
D03*
X-42000D02*
D03*
D49*
X-97000Y177000D02*
D03*
X99000Y157000D02*
D03*
X91000D02*
D03*
X17000Y107000D02*
D03*
X13000Y115000D02*
D03*
X-25000Y111000D02*
D03*
X-20000Y102000D02*
D03*
X95000Y242000D02*
D03*
X-107000Y172000D02*
D03*
X130000Y228000D02*
D03*
X134000Y235000D02*
D03*
X64000Y270000D02*
D03*
X9000Y258000D02*
D03*
X-4000D02*
D03*
X-44000Y242000D02*
D03*
D81*
X113000Y-36750D02*
D03*
Y-49250D02*
D03*
X41000Y267250D02*
D03*
Y254750D02*
D03*
X-37000Y267250D02*
D03*
Y254750D02*
D03*
D82*
X-43900Y201000D02*
D03*
X47900D02*
D03*
D83*
X170105Y179104D02*
D03*
X177176Y172032D02*
D03*
X184248Y164961D02*
D03*
X191319Y157890D02*
D03*
X198390Y150819D02*
D03*
X151013Y152941D02*
D03*
X158085Y145869D02*
D03*
X165156Y138798D02*
D03*
X172227Y131727D02*
D03*
X179298Y124656D02*
D03*
X-169105Y-179104D02*
D03*
X-176176Y-172032D02*
D03*
X-183248Y-164961D02*
D03*
X-190319Y-157890D02*
D03*
X-197390Y-150819D02*
D03*
X-150014Y-152941D02*
D03*
X-157085Y-145869D02*
D03*
X-164156Y-138798D02*
D03*
X-171227Y-131727D02*
D03*
X-178298Y-124656D02*
D03*
D84*
X160206Y189003D02*
D03*
X211825Y137384D02*
D03*
X189197Y114757D02*
D03*
X137578Y166376D02*
D03*
X-159206Y-189003D02*
D03*
X-210825Y-137384D02*
D03*
X-188197Y-114757D02*
D03*
X-136579Y-166376D02*
D03*
D85*
X199482Y-145840D02*
D03*
X192411Y-152912D02*
D03*
X185340Y-159983D02*
D03*
X178269Y-167054D02*
D03*
X171198Y-174125D02*
D03*
X173319Y-126749D02*
D03*
X166248Y-133820D02*
D03*
X159177Y-140891D02*
D03*
X152106Y-147962D02*
D03*
X145035Y-155033D02*
D03*
X-145035Y155033D02*
D03*
X-152106Y147962D02*
D03*
X-159177Y140891D02*
D03*
X-166248Y133820D02*
D03*
X-173319Y126749D02*
D03*
X-171198Y174125D02*
D03*
X-178269Y167054D02*
D03*
X-185340Y159983D02*
D03*
X-192411Y152912D02*
D03*
X-199482Y145841D02*
D03*
D86*
X209382Y-135941D02*
D03*
X157763Y-187560D02*
D03*
X135135Y-164932D02*
D03*
X186754Y-113314D02*
D03*
X-135135Y164932D02*
D03*
X-186754Y113314D02*
D03*
X-209382Y135941D02*
D03*
X-157763Y187560D02*
D03*
D87*
X-164000Y24875D02*
D03*
Y14875D02*
D03*
Y4875D02*
D03*
Y-5125D02*
D03*
Y-15125D02*
D03*
X-196000Y19875D02*
D03*
Y9875D02*
D03*
Y-125D02*
D03*
Y-10125D02*
D03*
Y-20125D02*
D03*
D88*
X-164000Y38875D02*
D03*
Y-34125D02*
D03*
X-196000D02*
D03*
Y38875D02*
D03*
D89*
X64000Y231000D02*
D03*
X56000D02*
D03*
X48000D02*
D03*
D90*
X112000Y180000D02*
D03*
Y172000D02*
D03*
Y164000D02*
D03*
Y206000D02*
D03*
Y198000D02*
D03*
Y190000D02*
D03*
D91*
X148000Y-23100D02*
D03*
X138500D02*
D03*
X157500D02*
D03*
Y-46900D02*
D03*
X148000D02*
D03*
X138500D02*
D03*
D92*
X148000Y4000D02*
D03*
Y54000D02*
D03*
D93*
X187000Y-21000D02*
D03*
Y7000D02*
D03*
X109000Y54000D02*
D03*
Y26000D02*
D03*
X187000Y54000D02*
D03*
Y26000D02*
D03*
D94*
X133500Y-64000D02*
D03*
X148500D02*
D03*
X56500Y245000D02*
D03*
X71500D02*
D03*
D95*
X-193050Y-178050D02*
D03*
X-202950Y-187950D02*
D03*
X-182050Y-189050D02*
D03*
X-191950Y-198950D02*
D03*
X130050Y131050D02*
D03*
X139950Y140950D02*
D03*
X147050Y114050D02*
D03*
X156950Y123950D02*
D03*
D96*
X212950Y-175950D02*
D03*
X203050Y-166050D02*
D03*
X204950Y-184950D02*
D03*
X195050Y-175050D02*
D03*
X-204950Y182950D02*
D03*
X-195050Y173050D02*
D03*
X-193950Y193950D02*
D03*
X-184050Y184050D02*
D03*
D97*
X-19500Y258000D02*
D03*
X23500D02*
D03*
M02*
