G04*
G04 #@! TF.GenerationSoftware,Altium Limited,Altium Designer,22.6.1 (34)*
G04*
G04 Layer_Color=8388736*
%FSLAX44Y44*%
%MOMM*%
G71*
G04*
G04 #@! TF.SameCoordinates,2749D786-5B7B-4281-819F-A1242ED465B1*
G04*
G04*
G04 #@! TF.FilePolarity,Negative*
G04*
G01*
G75*
%ADD29R,0.5334X1.7272*%
%ADD30R,1.7272X0.5334*%
%ADD31R,1.1032X0.9032*%
%ADD32R,2.1082X1.0160*%
G04:AMPARAMS|DCode=33|XSize=0.9906mm|YSize=1.7018mm|CornerRadius=0mm|HoleSize=0mm|Usage=FLASHONLY|Rotation=315.000|XOffset=0mm|YOffset=0mm|HoleType=Round|Shape=Rectangle|*
%AMROTATEDRECTD33*
4,1,4,-0.9519,-0.2515,0.2515,0.9519,0.9519,0.2515,-0.2515,-0.9519,-0.9519,-0.2515,0.0*
%
%ADD33ROTATEDRECTD33*%

G04:AMPARAMS|DCode=34|XSize=0.9906mm|YSize=1.7018mm|CornerRadius=0mm|HoleSize=0mm|Usage=FLASHONLY|Rotation=225.000|XOffset=0mm|YOffset=0mm|HoleType=Round|Shape=Rectangle|*
%AMROTATEDRECTD34*
4,1,4,-0.2515,0.9519,0.9519,-0.2515,0.2515,-0.9519,-0.9519,0.2515,-0.2515,0.9519,0.0*
%
%ADD34ROTATEDRECTD34*%

%ADD35R,0.8532X0.8532*%
%ADD36R,0.8532X0.8532*%
%ADD37R,0.9032X1.1032*%
G04:AMPARAMS|DCode=38|XSize=0.7532mm|YSize=0.7032mm|CornerRadius=0.1641mm|HoleSize=0mm|Usage=FLASHONLY|Rotation=180.000|XOffset=0mm|YOffset=0mm|HoleType=Round|Shape=RoundedRectangle|*
%AMROUNDEDRECTD38*
21,1,0.7532,0.3750,0,0,180.0*
21,1,0.4250,0.7032,0,0,180.0*
1,1,0.3282,-0.2125,0.1875*
1,1,0.3282,0.2125,0.1875*
1,1,0.3282,0.2125,-0.1875*
1,1,0.3282,-0.2125,-0.1875*
%
%ADD38ROUNDEDRECTD38*%
G04:AMPARAMS|DCode=39|XSize=0.7532mm|YSize=0.7032mm|CornerRadius=0.1641mm|HoleSize=0mm|Usage=FLASHONLY|Rotation=270.000|XOffset=0mm|YOffset=0mm|HoleType=Round|Shape=RoundedRectangle|*
%AMROUNDEDRECTD39*
21,1,0.7532,0.3750,0,0,270.0*
21,1,0.4250,0.7032,0,0,270.0*
1,1,0.3282,-0.1875,-0.2125*
1,1,0.3282,-0.1875,0.2125*
1,1,0.3282,0.1875,0.2125*
1,1,0.3282,0.1875,-0.2125*
%
%ADD39ROUNDEDRECTD39*%
G04:AMPARAMS|DCode=40|XSize=0.9632mm|YSize=0.8636mm|CornerRadius=0.1842mm|HoleSize=0mm|Usage=FLASHONLY|Rotation=0.000|XOffset=0mm|YOffset=0mm|HoleType=Round|Shape=RoundedRectangle|*
%AMROUNDEDRECTD40*
21,1,0.9632,0.4953,0,0,0.0*
21,1,0.5949,0.8636,0,0,0.0*
1,1,0.3683,0.2975,-0.2477*
1,1,0.3683,-0.2975,-0.2477*
1,1,0.3683,-0.2975,0.2477*
1,1,0.3683,0.2975,0.2477*
%
%ADD40ROUNDEDRECTD40*%
G04:AMPARAMS|DCode=41|XSize=0.9632mm|YSize=0.8636mm|CornerRadius=0.1842mm|HoleSize=0mm|Usage=FLASHONLY|Rotation=90.000|XOffset=0mm|YOffset=0mm|HoleType=Round|Shape=RoundedRectangle|*
%AMROUNDEDRECTD41*
21,1,0.9632,0.4953,0,0,90.0*
21,1,0.5949,0.8636,0,0,90.0*
1,1,0.3683,0.2477,0.2975*
1,1,0.3683,0.2477,-0.2975*
1,1,0.3683,-0.2477,-0.2975*
1,1,0.3683,-0.2477,0.2975*
%
%ADD41ROUNDEDRECTD41*%
%ADD42C,2.2032*%
%ADD43C,0.9032*%
%ADD44C,1.7780*%
%ADD45C,16.2032*%
%ADD46C,1.7032*%
%ADD47C,1.2032*%
%ADD48C,0.8032*%
%ADD49C,0.7032*%
D29*
X59784Y287216D02*
D03*
X54784D02*
D03*
X49784D02*
D03*
X44784D02*
D03*
X39784D02*
D03*
X34784D02*
D03*
X29784D02*
D03*
X24784D02*
D03*
X19784D02*
D03*
X14784D02*
D03*
X9784D02*
D03*
X4784D02*
D03*
X-216D02*
D03*
X-5216D02*
D03*
X-10216D02*
D03*
X-15216D02*
D03*
X-20216D02*
D03*
X-25216D02*
D03*
X-30216D02*
D03*
X-35216D02*
D03*
X-40216D02*
D03*
X-45216D02*
D03*
X-50216D02*
D03*
X-55216D02*
D03*
X-60216D02*
D03*
Y132784D02*
D03*
X-55216D02*
D03*
X-50216D02*
D03*
X-45216D02*
D03*
X-40216D02*
D03*
X-35216D02*
D03*
X-30216D02*
D03*
X-25216D02*
D03*
X-20216D02*
D03*
X-15216D02*
D03*
X-10216D02*
D03*
X-5216D02*
D03*
X-216D02*
D03*
X4784D02*
D03*
X9784D02*
D03*
X14784D02*
D03*
X19784D02*
D03*
X24784D02*
D03*
X29784D02*
D03*
X34784D02*
D03*
X39784D02*
D03*
X44784D02*
D03*
X49784D02*
D03*
X54784D02*
D03*
X59784D02*
D03*
D30*
X-77432Y270000D02*
D03*
Y265000D02*
D03*
Y260000D02*
D03*
Y255000D02*
D03*
Y250000D02*
D03*
Y245000D02*
D03*
Y240000D02*
D03*
Y235000D02*
D03*
Y230000D02*
D03*
Y225000D02*
D03*
Y220000D02*
D03*
Y215000D02*
D03*
Y210000D02*
D03*
Y205000D02*
D03*
Y200000D02*
D03*
Y195000D02*
D03*
Y190000D02*
D03*
Y185000D02*
D03*
Y180000D02*
D03*
Y175000D02*
D03*
Y170000D02*
D03*
Y165000D02*
D03*
Y160000D02*
D03*
Y155000D02*
D03*
Y150000D02*
D03*
X77000D02*
D03*
Y155000D02*
D03*
Y160000D02*
D03*
Y165000D02*
D03*
Y170000D02*
D03*
Y175000D02*
D03*
Y180000D02*
D03*
Y185000D02*
D03*
Y190000D02*
D03*
Y195000D02*
D03*
Y200000D02*
D03*
Y205000D02*
D03*
Y210000D02*
D03*
Y215000D02*
D03*
Y220000D02*
D03*
Y225000D02*
D03*
Y230000D02*
D03*
Y235000D02*
D03*
Y240000D02*
D03*
Y245000D02*
D03*
Y250000D02*
D03*
Y255000D02*
D03*
Y260000D02*
D03*
Y265000D02*
D03*
Y270000D02*
D03*
D31*
X-222000Y57000D02*
D03*
Y43000D02*
D03*
Y-43000D02*
D03*
Y-57000D02*
D03*
D32*
X-200000Y27013D02*
D03*
Y72987D02*
D03*
Y-72987D02*
D03*
Y-27013D02*
D03*
D33*
X110837Y-132479D02*
D03*
X119817Y-141460D02*
D03*
X128797Y-150440D02*
D03*
X137777Y-159420D02*
D03*
X146758Y-168400D02*
D03*
X155738Y-177381D02*
D03*
X164718Y-186361D02*
D03*
X173698Y-195341D02*
D03*
X182679Y-204321D02*
D03*
X191659Y-213302D02*
D03*
X-191659Y213302D02*
D03*
X-182679Y204321D02*
D03*
X-173698Y195341D02*
D03*
X-164718Y186361D02*
D03*
X-155738Y177381D02*
D03*
X-146758Y168400D02*
D03*
X-137777Y159420D02*
D03*
X-128797Y150440D02*
D03*
X-119817Y141460D02*
D03*
X-110837Y132479D02*
D03*
D34*
X146758Y168400D02*
D03*
X155738Y177381D02*
D03*
X-191659Y-213302D02*
D03*
X-182679Y-204321D02*
D03*
X-173698Y-195341D02*
D03*
X-164718Y-186361D02*
D03*
X-155738Y-177381D02*
D03*
X-146758Y-168400D02*
D03*
X-137777Y-159420D02*
D03*
X-128797Y-150440D02*
D03*
X-119817Y-141460D02*
D03*
X-110837Y-132479D02*
D03*
X191659Y213302D02*
D03*
X182679Y204321D02*
D03*
X173698Y195341D02*
D03*
X164718Y186361D02*
D03*
X137777Y159420D02*
D03*
X128797Y150440D02*
D03*
X119817Y141460D02*
D03*
X110837Y132479D02*
D03*
D35*
X-150000Y261000D02*
D03*
Y271000D02*
D03*
X-140000Y261000D02*
D03*
Y271000D02*
D03*
X-130000Y261000D02*
D03*
Y271000D02*
D03*
X-120000Y261000D02*
D03*
Y271000D02*
D03*
D36*
X-109000Y250000D02*
D03*
X-99000D02*
D03*
X-109000Y241000D02*
D03*
X-99000D02*
D03*
X-109000Y232000D02*
D03*
X-99000D02*
D03*
X-109000Y223000D02*
D03*
X-99000D02*
D03*
D37*
X52000Y-138000D02*
D03*
X38000D02*
D03*
D38*
X93000Y274500D02*
D03*
Y265500D02*
D03*
X-93000Y144500D02*
D03*
Y153500D02*
D03*
X-92000Y263500D02*
D03*
Y272500D02*
D03*
D39*
X-39500Y302000D02*
D03*
X-30500D02*
D03*
X5500D02*
D03*
X14500D02*
D03*
X34500D02*
D03*
X25500D02*
D03*
X65500Y117000D02*
D03*
X56500D02*
D03*
D40*
X-104000Y163000D02*
D03*
Y149000D02*
D03*
D41*
X51000Y106000D02*
D03*
X65000D02*
D03*
D42*
X88600Y-117000D02*
D03*
X63200D02*
D03*
X37800D02*
D03*
X12400D02*
D03*
X-13000D02*
D03*
X-38400D02*
D03*
X-63800D02*
D03*
X88600Y-244000D02*
D03*
X63200D02*
D03*
X37800D02*
D03*
X12400D02*
D03*
X-13000D02*
D03*
X-38400D02*
D03*
X-63800D02*
D03*
X-89200Y-117000D02*
D03*
Y-244000D02*
D03*
X226274Y226274D02*
D03*
X-226274Y-226274D02*
D03*
X77000Y77000D02*
D03*
X-77000Y77000D02*
D03*
Y-77000D02*
D03*
X77000D02*
D03*
X-226274Y226274D02*
D03*
X226274Y-226274D02*
D03*
D43*
X-169178Y74178D02*
D03*
X169178D02*
D03*
X178158Y83158D02*
D03*
X205099Y110099D02*
D03*
X214079Y119079D02*
D03*
X250000Y155000D02*
D03*
X241020Y146020D02*
D03*
X232040Y137039D02*
D03*
X223059Y128059D02*
D03*
X196119Y101118D02*
D03*
X187138Y92138D02*
D03*
X-98158Y-163158D02*
D03*
X98158D02*
D03*
X-89178Y-154178D02*
D03*
X89178D02*
D03*
X-178158Y83158D02*
D03*
X-125099Y-190099D02*
D03*
X-205099Y110099D02*
D03*
X125099Y-190099D02*
D03*
X-214079Y119079D02*
D03*
X-134079Y-199079D02*
D03*
X134079D02*
D03*
X170000Y-235000D02*
D03*
X161020Y-226020D02*
D03*
X152039Y-217040D02*
D03*
X143059Y-208059D02*
D03*
X116118Y-181119D02*
D03*
X107138Y-172138D02*
D03*
X-187138Y92138D02*
D03*
X-196119Y101118D02*
D03*
X-223059Y128059D02*
D03*
X-232040Y137039D02*
D03*
X-241020Y146020D02*
D03*
X-250000Y155000D02*
D03*
X-170000Y-235000D02*
D03*
X-161020Y-226020D02*
D03*
X-152039Y-217040D02*
D03*
X-143059Y-208059D02*
D03*
X-116118Y-181119D02*
D03*
X-107138Y-172138D02*
D03*
D44*
X160138Y-101138D02*
D03*
X223000Y-164000D02*
D03*
X-223000Y164000D02*
D03*
X-160138Y101138D02*
D03*
X-223000Y-164000D02*
D03*
X-160138Y-101138D02*
D03*
X223000Y164000D02*
D03*
X160138Y101138D02*
D03*
D45*
X-0Y-0D02*
D03*
D46*
X280000Y54000D02*
D03*
X166000Y-23000D02*
D03*
X126050Y-23050D02*
D03*
X136000Y27000D02*
D03*
X110000Y72000D02*
D03*
D47*
X-166000Y-57000D02*
D03*
X-261000Y10000D02*
D03*
X-148000Y52000D02*
D03*
Y-33000D02*
D03*
X129000Y114000D02*
D03*
X-148000Y15000D02*
D03*
X219000Y-204000D02*
D03*
X-195000Y-101000D02*
D03*
X140000Y199000D02*
D03*
X-219000Y-203000D02*
D03*
X-213000Y207000D02*
D03*
X-139991Y182709D02*
D03*
D48*
X-169000Y-73000D02*
D03*
X-232000Y-152000D02*
D03*
X-121000Y-83000D02*
D03*
X-107000Y-96000D02*
D03*
X196000Y-106000D02*
D03*
X167000Y-134000D02*
D03*
X154118Y143040D02*
D03*
X133500Y-76500D02*
D03*
X43000Y160000D02*
D03*
Y170000D02*
D03*
X47000Y148000D02*
D03*
X101000Y190000D02*
D03*
X111000Y-103000D02*
D03*
X209000Y211000D02*
D03*
X247000Y183000D02*
D03*
X211000Y-214000D02*
D03*
X-131000Y-14000D02*
D03*
X-138000Y-6000D02*
D03*
X-110000Y113000D02*
D03*
X-100000Y121000D02*
D03*
X126000Y189540D02*
D03*
Y181000D02*
D03*
X-120000Y223000D02*
D03*
Y257540D02*
D03*
X-130000Y232000D02*
D03*
Y257540D02*
D03*
X-140000Y241000D02*
D03*
Y257540D02*
D03*
X-100000Y263000D02*
D03*
X59000Y-138000D02*
D03*
X-150000Y147000D02*
D03*
X-62000Y272000D02*
D03*
X41000Y238000D02*
D03*
X-92000Y279000D02*
D03*
X72000Y106000D02*
D03*
X66000Y124000D02*
D03*
X-64000Y155000D02*
D03*
X-87000Y145000D02*
D03*
X98500Y265500D02*
D03*
X93000Y280000D02*
D03*
X35000Y307000D02*
D03*
X20000Y307000D02*
D03*
X0Y302000D02*
D03*
X-28000Y309000D02*
D03*
X-42000D02*
D03*
D49*
X-97000Y177000D02*
D03*
X99000Y157000D02*
D03*
X91000D02*
D03*
X17000Y107000D02*
D03*
X13000Y115000D02*
D03*
X-25000Y111000D02*
D03*
X-20000Y102000D02*
D03*
X95000Y242000D02*
D03*
X-107000Y172000D02*
D03*
X130000Y228000D02*
D03*
X134000Y235000D02*
D03*
X64000Y270000D02*
D03*
X9000Y258000D02*
D03*
X-4000D02*
D03*
X-44000Y242000D02*
D03*
M02*
