M48
;Layer_Color=9474304
;FILE_FORMAT=4:4
METRIC,LZ
;TYPE=PLATED
T1F00S00C0.2000
T2F00S00C0.4000
T3F00S00C0.5000
T4F00S00C0.8000
T5F00S00C1.0000
T6F00S00C2.0000
T7F00S00C16.0000
;TYPE=NON_PLATED
T8F00S00C1.5748
%
T01
X00059Y-00138
X00111Y-00103
X001335Y-000765
X00167Y-00134
X00196Y-00106
X00211Y-00214
X-00107Y-00096
X-00121Y-00083
X-00169Y-00073
X-00232Y-00152
X-00131Y-00014
X-00138Y-00006
X-0011Y00113
X-001Y00121
X-00087Y00145
X-00064Y00155
X-00097Y00177
X-00107Y00172
X-0012Y00223
X-0013Y00232
X-0014Y00241
Y0025754
X-0013
X-0012
X-001Y00263
X-00092Y00279
X-00062Y00272
X-00044Y00242
X-00042Y00309
X-0015Y00147
X-00025Y00111
X-0002Y00102
X00017Y00107
X00013Y00115
X00066Y00124
X00072Y00106
X00047Y00148
X00043Y0016
Y0017
X00091Y00157
X00099
X00101Y0019
X00126Y0018954
Y00181
X0013Y00228
X00134Y00235
X00095Y00242
X000985Y002655
X00093Y0028
X00064Y0027
X00041Y00238
X00009Y00258
X-00004
X0Y00302
X0002Y00307
X00035Y00307
X-00028Y00309
X00209Y00211
X00247Y00183
X00154118Y0014304
T02
X00098158Y-00163158
X00107138Y-00172138
X00116118Y-00181119
X00125099Y-00190099
X00134079Y-00199079
X00143059Y-00208059
X00152039Y-0021704
X0016102Y-0022602
X0017Y-00235
X00089178Y-00154178
X-00089178
X-00098158Y-00163158
X-00107138Y-00172138
X-00116118Y-00181119
X-00125099Y-00190099
X-00134079Y-00199079
X-00143059Y-00208059
X-00152039Y-0021704
X-0016102Y-0022602
X-0017Y-00235
X-00169178Y00074178
X-00178158Y00083158
X-00187138Y00092138
X-00196119Y00101118
X-00205099Y00110099
X-00214079Y00119079
X-00223059Y00128059
X-0023204Y00137039
X-0024102Y0014602
X-0025Y00155
X00178158Y00083158
X00169178Y00074178
X00187138Y00092138
X00196119Y00101118
X00205099Y00110099
X00214079Y00119079
X00223059Y00128059
X0023204Y00137039
X0024102Y0014602
X0025Y00155
T03
X00219Y-00204
X-00219Y-00203
X-00195Y-00101
X-00166Y-00057
X-00148Y-00033
Y00015
Y00052
X-00139991Y00182709
X-00213Y00207
X-00261Y0001
X00129Y00114
X0014Y00199
T04
X0012605Y-0002305
X00166Y-00023
X00136Y00027
X0011Y00072
X0028Y00054
T05
X-00013Y-00244
X000124
X000378
X000632
X000886
Y-00117
X000632
X000378
X000124
X-00013
X-000384
X-000638
X-000892
Y-00244
X-000638
X-000384
T06
X00077Y-00077
X00226274Y-00226274
X-00226274
X-00077Y-00077
Y00077
X-00226274Y00226274
X00077Y00077
X00226274Y00226274
T07
X-0Y-0
T08
X00160138Y-00101138
X00223Y-00164
X-00223
X-00160138Y-00101138
X-00160138Y00101138
X-00223Y00164
X00223
X00160138Y00101138
M30
