G04*
G04 #@! TF.GenerationSoftware,Altium Limited,Altium Designer,22.6.1 (34)*
G04*
G04 Layer_Color=8421504*
%FSLAX44Y44*%
%MOMM*%
G71*
G04*
G04 #@! TF.SameCoordinates,2749D786-5B7B-4281-819F-A1242ED465B1*
G04*
G04*
G04 #@! TF.FilePolarity,Positive*
G04*
G01*
G75*
%ADD16R,0.2794X1.4732*%
%ADD17R,1.4732X0.2794*%
%ADD18R,0.9000X0.7000*%
%ADD19R,1.9050X0.8128*%
G04:AMPARAMS|DCode=20|XSize=0.7874mm|YSize=1.4986mm|CornerRadius=0mm|HoleSize=0mm|Usage=FLASHONLY|Rotation=315.000|XOffset=0mm|YOffset=0mm|HoleType=Round|Shape=Rectangle|*
%AMROTATEDRECTD20*
4,1,4,-0.8082,-0.2515,0.2515,0.8082,0.8082,0.2515,-0.2515,-0.8082,-0.8082,-0.2515,0.0*
%
%ADD20ROTATEDRECTD20*%

G04:AMPARAMS|DCode=21|XSize=0.7874mm|YSize=1.4986mm|CornerRadius=0mm|HoleSize=0mm|Usage=FLASHONLY|Rotation=225.000|XOffset=0mm|YOffset=0mm|HoleType=Round|Shape=Rectangle|*
%AMROTATEDRECTD21*
4,1,4,-0.2515,0.8082,0.8082,-0.2515,0.2515,-0.8082,-0.8082,0.2515,-0.2515,0.8082,0.0*
%
%ADD21ROTATEDRECTD21*%

%ADD22R,0.6500X0.6500*%
%ADD23R,0.6500X0.6500*%
%ADD24R,0.7000X0.9000*%
G04:AMPARAMS|DCode=25|XSize=0.55mm|YSize=0.5mm|CornerRadius=0.0625mm|HoleSize=0mm|Usage=FLASHONLY|Rotation=180.000|XOffset=0mm|YOffset=0mm|HoleType=Round|Shape=RoundedRectangle|*
%AMROUNDEDRECTD25*
21,1,0.5500,0.3750,0,0,180.0*
21,1,0.4250,0.5000,0,0,180.0*
1,1,0.1250,-0.2125,0.1875*
1,1,0.1250,0.2125,0.1875*
1,1,0.1250,0.2125,-0.1875*
1,1,0.1250,-0.2125,-0.1875*
%
%ADD25ROUNDEDRECTD25*%
G04:AMPARAMS|DCode=26|XSize=0.55mm|YSize=0.5mm|CornerRadius=0.0625mm|HoleSize=0mm|Usage=FLASHONLY|Rotation=270.000|XOffset=0mm|YOffset=0mm|HoleType=Round|Shape=RoundedRectangle|*
%AMROUNDEDRECTD26*
21,1,0.5500,0.3750,0,0,270.0*
21,1,0.4250,0.5000,0,0,270.0*
1,1,0.1250,-0.1875,-0.2125*
1,1,0.1250,-0.1875,0.2125*
1,1,0.1250,0.1875,0.2125*
1,1,0.1250,0.1875,-0.2125*
%
%ADD26ROUNDEDRECTD26*%
G04:AMPARAMS|DCode=27|XSize=0.76mm|YSize=0.6604mm|CornerRadius=0.0825mm|HoleSize=0mm|Usage=FLASHONLY|Rotation=0.000|XOffset=0mm|YOffset=0mm|HoleType=Round|Shape=RoundedRectangle|*
%AMROUNDEDRECTD27*
21,1,0.7600,0.4953,0,0,0.0*
21,1,0.5949,0.6604,0,0,0.0*
1,1,0.1651,0.2975,-0.2477*
1,1,0.1651,-0.2975,-0.2477*
1,1,0.1651,-0.2975,0.2477*
1,1,0.1651,0.2975,0.2477*
%
%ADD27ROUNDEDRECTD27*%
G04:AMPARAMS|DCode=28|XSize=0.76mm|YSize=0.6604mm|CornerRadius=0.0825mm|HoleSize=0mm|Usage=FLASHONLY|Rotation=90.000|XOffset=0mm|YOffset=0mm|HoleType=Round|Shape=RoundedRectangle|*
%AMROUNDEDRECTD28*
21,1,0.7600,0.4953,0,0,90.0*
21,1,0.5949,0.6604,0,0,90.0*
1,1,0.1651,0.2477,0.2975*
1,1,0.1651,0.2477,-0.2975*
1,1,0.1651,-0.2477,-0.2975*
1,1,0.1651,-0.2477,0.2975*
%
%ADD28ROUNDEDRECTD28*%
D16*
X59784Y287216D02*
D03*
X54784D02*
D03*
X49784D02*
D03*
X44784D02*
D03*
X39784D02*
D03*
X34784D02*
D03*
X29784D02*
D03*
X24784D02*
D03*
X19784D02*
D03*
X14784D02*
D03*
X9784D02*
D03*
X4784D02*
D03*
X-216D02*
D03*
X-5216D02*
D03*
X-10216D02*
D03*
X-15216D02*
D03*
X-20216D02*
D03*
X-25216D02*
D03*
X-30216D02*
D03*
X-35216D02*
D03*
X-40216D02*
D03*
X-45216D02*
D03*
X-50216D02*
D03*
X-55216D02*
D03*
X-60216D02*
D03*
Y132784D02*
D03*
X-55216D02*
D03*
X-50216D02*
D03*
X-45216D02*
D03*
X-40216D02*
D03*
X-35216D02*
D03*
X-30216D02*
D03*
X-25216D02*
D03*
X-20216D02*
D03*
X-15216D02*
D03*
X-10216D02*
D03*
X-5216D02*
D03*
X-216D02*
D03*
X4784D02*
D03*
X9784D02*
D03*
X14784D02*
D03*
X19784D02*
D03*
X24784D02*
D03*
X29784D02*
D03*
X34784D02*
D03*
X39784D02*
D03*
X44784D02*
D03*
X49784D02*
D03*
X54784D02*
D03*
X59784D02*
D03*
D17*
X-77432Y270000D02*
D03*
Y265000D02*
D03*
Y260000D02*
D03*
Y255000D02*
D03*
Y250000D02*
D03*
Y245000D02*
D03*
Y240000D02*
D03*
Y235000D02*
D03*
Y230000D02*
D03*
Y225000D02*
D03*
Y220000D02*
D03*
Y215000D02*
D03*
Y210000D02*
D03*
Y205000D02*
D03*
Y200000D02*
D03*
Y195000D02*
D03*
Y190000D02*
D03*
Y185000D02*
D03*
Y180000D02*
D03*
Y175000D02*
D03*
Y170000D02*
D03*
Y165000D02*
D03*
Y160000D02*
D03*
Y155000D02*
D03*
Y150000D02*
D03*
X77000D02*
D03*
Y155000D02*
D03*
Y160000D02*
D03*
Y165000D02*
D03*
Y170000D02*
D03*
Y175000D02*
D03*
Y180000D02*
D03*
Y185000D02*
D03*
Y190000D02*
D03*
Y195000D02*
D03*
Y200000D02*
D03*
Y205000D02*
D03*
Y210000D02*
D03*
Y215000D02*
D03*
Y220000D02*
D03*
Y225000D02*
D03*
Y230000D02*
D03*
Y235000D02*
D03*
Y240000D02*
D03*
Y245000D02*
D03*
Y250000D02*
D03*
Y255000D02*
D03*
Y260000D02*
D03*
Y265000D02*
D03*
Y270000D02*
D03*
D18*
X-222000Y57000D02*
D03*
Y43000D02*
D03*
Y-43000D02*
D03*
Y-57000D02*
D03*
D19*
X-200000Y27013D02*
D03*
Y72987D02*
D03*
Y-72987D02*
D03*
Y-27013D02*
D03*
D20*
X110837Y-132479D02*
D03*
X119817Y-141460D02*
D03*
X128797Y-150440D02*
D03*
X137777Y-159420D02*
D03*
X146758Y-168400D02*
D03*
X155738Y-177381D02*
D03*
X164718Y-186361D02*
D03*
X173698Y-195341D02*
D03*
X182679Y-204321D02*
D03*
X191659Y-213302D02*
D03*
X-191659Y213302D02*
D03*
X-182679Y204321D02*
D03*
X-173698Y195341D02*
D03*
X-164718Y186361D02*
D03*
X-155738Y177381D02*
D03*
X-146758Y168400D02*
D03*
X-137777Y159420D02*
D03*
X-128797Y150440D02*
D03*
X-119817Y141460D02*
D03*
X-110837Y132479D02*
D03*
D21*
X146758Y168400D02*
D03*
X155738Y177381D02*
D03*
X-191659Y-213302D02*
D03*
X-182679Y-204321D02*
D03*
X-173698Y-195341D02*
D03*
X-164718Y-186361D02*
D03*
X-155738Y-177381D02*
D03*
X-146758Y-168400D02*
D03*
X-137777Y-159420D02*
D03*
X-128797Y-150440D02*
D03*
X-119817Y-141460D02*
D03*
X-110837Y-132479D02*
D03*
X191659Y213302D02*
D03*
X182679Y204321D02*
D03*
X173698Y195341D02*
D03*
X164718Y186361D02*
D03*
X137777Y159420D02*
D03*
X128797Y150440D02*
D03*
X119817Y141460D02*
D03*
X110837Y132479D02*
D03*
D22*
X-150000Y261000D02*
D03*
Y271000D02*
D03*
X-140000Y261000D02*
D03*
Y271000D02*
D03*
X-130000Y261000D02*
D03*
Y271000D02*
D03*
X-120000Y261000D02*
D03*
Y271000D02*
D03*
D23*
X-109000Y250000D02*
D03*
X-99000D02*
D03*
X-109000Y241000D02*
D03*
X-99000D02*
D03*
X-109000Y232000D02*
D03*
X-99000D02*
D03*
X-109000Y223000D02*
D03*
X-99000D02*
D03*
D24*
X52000Y-138000D02*
D03*
X38000D02*
D03*
D25*
X93000Y274500D02*
D03*
Y265500D02*
D03*
X-93000Y144500D02*
D03*
Y153500D02*
D03*
X-92000Y263500D02*
D03*
Y272500D02*
D03*
D26*
X-39500Y302000D02*
D03*
X-30500D02*
D03*
X5500D02*
D03*
X14500D02*
D03*
X34500D02*
D03*
X25500D02*
D03*
X65500Y117000D02*
D03*
X56500D02*
D03*
D27*
X-104000Y163000D02*
D03*
Y149000D02*
D03*
D28*
X51000Y106000D02*
D03*
X65000D02*
D03*
M02*
