G04*
G04 #@! TF.GenerationSoftware,Altium Limited,Altium Designer,22.6.1 (34)*
G04*
G04 Layer_Color=65535*
%FSLAX44Y44*%
%MOMM*%
G71*
G04*
G04 #@! TF.SameCoordinates,2749D786-5B7B-4281-819F-A1242ED465B1*
G04*
G04*
G04 #@! TF.FilePolarity,Positive*
G04*
G01*
G75*
%ADD10C,0.2000*%
%ADD11C,0.2540*%
%ADD12C,0.1524*%
%ADD13C,0.1000*%
%ADD14C,0.1500*%
%ADD15C,0.0762*%
G36*
X-87338Y148095D02*
Y151905D01*
X-89878D01*
Y148095D01*
X-87338D01*
D02*
G37*
G36*
X-13311Y122878D02*
Y120338D01*
X-17121D01*
Y122878D01*
X-13311D01*
D02*
G37*
G36*
X-87338Y198095D02*
Y201905D01*
X-89878D01*
Y198095D01*
X-87338D01*
D02*
G37*
G36*
Y248095D02*
Y251905D01*
X-89878D01*
Y248095D01*
X-87338D01*
D02*
G37*
G36*
X-33311Y297122D02*
Y299662D01*
X-37121D01*
Y297122D01*
X-33311D01*
D02*
G37*
G36*
X36689Y122878D02*
Y120338D01*
X32879D01*
Y122878D01*
X36689D01*
D02*
G37*
G36*
X86906Y168095D02*
Y171905D01*
X89446D01*
Y168095D01*
X86906D01*
D02*
G37*
G36*
Y218095D02*
Y221905D01*
X89446D01*
Y218095D01*
X86906D01*
D02*
G37*
G36*
X16689Y297122D02*
Y299662D01*
X12879D01*
Y297122D01*
X16689D01*
D02*
G37*
G36*
X86906Y268095D02*
Y271905D01*
X89446D01*
Y268095D01*
X86906D01*
D02*
G37*
G36*
X266564Y135445D02*
X266768Y135425D01*
X267012Y135405D01*
X267256Y135364D01*
X267541Y135323D01*
X268151Y135181D01*
X268456Y135099D01*
X268741Y134977D01*
X269047Y134835D01*
X269331Y134692D01*
X269576Y134509D01*
X269820Y134306D01*
X269840Y134286D01*
X269860Y134245D01*
X269921Y134184D01*
X270003Y134082D01*
X270084Y133980D01*
X270186Y133818D01*
X270308Y133655D01*
X270410Y133451D01*
X270511Y133207D01*
X270634Y132943D01*
X270735Y132658D01*
X270817Y132353D01*
X270898Y132007D01*
X270939Y131641D01*
X270979Y131234D01*
X271000Y130807D01*
Y130522D01*
X270979Y130318D01*
Y130074D01*
X270939Y129830D01*
X270878Y129260D01*
Y129220D01*
X270857Y129138D01*
X270837Y128975D01*
X270796Y128792D01*
X270756Y128568D01*
X270715Y128324D01*
X270572Y127795D01*
X268884D01*
Y127897D01*
X268904Y127958D01*
X268945Y128060D01*
X268986Y128182D01*
X269047Y128365D01*
X269108Y128589D01*
X269189Y128853D01*
X269270Y129158D01*
Y129199D01*
X269311Y129321D01*
X269352Y129484D01*
X269392Y129708D01*
X269433Y129993D01*
X269474Y130278D01*
X269494Y130603D01*
X269515Y130929D01*
Y131071D01*
X269494Y131234D01*
Y131417D01*
X269454Y131641D01*
X269413Y131885D01*
X269372Y132109D01*
X269291Y132332D01*
Y132353D01*
X269250Y132434D01*
X269209Y132536D01*
X269148Y132658D01*
X268965Y132943D01*
X268863Y133085D01*
X268741Y133207D01*
X268721Y133228D01*
X268680Y133248D01*
X268599Y133309D01*
X268497Y133370D01*
X268375Y133451D01*
X268233Y133533D01*
X267907Y133655D01*
X267887D01*
X267826Y133675D01*
X267724Y133695D01*
X267582Y133736D01*
X267419Y133757D01*
X267236Y133777D01*
X266829Y133797D01*
X265934D01*
X265954Y133757D01*
X266035Y133675D01*
X266137Y133533D01*
X266259Y133329D01*
X266402Y133105D01*
X266564Y132861D01*
X266707Y132617D01*
X266829Y132353D01*
X266849Y132312D01*
X266870Y132231D01*
X266910Y132088D01*
X266971Y131885D01*
X267032Y131620D01*
X267073Y131315D01*
X267093Y130990D01*
X267114Y130603D01*
Y130440D01*
X267093Y130318D01*
X267073Y130155D01*
X267053Y129993D01*
X266951Y129586D01*
X266809Y129138D01*
X266707Y128914D01*
X266585Y128670D01*
X266442Y128446D01*
X266259Y128223D01*
X266076Y127999D01*
X265852Y127795D01*
X265832Y127775D01*
X265791Y127755D01*
X265710Y127694D01*
X265608Y127633D01*
X265486Y127551D01*
X265323Y127470D01*
X265140Y127368D01*
X264916Y127287D01*
X264672Y127185D01*
X264408Y127083D01*
X264123Y127002D01*
X263797Y126920D01*
X263452Y126860D01*
X263065Y126798D01*
X262678Y126778D01*
X262251Y126758D01*
X262231D01*
X262190D01*
X262129D01*
X262027D01*
X261926Y126778D01*
X261804D01*
X261498Y126798D01*
X261152Y126839D01*
X260786Y126900D01*
X260420Y126982D01*
X260054Y127104D01*
X260033D01*
X260013Y127124D01*
X259891Y127165D01*
X259728Y127246D01*
X259505Y127368D01*
X259260Y127510D01*
X258996Y127673D01*
X258731Y127856D01*
X258467Y128080D01*
X258447Y128101D01*
X258365Y128182D01*
X258243Y128304D01*
X258101Y128487D01*
X257958Y128691D01*
X257796Y128914D01*
X257633Y129199D01*
X257490Y129484D01*
X257470Y129525D01*
X257429Y129627D01*
X257368Y129789D01*
X257307Y129993D01*
X257246Y130237D01*
X257185Y130522D01*
X257145Y130827D01*
X257124Y131132D01*
Y131437D01*
X257145Y131641D01*
X257165Y131865D01*
X257206Y132088D01*
X257246Y132332D01*
X257307Y132556D01*
Y132577D01*
X257328Y132658D01*
X257368Y132780D01*
X257429Y132943D01*
X257511Y133126D01*
X257592Y133329D01*
X257836Y133797D01*
X257389Y133899D01*
Y135466D01*
X266157D01*
X266178D01*
X266259D01*
X266402D01*
X266564Y135445D01*
D02*
G37*
G36*
X267256Y122587D02*
X261661D01*
X261621D01*
X261539D01*
X261417D01*
X261234D01*
X261051Y122567D01*
X260827Y122546D01*
X260379Y122506D01*
X260359D01*
X260278Y122485D01*
X260176Y122465D01*
X260033Y122444D01*
X259728Y122343D01*
X259586Y122282D01*
X259443Y122200D01*
X259423D01*
X259382Y122160D01*
X259321Y122099D01*
X259240Y122038D01*
X259057Y121834D01*
X258894Y121570D01*
Y121549D01*
X258874Y121488D01*
X258833Y121407D01*
X258792Y121285D01*
X258772Y121122D01*
X258731Y120939D01*
X258711Y120736D01*
Y120369D01*
X258731Y120247D01*
X258752Y120064D01*
X258792Y119840D01*
X258853Y119616D01*
X258935Y119352D01*
X259057Y119067D01*
X259077Y119026D01*
X259118Y118945D01*
X259179Y118803D01*
X259281Y118620D01*
X259403Y118396D01*
X259545Y118172D01*
X259728Y117907D01*
X259911Y117663D01*
X267256D01*
Y115995D01*
X257389D01*
Y117663D01*
X258508D01*
X258487Y117704D01*
X258406Y117806D01*
X258284Y117948D01*
X258141Y118152D01*
X257979Y118396D01*
X257796Y118660D01*
X257633Y118945D01*
X257490Y119250D01*
X257470Y119291D01*
X257429Y119393D01*
X257368Y119556D01*
X257307Y119779D01*
X257246Y120044D01*
X257185Y120329D01*
X257145Y120634D01*
X257124Y120959D01*
Y121122D01*
X257145Y121224D01*
Y121366D01*
X257165Y121509D01*
X257246Y121875D01*
X257368Y122261D01*
X257531Y122668D01*
X257775Y123055D01*
X257938Y123238D01*
X258101Y123401D01*
X258121Y123421D01*
X258141Y123441D01*
X258202Y123482D01*
X258284Y123543D01*
X258386Y123604D01*
X258508Y123665D01*
X258650Y123747D01*
X258813Y123828D01*
X258996Y123909D01*
X259199Y123991D01*
X259423Y124052D01*
X259667Y124113D01*
X259932Y124174D01*
X260237Y124215D01*
X260868Y124255D01*
X267256D01*
Y122587D01*
D02*
G37*
G36*
Y111072D02*
X257389D01*
Y112740D01*
X267256D01*
Y111072D01*
D02*
G37*
G36*
X255741Y110970D02*
X254011D01*
Y112842D01*
X255741D01*
Y110970D01*
D02*
G37*
G36*
X259199Y109383D02*
X259179Y109342D01*
Y109261D01*
X259159Y109179D01*
X259118Y108955D01*
X259077Y108691D01*
Y108630D01*
X259057Y108549D01*
Y108345D01*
X259037Y108203D01*
Y107755D01*
X259057Y107592D01*
X259077Y107409D01*
X259118Y107185D01*
X259179Y106921D01*
X259260Y106657D01*
X259382Y106392D01*
X259403Y106351D01*
X259444Y106270D01*
X259525Y106128D01*
X259627Y105965D01*
X259749Y105741D01*
X259891Y105517D01*
X260074Y105273D01*
X260257Y105029D01*
X267256D01*
Y103361D01*
X257389D01*
Y105029D01*
X258853D01*
Y105049D01*
X258813Y105070D01*
X258731Y105192D01*
X258589Y105375D01*
X258406Y105619D01*
X258223Y105883D01*
X258040Y106168D01*
X257877Y106473D01*
X257735Y106758D01*
X257714Y106799D01*
X257673Y106880D01*
X257633Y107043D01*
X257551Y107226D01*
X257490Y107470D01*
X257450Y107715D01*
X257409Y107999D01*
X257389Y108284D01*
Y108528D01*
X257409Y108732D01*
Y108813D01*
X257429Y108895D01*
Y108935D01*
X257450Y109057D01*
X257470Y109240D01*
X257511Y109505D01*
X259199D01*
Y109383D01*
D02*
G37*
G36*
X262516Y93574D02*
X262556D01*
X262679D01*
X262841Y93595D01*
X263065Y93615D01*
X263309Y93635D01*
X263574Y93696D01*
X263838Y93757D01*
X264103Y93839D01*
X264123Y93859D01*
X264204Y93880D01*
X264347Y93941D01*
X264489Y94042D01*
X264672Y94144D01*
X264855Y94266D01*
X265039Y94429D01*
X265201Y94592D01*
X265222Y94612D01*
X265262Y94673D01*
X265344Y94775D01*
X265445Y94897D01*
X265547Y95060D01*
X265649Y95243D01*
X265751Y95446D01*
X265832Y95670D01*
Y95690D01*
X265873Y95792D01*
X265893Y95914D01*
X265934Y96097D01*
X265974Y96301D01*
X265995Y96545D01*
X266035Y96789D01*
Y97257D01*
X266015Y97440D01*
X265995Y97704D01*
X265934Y98010D01*
X265873Y98356D01*
X265771Y98722D01*
X265649Y99108D01*
Y99129D01*
X265629Y99149D01*
X265588Y99271D01*
X265506Y99454D01*
X265384Y99678D01*
X265140Y100146D01*
X264977Y100370D01*
X264835Y100553D01*
Y100655D01*
X266666D01*
X266686Y100614D01*
X266727Y100512D01*
X266788Y100329D01*
X266870Y100126D01*
X266971Y99861D01*
X267053Y99556D01*
X267155Y99251D01*
X267256Y98925D01*
Y98885D01*
X267297Y98783D01*
X267317Y98600D01*
X267358Y98376D01*
X267399Y98091D01*
X267439Y97786D01*
X267460Y97440D01*
X267480Y97094D01*
Y96850D01*
X267460Y96687D01*
X267439Y96484D01*
X267419Y96240D01*
X267378Y95975D01*
X267317Y95690D01*
X267155Y95080D01*
X267053Y94754D01*
X266931Y94429D01*
X266768Y94124D01*
X266585Y93819D01*
X266381Y93513D01*
X266157Y93249D01*
X266137Y93229D01*
X266096Y93188D01*
X266015Y93127D01*
X265913Y93045D01*
X265771Y92923D01*
X265608Y92822D01*
X265405Y92700D01*
X265181Y92577D01*
X264937Y92435D01*
X264652Y92313D01*
X264347Y92211D01*
X264001Y92109D01*
X263655Y92008D01*
X263248Y91947D01*
X262841Y91906D01*
X262394Y91886D01*
X262373D01*
X262292D01*
X262170D01*
X261987Y91906D01*
X261783Y91926D01*
X261560Y91947D01*
X261295Y91987D01*
X261010Y92049D01*
X260400Y92211D01*
X260074Y92313D01*
X259749Y92435D01*
X259423Y92598D01*
X259118Y92781D01*
X258833Y92984D01*
X258548Y93208D01*
X258528Y93229D01*
X258487Y93269D01*
X258426Y93351D01*
X258325Y93452D01*
X258223Y93574D01*
X258101Y93737D01*
X257958Y93920D01*
X257836Y94144D01*
X257694Y94368D01*
X257572Y94632D01*
X257450Y94917D01*
X257348Y95243D01*
X257246Y95568D01*
X257185Y95914D01*
X257145Y96301D01*
X257124Y96687D01*
Y96870D01*
X257145Y97013D01*
X257165Y97176D01*
X257185Y97379D01*
X257226Y97583D01*
X257267Y97827D01*
X257409Y98315D01*
X257511Y98579D01*
X257612Y98823D01*
X257755Y99068D01*
X257918Y99312D01*
X258101Y99556D01*
X258304Y99759D01*
X258325Y99780D01*
X258365Y99800D01*
X258426Y99861D01*
X258528Y99922D01*
X258630Y100024D01*
X258792Y100105D01*
X258955Y100207D01*
X259159Y100309D01*
X259382Y100410D01*
X259627Y100512D01*
X259891Y100614D01*
X260196Y100695D01*
X260522Y100756D01*
X260868Y100817D01*
X261234Y100838D01*
X261621Y100858D01*
X262516D01*
Y93574D01*
D02*
G37*
G36*
X247069Y90980D02*
X246012D01*
X246032Y90940D01*
X246134Y90818D01*
X246256Y90634D01*
X246439Y90370D01*
X246459Y90350D01*
X246479Y90309D01*
X246541Y90228D01*
X246581Y90146D01*
X246724Y89922D01*
X246866Y89658D01*
Y89638D01*
X246907Y89577D01*
X246927Y89495D01*
X246988Y89373D01*
X247029Y89231D01*
X247090Y89068D01*
X247192Y88702D01*
Y88681D01*
X247212Y88600D01*
X247232Y88498D01*
X247253Y88356D01*
X247293Y88152D01*
X247314Y87949D01*
X247334Y87705D01*
Y87318D01*
X247314Y87217D01*
Y87115D01*
X247293Y86972D01*
X247232Y86667D01*
X247110Y86321D01*
X246968Y85935D01*
X246744Y85569D01*
X246622Y85385D01*
X246459Y85202D01*
X246439D01*
X246418Y85162D01*
X246296Y85060D01*
X246113Y84917D01*
X245849Y84755D01*
X245523Y84572D01*
X245137Y84429D01*
X244689Y84327D01*
X244445Y84307D01*
X244201Y84287D01*
X244180D01*
X244160D01*
X244099D01*
X244018D01*
X243814Y84307D01*
X243550Y84348D01*
X243265Y84409D01*
X242960Y84490D01*
X242675Y84592D01*
X242390Y84755D01*
X242349Y84775D01*
X242268Y84836D01*
X242146Y84958D01*
X241983Y85100D01*
X241820Y85304D01*
X241637Y85528D01*
X241454Y85813D01*
X241291Y86118D01*
Y86138D01*
X241271Y86159D01*
X241230Y86281D01*
X241169Y86464D01*
X241088Y86728D01*
X240986Y87033D01*
X240905Y87400D01*
X240823Y87827D01*
X240762Y88274D01*
Y88336D01*
X240742Y88397D01*
Y88498D01*
X240722Y88620D01*
Y88742D01*
X240681Y89088D01*
X240640Y89495D01*
X240600Y89943D01*
X240579Y90451D01*
X240539Y90980D01*
X240294D01*
X240274D01*
X240193D01*
X240091D01*
X239969Y90960D01*
X239664Y90899D01*
X239359Y90777D01*
X239338D01*
X239298Y90736D01*
X239216Y90695D01*
X239135Y90634D01*
X238952Y90451D01*
X238769Y90207D01*
X238748Y90187D01*
X238728Y90146D01*
X238687Y90065D01*
X238647Y89963D01*
X238606Y89841D01*
X238545Y89699D01*
X238484Y89353D01*
Y89332D01*
X238463Y89271D01*
Y89170D01*
X238443Y89047D01*
X238423Y88885D01*
Y88722D01*
X238402Y88336D01*
Y88091D01*
X238423Y87908D01*
X238443Y87705D01*
X238484Y87461D01*
X238524Y87176D01*
X238585Y86891D01*
Y86850D01*
X238626Y86749D01*
X238667Y86586D01*
X238708Y86382D01*
X238789Y86138D01*
X238870Y85853D01*
X238972Y85569D01*
X239094Y85243D01*
Y85162D01*
X237426D01*
Y85182D01*
X237405Y85243D01*
X237365Y85365D01*
X237324Y85507D01*
X237283Y85711D01*
X237243Y85935D01*
X237182Y86220D01*
X237121Y86545D01*
Y86586D01*
X237100Y86708D01*
X237059Y86891D01*
X237039Y87115D01*
X236999Y87400D01*
X236978Y87705D01*
X236958Y88356D01*
Y88722D01*
X236978Y88966D01*
X236999Y89251D01*
X237039Y89556D01*
X237080Y89861D01*
X237141Y90167D01*
Y90207D01*
X237182Y90289D01*
X237222Y90451D01*
X237283Y90634D01*
X237365Y90838D01*
X237467Y91062D01*
X237589Y91285D01*
X237731Y91509D01*
X237751Y91530D01*
X237812Y91591D01*
X237894Y91692D01*
X238016Y91814D01*
X238158Y91957D01*
X238341Y92099D01*
X238565Y92221D01*
X238789Y92344D01*
X238809Y92364D01*
X238911Y92384D01*
X239033Y92445D01*
X239216Y92506D01*
X239460Y92547D01*
X239725Y92608D01*
X240030Y92628D01*
X240376Y92649D01*
X247069D01*
Y90980D01*
D02*
G37*
G36*
X226883Y86433D02*
X222570Y82486D01*
X223607Y81428D01*
X226883D01*
Y79760D01*
X213150D01*
Y81428D01*
X221959D01*
X217015Y86209D01*
Y88305D01*
X221593Y83727D01*
X226883Y88631D01*
Y86433D01*
D02*
G37*
G36*
X262516Y82791D02*
X262556D01*
X262679D01*
X262841Y82812D01*
X263065Y82832D01*
X263309Y82852D01*
X263574Y82913D01*
X263838Y82975D01*
X264103Y83056D01*
X264123Y83076D01*
X264204Y83097D01*
X264347Y83158D01*
X264489Y83259D01*
X264672Y83361D01*
X264855Y83483D01*
X265039Y83646D01*
X265201Y83809D01*
X265222Y83829D01*
X265262Y83890D01*
X265344Y83992D01*
X265445Y84114D01*
X265547Y84277D01*
X265649Y84460D01*
X265751Y84663D01*
X265832Y84887D01*
Y84907D01*
X265873Y85009D01*
X265893Y85131D01*
X265934Y85314D01*
X265974Y85518D01*
X265995Y85762D01*
X266035Y86006D01*
Y86474D01*
X266015Y86657D01*
X265995Y86922D01*
X265934Y87227D01*
X265873Y87572D01*
X265771Y87939D01*
X265649Y88325D01*
Y88346D01*
X265629Y88366D01*
X265588Y88488D01*
X265506Y88671D01*
X265384Y88895D01*
X265140Y89363D01*
X264977Y89587D01*
X264835Y89770D01*
Y89872D01*
X266666D01*
X266686Y89831D01*
X266727Y89729D01*
X266788Y89546D01*
X266870Y89343D01*
X266971Y89078D01*
X267053Y88773D01*
X267155Y88468D01*
X267256Y88142D01*
Y88102D01*
X267297Y88000D01*
X267317Y87817D01*
X267358Y87593D01*
X267399Y87308D01*
X267439Y87003D01*
X267460Y86657D01*
X267480Y86311D01*
Y86067D01*
X267460Y85904D01*
X267439Y85701D01*
X267419Y85457D01*
X267378Y85192D01*
X267317Y84907D01*
X267155Y84297D01*
X267053Y83971D01*
X266931Y83646D01*
X266768Y83341D01*
X266585Y83035D01*
X266381Y82730D01*
X266157Y82466D01*
X266137Y82445D01*
X266096Y82405D01*
X266015Y82344D01*
X265913Y82262D01*
X265771Y82140D01*
X265608Y82039D01*
X265405Y81917D01*
X265181Y81794D01*
X264937Y81652D01*
X264652Y81530D01*
X264347Y81428D01*
X264001Y81327D01*
X263655Y81225D01*
X263248Y81164D01*
X262841Y81123D01*
X262394Y81103D01*
X262373D01*
X262292D01*
X262170D01*
X261987Y81123D01*
X261783Y81143D01*
X261560Y81164D01*
X261295Y81204D01*
X261010Y81265D01*
X260400Y81428D01*
X260074Y81530D01*
X259749Y81652D01*
X259423Y81815D01*
X259118Y81998D01*
X258833Y82201D01*
X258548Y82425D01*
X258528Y82445D01*
X258487Y82486D01*
X258426Y82568D01*
X258325Y82669D01*
X258223Y82791D01*
X258101Y82954D01*
X257958Y83137D01*
X257836Y83361D01*
X257694Y83585D01*
X257572Y83849D01*
X257450Y84134D01*
X257348Y84460D01*
X257246Y84785D01*
X257185Y85131D01*
X257145Y85518D01*
X257124Y85904D01*
Y86087D01*
X257145Y86230D01*
X257165Y86392D01*
X257185Y86596D01*
X257226Y86799D01*
X257267Y87044D01*
X257409Y87532D01*
X257511Y87796D01*
X257612Y88041D01*
X257755Y88285D01*
X257918Y88529D01*
X258101Y88773D01*
X258304Y88976D01*
X258325Y88997D01*
X258365Y89017D01*
X258426Y89078D01*
X258528Y89139D01*
X258630Y89241D01*
X258792Y89322D01*
X258955Y89424D01*
X259159Y89526D01*
X259382Y89627D01*
X259627Y89729D01*
X259891Y89831D01*
X260196Y89912D01*
X260522Y89973D01*
X260868Y90034D01*
X261234Y90055D01*
X261621Y90075D01*
X262516D01*
Y82791D01*
D02*
G37*
G36*
X247069Y80116D02*
X241474D01*
X241434D01*
X241352D01*
X241230D01*
X241047D01*
X240864Y80096D01*
X240640Y80075D01*
X240193Y80035D01*
X240172D01*
X240091Y80014D01*
X239989Y79994D01*
X239847Y79974D01*
X239542Y79872D01*
X239399Y79811D01*
X239257Y79729D01*
X239237D01*
X239196Y79689D01*
X239135Y79628D01*
X239053Y79567D01*
X238870Y79363D01*
X238708Y79099D01*
Y79078D01*
X238687Y79017D01*
X238647Y78936D01*
X238606Y78814D01*
X238585Y78651D01*
X238545Y78468D01*
X238524Y78264D01*
Y77898D01*
X238545Y77776D01*
X238565Y77593D01*
X238606Y77369D01*
X238667Y77146D01*
X238748Y76881D01*
X238870Y76596D01*
X238891Y76556D01*
X238931Y76474D01*
X238992Y76332D01*
X239094Y76149D01*
X239216Y75925D01*
X239359Y75701D01*
X239542Y75437D01*
X239725Y75192D01*
X247069D01*
Y73524D01*
X237202D01*
Y75192D01*
X238321D01*
X238301Y75233D01*
X238219Y75335D01*
X238097Y75477D01*
X237955Y75681D01*
X237792Y75925D01*
X237609Y76189D01*
X237446Y76474D01*
X237304Y76779D01*
X237283Y76820D01*
X237243Y76922D01*
X237182Y77084D01*
X237121Y77308D01*
X237059Y77573D01*
X236999Y77858D01*
X236958Y78163D01*
X236938Y78488D01*
Y78651D01*
X236958Y78753D01*
Y78895D01*
X236978Y79038D01*
X237059Y79404D01*
X237182Y79790D01*
X237344Y80197D01*
X237589Y80584D01*
X237751Y80767D01*
X237914Y80930D01*
X237934Y80950D01*
X237955Y80970D01*
X238016Y81011D01*
X238097Y81072D01*
X238199Y81133D01*
X238321Y81194D01*
X238463Y81276D01*
X238626Y81357D01*
X238809Y81438D01*
X239013Y81520D01*
X239237Y81581D01*
X239481Y81642D01*
X239745Y81703D01*
X240050Y81744D01*
X240681Y81784D01*
X247069D01*
Y80116D01*
D02*
G37*
G36*
X267256Y76932D02*
X261661D01*
X261621D01*
X261539D01*
X261417D01*
X261234D01*
X261051Y76912D01*
X260827Y76891D01*
X260379Y76851D01*
X260359D01*
X260278Y76830D01*
X260176Y76810D01*
X260034Y76789D01*
X259728Y76688D01*
X259586Y76627D01*
X259444Y76545D01*
X259423D01*
X259382Y76505D01*
X259321Y76444D01*
X259240Y76382D01*
X259057Y76179D01*
X258894Y75915D01*
Y75894D01*
X258874Y75833D01*
X258833Y75752D01*
X258792Y75630D01*
X258772Y75467D01*
X258731Y75284D01*
X258711Y75080D01*
Y74714D01*
X258731Y74592D01*
X258752Y74409D01*
X258792Y74185D01*
X258853Y73961D01*
X258935Y73697D01*
X259057Y73412D01*
X259077Y73371D01*
X259118Y73290D01*
X259179Y73148D01*
X259281Y72965D01*
X259403Y72741D01*
X259545Y72517D01*
X259728Y72252D01*
X259911Y72008D01*
X267256D01*
Y70340D01*
X257389D01*
Y72008D01*
X258508D01*
X258487Y72049D01*
X258406Y72151D01*
X258284Y72293D01*
X258141Y72497D01*
X257979Y72741D01*
X257796Y73005D01*
X257633Y73290D01*
X257490Y73595D01*
X257470Y73636D01*
X257429Y73738D01*
X257368Y73900D01*
X257307Y74124D01*
X257246Y74389D01*
X257185Y74674D01*
X257145Y74979D01*
X257124Y75304D01*
Y75467D01*
X257145Y75569D01*
Y75711D01*
X257165Y75854D01*
X257246Y76220D01*
X257368Y76606D01*
X257531Y77013D01*
X257775Y77400D01*
X257938Y77583D01*
X258101Y77746D01*
X258121Y77766D01*
X258141Y77786D01*
X258202Y77827D01*
X258284Y77888D01*
X258386Y77949D01*
X258508Y78010D01*
X258650Y78092D01*
X258813Y78173D01*
X258996Y78254D01*
X259199Y78336D01*
X259423Y78397D01*
X259667Y78458D01*
X259932Y78519D01*
X260237Y78559D01*
X260868Y78600D01*
X267256D01*
Y76932D01*
D02*
G37*
G36*
X222142Y69892D02*
X222183D01*
X222305D01*
X222468Y69913D01*
X222692Y69933D01*
X222936Y69953D01*
X223200Y70014D01*
X223465Y70075D01*
X223729Y70157D01*
X223750Y70177D01*
X223831Y70198D01*
X223973Y70259D01*
X224116Y70360D01*
X224299Y70462D01*
X224482Y70584D01*
X224665Y70747D01*
X224828Y70910D01*
X224848Y70930D01*
X224889Y70991D01*
X224970Y71093D01*
X225072Y71215D01*
X225174Y71378D01*
X225275Y71561D01*
X225377Y71764D01*
X225459Y71988D01*
Y72008D01*
X225499Y72110D01*
X225520Y72232D01*
X225560Y72415D01*
X225601Y72619D01*
X225621Y72863D01*
X225662Y73107D01*
Y73575D01*
X225642Y73758D01*
X225621Y74022D01*
X225560Y74328D01*
X225499Y74674D01*
X225398Y75040D01*
X225275Y75426D01*
Y75447D01*
X225255Y75467D01*
X225215Y75589D01*
X225133Y75772D01*
X225011Y75996D01*
X224767Y76464D01*
X224604Y76688D01*
X224462Y76871D01*
Y76973D01*
X226293D01*
X226313Y76932D01*
X226354Y76830D01*
X226415Y76647D01*
X226496Y76444D01*
X226598Y76179D01*
X226679Y75874D01*
X226781Y75569D01*
X226883Y75243D01*
Y75202D01*
X226924Y75101D01*
X226944Y74918D01*
X226985Y74694D01*
X227025Y74409D01*
X227066Y74104D01*
X227086Y73758D01*
X227107Y73412D01*
Y73168D01*
X227086Y73005D01*
X227066Y72802D01*
X227045Y72558D01*
X227005Y72293D01*
X226944Y72008D01*
X226781Y71398D01*
X226679Y71072D01*
X226557Y70747D01*
X226395Y70442D01*
X226211Y70136D01*
X226008Y69831D01*
X225784Y69567D01*
X225764Y69546D01*
X225723Y69506D01*
X225642Y69445D01*
X225540Y69363D01*
X225398Y69241D01*
X225235Y69140D01*
X225031Y69018D01*
X224808Y68895D01*
X224563Y68753D01*
X224279Y68631D01*
X223973Y68529D01*
X223627Y68428D01*
X223282Y68326D01*
X222875Y68265D01*
X222468Y68224D01*
X222020Y68204D01*
X222000D01*
X221919D01*
X221796D01*
X221613Y68224D01*
X221410Y68244D01*
X221186Y68265D01*
X220922Y68305D01*
X220637Y68366D01*
X220026Y68529D01*
X219701Y68631D01*
X219375Y68753D01*
X219050Y68916D01*
X218745Y69099D01*
X218460Y69302D01*
X218175Y69526D01*
X218155Y69546D01*
X218114Y69587D01*
X218053Y69669D01*
X217951Y69770D01*
X217849Y69892D01*
X217727Y70055D01*
X217585Y70238D01*
X217463Y70462D01*
X217320Y70686D01*
X217198Y70950D01*
X217076Y71235D01*
X216975Y71561D01*
X216873Y71886D01*
X216812Y72232D01*
X216771Y72619D01*
X216751Y73005D01*
Y73188D01*
X216771Y73331D01*
X216791Y73493D01*
X216812Y73697D01*
X216852Y73900D01*
X216893Y74145D01*
X217036Y74633D01*
X217137Y74897D01*
X217239Y75142D01*
X217381Y75386D01*
X217544Y75630D01*
X217727Y75874D01*
X217931Y76077D01*
X217951Y76098D01*
X217992Y76118D01*
X218053Y76179D01*
X218155Y76240D01*
X218256Y76342D01*
X218419Y76423D01*
X218582Y76525D01*
X218785Y76627D01*
X219009Y76728D01*
X219253Y76830D01*
X219518Y76932D01*
X219823Y77013D01*
X220149Y77074D01*
X220494Y77135D01*
X220861Y77156D01*
X221247Y77176D01*
X222142D01*
Y69892D01*
D02*
G37*
G36*
X267256Y65416D02*
X257389D01*
Y67085D01*
X267256D01*
Y65416D01*
D02*
G37*
G36*
X255741Y65315D02*
X254011D01*
Y67186D01*
X255741D01*
Y65315D01*
D02*
G37*
G36*
X247069Y68661D02*
X246012D01*
X246032Y68621D01*
X246134Y68499D01*
X246256Y68316D01*
X246439Y68051D01*
X246459Y68031D01*
X246479Y67990D01*
X246541Y67909D01*
X246581Y67827D01*
X246724Y67604D01*
X246866Y67339D01*
Y67319D01*
X246907Y67258D01*
X246927Y67176D01*
X246988Y67054D01*
X247029Y66912D01*
X247090Y66749D01*
X247192Y66383D01*
Y66362D01*
X247212Y66281D01*
X247232Y66179D01*
X247253Y66037D01*
X247293Y65833D01*
X247314Y65630D01*
X247334Y65386D01*
Y64999D01*
X247314Y64898D01*
Y64796D01*
X247293Y64653D01*
X247232Y64348D01*
X247110Y64002D01*
X246968Y63616D01*
X246744Y63250D01*
X246622Y63067D01*
X246459Y62883D01*
X246439D01*
X246418Y62843D01*
X246296Y62741D01*
X246113Y62599D01*
X245849Y62436D01*
X245523Y62253D01*
X245137Y62110D01*
X244689Y62009D01*
X244445Y61988D01*
X244201Y61968D01*
X244180D01*
X244160D01*
X244099D01*
X244018D01*
X243814Y61988D01*
X243550Y62029D01*
X243265Y62090D01*
X242960Y62171D01*
X242675Y62273D01*
X242390Y62436D01*
X242349Y62456D01*
X242268Y62517D01*
X242146Y62639D01*
X241983Y62782D01*
X241820Y62985D01*
X241637Y63209D01*
X241454Y63494D01*
X241291Y63799D01*
Y63819D01*
X241271Y63840D01*
X241230Y63962D01*
X241169Y64145D01*
X241088Y64409D01*
X240986Y64714D01*
X240905Y65081D01*
X240823Y65508D01*
X240762Y65956D01*
Y66017D01*
X240742Y66078D01*
Y66179D01*
X240722Y66301D01*
Y66424D01*
X240681Y66769D01*
X240640Y67176D01*
X240600Y67624D01*
X240579Y68133D01*
X240539Y68661D01*
X240294D01*
X240274D01*
X240193D01*
X240091D01*
X239969Y68641D01*
X239664Y68580D01*
X239359Y68458D01*
X239338D01*
X239298Y68417D01*
X239216Y68377D01*
X239135Y68316D01*
X238952Y68133D01*
X238769Y67888D01*
X238748Y67868D01*
X238728Y67827D01*
X238687Y67746D01*
X238647Y67644D01*
X238606Y67522D01*
X238545Y67380D01*
X238484Y67034D01*
Y67014D01*
X238463Y66952D01*
Y66851D01*
X238443Y66729D01*
X238423Y66566D01*
Y66403D01*
X238402Y66017D01*
Y65772D01*
X238423Y65589D01*
X238443Y65386D01*
X238484Y65142D01*
X238524Y64857D01*
X238585Y64572D01*
Y64531D01*
X238626Y64430D01*
X238667Y64267D01*
X238708Y64063D01*
X238789Y63819D01*
X238870Y63534D01*
X238972Y63250D01*
X239094Y62924D01*
Y62843D01*
X237426D01*
Y62863D01*
X237405Y62924D01*
X237365Y63046D01*
X237324Y63189D01*
X237283Y63392D01*
X237243Y63616D01*
X237182Y63901D01*
X237121Y64226D01*
Y64267D01*
X237100Y64389D01*
X237059Y64572D01*
X237039Y64796D01*
X236999Y65081D01*
X236978Y65386D01*
X236958Y66037D01*
Y66403D01*
X236978Y66647D01*
X236999Y66932D01*
X237039Y67237D01*
X237080Y67543D01*
X237141Y67848D01*
Y67888D01*
X237182Y67970D01*
X237222Y68133D01*
X237283Y68316D01*
X237365Y68519D01*
X237467Y68743D01*
X237589Y68967D01*
X237731Y69190D01*
X237751Y69211D01*
X237812Y69272D01*
X237894Y69373D01*
X238016Y69496D01*
X238158Y69638D01*
X238341Y69781D01*
X238565Y69903D01*
X238789Y70025D01*
X238809Y70045D01*
X238911Y70065D01*
X239033Y70126D01*
X239216Y70187D01*
X239460Y70228D01*
X239725Y70289D01*
X240030Y70309D01*
X240376Y70330D01*
X247069D01*
Y68661D01*
D02*
G37*
G36*
X226883Y58580D02*
X225662D01*
X218419Y64338D01*
Y58702D01*
X217015D01*
Y66413D01*
X218216D01*
X225479Y60615D01*
Y66556D01*
X226883D01*
Y58580D01*
D02*
G37*
G36*
X215428Y63545D02*
Y61530D01*
X212071Y59537D01*
Y60920D01*
X214350Y62568D01*
X212071Y64175D01*
Y65559D01*
X215428Y63545D01*
D02*
G37*
G36*
X235554Y57634D02*
X233825D01*
Y59506D01*
X235554D01*
Y57634D01*
D02*
G37*
G36*
X266564Y62141D02*
X266768Y62120D01*
X267012Y62100D01*
X267256Y62059D01*
X267541Y62019D01*
X268151Y61876D01*
X268457Y61795D01*
X268741Y61673D01*
X269047Y61530D01*
X269331Y61388D01*
X269576Y61205D01*
X269820Y61001D01*
X269840Y60981D01*
X269860Y60940D01*
X269921Y60879D01*
X270003Y60778D01*
X270084Y60676D01*
X270186Y60513D01*
X270308Y60350D01*
X270410Y60147D01*
X270511Y59903D01*
X270634Y59638D01*
X270735Y59353D01*
X270817Y59048D01*
X270898Y58702D01*
X270939Y58336D01*
X270979Y57929D01*
X271000Y57502D01*
Y57217D01*
X270979Y57014D01*
Y56770D01*
X270939Y56525D01*
X270878Y55956D01*
Y55915D01*
X270857Y55834D01*
X270837Y55671D01*
X270796Y55488D01*
X270756Y55264D01*
X270715Y55020D01*
X270572Y54491D01*
X268884D01*
Y54593D01*
X268904Y54654D01*
X268945Y54755D01*
X268986Y54878D01*
X269047Y55061D01*
X269108Y55284D01*
X269189Y55549D01*
X269270Y55854D01*
Y55895D01*
X269311Y56017D01*
X269352Y56180D01*
X269393Y56403D01*
X269433Y56688D01*
X269474Y56973D01*
X269494Y57299D01*
X269515Y57624D01*
Y57766D01*
X269494Y57929D01*
Y58112D01*
X269454Y58336D01*
X269413Y58580D01*
X269372Y58804D01*
X269291Y59028D01*
Y59048D01*
X269250Y59130D01*
X269209Y59231D01*
X269148Y59353D01*
X268965Y59638D01*
X268864Y59781D01*
X268741Y59903D01*
X268721Y59923D01*
X268680Y59943D01*
X268599Y60005D01*
X268497Y60065D01*
X268375Y60147D01*
X268233Y60228D01*
X267907Y60350D01*
X267887D01*
X267826Y60371D01*
X267724Y60391D01*
X267582Y60432D01*
X267419Y60452D01*
X267236Y60472D01*
X266829Y60493D01*
X265934D01*
X265954Y60452D01*
X266035Y60371D01*
X266137Y60228D01*
X266259Y60025D01*
X266402Y59801D01*
X266564Y59557D01*
X266707Y59313D01*
X266829Y59048D01*
X266849Y59008D01*
X266870Y58926D01*
X266910Y58784D01*
X266971Y58580D01*
X267032Y58316D01*
X267073Y58011D01*
X267093Y57685D01*
X267114Y57299D01*
Y57136D01*
X267093Y57014D01*
X267073Y56851D01*
X267053Y56688D01*
X266951Y56281D01*
X266809Y55834D01*
X266707Y55610D01*
X266585Y55366D01*
X266442Y55142D01*
X266259Y54918D01*
X266076Y54694D01*
X265852Y54491D01*
X265832Y54471D01*
X265791Y54450D01*
X265710Y54389D01*
X265608Y54328D01*
X265486Y54247D01*
X265323Y54165D01*
X265140Y54064D01*
X264916Y53982D01*
X264672Y53881D01*
X264408Y53779D01*
X264123Y53697D01*
X263797Y53616D01*
X263452Y53555D01*
X263065Y53494D01*
X262679Y53474D01*
X262251Y53453D01*
X262231D01*
X262190D01*
X262129D01*
X262027D01*
X261926Y53474D01*
X261804D01*
X261498Y53494D01*
X261153Y53535D01*
X260786Y53596D01*
X260420Y53677D01*
X260054Y53799D01*
X260034D01*
X260013Y53819D01*
X259891Y53860D01*
X259728Y53942D01*
X259505Y54064D01*
X259260Y54206D01*
X258996Y54369D01*
X258731Y54552D01*
X258467Y54776D01*
X258447Y54796D01*
X258365Y54878D01*
X258243Y54999D01*
X258101Y55183D01*
X257958Y55386D01*
X257796Y55610D01*
X257633Y55895D01*
X257490Y56180D01*
X257470Y56220D01*
X257429Y56322D01*
X257368Y56485D01*
X257307Y56688D01*
X257246Y56932D01*
X257185Y57217D01*
X257145Y57522D01*
X257124Y57828D01*
Y58133D01*
X257145Y58336D01*
X257165Y58560D01*
X257206Y58784D01*
X257246Y59028D01*
X257307Y59252D01*
Y59272D01*
X257328Y59353D01*
X257368Y59475D01*
X257429Y59638D01*
X257511Y59821D01*
X257592Y60025D01*
X257836Y60493D01*
X257389Y60595D01*
Y62161D01*
X266157D01*
X266178D01*
X266259D01*
X266402D01*
X266564Y62141D01*
D02*
G37*
G36*
X247578Y59384D02*
X247721D01*
X247883Y59364D01*
X248270Y59303D01*
X248697Y59180D01*
X249145Y59018D01*
X249552Y58814D01*
X249735Y58672D01*
X249918Y58509D01*
X249958Y58468D01*
X250060Y58346D01*
X250203Y58163D01*
X250365Y57878D01*
X250528Y57553D01*
X250671Y57146D01*
X250772Y56678D01*
X250793Y56413D01*
X250813Y56149D01*
Y56007D01*
X250793Y55905D01*
Y55763D01*
X250772Y55600D01*
X250752Y55417D01*
X250732Y55213D01*
Y55193D01*
X250711Y55132D01*
Y55010D01*
X250691Y54888D01*
X250630Y54582D01*
X250548Y54257D01*
X248982D01*
Y54379D01*
X249002Y54399D01*
X249023Y54460D01*
X249043Y54542D01*
X249104Y54745D01*
X249185Y55010D01*
Y55030D01*
X249206Y55071D01*
X249226Y55152D01*
X249246Y55274D01*
X249307Y55518D01*
X249328Y55823D01*
Y55925D01*
X249307Y56047D01*
Y56190D01*
X249246Y56515D01*
X249206Y56678D01*
X249145Y56841D01*
Y56861D01*
X249104Y56902D01*
X249063Y56983D01*
X249002Y57065D01*
X248839Y57248D01*
X248616Y57410D01*
X248595D01*
X248555Y57451D01*
X248473Y57471D01*
X248372Y57512D01*
X248249Y57573D01*
X248087Y57614D01*
X247741Y57675D01*
X247721D01*
X247659Y57695D01*
X247558D01*
X247415Y57716D01*
X247232D01*
X247029Y57736D01*
X246805D01*
X246561D01*
X238606D01*
Y55681D01*
X237202D01*
Y59404D01*
X247293D01*
X247314D01*
X247375D01*
X247456D01*
X247578Y59384D01*
D02*
G37*
G36*
X247069Y51510D02*
X233336D01*
Y53179D01*
X247069D01*
Y51510D01*
D02*
G37*
G36*
X201121Y54959D02*
X201101Y54918D01*
Y54837D01*
X201081Y54755D01*
X201040Y54532D01*
X200999Y54267D01*
Y54206D01*
X200979Y54125D01*
Y53921D01*
X200959Y53779D01*
Y53331D01*
X200979Y53168D01*
X200999Y52985D01*
X201040Y52762D01*
X201101Y52497D01*
X201182Y52233D01*
X201305Y51968D01*
X201325Y51927D01*
X201366Y51846D01*
X201447Y51704D01*
X201549Y51541D01*
X201671Y51317D01*
X201813Y51093D01*
X201996Y50849D01*
X202179Y50605D01*
X209178D01*
Y48937D01*
X199311D01*
Y50605D01*
X200776D01*
Y50625D01*
X200735Y50646D01*
X200653Y50768D01*
X200511Y50951D01*
X200328Y51195D01*
X200145Y51459D01*
X199962Y51744D01*
X199799Y52049D01*
X199657Y52334D01*
X199636Y52375D01*
X199596Y52456D01*
X199555Y52619D01*
X199473Y52802D01*
X199412Y53046D01*
X199372Y53291D01*
X199331Y53575D01*
X199311Y53860D01*
Y54104D01*
X199331Y54308D01*
Y54389D01*
X199351Y54471D01*
Y54511D01*
X199372Y54633D01*
X199392Y54816D01*
X199433Y55081D01*
X201121D01*
Y54959D01*
D02*
G37*
G36*
X222366Y56810D02*
X222570Y56790D01*
X222793Y56770D01*
X223058Y56729D01*
X223343Y56668D01*
X223953Y56525D01*
X224258Y56424D01*
X224584Y56302D01*
X224889Y56159D01*
X225194Y55996D01*
X225499Y55813D01*
X225764Y55590D01*
X225784Y55569D01*
X225825Y55528D01*
X225886Y55468D01*
X225988Y55366D01*
X226089Y55244D01*
X226191Y55081D01*
X226334Y54918D01*
X226455Y54715D01*
X226578Y54491D01*
X226700Y54226D01*
X226822Y53962D01*
X226924Y53677D01*
X227025Y53352D01*
X227086Y53006D01*
X227127Y52660D01*
X227147Y52273D01*
Y52070D01*
X227127Y51927D01*
X227107Y51744D01*
X227066Y51541D01*
X227025Y51317D01*
X226964Y51073D01*
X226801Y50544D01*
X226700Y50259D01*
X226557Y49974D01*
X226395Y49710D01*
X226211Y49445D01*
X226008Y49181D01*
X225764Y48937D01*
X225743Y48916D01*
X225703Y48876D01*
X225621Y48815D01*
X225499Y48753D01*
X225377Y48652D01*
X225194Y48550D01*
X224991Y48448D01*
X224767Y48326D01*
X224502Y48204D01*
X224217Y48102D01*
X223912Y48001D01*
X223566Y47899D01*
X223200Y47838D01*
X222814Y47777D01*
X222407Y47736D01*
X221959Y47716D01*
X221939D01*
X221857D01*
X221735D01*
X221552Y47736D01*
X221349Y47757D01*
X221125Y47777D01*
X220861Y47818D01*
X220576Y47879D01*
X219965Y48021D01*
X219660Y48123D01*
X219335Y48225D01*
X219030Y48367D01*
X218724Y48530D01*
X218419Y48713D01*
X218155Y48937D01*
X218134Y48957D01*
X218094Y48998D01*
X218032Y49059D01*
X217931Y49160D01*
X217829Y49282D01*
X217707Y49445D01*
X217585Y49608D01*
X217442Y49812D01*
X217320Y50056D01*
X217198Y50300D01*
X217076Y50564D01*
X216975Y50869D01*
X216873Y51195D01*
X216812Y51521D01*
X216771Y51887D01*
X216751Y52273D01*
Y52477D01*
X216771Y52619D01*
X216791Y52802D01*
X216832Y53006D01*
X216873Y53229D01*
X216934Y53474D01*
X216995Y53718D01*
X217097Y54003D01*
X217198Y54267D01*
X217341Y54552D01*
X217504Y54816D01*
X217687Y55101D01*
X217910Y55345D01*
X218155Y55590D01*
X218175Y55610D01*
X218216Y55651D01*
X218297Y55712D01*
X218419Y55793D01*
X218561Y55874D01*
X218724Y55976D01*
X218928Y56098D01*
X219151Y56220D01*
X219416Y56322D01*
X219701Y56444D01*
X220006Y56546D01*
X220352Y56648D01*
X220718Y56708D01*
X221105Y56770D01*
X221512Y56810D01*
X221959Y56831D01*
X221980D01*
X222061D01*
X222183D01*
X222366Y56810D01*
D02*
G37*
G36*
X267256Y49282D02*
X261661D01*
X261621D01*
X261539D01*
X261417D01*
X261234D01*
X261051Y49262D01*
X260827Y49242D01*
X260379Y49201D01*
X260359D01*
X260278Y49181D01*
X260176Y49160D01*
X260034Y49140D01*
X259728Y49038D01*
X259586Y48977D01*
X259444Y48896D01*
X259423D01*
X259382Y48855D01*
X259321Y48794D01*
X259240Y48733D01*
X259057Y48530D01*
X258894Y48265D01*
Y48245D01*
X258874Y48184D01*
X258833Y48102D01*
X258792Y47980D01*
X258772Y47818D01*
X258731Y47635D01*
X258711Y47431D01*
Y47065D01*
X258731Y46943D01*
X258752Y46760D01*
X258792Y46536D01*
X258853Y46312D01*
X258935Y46048D01*
X259057Y45763D01*
X259077Y45722D01*
X259118Y45641D01*
X259179Y45498D01*
X259281Y45315D01*
X259403Y45091D01*
X259545Y44868D01*
X259728Y44603D01*
X259911Y44359D01*
X267256D01*
Y42691D01*
X257389D01*
Y44359D01*
X258508D01*
X258487Y44400D01*
X258406Y44501D01*
X258284Y44644D01*
X258141Y44847D01*
X257979Y45091D01*
X257796Y45356D01*
X257633Y45641D01*
X257490Y45946D01*
X257470Y45986D01*
X257429Y46088D01*
X257368Y46251D01*
X257307Y46475D01*
X257246Y46739D01*
X257185Y47024D01*
X257145Y47329D01*
X257124Y47655D01*
Y47818D01*
X257145Y47919D01*
Y48062D01*
X257165Y48204D01*
X257246Y48570D01*
X257368Y48957D01*
X257531Y49364D01*
X257775Y49750D01*
X257938Y49934D01*
X258101Y50096D01*
X258121Y50117D01*
X258141Y50137D01*
X258202Y50178D01*
X258284Y50239D01*
X258386Y50300D01*
X258508Y50361D01*
X258650Y50442D01*
X258813Y50524D01*
X258996Y50605D01*
X259199Y50686D01*
X259423Y50747D01*
X259667Y50808D01*
X259932Y50869D01*
X260237Y50910D01*
X260868Y50951D01*
X267256D01*
Y49282D01*
D02*
G37*
G36*
X242390Y48926D02*
X242512D01*
X242817Y48906D01*
X243163Y48865D01*
X243529Y48784D01*
X243916Y48703D01*
X244303Y48580D01*
X244323D01*
X244343Y48560D01*
X244465Y48520D01*
X244648Y48438D01*
X244872Y48336D01*
X245137Y48194D01*
X245401Y48031D01*
X245686Y47848D01*
X245951Y47645D01*
X245971Y47624D01*
X246073Y47543D01*
X246195Y47400D01*
X246337Y47238D01*
X246500Y47034D01*
X246683Y46790D01*
X246846Y46546D01*
X246988Y46261D01*
X247008Y46220D01*
X247049Y46139D01*
X247090Y45976D01*
X247151Y45773D01*
X247232Y45529D01*
X247273Y45244D01*
X247314Y44939D01*
X247334Y44613D01*
Y44471D01*
X247314Y44308D01*
Y44105D01*
X247293Y43881D01*
X247253Y43637D01*
X247192Y43372D01*
X247131Y43128D01*
Y43108D01*
X247090Y43026D01*
X247049Y42904D01*
X246988Y42741D01*
X246927Y42558D01*
X246846Y42355D01*
X246622Y41907D01*
X247069Y41785D01*
Y40239D01*
X233336D01*
Y41907D01*
X238260D01*
X238240Y41948D01*
X238158Y42029D01*
X238057Y42172D01*
X237914Y42355D01*
X237772Y42579D01*
X237609Y42823D01*
X237446Y43087D01*
X237304Y43372D01*
X237283Y43413D01*
X237243Y43514D01*
X237182Y43677D01*
X237121Y43901D01*
X237059Y44166D01*
X236999Y44471D01*
X236958Y44796D01*
X236938Y45163D01*
Y45325D01*
X236958Y45447D01*
X236978Y45610D01*
X236999Y45773D01*
X237100Y46159D01*
X237263Y46607D01*
X237365Y46831D01*
X237507Y47075D01*
X237650Y47299D01*
X237833Y47523D01*
X238036Y47726D01*
X238280Y47930D01*
X238301Y47950D01*
X238341Y47970D01*
X238423Y48031D01*
X238524Y48092D01*
X238667Y48174D01*
X238830Y48255D01*
X239033Y48336D01*
X239257Y48438D01*
X239501Y48540D01*
X239786Y48621D01*
X240111Y48703D01*
X240437Y48784D01*
X240803Y48845D01*
X241210Y48906D01*
X241617Y48926D01*
X242064Y48947D01*
X242085D01*
X242126D01*
X242187D01*
X242268D01*
X242390Y48926D01*
D02*
G37*
G36*
X209178Y44074D02*
X208120D01*
X208141Y44033D01*
X208242Y43911D01*
X208364Y43728D01*
X208547Y43464D01*
X208568Y43443D01*
X208588Y43403D01*
X208649Y43321D01*
X208690Y43240D01*
X208832Y43016D01*
X208975Y42752D01*
Y42731D01*
X209016Y42670D01*
X209036Y42589D01*
X209097Y42467D01*
X209137Y42324D01*
X209199Y42162D01*
X209300Y41795D01*
Y41775D01*
X209321Y41694D01*
X209341Y41592D01*
X209361Y41449D01*
X209402Y41246D01*
X209422Y41043D01*
X209443Y40798D01*
Y40412D01*
X209422Y40310D01*
Y40208D01*
X209402Y40066D01*
X209341Y39761D01*
X209219Y39415D01*
X209076Y39028D01*
X208853Y38662D01*
X208731Y38479D01*
X208568Y38296D01*
X208547D01*
X208527Y38255D01*
X208405Y38154D01*
X208222Y38011D01*
X207957Y37848D01*
X207632Y37665D01*
X207245Y37523D01*
X206798Y37421D01*
X206554Y37401D01*
X206310Y37380D01*
X206289D01*
X206269D01*
X206208D01*
X206126D01*
X205923Y37401D01*
X205658Y37441D01*
X205374Y37503D01*
X205068Y37584D01*
X204784Y37686D01*
X204499Y37848D01*
X204458Y37869D01*
X204377Y37930D01*
X204255Y38052D01*
X204092Y38194D01*
X203929Y38398D01*
X203746Y38621D01*
X203563Y38906D01*
X203400Y39211D01*
Y39232D01*
X203380Y39252D01*
X203339Y39374D01*
X203278Y39557D01*
X203197Y39822D01*
X203095Y40127D01*
X203014Y40493D01*
X202932Y40921D01*
X202871Y41368D01*
Y41429D01*
X202851Y41490D01*
Y41592D01*
X202831Y41714D01*
Y41836D01*
X202790Y42182D01*
X202749Y42589D01*
X202708Y43036D01*
X202688Y43545D01*
X202647Y44074D01*
X202403D01*
X202383D01*
X202302D01*
X202200D01*
X202078Y44054D01*
X201772Y43993D01*
X201467Y43871D01*
X201447D01*
X201406Y43830D01*
X201325Y43789D01*
X201243Y43728D01*
X201060Y43545D01*
X200877Y43301D01*
X200857Y43281D01*
X200837Y43240D01*
X200796Y43158D01*
X200755Y43057D01*
X200714Y42935D01*
X200653Y42792D01*
X200592Y42446D01*
Y42426D01*
X200572Y42365D01*
Y42263D01*
X200552Y42141D01*
X200531Y41979D01*
Y41816D01*
X200511Y41429D01*
Y41185D01*
X200531Y41002D01*
X200552Y40798D01*
X200592Y40554D01*
X200633Y40269D01*
X200694Y39985D01*
Y39944D01*
X200735Y39842D01*
X200776Y39679D01*
X200816Y39476D01*
X200898Y39232D01*
X200979Y38947D01*
X201081Y38662D01*
X201203Y38337D01*
Y38255D01*
X199534D01*
Y38276D01*
X199514Y38337D01*
X199473Y38459D01*
X199433Y38601D01*
X199392Y38805D01*
X199351Y39028D01*
X199290Y39313D01*
X199229Y39639D01*
Y39679D01*
X199209Y39801D01*
X199168Y39985D01*
X199148Y40208D01*
X199107Y40493D01*
X199087Y40798D01*
X199067Y41449D01*
Y41816D01*
X199087Y42060D01*
X199107Y42345D01*
X199148Y42650D01*
X199189Y42955D01*
X199250Y43260D01*
Y43301D01*
X199290Y43382D01*
X199331Y43545D01*
X199392Y43728D01*
X199473Y43932D01*
X199575Y44155D01*
X199697Y44379D01*
X199840Y44603D01*
X199860Y44623D01*
X199921Y44684D01*
X200002Y44786D01*
X200124Y44908D01*
X200267Y45051D01*
X200450Y45193D01*
X200674Y45315D01*
X200898Y45437D01*
X200918Y45458D01*
X201020Y45478D01*
X201142Y45539D01*
X201325Y45600D01*
X201569Y45641D01*
X201833Y45702D01*
X202139Y45722D01*
X202485Y45742D01*
X209178D01*
Y44074D01*
D02*
G37*
G36*
X226883Y43260D02*
X215571D01*
X223261Y39598D01*
Y38561D01*
X215571Y34939D01*
X226883D01*
Y33311D01*
X213740D01*
Y35671D01*
X221064Y39191D01*
X213740Y42568D01*
Y45010D01*
X226883D01*
Y43260D01*
D02*
G37*
G36*
X267256Y31399D02*
X254113D01*
Y40066D01*
X255659D01*
Y33149D01*
X259260D01*
Y40066D01*
X260807D01*
Y33149D01*
X265710D01*
Y40066D01*
X267256D01*
Y31399D01*
D02*
G37*
G36*
X247069Y35315D02*
X245971D01*
X245991Y35275D01*
X246073Y35173D01*
X246195Y35010D01*
X246357Y34786D01*
X246520Y34542D01*
X246683Y34278D01*
X246846Y33973D01*
X246988Y33688D01*
X247008Y33647D01*
X247049Y33566D01*
X247090Y33403D01*
X247151Y33199D01*
X247232Y32955D01*
X247273Y32650D01*
X247314Y32345D01*
X247334Y31999D01*
Y31857D01*
X247314Y31735D01*
Y31613D01*
X247293Y31470D01*
X247212Y31124D01*
X247110Y30738D01*
X246947Y30331D01*
X246703Y29924D01*
X246561Y29741D01*
X246398Y29578D01*
X246378D01*
X246357Y29537D01*
X246296Y29497D01*
X246215Y29436D01*
X246113Y29374D01*
X245991Y29313D01*
X245849Y29232D01*
X245686Y29151D01*
X245503Y29069D01*
X245299Y28988D01*
X245076Y28927D01*
X244811Y28866D01*
X244547Y28805D01*
X244262Y28764D01*
X243936Y28744D01*
X243611Y28723D01*
X237202D01*
Y30392D01*
X242817D01*
X242858D01*
X242939D01*
X243082D01*
X243265D01*
X243468Y30412D01*
X243672D01*
X243896Y30433D01*
X244099Y30453D01*
X244119D01*
X244180Y30473D01*
X244282Y30494D01*
X244404Y30514D01*
X244709Y30616D01*
X245015Y30758D01*
X245035Y30778D01*
X245076Y30799D01*
X245137Y30860D01*
X245238Y30921D01*
X245422Y31104D01*
X245584Y31368D01*
Y31389D01*
X245605Y31450D01*
X245625Y31531D01*
X245666Y31653D01*
X245686Y31816D01*
X245727Y31999D01*
X245747Y32223D01*
Y32589D01*
X245727Y32711D01*
X245706Y32894D01*
X245666Y33098D01*
X245605Y33342D01*
X245523Y33586D01*
X245422Y33871D01*
X245401Y33911D01*
X245361Y33993D01*
X245299Y34156D01*
X245198Y34339D01*
X245076Y34563D01*
X244913Y34807D01*
X244750Y35071D01*
X244567Y35315D01*
X237202D01*
Y36984D01*
X247069D01*
Y35315D01*
D02*
G37*
G36*
X209178Y33210D02*
X203583D01*
X203542D01*
X203461D01*
X203339D01*
X203156D01*
X202973Y33189D01*
X202749Y33169D01*
X202302Y33128D01*
X202281D01*
X202200Y33108D01*
X202098Y33087D01*
X201956Y33067D01*
X201650Y32966D01*
X201508Y32904D01*
X201366Y32823D01*
X201345D01*
X201305Y32782D01*
X201243Y32721D01*
X201162Y32660D01*
X200979Y32457D01*
X200816Y32192D01*
Y32172D01*
X200796Y32111D01*
X200755Y32030D01*
X200714Y31907D01*
X200694Y31745D01*
X200653Y31562D01*
X200633Y31358D01*
Y30992D01*
X200653Y30870D01*
X200674Y30687D01*
X200714Y30463D01*
X200776Y30239D01*
X200857Y29975D01*
X200979Y29690D01*
X200999Y29649D01*
X201040Y29568D01*
X201101Y29425D01*
X201203Y29242D01*
X201325Y29018D01*
X201467Y28795D01*
X201650Y28530D01*
X201833Y28286D01*
X209178D01*
Y26618D01*
X199311D01*
Y28286D01*
X200430D01*
X200409Y28327D01*
X200328Y28428D01*
X200206Y28571D01*
X200063Y28774D01*
X199901Y29018D01*
X199718Y29283D01*
X199555Y29568D01*
X199412Y29873D01*
X199392Y29914D01*
X199351Y30015D01*
X199290Y30178D01*
X199229Y30402D01*
X199168Y30666D01*
X199107Y30951D01*
X199067Y31256D01*
X199046Y31582D01*
Y31745D01*
X199067Y31846D01*
Y31989D01*
X199087Y32131D01*
X199168Y32497D01*
X199290Y32884D01*
X199453Y33291D01*
X199697Y33678D01*
X199860Y33861D01*
X200023Y34023D01*
X200043Y34044D01*
X200063Y34064D01*
X200124Y34105D01*
X200206Y34166D01*
X200308Y34227D01*
X200430Y34288D01*
X200572Y34369D01*
X200735Y34451D01*
X200918Y34532D01*
X201121Y34613D01*
X201345Y34674D01*
X201589Y34736D01*
X201854Y34797D01*
X202159Y34837D01*
X202790Y34878D01*
X209178D01*
Y33210D01*
D02*
G37*
G36*
X235554Y23759D02*
X233825D01*
Y25631D01*
X235554D01*
Y23759D01*
D02*
G37*
G36*
X215367Y21776D02*
X213638D01*
Y23647D01*
X215367D01*
Y21776D01*
D02*
G37*
G36*
X247578Y25509D02*
X247721D01*
X247883Y25489D01*
X248270Y25427D01*
X248697Y25305D01*
X249145Y25143D01*
X249552Y24939D01*
X249735Y24797D01*
X249918Y24634D01*
X249958Y24593D01*
X250060Y24471D01*
X250203Y24288D01*
X250365Y24003D01*
X250528Y23678D01*
X250671Y23271D01*
X250772Y22803D01*
X250793Y22538D01*
X250813Y22274D01*
Y22132D01*
X250793Y22030D01*
Y21887D01*
X250772Y21725D01*
X250752Y21542D01*
X250732Y21338D01*
Y21318D01*
X250711Y21257D01*
Y21135D01*
X250691Y21012D01*
X250630Y20707D01*
X250548Y20382D01*
X248982D01*
Y20504D01*
X249002Y20524D01*
X249023Y20585D01*
X249043Y20667D01*
X249104Y20870D01*
X249185Y21135D01*
Y21155D01*
X249206Y21196D01*
X249226Y21277D01*
X249246Y21399D01*
X249307Y21643D01*
X249328Y21948D01*
Y22050D01*
X249307Y22172D01*
Y22315D01*
X249246Y22640D01*
X249206Y22803D01*
X249145Y22966D01*
Y22986D01*
X249104Y23027D01*
X249063Y23108D01*
X249002Y23189D01*
X248839Y23373D01*
X248616Y23535D01*
X248595D01*
X248555Y23576D01*
X248473Y23596D01*
X248372Y23637D01*
X248249Y23698D01*
X248087Y23739D01*
X247741Y23800D01*
X247721D01*
X247659Y23820D01*
X247558D01*
X247415Y23840D01*
X247232D01*
X247029Y23861D01*
X246805D01*
X246561D01*
X238606D01*
Y21806D01*
X237202D01*
Y25529D01*
X247293D01*
X247314D01*
X247375D01*
X247456D01*
X247578Y25509D01*
D02*
G37*
G36*
X267256Y19965D02*
X253523D01*
Y21633D01*
X267256D01*
Y19965D01*
D02*
G37*
G36*
X227391Y23525D02*
X227534D01*
X227697Y23505D01*
X228083Y23444D01*
X228510Y23322D01*
X228958Y23159D01*
X229365Y22956D01*
X229548Y22813D01*
X229731Y22650D01*
X229772Y22610D01*
X229874Y22488D01*
X230016Y22304D01*
X230179Y22020D01*
X230341Y21694D01*
X230484Y21287D01*
X230586Y20819D01*
X230606Y20555D01*
X230626Y20290D01*
Y20148D01*
X230606Y20046D01*
Y19904D01*
X230586Y19741D01*
X230565Y19558D01*
X230545Y19354D01*
Y19334D01*
X230525Y19273D01*
Y19151D01*
X230504Y19029D01*
X230443Y18724D01*
X230362Y18398D01*
X228795D01*
Y18520D01*
X228816Y18541D01*
X228836Y18602D01*
X228856Y18683D01*
X228917Y18886D01*
X228999Y19151D01*
Y19171D01*
X229019Y19212D01*
X229039Y19293D01*
X229060Y19415D01*
X229121Y19660D01*
X229141Y19965D01*
Y20066D01*
X229121Y20189D01*
Y20331D01*
X229060Y20656D01*
X229019Y20819D01*
X228958Y20982D01*
Y21002D01*
X228917Y21043D01*
X228877Y21124D01*
X228816Y21206D01*
X228653Y21389D01*
X228429Y21552D01*
X228409D01*
X228368Y21592D01*
X228287Y21613D01*
X228185Y21653D01*
X228063Y21714D01*
X227900Y21755D01*
X227554Y21816D01*
X227534D01*
X227473Y21837D01*
X227371D01*
X227229Y21857D01*
X227045D01*
X226842Y21877D01*
X226618D01*
X226374D01*
X218419D01*
Y19822D01*
X217015D01*
Y23545D01*
X227107D01*
X227127D01*
X227188D01*
X227269D01*
X227391Y23525D01*
D02*
G37*
G36*
X206554Y24237D02*
X206676Y24217D01*
X206798Y24197D01*
X207103Y24115D01*
X207469Y23993D01*
X207835Y23790D01*
X208018Y23668D01*
X208202Y23505D01*
X208385Y23342D01*
X208547Y23139D01*
Y23118D01*
X208588Y23078D01*
X208629Y23017D01*
X208690Y22935D01*
X208751Y22813D01*
X208812Y22691D01*
X208893Y22528D01*
X208975Y22345D01*
X209056Y22121D01*
X209137Y21898D01*
X209199Y21653D01*
X209260Y21389D01*
X209321Y21084D01*
X209361Y20779D01*
X209402Y20087D01*
Y19904D01*
X209382Y19700D01*
X209361Y19415D01*
X209341Y19110D01*
X209300Y18764D01*
X209239Y18419D01*
X209158Y18073D01*
X209137Y18032D01*
X209117Y17930D01*
X209056Y17747D01*
X208995Y17544D01*
X208893Y17299D01*
X208812Y17035D01*
X208690Y16791D01*
X208588Y16547D01*
X206716D01*
Y16628D01*
X206737Y16669D01*
X206818Y16770D01*
X206920Y16933D01*
X207062Y17137D01*
X207205Y17381D01*
X207367Y17686D01*
X207510Y18012D01*
X207652Y18357D01*
Y18378D01*
X207673Y18398D01*
X207713Y18520D01*
X207754Y18703D01*
X207815Y18947D01*
X207896Y19232D01*
X207937Y19558D01*
X207978Y19883D01*
X207998Y20209D01*
Y20392D01*
X207978Y20596D01*
X207957Y20840D01*
X207917Y21104D01*
X207856Y21389D01*
X207774Y21674D01*
X207652Y21918D01*
X207632Y21938D01*
X207591Y22020D01*
X207510Y22121D01*
X207388Y22243D01*
X207225Y22345D01*
X207042Y22447D01*
X206818Y22528D01*
X206554Y22549D01*
X206533D01*
X206452D01*
X206350Y22528D01*
X206228Y22508D01*
X206065Y22467D01*
X205923Y22406D01*
X205781Y22325D01*
X205658Y22203D01*
X205638Y22182D01*
X205597Y22142D01*
X205557Y22040D01*
X205475Y21918D01*
X205394Y21755D01*
X205313Y21531D01*
X205231Y21247D01*
X205150Y20921D01*
Y20901D01*
X205130Y20860D01*
X205109Y20779D01*
X205089Y20677D01*
X205068Y20534D01*
X205028Y20372D01*
X205007Y20189D01*
X204967Y19985D01*
Y19965D01*
X204946Y19883D01*
X204926Y19782D01*
X204906Y19660D01*
X204865Y19497D01*
X204824Y19334D01*
X204743Y18968D01*
Y18947D01*
X204723Y18907D01*
X204702Y18846D01*
X204682Y18764D01*
X204601Y18520D01*
X204478Y18256D01*
X204336Y17951D01*
X204173Y17645D01*
X203970Y17361D01*
X203726Y17116D01*
X203685Y17096D01*
X203604Y17035D01*
X203461Y16954D01*
X203258Y16852D01*
X203034Y16750D01*
X202749Y16669D01*
X202423Y16608D01*
X202078Y16587D01*
X202057D01*
X201976D01*
X201854Y16608D01*
X201712Y16628D01*
X201528Y16648D01*
X201345Y16689D01*
X201142Y16750D01*
X200938Y16832D01*
X200918Y16852D01*
X200857Y16872D01*
X200755Y16933D01*
X200613Y17015D01*
X200470Y17116D01*
X200308Y17259D01*
X200145Y17401D01*
X199982Y17584D01*
X199962Y17605D01*
X199901Y17686D01*
X199840Y17788D01*
X199738Y17930D01*
X199636Y18113D01*
X199514Y18337D01*
X199412Y18581D01*
X199311Y18846D01*
X199290Y18886D01*
X199270Y18988D01*
X199229Y19131D01*
X199189Y19354D01*
X199148Y19598D01*
X199107Y19904D01*
X199067Y20209D01*
Y20717D01*
X199087Y20880D01*
Y21124D01*
X199128Y21389D01*
X199168Y21694D01*
X199209Y22020D01*
X199290Y22345D01*
Y22386D01*
X199331Y22508D01*
X199372Y22671D01*
X199433Y22874D01*
X199514Y23118D01*
X199616Y23383D01*
X199718Y23627D01*
X199819Y23871D01*
X201589D01*
Y23769D01*
X201569Y23749D01*
X201508Y23647D01*
X201427Y23525D01*
X201305Y23342D01*
X201182Y23118D01*
X201060Y22854D01*
X200918Y22549D01*
X200796Y22223D01*
X200776Y22182D01*
X200735Y22060D01*
X200694Y21898D01*
X200633Y21674D01*
X200572Y21389D01*
X200511Y21104D01*
X200491Y20779D01*
X200470Y20453D01*
Y20311D01*
X200491Y20127D01*
X200511Y19924D01*
X200552Y19680D01*
X200633Y19415D01*
X200714Y19151D01*
X200837Y18907D01*
X200857Y18886D01*
X200898Y18805D01*
X200979Y18724D01*
X201101Y18602D01*
X201243Y18500D01*
X201427Y18398D01*
X201630Y18317D01*
X201874Y18296D01*
X201895D01*
X201976D01*
X202078Y18317D01*
X202220Y18337D01*
X202362Y18378D01*
X202525Y18459D01*
X202668Y18541D01*
X202790Y18663D01*
X202810Y18683D01*
X202831Y18724D01*
X202892Y18825D01*
X202973Y18947D01*
X203034Y19110D01*
X203115Y19334D01*
X203197Y19578D01*
X203278Y19863D01*
Y19883D01*
X203298Y19944D01*
X203319Y20046D01*
X203359Y20168D01*
X203380Y20331D01*
X203421Y20494D01*
X203502Y20901D01*
Y20921D01*
X203522Y21002D01*
X203542Y21104D01*
X203563Y21226D01*
X203624Y21531D01*
X203685Y21837D01*
Y21857D01*
X203705Y21898D01*
Y21938D01*
X203726Y22020D01*
X203807Y22243D01*
X203888Y22488D01*
X204031Y22793D01*
X204173Y23078D01*
X204377Y23362D01*
X204601Y23627D01*
X204621Y23647D01*
X204723Y23729D01*
X204865Y23830D01*
X205068Y23953D01*
X205313Y24054D01*
X205597Y24156D01*
X205943Y24237D01*
X206330Y24258D01*
X206350D01*
X206391D01*
X206452D01*
X206554Y24237D01*
D02*
G37*
G36*
X197724Y21531D02*
Y19517D01*
X194367Y17523D01*
Y18907D01*
X196646Y20555D01*
X194367Y22162D01*
Y23545D01*
X197724Y21531D01*
D02*
G37*
G36*
X247069Y12630D02*
X233926D01*
Y14380D01*
X245523D01*
Y20951D01*
X247069D01*
Y12630D01*
D02*
G37*
G36*
X209178Y12274D02*
X199311D01*
Y13943D01*
X209178D01*
Y12274D01*
D02*
G37*
G36*
X197663Y12172D02*
X195933D01*
Y14044D01*
X197663D01*
Y12172D01*
D02*
G37*
G36*
X222142Y10789D02*
X222183D01*
X222305D01*
X222468Y10809D01*
X222692Y10830D01*
X222936Y10850D01*
X223200Y10911D01*
X223465Y10972D01*
X223729Y11054D01*
X223750Y11074D01*
X223831Y11094D01*
X223973Y11155D01*
X224116Y11257D01*
X224299Y11359D01*
X224482Y11481D01*
X224665Y11644D01*
X224828Y11806D01*
X224848Y11827D01*
X224889Y11888D01*
X224970Y11989D01*
X225072Y12111D01*
X225174Y12274D01*
X225275Y12457D01*
X225377Y12661D01*
X225459Y12885D01*
Y12905D01*
X225499Y13007D01*
X225520Y13129D01*
X225560Y13312D01*
X225601Y13515D01*
X225621Y13759D01*
X225662Y14004D01*
Y14471D01*
X225642Y14655D01*
X225621Y14919D01*
X225560Y15224D01*
X225499Y15570D01*
X225398Y15936D01*
X225275Y16323D01*
Y16343D01*
X225255Y16364D01*
X225215Y16486D01*
X225133Y16669D01*
X225011Y16893D01*
X224767Y17361D01*
X224604Y17584D01*
X224462Y17767D01*
Y17869D01*
X226293D01*
X226313Y17829D01*
X226354Y17727D01*
X226415Y17544D01*
X226496Y17340D01*
X226598Y17076D01*
X226679Y16770D01*
X226781Y16465D01*
X226883Y16140D01*
Y16099D01*
X226924Y15997D01*
X226944Y15814D01*
X226985Y15590D01*
X227025Y15306D01*
X227066Y15000D01*
X227086Y14655D01*
X227107Y14309D01*
Y14065D01*
X227086Y13902D01*
X227066Y13698D01*
X227045Y13454D01*
X227005Y13190D01*
X226944Y12905D01*
X226781Y12294D01*
X226679Y11969D01*
X226557Y11644D01*
X226395Y11338D01*
X226211Y11033D01*
X226008Y10728D01*
X225784Y10464D01*
X225764Y10443D01*
X225723Y10402D01*
X225642Y10341D01*
X225540Y10260D01*
X225398Y10138D01*
X225235Y10036D01*
X225031Y9914D01*
X224808Y9792D01*
X224563Y9650D01*
X224279Y9528D01*
X223973Y9426D01*
X223627Y9324D01*
X223282Y9222D01*
X222875Y9161D01*
X222468Y9121D01*
X222020Y9100D01*
X222000D01*
X221919D01*
X221796D01*
X221613Y9121D01*
X221410Y9141D01*
X221186Y9161D01*
X220922Y9202D01*
X220637Y9263D01*
X220026Y9426D01*
X219701Y9528D01*
X219375Y9650D01*
X219050Y9812D01*
X218745Y9995D01*
X218460Y10199D01*
X218175Y10423D01*
X218155Y10443D01*
X218114Y10484D01*
X218053Y10565D01*
X217951Y10667D01*
X217849Y10789D01*
X217727Y10952D01*
X217585Y11135D01*
X217463Y11359D01*
X217320Y11582D01*
X217198Y11847D01*
X217076Y12132D01*
X216975Y12457D01*
X216873Y12783D01*
X216812Y13129D01*
X216771Y13515D01*
X216751Y13902D01*
Y14085D01*
X216771Y14227D01*
X216791Y14390D01*
X216812Y14594D01*
X216852Y14797D01*
X216893Y15041D01*
X217036Y15530D01*
X217137Y15794D01*
X217239Y16038D01*
X217381Y16282D01*
X217544Y16526D01*
X217727Y16770D01*
X217931Y16974D01*
X217951Y16994D01*
X217992Y17015D01*
X218053Y17076D01*
X218155Y17137D01*
X218256Y17239D01*
X218419Y17320D01*
X218582Y17422D01*
X218785Y17523D01*
X219009Y17625D01*
X219253Y17727D01*
X219518Y17829D01*
X219823Y17910D01*
X220149Y17971D01*
X220494Y18032D01*
X220861Y18052D01*
X221247Y18073D01*
X222142D01*
Y10789D01*
D02*
G37*
G36*
X267256Y15102D02*
X266198D01*
X266219Y15062D01*
X266320Y14939D01*
X266442Y14756D01*
X266625Y14492D01*
X266646Y14471D01*
X266666Y14431D01*
X266727Y14349D01*
X266768Y14268D01*
X266910Y14044D01*
X267053Y13780D01*
Y13759D01*
X267093Y13698D01*
X267114Y13617D01*
X267175Y13495D01*
X267215Y13353D01*
X267276Y13190D01*
X267378Y12823D01*
Y12803D01*
X267399Y12722D01*
X267419Y12620D01*
X267439Y12478D01*
X267480Y12274D01*
X267500Y12071D01*
X267521Y11827D01*
Y11440D01*
X267500Y11338D01*
Y11237D01*
X267480Y11094D01*
X267419Y10789D01*
X267297Y10443D01*
X267155Y10057D01*
X266931Y9690D01*
X266809Y9507D01*
X266646Y9324D01*
X266625D01*
X266605Y9283D01*
X266483Y9182D01*
X266300Y9039D01*
X266035Y8877D01*
X265710Y8693D01*
X265323Y8551D01*
X264876Y8449D01*
X264632Y8429D01*
X264387Y8409D01*
X264367D01*
X264347D01*
X264286D01*
X264204D01*
X264001Y8429D01*
X263736Y8470D01*
X263452Y8531D01*
X263146Y8612D01*
X262862Y8714D01*
X262577Y8877D01*
X262536Y8897D01*
X262455Y8958D01*
X262333Y9080D01*
X262170Y9222D01*
X262007Y9426D01*
X261824Y9650D01*
X261641Y9934D01*
X261478Y10240D01*
Y10260D01*
X261458Y10280D01*
X261417Y10402D01*
X261356Y10586D01*
X261275Y10850D01*
X261173Y11155D01*
X261091Y11521D01*
X261010Y11949D01*
X260949Y12396D01*
Y12457D01*
X260929Y12518D01*
Y12620D01*
X260908Y12742D01*
Y12864D01*
X260868Y13210D01*
X260827Y13617D01*
X260786Y14065D01*
X260766Y14573D01*
X260725Y15102D01*
X260481D01*
X260461D01*
X260379D01*
X260278D01*
X260156Y15082D01*
X259851Y15021D01*
X259545Y14899D01*
X259525D01*
X259484Y14858D01*
X259403Y14817D01*
X259321Y14756D01*
X259138Y14573D01*
X258955Y14329D01*
X258935Y14309D01*
X258915Y14268D01*
X258874Y14187D01*
X258833Y14085D01*
X258792Y13963D01*
X258731Y13820D01*
X258670Y13475D01*
Y13454D01*
X258650Y13393D01*
Y13291D01*
X258630Y13169D01*
X258609Y13007D01*
Y12844D01*
X258589Y12457D01*
Y12213D01*
X258609Y12030D01*
X258630Y11827D01*
X258670Y11582D01*
X258711Y11298D01*
X258772Y11013D01*
Y10972D01*
X258813Y10870D01*
X258853Y10708D01*
X258894Y10504D01*
X258976Y10260D01*
X259057Y9975D01*
X259159Y9690D01*
X259281Y9365D01*
Y9283D01*
X257612D01*
Y9304D01*
X257592Y9365D01*
X257551Y9487D01*
X257511Y9629D01*
X257470Y9833D01*
X257429Y10057D01*
X257368Y10341D01*
X257307Y10667D01*
Y10708D01*
X257287Y10830D01*
X257246Y11013D01*
X257226Y11237D01*
X257185Y11521D01*
X257165Y11827D01*
X257145Y12478D01*
Y12844D01*
X257165Y13088D01*
X257185Y13373D01*
X257226Y13678D01*
X257267Y13983D01*
X257328Y14288D01*
Y14329D01*
X257368Y14411D01*
X257409Y14573D01*
X257470Y14756D01*
X257551Y14960D01*
X257653Y15184D01*
X257775Y15407D01*
X257918Y15631D01*
X257938Y15652D01*
X257999Y15713D01*
X258080Y15814D01*
X258202Y15936D01*
X258345Y16079D01*
X258528Y16221D01*
X258752Y16343D01*
X258976Y16465D01*
X258996Y16486D01*
X259098Y16506D01*
X259220Y16567D01*
X259403Y16628D01*
X259647Y16669D01*
X259911Y16730D01*
X260217Y16750D01*
X260562Y16770D01*
X267256D01*
Y15102D01*
D02*
G37*
G36*
X226822Y7778D02*
X226842Y7717D01*
X226862Y7615D01*
X226883Y7493D01*
X226903Y7330D01*
X226944Y7168D01*
X227005Y6761D01*
Y6740D01*
X227025Y6659D01*
Y6557D01*
X227045Y6435D01*
X227066Y6109D01*
X227086Y5784D01*
Y5642D01*
X227066Y5540D01*
Y5418D01*
X227045Y5275D01*
X226985Y4929D01*
X226883Y4563D01*
X226761Y4177D01*
X226557Y3810D01*
X226293Y3485D01*
X226252Y3444D01*
X226130Y3363D01*
X226049Y3302D01*
X225947Y3241D01*
X225805Y3180D01*
X225662Y3098D01*
X225479Y3017D01*
X225296Y2956D01*
X225072Y2895D01*
X224848Y2834D01*
X224584Y2793D01*
X224299Y2752D01*
X223994Y2712D01*
X223668D01*
X218419D01*
Y1593D01*
X217015D01*
Y2712D01*
X214187D01*
Y4380D01*
X217015D01*
Y7798D01*
X218419D01*
Y4380D01*
X222936D01*
X222976D01*
X223058D01*
X223200D01*
X223383D01*
X223566D01*
X223770D01*
X223973Y4401D01*
X224156D01*
X224177D01*
X224238Y4421D01*
X224319D01*
X224421Y4441D01*
X224685Y4523D01*
X224970Y4645D01*
X224991D01*
X225031Y4685D01*
X225153Y4787D01*
X225336Y4950D01*
X225479Y5174D01*
Y5194D01*
X225499Y5235D01*
X225520Y5316D01*
X225560Y5438D01*
X225581Y5581D01*
X225621Y5764D01*
X225642Y5967D01*
Y6374D01*
X225621Y6476D01*
Y6598D01*
X225581Y6740D01*
X225520Y7066D01*
Y7086D01*
X225499Y7147D01*
X225479Y7208D01*
X225438Y7310D01*
X225377Y7513D01*
X225357Y7615D01*
X225316Y7696D01*
Y7798D01*
X226822D01*
Y7778D01*
D02*
G37*
G36*
X266666Y6944D02*
X266707Y6842D01*
X266788Y6679D01*
X266870Y6476D01*
X266971Y6232D01*
X267073Y5967D01*
X267256Y5397D01*
Y5357D01*
X267297Y5275D01*
X267317Y5113D01*
X267358Y4909D01*
X267399Y4685D01*
X267439Y4421D01*
X267460Y4116D01*
X267480Y3810D01*
Y3627D01*
X267460Y3424D01*
X267439Y3180D01*
X267399Y2875D01*
X267358Y2549D01*
X267276Y2203D01*
X267175Y1857D01*
X267155Y1817D01*
X267114Y1715D01*
X267053Y1532D01*
X266931Y1328D01*
X266809Y1084D01*
X266646Y840D01*
X266442Y576D01*
X266219Y331D01*
X266198Y311D01*
X266096Y230D01*
X265974Y108D01*
X265791Y-35D01*
X265547Y-198D01*
X265283Y-360D01*
X264977Y-523D01*
X264632Y-666D01*
X264611D01*
X264591Y-686D01*
X264530Y-706D01*
X264449Y-727D01*
X264245Y-767D01*
X263981Y-828D01*
X263655Y-910D01*
X263248Y-950D01*
X262821Y-991D01*
X262353Y-1011D01*
X262333D01*
X262251D01*
X262129D01*
X261946Y-991D01*
X261743Y-971D01*
X261519Y-950D01*
X261254Y-910D01*
X260970Y-849D01*
X260359Y-686D01*
X260034Y-584D01*
X259728Y-462D01*
X259403Y-299D01*
X259118Y-116D01*
X258813Y87D01*
X258548Y311D01*
X258528Y331D01*
X258487Y372D01*
X258426Y454D01*
X258325Y555D01*
X258223Y677D01*
X258101Y840D01*
X257979Y1023D01*
X257857Y1247D01*
X257735Y1491D01*
X257592Y1756D01*
X257490Y2041D01*
X257389Y2346D01*
X257287Y2671D01*
X257226Y3037D01*
X257185Y3404D01*
X257165Y3810D01*
Y3953D01*
X257185Y4116D01*
Y4340D01*
X257226Y4604D01*
X257267Y4868D01*
X257328Y5174D01*
X257409Y5479D01*
X257429Y5519D01*
X257450Y5621D01*
X257511Y5764D01*
X257572Y5967D01*
X257653Y6211D01*
X257755Y6455D01*
X257999Y6984D01*
X259830D01*
Y6883D01*
X259810Y6842D01*
X259728Y6761D01*
X259627Y6598D01*
X259505Y6415D01*
X259362Y6171D01*
X259220Y5906D01*
X259057Y5621D01*
X258935Y5316D01*
X258915Y5275D01*
X258874Y5174D01*
X258833Y5011D01*
X258772Y4807D01*
X258711Y4563D01*
X258650Y4299D01*
X258630Y4014D01*
X258609Y3729D01*
Y3587D01*
X258630Y3505D01*
Y3383D01*
X258650Y3241D01*
X258731Y2936D01*
X258833Y2569D01*
X259016Y2203D01*
X259240Y1837D01*
X259403Y1674D01*
X259566Y1512D01*
X259586D01*
X259606Y1471D01*
X259667Y1430D01*
X259749Y1389D01*
X259851Y1328D01*
X259972Y1247D01*
X260115Y1186D01*
X260278Y1105D01*
X260461Y1023D01*
X260664Y962D01*
X260888Y881D01*
X261153Y820D01*
X261417Y779D01*
X261702Y738D01*
X262027Y698D01*
X262353D01*
X262373D01*
X262434D01*
X262516D01*
X262638Y718D01*
X262801D01*
X262963Y738D01*
X263350Y799D01*
X263797Y901D01*
X264245Y1023D01*
X264693Y1227D01*
X265079Y1491D01*
X265120Y1532D01*
X265222Y1634D01*
X265384Y1817D01*
X265547Y2061D01*
X265730Y2386D01*
X265893Y2773D01*
X265995Y3221D01*
X266015Y3465D01*
X266035Y3729D01*
Y3912D01*
X266015Y4055D01*
Y4197D01*
X265974Y4380D01*
X265913Y4746D01*
Y4767D01*
X265893Y4828D01*
X265852Y4929D01*
X265832Y5072D01*
X265710Y5377D01*
X265567Y5703D01*
Y5723D01*
X265527Y5764D01*
X265506Y5845D01*
X265445Y5926D01*
X265323Y6150D01*
X265181Y6374D01*
Y6394D01*
X265140Y6435D01*
X265059Y6557D01*
X264937Y6720D01*
X264815Y6883D01*
Y6984D01*
X266646D01*
X266666Y6944D01*
D02*
G37*
G36*
X234944Y4940D02*
X234923Y4919D01*
Y4858D01*
X234903Y4777D01*
X234883Y4675D01*
X234862Y4553D01*
X234801Y4248D01*
Y4228D01*
X234781Y4166D01*
X234760Y4085D01*
X234740Y3983D01*
X234720Y3739D01*
X234699Y3475D01*
Y3292D01*
X234720Y3109D01*
X234760Y2885D01*
X234822Y2620D01*
X234903Y2356D01*
X235025Y2112D01*
X235188Y1908D01*
X235208Y1888D01*
X235269Y1827D01*
X235391Y1766D01*
X235574Y1684D01*
X235798Y1583D01*
X236103Y1522D01*
X236449Y1461D01*
X236876Y1440D01*
X237202D01*
Y4451D01*
X238606D01*
Y1501D01*
X247069D01*
Y-167D01*
X238606D01*
Y-1286D01*
X237202D01*
Y-167D01*
X236897D01*
X236876D01*
X236815D01*
X236734D01*
X236612Y-147D01*
X236469D01*
X236286Y-126D01*
X235900Y-65D01*
X235473Y57D01*
X235025Y199D01*
X234598Y423D01*
X234394Y545D01*
X234211Y708D01*
X234191Y728D01*
X234170Y749D01*
X234069Y871D01*
X233906Y1074D01*
X233723Y1359D01*
X233560Y1705D01*
X233397Y2132D01*
X233296Y2641D01*
X233255Y2925D01*
Y3556D01*
X233275Y3719D01*
Y3882D01*
X233316Y4228D01*
Y4309D01*
X233336Y4390D01*
X233357Y4492D01*
X233397Y4777D01*
X233438Y5062D01*
X234944D01*
Y4940D01*
D02*
G37*
G36*
X209178Y5621D02*
Y3282D01*
X196035Y-1500D01*
Y352D01*
X207632Y4502D01*
X196035Y8632D01*
Y10423D01*
X209178Y5621D01*
D02*
G37*
G36*
X267256Y-5243D02*
X257389D01*
Y-3575D01*
X267256D01*
Y-5243D01*
D02*
G37*
G36*
X255741Y-5345D02*
X254011D01*
Y-3473D01*
X255741D01*
Y-5345D01*
D02*
G37*
G36*
X226883Y-2191D02*
X225825D01*
X225845Y-2232D01*
X225947Y-2354D01*
X226069Y-2537D01*
X226252Y-2802D01*
X226272Y-2822D01*
X226293Y-2863D01*
X226354Y-2944D01*
X226395Y-3025D01*
X226537Y-3249D01*
X226679Y-3514D01*
Y-3534D01*
X226720Y-3595D01*
X226740Y-3677D01*
X226801Y-3799D01*
X226842Y-3941D01*
X226903Y-4104D01*
X227005Y-4470D01*
Y-4490D01*
X227025Y-4572D01*
X227045Y-4674D01*
X227066Y-4816D01*
X227107Y-5019D01*
X227127Y-5223D01*
X227147Y-5467D01*
Y-5854D01*
X227127Y-5955D01*
Y-6057D01*
X227107Y-6199D01*
X227045Y-6505D01*
X226924Y-6851D01*
X226781Y-7237D01*
X226557Y-7603D01*
X226435Y-7786D01*
X226272Y-7969D01*
X226252D01*
X226232Y-8010D01*
X226110Y-8112D01*
X225926Y-8254D01*
X225662Y-8417D01*
X225336Y-8600D01*
X224950Y-8743D01*
X224502Y-8844D01*
X224258Y-8865D01*
X224014Y-8885D01*
X223994D01*
X223973D01*
X223912D01*
X223831D01*
X223627Y-8865D01*
X223363Y-8824D01*
X223078Y-8763D01*
X222773Y-8682D01*
X222488Y-8580D01*
X222203Y-8417D01*
X222163Y-8397D01*
X222081Y-8336D01*
X221959Y-8214D01*
X221796Y-8071D01*
X221634Y-7868D01*
X221451Y-7644D01*
X221268Y-7359D01*
X221105Y-7054D01*
Y-7034D01*
X221084Y-7013D01*
X221044Y-6891D01*
X220983Y-6708D01*
X220901Y-6444D01*
X220800Y-6138D01*
X220718Y-5772D01*
X220637Y-5345D01*
X220576Y-4897D01*
Y-4836D01*
X220555Y-4775D01*
Y-4674D01*
X220535Y-4552D01*
Y-4429D01*
X220494Y-4083D01*
X220454Y-3677D01*
X220413Y-3229D01*
X220393Y-2720D01*
X220352Y-2191D01*
X220108D01*
X220087D01*
X220006D01*
X219904D01*
X219782Y-2212D01*
X219477Y-2273D01*
X219172Y-2395D01*
X219151D01*
X219111Y-2436D01*
X219030Y-2476D01*
X218948Y-2537D01*
X218765Y-2720D01*
X218582Y-2964D01*
X218561Y-2985D01*
X218541Y-3025D01*
X218500Y-3107D01*
X218460Y-3209D01*
X218419Y-3331D01*
X218358Y-3473D01*
X218297Y-3819D01*
Y-3839D01*
X218277Y-3900D01*
Y-4002D01*
X218256Y-4124D01*
X218236Y-4287D01*
Y-4450D01*
X218216Y-4836D01*
Y-5080D01*
X218236Y-5264D01*
X218256Y-5467D01*
X218297Y-5711D01*
X218338Y-5996D01*
X218399Y-6281D01*
Y-6321D01*
X218439Y-6423D01*
X218480Y-6586D01*
X218521Y-6789D01*
X218602Y-7034D01*
X218684Y-7318D01*
X218785Y-7603D01*
X218907Y-7929D01*
Y-8010D01*
X217239D01*
Y-7990D01*
X217219Y-7929D01*
X217178Y-7807D01*
X217137Y-7664D01*
X217097Y-7461D01*
X217056Y-7237D01*
X216995Y-6952D01*
X216934Y-6627D01*
Y-6586D01*
X216914Y-6464D01*
X216873Y-6281D01*
X216852Y-6057D01*
X216812Y-5772D01*
X216791Y-5467D01*
X216771Y-4816D01*
Y-4450D01*
X216791Y-4206D01*
X216812Y-3921D01*
X216852Y-3616D01*
X216893Y-3310D01*
X216954Y-3005D01*
Y-2964D01*
X216995Y-2883D01*
X217036Y-2720D01*
X217097Y-2537D01*
X217178Y-2334D01*
X217280Y-2110D01*
X217402Y-1886D01*
X217544Y-1662D01*
X217565Y-1642D01*
X217626Y-1581D01*
X217707Y-1479D01*
X217829Y-1357D01*
X217971Y-1215D01*
X218155Y-1072D01*
X218378Y-950D01*
X218602Y-828D01*
X218622Y-808D01*
X218724Y-788D01*
X218846Y-727D01*
X219030Y-666D01*
X219274Y-625D01*
X219538Y-564D01*
X219843Y-543D01*
X220189Y-523D01*
X226883D01*
Y-2191D01*
D02*
G37*
G36*
X242553Y-2832D02*
X242756Y-2853D01*
X242980Y-2873D01*
X243244Y-2914D01*
X243529Y-2975D01*
X244140Y-3117D01*
X244445Y-3219D01*
X244771Y-3341D01*
X245076Y-3483D01*
X245381Y-3646D01*
X245686Y-3829D01*
X245951Y-4053D01*
X245971Y-4073D01*
X246012Y-4114D01*
X246073Y-4175D01*
X246174Y-4277D01*
X246276Y-4399D01*
X246378Y-4562D01*
X246520Y-4724D01*
X246642Y-4928D01*
X246764Y-5152D01*
X246886Y-5416D01*
X247008Y-5681D01*
X247110Y-5965D01*
X247212Y-6291D01*
X247273Y-6637D01*
X247314Y-6983D01*
X247334Y-7369D01*
Y-7573D01*
X247314Y-7715D01*
X247293Y-7898D01*
X247253Y-8102D01*
X247212Y-8325D01*
X247151Y-8570D01*
X246988Y-9099D01*
X246886Y-9384D01*
X246744Y-9668D01*
X246581Y-9933D01*
X246398Y-10197D01*
X246195Y-10462D01*
X245951Y-10706D01*
X245930Y-10726D01*
X245889Y-10767D01*
X245808Y-10828D01*
X245686Y-10889D01*
X245564Y-10991D01*
X245381Y-11092D01*
X245177Y-11194D01*
X244954Y-11316D01*
X244689Y-11438D01*
X244404Y-11540D01*
X244099Y-11642D01*
X243753Y-11744D01*
X243387Y-11805D01*
X243000Y-11866D01*
X242593Y-11906D01*
X242146Y-11927D01*
X242126D01*
X242044D01*
X241922D01*
X241739Y-11906D01*
X241535Y-11886D01*
X241312Y-11866D01*
X241047Y-11825D01*
X240762Y-11764D01*
X240152Y-11622D01*
X239847Y-11520D01*
X239521Y-11418D01*
X239216Y-11276D01*
X238911Y-11113D01*
X238606Y-10930D01*
X238341Y-10706D01*
X238321Y-10686D01*
X238280Y-10645D01*
X238219Y-10584D01*
X238118Y-10482D01*
X238016Y-10360D01*
X237894Y-10197D01*
X237772Y-10035D01*
X237629Y-9831D01*
X237507Y-9587D01*
X237385Y-9343D01*
X237263Y-9078D01*
X237161Y-8773D01*
X237059Y-8448D01*
X236999Y-8122D01*
X236958Y-7756D01*
X236938Y-7369D01*
Y-7166D01*
X236958Y-7023D01*
X236978Y-6840D01*
X237019Y-6637D01*
X237059Y-6413D01*
X237121Y-6169D01*
X237182Y-5925D01*
X237283Y-5640D01*
X237385Y-5375D01*
X237528Y-5091D01*
X237690Y-4826D01*
X237873Y-4541D01*
X238097Y-4297D01*
X238341Y-4053D01*
X238362Y-4033D01*
X238402Y-3992D01*
X238484Y-3931D01*
X238606Y-3850D01*
X238748Y-3768D01*
X238911Y-3666D01*
X239114Y-3544D01*
X239338Y-3422D01*
X239603Y-3321D01*
X239888Y-3198D01*
X240193Y-3097D01*
X240539Y-2995D01*
X240905Y-2934D01*
X241291Y-2873D01*
X241698Y-2832D01*
X242146Y-2812D01*
X242166D01*
X242248D01*
X242370D01*
X242553Y-2832D01*
D02*
G37*
G36*
X259199Y-6932D02*
X259179Y-6973D01*
Y-7054D01*
X259159Y-7135D01*
X259118Y-7359D01*
X259077Y-7624D01*
Y-7685D01*
X259057Y-7766D01*
Y-7969D01*
X259037Y-8112D01*
Y-8559D01*
X259057Y-8722D01*
X259077Y-8905D01*
X259118Y-9129D01*
X259179Y-9394D01*
X259260Y-9658D01*
X259382Y-9923D01*
X259403Y-9963D01*
X259444Y-10045D01*
X259525Y-10187D01*
X259627Y-10350D01*
X259749Y-10574D01*
X259891Y-10797D01*
X260074Y-11042D01*
X260257Y-11286D01*
X267256D01*
Y-12954D01*
X257389D01*
Y-11286D01*
X258853D01*
Y-11265D01*
X258813Y-11245D01*
X258731Y-11123D01*
X258589Y-10940D01*
X258406Y-10696D01*
X258223Y-10431D01*
X258040Y-10146D01*
X257877Y-9841D01*
X257735Y-9556D01*
X257714Y-9516D01*
X257673Y-9434D01*
X257633Y-9272D01*
X257551Y-9089D01*
X257490Y-8844D01*
X257450Y-8600D01*
X257409Y-8315D01*
X257389Y-8030D01*
Y-7786D01*
X257409Y-7583D01*
Y-7502D01*
X257429Y-7420D01*
Y-7380D01*
X257450Y-7257D01*
X257470Y-7074D01*
X257511Y-6810D01*
X259199D01*
Y-6932D01*
D02*
G37*
G36*
X209178Y-11327D02*
X203583D01*
X203542D01*
X203461D01*
X203339D01*
X203156D01*
X202973Y-11347D01*
X202749Y-11367D01*
X202302Y-11408D01*
X202281D01*
X202200Y-11428D01*
X202098Y-11449D01*
X201956Y-11469D01*
X201650Y-11571D01*
X201508Y-11632D01*
X201366Y-11713D01*
X201345D01*
X201305Y-11754D01*
X201243Y-11815D01*
X201162Y-11876D01*
X200979Y-12079D01*
X200816Y-12344D01*
Y-12364D01*
X200796Y-12425D01*
X200755Y-12507D01*
X200714Y-12629D01*
X200694Y-12791D01*
X200653Y-12974D01*
X200633Y-13178D01*
Y-13544D01*
X200653Y-13666D01*
X200674Y-13849D01*
X200714Y-14073D01*
X200776Y-14297D01*
X200857Y-14561D01*
X200979Y-14846D01*
X200999Y-14887D01*
X201040Y-14968D01*
X201101Y-15111D01*
X201203Y-15294D01*
X201325Y-15518D01*
X201467Y-15741D01*
X201650Y-16006D01*
X201833Y-16250D01*
X209178D01*
Y-17918D01*
X199311D01*
Y-16250D01*
X200430D01*
X200409Y-16209D01*
X200328Y-16108D01*
X200206Y-15965D01*
X200063Y-15762D01*
X199901Y-15518D01*
X199718Y-15253D01*
X199555Y-14968D01*
X199412Y-14663D01*
X199392Y-14622D01*
X199351Y-14521D01*
X199290Y-14358D01*
X199229Y-14134D01*
X199168Y-13870D01*
X199107Y-13585D01*
X199067Y-13280D01*
X199046Y-12954D01*
Y-12791D01*
X199067Y-12690D01*
Y-12547D01*
X199087Y-12405D01*
X199168Y-12039D01*
X199290Y-11652D01*
X199453Y-11245D01*
X199697Y-10859D01*
X199860Y-10675D01*
X200023Y-10513D01*
X200043Y-10492D01*
X200063Y-10472D01*
X200124Y-10431D01*
X200206Y-10370D01*
X200308Y-10309D01*
X200430Y-10248D01*
X200572Y-10167D01*
X200735Y-10085D01*
X200918Y-10004D01*
X201121Y-9923D01*
X201345Y-9862D01*
X201589Y-9801D01*
X201854Y-9740D01*
X202159Y-9699D01*
X202790Y-9658D01*
X209178D01*
Y-11327D01*
D02*
G37*
G36*
X267195Y-14968D02*
X267215Y-15029D01*
X267236Y-15131D01*
X267256Y-15253D01*
X267276Y-15416D01*
X267317Y-15579D01*
X267378Y-15986D01*
Y-16006D01*
X267399Y-16087D01*
Y-16189D01*
X267419Y-16311D01*
X267439Y-16637D01*
X267460Y-16962D01*
Y-17105D01*
X267439Y-17206D01*
Y-17328D01*
X267419Y-17471D01*
X267358Y-17817D01*
X267256Y-18183D01*
X267134Y-18569D01*
X266931Y-18936D01*
X266666Y-19261D01*
X266625Y-19302D01*
X266503Y-19383D01*
X266422Y-19444D01*
X266320Y-19505D01*
X266178Y-19566D01*
X266035Y-19648D01*
X265852Y-19729D01*
X265669Y-19790D01*
X265445Y-19851D01*
X265222Y-19912D01*
X264957Y-19953D01*
X264672Y-19994D01*
X264367Y-20034D01*
X264042D01*
X258792D01*
Y-21153D01*
X257389D01*
Y-20034D01*
X254561D01*
Y-18366D01*
X257389D01*
Y-14948D01*
X258792D01*
Y-18366D01*
X263309D01*
X263350D01*
X263431D01*
X263574D01*
X263757D01*
X263940D01*
X264143D01*
X264347Y-18346D01*
X264530D01*
X264550D01*
X264611Y-18325D01*
X264693D01*
X264794Y-18305D01*
X265059Y-18224D01*
X265344Y-18102D01*
X265364D01*
X265405Y-18061D01*
X265527Y-17959D01*
X265710Y-17796D01*
X265852Y-17572D01*
Y-17552D01*
X265873Y-17512D01*
X265893Y-17430D01*
X265934Y-17308D01*
X265954Y-17166D01*
X265995Y-16983D01*
X266015Y-16779D01*
Y-16372D01*
X265995Y-16270D01*
Y-16148D01*
X265954Y-16006D01*
X265893Y-15680D01*
Y-15660D01*
X265873Y-15599D01*
X265852Y-15538D01*
X265812Y-15436D01*
X265751Y-15233D01*
X265730Y-15131D01*
X265690Y-15050D01*
Y-14948D01*
X267195D01*
Y-14968D01*
D02*
G37*
G36*
X226883Y-13341D02*
X215571D01*
X223261Y-17003D01*
Y-18040D01*
X215571Y-21662D01*
X226883D01*
Y-23290D01*
X213740D01*
Y-20930D01*
X221064Y-17410D01*
X213740Y-14032D01*
Y-11591D01*
X226883D01*
Y-13341D01*
D02*
G37*
G36*
X250711Y-25538D02*
Y-27308D01*
X246602Y-25477D01*
X237202Y-29403D01*
Y-27613D01*
X244526Y-24581D01*
X237202Y-21509D01*
Y-19760D01*
X250711Y-25538D01*
D02*
G37*
G36*
X266666Y-22232D02*
X266707Y-22333D01*
X266788Y-22496D01*
X266870Y-22699D01*
X266971Y-22944D01*
X267073Y-23208D01*
X267256Y-23778D01*
Y-23819D01*
X267297Y-23900D01*
X267317Y-24063D01*
X267358Y-24266D01*
X267399Y-24490D01*
X267439Y-24754D01*
X267460Y-25060D01*
X267480Y-25365D01*
Y-25548D01*
X267460Y-25751D01*
X267439Y-25996D01*
X267399Y-26301D01*
X267358Y-26626D01*
X267276Y-26972D01*
X267175Y-27318D01*
X267155Y-27359D01*
X267114Y-27460D01*
X267053Y-27643D01*
X266931Y-27847D01*
X266809Y-28091D01*
X266646Y-28335D01*
X266442Y-28600D01*
X266219Y-28844D01*
X266198Y-28864D01*
X266096Y-28946D01*
X265974Y-29068D01*
X265791Y-29210D01*
X265547Y-29373D01*
X265283Y-29536D01*
X264977Y-29698D01*
X264632Y-29841D01*
X264611D01*
X264591Y-29861D01*
X264530Y-29881D01*
X264449Y-29902D01*
X264245Y-29943D01*
X263981Y-30003D01*
X263655Y-30085D01*
X263248Y-30126D01*
X262821Y-30166D01*
X262353Y-30187D01*
X262333D01*
X262251D01*
X262129D01*
X261946Y-30166D01*
X261743Y-30146D01*
X261519Y-30126D01*
X261254Y-30085D01*
X260970Y-30024D01*
X260359Y-29861D01*
X260034Y-29759D01*
X259728Y-29637D01*
X259403Y-29475D01*
X259118Y-29292D01*
X258813Y-29088D01*
X258548Y-28864D01*
X258528Y-28844D01*
X258487Y-28803D01*
X258426Y-28722D01*
X258325Y-28620D01*
X258223Y-28498D01*
X258101Y-28335D01*
X257979Y-28152D01*
X257857Y-27928D01*
X257735Y-27684D01*
X257592Y-27420D01*
X257490Y-27135D01*
X257389Y-26830D01*
X257287Y-26504D01*
X257226Y-26138D01*
X257185Y-25772D01*
X257165Y-25365D01*
Y-25222D01*
X257185Y-25060D01*
Y-24836D01*
X257226Y-24571D01*
X257267Y-24307D01*
X257328Y-24002D01*
X257409Y-23696D01*
X257429Y-23656D01*
X257450Y-23554D01*
X257511Y-23412D01*
X257572Y-23208D01*
X257653Y-22964D01*
X257755Y-22720D01*
X257999Y-22191D01*
X259830D01*
Y-22293D01*
X259810Y-22333D01*
X259728Y-22415D01*
X259627Y-22578D01*
X259505Y-22761D01*
X259362Y-23005D01*
X259220Y-23269D01*
X259057Y-23554D01*
X258935Y-23859D01*
X258915Y-23900D01*
X258874Y-24002D01*
X258833Y-24164D01*
X258772Y-24368D01*
X258711Y-24612D01*
X258650Y-24876D01*
X258630Y-25161D01*
X258609Y-25446D01*
Y-25589D01*
X258630Y-25670D01*
Y-25792D01*
X258650Y-25935D01*
X258731Y-26240D01*
X258833Y-26606D01*
X259016Y-26972D01*
X259240Y-27338D01*
X259403Y-27501D01*
X259566Y-27664D01*
X259586D01*
X259606Y-27705D01*
X259667Y-27745D01*
X259749Y-27786D01*
X259851Y-27847D01*
X259972Y-27928D01*
X260115Y-27989D01*
X260278Y-28071D01*
X260461Y-28152D01*
X260664Y-28213D01*
X260888Y-28294D01*
X261153Y-28356D01*
X261417Y-28396D01*
X261702Y-28437D01*
X262027Y-28478D01*
X262353D01*
X262373D01*
X262434D01*
X262516D01*
X262638Y-28457D01*
X262801D01*
X262963Y-28437D01*
X263350Y-28376D01*
X263797Y-28274D01*
X264245Y-28152D01*
X264693Y-27949D01*
X265079Y-27684D01*
X265120Y-27643D01*
X265222Y-27542D01*
X265384Y-27359D01*
X265547Y-27115D01*
X265730Y-26789D01*
X265893Y-26402D01*
X265995Y-25955D01*
X266015Y-25711D01*
X266035Y-25446D01*
Y-25263D01*
X266015Y-25121D01*
Y-24978D01*
X265974Y-24795D01*
X265913Y-24429D01*
Y-24409D01*
X265893Y-24348D01*
X265852Y-24246D01*
X265832Y-24103D01*
X265710Y-23798D01*
X265567Y-23473D01*
Y-23452D01*
X265527Y-23412D01*
X265506Y-23330D01*
X265445Y-23249D01*
X265323Y-23025D01*
X265181Y-22801D01*
Y-22781D01*
X265140Y-22740D01*
X265059Y-22618D01*
X264937Y-22455D01*
X264815Y-22293D01*
Y-22191D01*
X266646D01*
X266666Y-22232D01*
D02*
G37*
G36*
X204438Y-27705D02*
X204478D01*
X204601D01*
X204763Y-27684D01*
X204987Y-27664D01*
X205231Y-27643D01*
X205496Y-27582D01*
X205760Y-27521D01*
X206025Y-27440D01*
X206045Y-27420D01*
X206126Y-27399D01*
X206269Y-27338D01*
X206411Y-27237D01*
X206594Y-27135D01*
X206777Y-27013D01*
X206961Y-26850D01*
X207123Y-26687D01*
X207144Y-26667D01*
X207184Y-26606D01*
X207266Y-26504D01*
X207367Y-26382D01*
X207469Y-26219D01*
X207571Y-26036D01*
X207673Y-25833D01*
X207754Y-25609D01*
Y-25589D01*
X207795Y-25487D01*
X207815Y-25365D01*
X207856Y-25182D01*
X207896Y-24978D01*
X207917Y-24734D01*
X207957Y-24490D01*
Y-24022D01*
X207937Y-23839D01*
X207917Y-23574D01*
X207856Y-23269D01*
X207795Y-22923D01*
X207693Y-22557D01*
X207571Y-22171D01*
Y-22150D01*
X207551Y-22130D01*
X207510Y-22008D01*
X207428Y-21825D01*
X207306Y-21601D01*
X207062Y-21133D01*
X206900Y-20909D01*
X206757Y-20726D01*
Y-20624D01*
X208588D01*
X208608Y-20665D01*
X208649Y-20767D01*
X208710Y-20950D01*
X208792Y-21153D01*
X208893Y-21418D01*
X208975Y-21723D01*
X209076Y-22028D01*
X209178Y-22354D01*
Y-22394D01*
X209219Y-22496D01*
X209239Y-22679D01*
X209280Y-22903D01*
X209321Y-23188D01*
X209361Y-23493D01*
X209382Y-23839D01*
X209402Y-24185D01*
Y-24429D01*
X209382Y-24592D01*
X209361Y-24795D01*
X209341Y-25039D01*
X209300Y-25304D01*
X209239Y-25589D01*
X209076Y-26199D01*
X208975Y-26525D01*
X208853Y-26850D01*
X208690Y-27155D01*
X208507Y-27460D01*
X208303Y-27766D01*
X208080Y-28030D01*
X208059Y-28050D01*
X208018Y-28091D01*
X207937Y-28152D01*
X207835Y-28233D01*
X207693Y-28356D01*
X207530Y-28457D01*
X207327Y-28579D01*
X207103Y-28701D01*
X206859Y-28844D01*
X206574Y-28966D01*
X206269Y-29068D01*
X205923Y-29169D01*
X205577Y-29271D01*
X205170Y-29332D01*
X204763Y-29373D01*
X204316Y-29393D01*
X204295D01*
X204214D01*
X204092D01*
X203909Y-29373D01*
X203705Y-29353D01*
X203482Y-29332D01*
X203217Y-29292D01*
X202932Y-29230D01*
X202322Y-29068D01*
X201996Y-28966D01*
X201671Y-28844D01*
X201345Y-28681D01*
X201040Y-28498D01*
X200755Y-28294D01*
X200470Y-28071D01*
X200450Y-28050D01*
X200409Y-28010D01*
X200348Y-27928D01*
X200247Y-27827D01*
X200145Y-27705D01*
X200023Y-27542D01*
X199880Y-27359D01*
X199758Y-27135D01*
X199616Y-26911D01*
X199494Y-26647D01*
X199372Y-26362D01*
X199270Y-26036D01*
X199168Y-25711D01*
X199107Y-25365D01*
X199067Y-24978D01*
X199046Y-24592D01*
Y-24409D01*
X199067Y-24266D01*
X199087Y-24103D01*
X199107Y-23900D01*
X199148Y-23696D01*
X199189Y-23452D01*
X199331Y-22964D01*
X199433Y-22699D01*
X199534Y-22455D01*
X199677Y-22211D01*
X199840Y-21967D01*
X200023Y-21723D01*
X200226Y-21519D01*
X200247Y-21499D01*
X200287Y-21479D01*
X200348Y-21418D01*
X200450Y-21357D01*
X200552Y-21255D01*
X200714Y-21174D01*
X200877Y-21072D01*
X201081Y-20970D01*
X201305Y-20868D01*
X201549Y-20767D01*
X201813Y-20665D01*
X202118Y-20584D01*
X202444Y-20523D01*
X202790Y-20462D01*
X203156Y-20441D01*
X203542Y-20421D01*
X204438D01*
Y-27705D01*
D02*
G37*
G36*
X247008Y-30319D02*
X247029Y-30380D01*
X247049Y-30482D01*
X247069Y-30604D01*
X247090Y-30766D01*
X247131Y-30929D01*
X247192Y-31336D01*
Y-31356D01*
X247212Y-31438D01*
Y-31540D01*
X247232Y-31662D01*
X247253Y-31987D01*
X247273Y-32313D01*
Y-32455D01*
X247253Y-32557D01*
Y-32679D01*
X247232Y-32821D01*
X247171Y-33167D01*
X247069Y-33533D01*
X246947Y-33920D01*
X246744Y-34286D01*
X246479Y-34612D01*
X246439Y-34653D01*
X246317Y-34734D01*
X246235Y-34795D01*
X246134Y-34856D01*
X245991Y-34917D01*
X245849Y-34998D01*
X245666Y-35080D01*
X245483Y-35141D01*
X245259Y-35202D01*
X245035Y-35263D01*
X244771Y-35303D01*
X244486Y-35344D01*
X244180Y-35385D01*
X243855D01*
X238606D01*
Y-36504D01*
X237202D01*
Y-35385D01*
X234374D01*
Y-33717D01*
X237202D01*
Y-30299D01*
X238606D01*
Y-33717D01*
X243123D01*
X243163D01*
X243244D01*
X243387D01*
X243570D01*
X243753D01*
X243957D01*
X244160Y-33696D01*
X244343D01*
X244363D01*
X244425Y-33676D01*
X244506D01*
X244608Y-33656D01*
X244872Y-33574D01*
X245157Y-33452D01*
X245177D01*
X245218Y-33411D01*
X245340Y-33310D01*
X245523Y-33147D01*
X245666Y-32923D01*
Y-32903D01*
X245686Y-32862D01*
X245706Y-32781D01*
X245747Y-32659D01*
X245767Y-32516D01*
X245808Y-32333D01*
X245828Y-32130D01*
Y-31723D01*
X245808Y-31621D01*
Y-31499D01*
X245767Y-31356D01*
X245706Y-31031D01*
Y-31011D01*
X245686Y-30950D01*
X245666Y-30889D01*
X245625Y-30787D01*
X245564Y-30583D01*
X245544Y-30482D01*
X245503Y-30400D01*
Y-30299D01*
X247008D01*
Y-30319D01*
D02*
G37*
G36*
X226883Y-35761D02*
X224360D01*
Y-33645D01*
X226883D01*
Y-35761D01*
D02*
G37*
G36*
X247069Y-40349D02*
X237202D01*
Y-38681D01*
X247069D01*
Y-40349D01*
D02*
G37*
G36*
X235554Y-40451D02*
X233825D01*
Y-38579D01*
X235554D01*
Y-40451D01*
D02*
G37*
G36*
X262516Y-39281D02*
X262556D01*
X262679D01*
X262841Y-39261D01*
X263065Y-39240D01*
X263309Y-39220D01*
X263574Y-39159D01*
X263838Y-39098D01*
X264103Y-39017D01*
X264123Y-38996D01*
X264204Y-38976D01*
X264347Y-38915D01*
X264489Y-38813D01*
X264672Y-38711D01*
X264855Y-38589D01*
X265039Y-38426D01*
X265201Y-38264D01*
X265222Y-38243D01*
X265262Y-38182D01*
X265344Y-38081D01*
X265445Y-37959D01*
X265547Y-37796D01*
X265649Y-37613D01*
X265751Y-37409D01*
X265832Y-37185D01*
Y-37165D01*
X265873Y-37063D01*
X265893Y-36941D01*
X265934Y-36758D01*
X265974Y-36555D01*
X265995Y-36311D01*
X266035Y-36067D01*
Y-35598D01*
X266015Y-35415D01*
X265995Y-35151D01*
X265934Y-34846D01*
X265873Y-34500D01*
X265771Y-34134D01*
X265649Y-33747D01*
Y-33727D01*
X265629Y-33706D01*
X265588Y-33584D01*
X265506Y-33401D01*
X265384Y-33177D01*
X265140Y-32710D01*
X264977Y-32486D01*
X264835Y-32303D01*
Y-32201D01*
X266666D01*
X266686Y-32241D01*
X266727Y-32343D01*
X266788Y-32526D01*
X266870Y-32730D01*
X266971Y-32994D01*
X267053Y-33300D01*
X267155Y-33605D01*
X267256Y-33930D01*
Y-33971D01*
X267297Y-34073D01*
X267317Y-34256D01*
X267358Y-34479D01*
X267399Y-34764D01*
X267439Y-35070D01*
X267460Y-35415D01*
X267480Y-35761D01*
Y-36005D01*
X267460Y-36168D01*
X267439Y-36372D01*
X267419Y-36616D01*
X267378Y-36880D01*
X267317Y-37165D01*
X267155Y-37775D01*
X267053Y-38101D01*
X266931Y-38426D01*
X266768Y-38732D01*
X266585Y-39037D01*
X266381Y-39342D01*
X266157Y-39607D01*
X266137Y-39627D01*
X266096Y-39668D01*
X266015Y-39729D01*
X265913Y-39810D01*
X265771Y-39932D01*
X265608Y-40034D01*
X265405Y-40156D01*
X265181Y-40278D01*
X264937Y-40420D01*
X264652Y-40542D01*
X264347Y-40644D01*
X264001Y-40746D01*
X263655Y-40848D01*
X263248Y-40909D01*
X262841Y-40949D01*
X262394Y-40970D01*
X262373D01*
X262292D01*
X262170D01*
X261987Y-40949D01*
X261783Y-40929D01*
X261560Y-40909D01*
X261295Y-40868D01*
X261010Y-40807D01*
X260400Y-40644D01*
X260074Y-40542D01*
X259749Y-40420D01*
X259423Y-40258D01*
X259118Y-40075D01*
X258833Y-39871D01*
X258548Y-39647D01*
X258528Y-39627D01*
X258487Y-39586D01*
X258426Y-39505D01*
X258325Y-39403D01*
X258223Y-39281D01*
X258101Y-39118D01*
X257958Y-38935D01*
X257836Y-38711D01*
X257694Y-38488D01*
X257572Y-38223D01*
X257450Y-37938D01*
X257348Y-37613D01*
X257246Y-37287D01*
X257185Y-36941D01*
X257145Y-36555D01*
X257124Y-36168D01*
Y-35985D01*
X257145Y-35843D01*
X257165Y-35680D01*
X257185Y-35477D01*
X257226Y-35273D01*
X257267Y-35029D01*
X257409Y-34541D01*
X257511Y-34276D01*
X257612Y-34032D01*
X257755Y-33788D01*
X257918Y-33544D01*
X258101Y-33300D01*
X258304Y-33096D01*
X258325Y-33076D01*
X258365Y-33055D01*
X258426Y-32994D01*
X258528Y-32933D01*
X258630Y-32832D01*
X258792Y-32750D01*
X258955Y-32648D01*
X259159Y-32547D01*
X259382Y-32445D01*
X259627Y-32343D01*
X259891Y-32241D01*
X260196Y-32160D01*
X260522Y-32099D01*
X260868Y-32038D01*
X261234Y-32018D01*
X261621Y-31997D01*
X262516D01*
Y-39281D01*
D02*
G37*
G36*
X218826Y-38060D02*
X218806Y-38101D01*
Y-38182D01*
X218785Y-38264D01*
X218745Y-38488D01*
X218704Y-38752D01*
Y-38813D01*
X218684Y-38895D01*
Y-39098D01*
X218663Y-39240D01*
Y-39688D01*
X218684Y-39851D01*
X218704Y-40034D01*
X218745Y-40258D01*
X218806Y-40522D01*
X218887Y-40787D01*
X219009Y-41051D01*
X219030Y-41092D01*
X219070Y-41173D01*
X219151Y-41316D01*
X219253Y-41478D01*
X219375Y-41702D01*
X219518Y-41926D01*
X219701Y-42170D01*
X219884Y-42414D01*
X226883D01*
Y-44083D01*
X217015D01*
Y-42414D01*
X218480D01*
Y-42394D01*
X218439Y-42374D01*
X218358Y-42252D01*
X218216Y-42068D01*
X218032Y-41824D01*
X217849Y-41560D01*
X217666Y-41275D01*
X217504Y-40970D01*
X217361Y-40685D01*
X217341Y-40644D01*
X217300Y-40563D01*
X217259Y-40400D01*
X217178Y-40217D01*
X217117Y-39973D01*
X217076Y-39729D01*
X217036Y-39444D01*
X217015Y-39159D01*
Y-38915D01*
X217036Y-38711D01*
Y-38630D01*
X217056Y-38549D01*
Y-38508D01*
X217076Y-38386D01*
X217097Y-38203D01*
X217137Y-37938D01*
X218826D01*
Y-38060D01*
D02*
G37*
G36*
X267256Y-45202D02*
X253523D01*
Y-43533D01*
X267256D01*
Y-45202D01*
D02*
G37*
G36*
X209178Y-33564D02*
X203583D01*
X203563D01*
X203482D01*
X203359D01*
X203197D01*
X203014Y-33584D01*
X202810D01*
X202362Y-33625D01*
X202342D01*
X202261Y-33645D01*
X202159D01*
X202017Y-33686D01*
X201712Y-33747D01*
X201549Y-33808D01*
X201406Y-33869D01*
X201386D01*
X201345Y-33910D01*
X201284Y-33951D01*
X201203Y-34012D01*
X201020Y-34195D01*
X200837Y-34459D01*
Y-34479D01*
X200796Y-34520D01*
X200776Y-34622D01*
X200735Y-34724D01*
X200694Y-34886D01*
X200674Y-35070D01*
X200633Y-35293D01*
Y-35680D01*
X200653Y-35822D01*
X200674Y-35985D01*
X200714Y-36209D01*
X200796Y-36433D01*
X200877Y-36677D01*
X200999Y-36941D01*
X201020Y-36962D01*
X201060Y-37063D01*
X201142Y-37206D01*
X201243Y-37369D01*
X201366Y-37592D01*
X201508Y-37816D01*
X201691Y-38081D01*
X201874Y-38345D01*
X201915D01*
X202017Y-38325D01*
X202159Y-38305D01*
X202362Y-38284D01*
X202383D01*
X202403D01*
X202525Y-38264D01*
X202688D01*
X202892D01*
X209178D01*
Y-39932D01*
X203583D01*
X203563D01*
X203482D01*
X203339D01*
X203176D01*
X202993Y-39952D01*
X202790D01*
X202342Y-39993D01*
X202322D01*
X202240Y-40013D01*
X202139D01*
X201996Y-40054D01*
X201691Y-40115D01*
X201549Y-40176D01*
X201406Y-40237D01*
X201386D01*
X201345Y-40278D01*
X201264Y-40319D01*
X201182Y-40380D01*
X200999Y-40563D01*
X200837Y-40827D01*
Y-40848D01*
X200796Y-40888D01*
X200776Y-40990D01*
X200735Y-41092D01*
X200694Y-41255D01*
X200674Y-41438D01*
X200633Y-41662D01*
Y-42048D01*
X200653Y-42170D01*
X200674Y-42353D01*
X200714Y-42557D01*
X200776Y-42780D01*
X200857Y-43025D01*
X200979Y-43289D01*
X200999Y-43309D01*
X201040Y-43411D01*
X201101Y-43533D01*
X201203Y-43716D01*
X201325Y-43920D01*
X201467Y-44144D01*
X201650Y-44388D01*
X201833Y-44632D01*
X209178D01*
Y-46300D01*
X199311D01*
Y-44632D01*
X200409D01*
X200389Y-44591D01*
X200308Y-44489D01*
X200186Y-44347D01*
X200043Y-44144D01*
X199880Y-43920D01*
X199718Y-43655D01*
X199555Y-43370D01*
X199412Y-43086D01*
X199392Y-43045D01*
X199351Y-42943D01*
X199290Y-42801D01*
X199229Y-42597D01*
X199168Y-42333D01*
X199107Y-42068D01*
X199067Y-41763D01*
X199046Y-41438D01*
Y-41275D01*
X199067Y-41092D01*
X199107Y-40848D01*
X199148Y-40583D01*
X199229Y-40298D01*
X199331Y-40013D01*
X199473Y-39749D01*
X199494Y-39708D01*
X199555Y-39627D01*
X199657Y-39505D01*
X199779Y-39342D01*
X199941Y-39179D01*
X200145Y-38996D01*
X200389Y-38833D01*
X200653Y-38691D01*
X200633Y-38671D01*
X200613Y-38650D01*
X200511Y-38528D01*
X200369Y-38325D01*
X200186Y-38081D01*
X199982Y-37796D01*
X199779Y-37491D01*
X199596Y-37165D01*
X199433Y-36860D01*
X199412Y-36819D01*
X199372Y-36718D01*
X199311Y-36555D01*
X199229Y-36331D01*
X199168Y-36046D01*
X199107Y-35761D01*
X199067Y-35415D01*
X199046Y-35070D01*
Y-34907D01*
X199067Y-34805D01*
Y-34663D01*
X199107Y-34520D01*
X199168Y-34154D01*
X199290Y-33767D01*
X199473Y-33361D01*
X199575Y-33177D01*
X199718Y-32994D01*
X199860Y-32832D01*
X200043Y-32669D01*
X200063D01*
X200084Y-32628D01*
X200145Y-32587D01*
X200226Y-32547D01*
X200328Y-32486D01*
X200450Y-32425D01*
X200592Y-32364D01*
X200755Y-32282D01*
X200938Y-32201D01*
X201142Y-32140D01*
X201610Y-32018D01*
X202159Y-31936D01*
X202790Y-31896D01*
X209178D01*
Y-33564D01*
D02*
G37*
G36*
X244445Y-42730D02*
X244567Y-42750D01*
X244689Y-42770D01*
X244994Y-42852D01*
X245361Y-42974D01*
X245727Y-43177D01*
X245910Y-43299D01*
X246093Y-43462D01*
X246276Y-43625D01*
X246439Y-43828D01*
Y-43849D01*
X246479Y-43889D01*
X246520Y-43950D01*
X246581Y-44032D01*
X246642Y-44154D01*
X246703Y-44276D01*
X246785Y-44439D01*
X246866Y-44622D01*
X246947Y-44845D01*
X247029Y-45069D01*
X247090Y-45314D01*
X247151Y-45578D01*
X247212Y-45883D01*
X247253Y-46188D01*
X247293Y-46880D01*
Y-47063D01*
X247273Y-47267D01*
X247253Y-47551D01*
X247232Y-47857D01*
X247192Y-48203D01*
X247131Y-48548D01*
X247049Y-48894D01*
X247029Y-48935D01*
X247008Y-49037D01*
X246947Y-49220D01*
X246886Y-49423D01*
X246785Y-49667D01*
X246703Y-49932D01*
X246581Y-50176D01*
X246479Y-50420D01*
X244608D01*
Y-50339D01*
X244628Y-50298D01*
X244709Y-50196D01*
X244811Y-50034D01*
X244954Y-49830D01*
X245096Y-49586D01*
X245259Y-49281D01*
X245401Y-48955D01*
X245544Y-48609D01*
Y-48589D01*
X245564Y-48569D01*
X245605Y-48447D01*
X245645Y-48264D01*
X245706Y-48019D01*
X245788Y-47735D01*
X245828Y-47409D01*
X245869Y-47084D01*
X245889Y-46758D01*
Y-46575D01*
X245869Y-46371D01*
X245849Y-46127D01*
X245808Y-45863D01*
X245747Y-45578D01*
X245666Y-45293D01*
X245544Y-45049D01*
X245523Y-45029D01*
X245483Y-44947D01*
X245401Y-44845D01*
X245279Y-44724D01*
X245116Y-44622D01*
X244933Y-44520D01*
X244709Y-44439D01*
X244445Y-44418D01*
X244425D01*
X244343D01*
X244242Y-44439D01*
X244119Y-44459D01*
X243957Y-44500D01*
X243814Y-44561D01*
X243672Y-44642D01*
X243550Y-44764D01*
X243529Y-44784D01*
X243489Y-44825D01*
X243448Y-44927D01*
X243367Y-45049D01*
X243285Y-45212D01*
X243204Y-45436D01*
X243123Y-45720D01*
X243041Y-46046D01*
Y-46066D01*
X243021Y-46107D01*
X243000Y-46188D01*
X242980Y-46290D01*
X242960Y-46432D01*
X242919Y-46595D01*
X242899Y-46778D01*
X242858Y-46982D01*
Y-47002D01*
X242838Y-47084D01*
X242817Y-47185D01*
X242797Y-47307D01*
X242756Y-47470D01*
X242716Y-47633D01*
X242634Y-47999D01*
Y-48019D01*
X242614Y-48060D01*
X242593Y-48121D01*
X242573Y-48203D01*
X242492Y-48447D01*
X242370Y-48711D01*
X242227Y-49016D01*
X242064Y-49321D01*
X241861Y-49606D01*
X241617Y-49851D01*
X241576Y-49871D01*
X241495Y-49932D01*
X241352Y-50013D01*
X241149Y-50115D01*
X240925Y-50217D01*
X240640Y-50298D01*
X240315Y-50359D01*
X239969Y-50380D01*
X239949D01*
X239867D01*
X239745Y-50359D01*
X239603Y-50339D01*
X239420Y-50318D01*
X239237Y-50278D01*
X239033Y-50217D01*
X238830Y-50135D01*
X238809Y-50115D01*
X238748Y-50095D01*
X238647Y-50034D01*
X238504Y-49952D01*
X238362Y-49851D01*
X238199Y-49708D01*
X238036Y-49566D01*
X237873Y-49383D01*
X237853Y-49362D01*
X237792Y-49281D01*
X237731Y-49179D01*
X237629Y-49037D01*
X237528Y-48854D01*
X237405Y-48630D01*
X237304Y-48386D01*
X237202Y-48121D01*
X237182Y-48080D01*
X237161Y-47979D01*
X237121Y-47836D01*
X237080Y-47613D01*
X237039Y-47368D01*
X236999Y-47063D01*
X236958Y-46758D01*
Y-46249D01*
X236978Y-46087D01*
Y-45842D01*
X237019Y-45578D01*
X237059Y-45273D01*
X237100Y-44947D01*
X237182Y-44622D01*
Y-44581D01*
X237222Y-44459D01*
X237263Y-44296D01*
X237324Y-44093D01*
X237405Y-43849D01*
X237507Y-43584D01*
X237609Y-43340D01*
X237711Y-43096D01*
X239481D01*
Y-43198D01*
X239460Y-43218D01*
X239399Y-43320D01*
X239318Y-43442D01*
X239196Y-43625D01*
X239074Y-43849D01*
X238952Y-44113D01*
X238809Y-44418D01*
X238687Y-44744D01*
X238667Y-44784D01*
X238626Y-44907D01*
X238585Y-45069D01*
X238524Y-45293D01*
X238463Y-45578D01*
X238402Y-45863D01*
X238382Y-46188D01*
X238362Y-46514D01*
Y-46656D01*
X238382Y-46839D01*
X238402Y-47043D01*
X238443Y-47287D01*
X238524Y-47551D01*
X238606Y-47816D01*
X238728Y-48060D01*
X238748Y-48080D01*
X238789Y-48162D01*
X238870Y-48243D01*
X238992Y-48365D01*
X239135Y-48467D01*
X239318Y-48569D01*
X239521Y-48650D01*
X239765Y-48671D01*
X239786D01*
X239867D01*
X239969Y-48650D01*
X240111Y-48630D01*
X240254Y-48589D01*
X240417Y-48508D01*
X240559Y-48426D01*
X240681Y-48304D01*
X240701Y-48284D01*
X240722Y-48243D01*
X240783Y-48141D01*
X240864Y-48019D01*
X240925Y-47857D01*
X241007Y-47633D01*
X241088Y-47389D01*
X241169Y-47104D01*
Y-47084D01*
X241190Y-47023D01*
X241210Y-46921D01*
X241251Y-46799D01*
X241271Y-46636D01*
X241312Y-46473D01*
X241393Y-46066D01*
Y-46046D01*
X241413Y-45964D01*
X241434Y-45863D01*
X241454Y-45741D01*
X241515Y-45436D01*
X241576Y-45130D01*
Y-45110D01*
X241597Y-45069D01*
Y-45029D01*
X241617Y-44947D01*
X241698Y-44724D01*
X241780Y-44479D01*
X241922Y-44174D01*
X242064Y-43889D01*
X242268Y-43604D01*
X242492Y-43340D01*
X242512Y-43320D01*
X242614Y-43238D01*
X242756Y-43137D01*
X242960Y-43014D01*
X243204Y-42913D01*
X243489Y-42811D01*
X243835Y-42730D01*
X244221Y-42709D01*
X244242D01*
X244282D01*
X244343D01*
X244445Y-42730D01*
D02*
G37*
G36*
X267256Y-56493D02*
X254113D01*
Y-47826D01*
X255659D01*
Y-54744D01*
X259260D01*
Y-47826D01*
X260807D01*
Y-54744D01*
X265710D01*
Y-47826D01*
X267256D01*
Y-56493D01*
D02*
G37*
G36*
X226883Y-49006D02*
X225845D01*
X225865Y-49047D01*
X225947Y-49128D01*
X226069Y-49271D01*
X226211Y-49474D01*
X226354Y-49698D01*
X226517Y-49942D01*
X226679Y-50227D01*
X226822Y-50512D01*
X226842Y-50552D01*
X226862Y-50654D01*
X226924Y-50796D01*
X226985Y-51020D01*
X227045Y-51265D01*
X227086Y-51549D01*
X227127Y-51855D01*
X227147Y-52200D01*
Y-52363D01*
X227127Y-52485D01*
X227107Y-52648D01*
X227066Y-52811D01*
X226985Y-53218D01*
X226822Y-53665D01*
X226720Y-53889D01*
X226578Y-54133D01*
X226435Y-54357D01*
X226252Y-54581D01*
X226049Y-54805D01*
X225805Y-55008D01*
X225784Y-55028D01*
X225743Y-55049D01*
X225662Y-55110D01*
X225560Y-55171D01*
X225418Y-55252D01*
X225255Y-55334D01*
X225052Y-55435D01*
X224828Y-55517D01*
X224563Y-55618D01*
X224279Y-55720D01*
X223973Y-55802D01*
X223648Y-55883D01*
X223282Y-55944D01*
X222895Y-56005D01*
X222468Y-56025D01*
X222041Y-56046D01*
X222020D01*
X221980D01*
X221919D01*
X221837D01*
X221715Y-56025D01*
X221593D01*
X221288Y-56005D01*
X220942Y-55964D01*
X220555Y-55903D01*
X220169Y-55822D01*
X219803Y-55700D01*
X219782D01*
X219762Y-55679D01*
X219640Y-55639D01*
X219457Y-55557D01*
X219233Y-55435D01*
X218968Y-55293D01*
X218684Y-55130D01*
X218399Y-54947D01*
X218134Y-54723D01*
X218114Y-54703D01*
X218032Y-54622D01*
X217910Y-54499D01*
X217748Y-54337D01*
X217585Y-54133D01*
X217422Y-53889D01*
X217259Y-53625D01*
X217117Y-53340D01*
X217097Y-53299D01*
X217056Y-53197D01*
X216995Y-53035D01*
X216934Y-52831D01*
X216873Y-52567D01*
X216812Y-52282D01*
X216771Y-51997D01*
X216751Y-51671D01*
Y-51387D01*
X216771Y-51203D01*
X216791Y-50980D01*
X216832Y-50756D01*
X216934Y-50288D01*
Y-50268D01*
X216954Y-50186D01*
X216995Y-50064D01*
X217056Y-49901D01*
X217117Y-49698D01*
X217198Y-49494D01*
X217422Y-49006D01*
X213150D01*
Y-47338D01*
X226883D01*
Y-49006D01*
D02*
G37*
G36*
X239013Y-51458D02*
X238992Y-51498D01*
Y-51580D01*
X238972Y-51661D01*
X238931Y-51885D01*
X238891Y-52150D01*
Y-52211D01*
X238870Y-52292D01*
Y-52495D01*
X238850Y-52638D01*
Y-53085D01*
X238870Y-53248D01*
X238891Y-53431D01*
X238931Y-53655D01*
X238992Y-53920D01*
X239074Y-54184D01*
X239196Y-54449D01*
X239216Y-54489D01*
X239257Y-54571D01*
X239338Y-54713D01*
X239440Y-54876D01*
X239562Y-55100D01*
X239704Y-55323D01*
X239888Y-55568D01*
X240071Y-55812D01*
X247069D01*
Y-57480D01*
X237202D01*
Y-55812D01*
X238667D01*
Y-55791D01*
X238626Y-55771D01*
X238545Y-55649D01*
X238402Y-55466D01*
X238219Y-55222D01*
X238036Y-54957D01*
X237853Y-54672D01*
X237690Y-54367D01*
X237548Y-54082D01*
X237528Y-54042D01*
X237487Y-53960D01*
X237446Y-53797D01*
X237365Y-53614D01*
X237304Y-53370D01*
X237263Y-53126D01*
X237222Y-52841D01*
X237202Y-52556D01*
Y-52312D01*
X237222Y-52109D01*
Y-52028D01*
X237243Y-51946D01*
Y-51905D01*
X237263Y-51783D01*
X237283Y-51600D01*
X237324Y-51336D01*
X239013D01*
Y-51458D01*
D02*
G37*
G36*
X204662Y-48884D02*
X204865Y-48904D01*
X205089Y-48925D01*
X205353Y-48966D01*
X205638Y-49026D01*
X206248Y-49169D01*
X206554Y-49271D01*
X206879Y-49393D01*
X207184Y-49535D01*
X207490Y-49698D01*
X207795Y-49881D01*
X208059Y-50105D01*
X208080Y-50125D01*
X208120Y-50166D01*
X208181Y-50227D01*
X208283Y-50329D01*
X208385Y-50451D01*
X208486Y-50613D01*
X208629Y-50776D01*
X208751Y-50980D01*
X208873Y-51203D01*
X208995Y-51468D01*
X209117Y-51732D01*
X209219Y-52017D01*
X209321Y-52343D01*
X209382Y-52689D01*
X209422Y-53035D01*
X209443Y-53421D01*
Y-53625D01*
X209422Y-53767D01*
X209402Y-53950D01*
X209361Y-54153D01*
X209321Y-54377D01*
X209260Y-54622D01*
X209097Y-55150D01*
X208995Y-55435D01*
X208853Y-55720D01*
X208690Y-55985D01*
X208507Y-56249D01*
X208303Y-56514D01*
X208059Y-56758D01*
X208039Y-56778D01*
X207998Y-56819D01*
X207917Y-56880D01*
X207795Y-56941D01*
X207673Y-57043D01*
X207490Y-57144D01*
X207286Y-57246D01*
X207062Y-57368D01*
X206798Y-57490D01*
X206513Y-57592D01*
X206208Y-57694D01*
X205862Y-57795D01*
X205496Y-57856D01*
X205109Y-57917D01*
X204702Y-57958D01*
X204255Y-57979D01*
X204234D01*
X204153D01*
X204031D01*
X203848Y-57958D01*
X203644Y-57938D01*
X203421Y-57917D01*
X203156Y-57877D01*
X202871Y-57816D01*
X202261Y-57673D01*
X201956Y-57572D01*
X201630Y-57470D01*
X201325Y-57327D01*
X201020Y-57165D01*
X200714Y-56982D01*
X200450Y-56758D01*
X200430Y-56737D01*
X200389Y-56697D01*
X200328Y-56636D01*
X200226Y-56534D01*
X200124Y-56412D01*
X200002Y-56249D01*
X199880Y-56086D01*
X199738Y-55883D01*
X199616Y-55639D01*
X199494Y-55395D01*
X199372Y-55130D01*
X199270Y-54825D01*
X199168Y-54499D01*
X199107Y-54174D01*
X199067Y-53808D01*
X199046Y-53421D01*
Y-53218D01*
X199067Y-53075D01*
X199087Y-52892D01*
X199128Y-52689D01*
X199168Y-52465D01*
X199229Y-52221D01*
X199290Y-51977D01*
X199392Y-51692D01*
X199494Y-51427D01*
X199636Y-51142D01*
X199799Y-50878D01*
X199982Y-50593D01*
X200206Y-50349D01*
X200450Y-50105D01*
X200470Y-50085D01*
X200511Y-50044D01*
X200592Y-49983D01*
X200714Y-49901D01*
X200857Y-49820D01*
X201020Y-49718D01*
X201223Y-49596D01*
X201447Y-49474D01*
X201712Y-49372D01*
X201996Y-49250D01*
X202302Y-49149D01*
X202647Y-49047D01*
X203014Y-48986D01*
X203400Y-48925D01*
X203807Y-48884D01*
X204255Y-48864D01*
X204275D01*
X204356D01*
X204478D01*
X204662Y-48884D01*
D02*
G37*
G36*
X226883Y-67683D02*
X224360D01*
Y-65567D01*
X226883D01*
Y-67683D01*
D02*
G37*
G36*
X242329Y-67266D02*
X242370D01*
X242492D01*
X242654Y-67246D01*
X242878Y-67225D01*
X243123Y-67205D01*
X243387Y-67144D01*
X243652Y-67083D01*
X243916Y-67002D01*
X243936Y-66981D01*
X244018Y-66961D01*
X244160Y-66900D01*
X244303Y-66798D01*
X244486Y-66697D01*
X244669Y-66574D01*
X244852Y-66412D01*
X245015Y-66249D01*
X245035Y-66228D01*
X245076Y-66167D01*
X245157Y-66066D01*
X245259Y-65944D01*
X245361Y-65781D01*
X245462Y-65598D01*
X245564Y-65394D01*
X245645Y-65171D01*
Y-65150D01*
X245686Y-65048D01*
X245706Y-64926D01*
X245747Y-64743D01*
X245788Y-64540D01*
X245808Y-64296D01*
X245849Y-64052D01*
Y-63584D01*
X245828Y-63401D01*
X245808Y-63136D01*
X245747Y-62831D01*
X245686Y-62485D01*
X245584Y-62119D01*
X245462Y-61732D01*
Y-61712D01*
X245442Y-61691D01*
X245401Y-61569D01*
X245320Y-61386D01*
X245198Y-61163D01*
X244954Y-60695D01*
X244791Y-60471D01*
X244648Y-60288D01*
Y-60186D01*
X246479D01*
X246500Y-60227D01*
X246541Y-60328D01*
X246602Y-60511D01*
X246683Y-60715D01*
X246785Y-60979D01*
X246866Y-61285D01*
X246968Y-61590D01*
X247069Y-61915D01*
Y-61956D01*
X247110Y-62058D01*
X247131Y-62241D01*
X247171Y-62465D01*
X247212Y-62750D01*
X247253Y-63055D01*
X247273Y-63401D01*
X247293Y-63746D01*
Y-63991D01*
X247273Y-64153D01*
X247253Y-64357D01*
X247232Y-64601D01*
X247192Y-64865D01*
X247131Y-65150D01*
X246968Y-65761D01*
X246866Y-66086D01*
X246744Y-66412D01*
X246581Y-66717D01*
X246398Y-67022D01*
X246195Y-67327D01*
X245971Y-67592D01*
X245951Y-67612D01*
X245910Y-67653D01*
X245828Y-67714D01*
X245727Y-67795D01*
X245584Y-67917D01*
X245422Y-68019D01*
X245218Y-68141D01*
X244994Y-68263D01*
X244750Y-68405D01*
X244465Y-68528D01*
X244160Y-68629D01*
X243814Y-68731D01*
X243468Y-68833D01*
X243061Y-68894D01*
X242654Y-68934D01*
X242207Y-68955D01*
X242187D01*
X242105D01*
X241983D01*
X241800Y-68934D01*
X241597Y-68914D01*
X241373Y-68894D01*
X241108Y-68853D01*
X240823Y-68792D01*
X240213Y-68629D01*
X239888Y-68528D01*
X239562Y-68405D01*
X239237Y-68243D01*
X238931Y-68060D01*
X238647Y-67856D01*
X238362Y-67632D01*
X238341Y-67612D01*
X238301Y-67571D01*
X238240Y-67490D01*
X238138Y-67388D01*
X238036Y-67266D01*
X237914Y-67103D01*
X237772Y-66920D01*
X237650Y-66697D01*
X237507Y-66473D01*
X237385Y-66208D01*
X237263Y-65923D01*
X237161Y-65598D01*
X237059Y-65272D01*
X236999Y-64926D01*
X236958Y-64540D01*
X236938Y-64153D01*
Y-63970D01*
X236958Y-63828D01*
X236978Y-63665D01*
X236999Y-63462D01*
X237039Y-63258D01*
X237080Y-63014D01*
X237222Y-62526D01*
X237324Y-62261D01*
X237426Y-62017D01*
X237568Y-61773D01*
X237731Y-61529D01*
X237914Y-61285D01*
X238118Y-61081D01*
X238138Y-61061D01*
X238179Y-61041D01*
X238240Y-60979D01*
X238341Y-60918D01*
X238443Y-60817D01*
X238606Y-60735D01*
X238769Y-60634D01*
X238972Y-60532D01*
X239196Y-60430D01*
X239440Y-60328D01*
X239704Y-60227D01*
X240010Y-60145D01*
X240335Y-60084D01*
X240681Y-60023D01*
X241047Y-60003D01*
X241434Y-59983D01*
X242329D01*
Y-67266D01*
D02*
G37*
G36*
X255130Y-64184D02*
X255110Y-64204D01*
Y-64265D01*
X255090Y-64347D01*
X255069Y-64448D01*
X255049Y-64570D01*
X254988Y-64876D01*
Y-64896D01*
X254968Y-64957D01*
X254947Y-65038D01*
X254927Y-65140D01*
X254907Y-65384D01*
X254886Y-65649D01*
Y-65832D01*
X254907Y-66015D01*
X254947Y-66239D01*
X255008Y-66503D01*
X255090Y-66768D01*
X255212Y-67012D01*
X255375Y-67215D01*
X255395Y-67236D01*
X255456Y-67297D01*
X255578Y-67358D01*
X255761Y-67439D01*
X255985Y-67541D01*
X256290Y-67602D01*
X256636Y-67663D01*
X257063Y-67683D01*
X257389D01*
Y-64672D01*
X258792D01*
Y-67622D01*
X267256D01*
Y-69290D01*
X258792D01*
Y-70409D01*
X257389D01*
Y-69290D01*
X257083D01*
X257063D01*
X257002D01*
X256921D01*
X256799Y-69270D01*
X256656D01*
X256473Y-69250D01*
X256087Y-69189D01*
X255659Y-69067D01*
X255212Y-68924D01*
X254785Y-68700D01*
X254581Y-68578D01*
X254398Y-68416D01*
X254377Y-68395D01*
X254357Y-68375D01*
X254256Y-68253D01*
X254093Y-68049D01*
X253910Y-67765D01*
X253747Y-67419D01*
X253584Y-66992D01*
X253482Y-66483D01*
X253442Y-66198D01*
Y-65567D01*
X253462Y-65405D01*
Y-65242D01*
X253503Y-64896D01*
Y-64815D01*
X253523Y-64733D01*
X253543Y-64631D01*
X253584Y-64347D01*
X253625Y-64062D01*
X255130D01*
Y-64184D01*
D02*
G37*
G36*
X202932Y-59993D02*
X203095D01*
X203278Y-60013D01*
X203482Y-60033D01*
X203705Y-60074D01*
X204214Y-60155D01*
X204763Y-60298D01*
X205313Y-60501D01*
X205882Y-60766D01*
X205903D01*
X205943Y-60806D01*
X206025Y-60847D01*
X206126Y-60908D01*
X206248Y-60990D01*
X206391Y-61071D01*
X206696Y-61315D01*
X207062Y-61620D01*
X207449Y-61966D01*
X207815Y-62373D01*
X208141Y-62841D01*
X208161Y-62882D01*
X208222Y-63004D01*
X208324Y-63187D01*
X208446Y-63431D01*
X208568Y-63716D01*
X208710Y-64062D01*
X208832Y-64448D01*
X208934Y-64855D01*
Y-64896D01*
X208954Y-64977D01*
X208975Y-65059D01*
X208995Y-65160D01*
X209016Y-65303D01*
X209036Y-65445D01*
X209056Y-65628D01*
X209076Y-65832D01*
X209097Y-66056D01*
X209137Y-66544D01*
X209158Y-67114D01*
X209178Y-67765D01*
Y-71081D01*
X196035D01*
Y-67317D01*
X196055Y-67134D01*
Y-66930D01*
X196076Y-66707D01*
X196096Y-66218D01*
X196157Y-65710D01*
X196218Y-65201D01*
X196320Y-64753D01*
Y-64733D01*
X196340Y-64693D01*
Y-64652D01*
X196381Y-64570D01*
X196442Y-64347D01*
X196523Y-64082D01*
X196625Y-63777D01*
X196768Y-63451D01*
X196910Y-63126D01*
X197093Y-62821D01*
Y-62800D01*
X197134Y-62760D01*
X197174Y-62699D01*
X197236Y-62597D01*
X197439Y-62353D01*
X197683Y-62048D01*
X198009Y-61722D01*
X198395Y-61376D01*
X198822Y-61030D01*
X199331Y-60725D01*
X199351D01*
X199392Y-60684D01*
X199473Y-60664D01*
X199575Y-60603D01*
X199718Y-60542D01*
X199860Y-60481D01*
X200043Y-60420D01*
X200267Y-60339D01*
X200491Y-60278D01*
X200735Y-60216D01*
X201305Y-60094D01*
X201935Y-60013D01*
X202627Y-59972D01*
X202647D01*
X202708D01*
X202810D01*
X202932Y-59993D01*
D02*
G37*
G36*
X214757Y-69474D02*
X214737Y-69494D01*
Y-69555D01*
X214716Y-69636D01*
X214696Y-69738D01*
X214676Y-69860D01*
X214615Y-70165D01*
Y-70186D01*
X214594Y-70247D01*
X214574Y-70328D01*
X214554Y-70430D01*
X214533Y-70674D01*
X214513Y-70939D01*
Y-71122D01*
X214533Y-71305D01*
X214574Y-71529D01*
X214635Y-71793D01*
X214716Y-72057D01*
X214838Y-72302D01*
X215001Y-72505D01*
X215021Y-72525D01*
X215082Y-72586D01*
X215205Y-72648D01*
X215388Y-72729D01*
X215611Y-72831D01*
X215917Y-72892D01*
X216262Y-72953D01*
X216690Y-72973D01*
X217015D01*
Y-69962D01*
X218419D01*
Y-72912D01*
X226883D01*
Y-74580D01*
X218419D01*
Y-75699D01*
X217015D01*
Y-74580D01*
X216710D01*
X216690D01*
X216629D01*
X216547D01*
X216425Y-74560D01*
X216283D01*
X216100Y-74540D01*
X215713Y-74479D01*
X215286Y-74356D01*
X214838Y-74214D01*
X214411Y-73990D01*
X214208Y-73868D01*
X214025Y-73706D01*
X214004Y-73685D01*
X213984Y-73665D01*
X213882Y-73543D01*
X213719Y-73339D01*
X213536Y-73054D01*
X213373Y-72709D01*
X213211Y-72281D01*
X213109Y-71773D01*
X213068Y-71488D01*
Y-70857D01*
X213089Y-70694D01*
Y-70532D01*
X213129Y-70186D01*
Y-70104D01*
X213150Y-70023D01*
X213170Y-69921D01*
X213211Y-69636D01*
X213251Y-69352D01*
X214757D01*
Y-69474D01*
D02*
G37*
G36*
X247069Y-74428D02*
Y-76096D01*
X237202Y-80063D01*
Y-78273D01*
X245055Y-75201D01*
X237202Y-72169D01*
Y-70420D01*
X247069Y-74428D01*
D02*
G37*
G36*
X262740Y-71956D02*
X262943Y-71976D01*
X263167Y-71996D01*
X263431Y-72037D01*
X263716Y-72098D01*
X264326Y-72241D01*
X264632Y-72342D01*
X264957Y-72464D01*
X265262Y-72607D01*
X265567Y-72770D01*
X265873Y-72953D01*
X266137Y-73176D01*
X266157Y-73197D01*
X266198Y-73238D01*
X266259Y-73299D01*
X266361Y-73400D01*
X266463Y-73522D01*
X266564Y-73685D01*
X266707Y-73848D01*
X266829Y-74051D01*
X266951Y-74275D01*
X267073Y-74540D01*
X267195Y-74804D01*
X267297Y-75089D01*
X267399Y-75415D01*
X267460Y-75760D01*
X267500Y-76106D01*
X267521Y-76493D01*
Y-76696D01*
X267500Y-76839D01*
X267480Y-77022D01*
X267439Y-77225D01*
X267399Y-77449D01*
X267338Y-77693D01*
X267175Y-78222D01*
X267073Y-78507D01*
X266931Y-78792D01*
X266768Y-79056D01*
X266585Y-79321D01*
X266381Y-79585D01*
X266137Y-79829D01*
X266117Y-79850D01*
X266076Y-79890D01*
X265995Y-79952D01*
X265873Y-80013D01*
X265751Y-80114D01*
X265567Y-80216D01*
X265364Y-80318D01*
X265140Y-80440D01*
X264876Y-80562D01*
X264591Y-80664D01*
X264286Y-80765D01*
X263940Y-80867D01*
X263574Y-80928D01*
X263187Y-80989D01*
X262780Y-81030D01*
X262333Y-81050D01*
X262312D01*
X262231D01*
X262109D01*
X261926Y-81030D01*
X261722Y-81010D01*
X261498Y-80989D01*
X261234Y-80948D01*
X260949Y-80887D01*
X260339Y-80745D01*
X260034Y-80643D01*
X259708Y-80541D01*
X259403Y-80399D01*
X259098Y-80236D01*
X258792Y-80053D01*
X258528Y-79829D01*
X258508Y-79809D01*
X258467Y-79768D01*
X258406Y-79707D01*
X258304Y-79606D01*
X258202Y-79484D01*
X258080Y-79321D01*
X257958Y-79158D01*
X257816Y-78955D01*
X257694Y-78710D01*
X257572Y-78466D01*
X257450Y-78202D01*
X257348Y-77897D01*
X257246Y-77571D01*
X257185Y-77246D01*
X257145Y-76879D01*
X257124Y-76493D01*
Y-76289D01*
X257145Y-76147D01*
X257165Y-75964D01*
X257206Y-75760D01*
X257246Y-75537D01*
X257307Y-75292D01*
X257368Y-75048D01*
X257470Y-74763D01*
X257572Y-74499D01*
X257714Y-74214D01*
X257877Y-73950D01*
X258060Y-73665D01*
X258284Y-73421D01*
X258528Y-73176D01*
X258548Y-73156D01*
X258589Y-73115D01*
X258670Y-73054D01*
X258792Y-72973D01*
X258935Y-72892D01*
X259098Y-72790D01*
X259301Y-72668D01*
X259525Y-72546D01*
X259789Y-72444D01*
X260074Y-72322D01*
X260379Y-72220D01*
X260725Y-72119D01*
X261091Y-72057D01*
X261478Y-71996D01*
X261885Y-71956D01*
X262333Y-71935D01*
X262353D01*
X262434D01*
X262556D01*
X262740Y-71956D01*
D02*
G37*
G36*
X247069Y-83888D02*
X237202D01*
Y-82220D01*
X247069D01*
Y-83888D01*
D02*
G37*
G36*
X235554Y-83990D02*
X233825D01*
Y-82118D01*
X235554D01*
Y-83990D01*
D02*
G37*
G36*
X222366Y-77246D02*
X222570Y-77266D01*
X222793Y-77286D01*
X223058Y-77327D01*
X223343Y-77388D01*
X223953Y-77530D01*
X224258Y-77632D01*
X224584Y-77754D01*
X224889Y-77897D01*
X225194Y-78059D01*
X225499Y-78243D01*
X225764Y-78466D01*
X225784Y-78487D01*
X225825Y-78527D01*
X225886Y-78588D01*
X225988Y-78690D01*
X226089Y-78812D01*
X226191Y-78975D01*
X226334Y-79138D01*
X226455Y-79341D01*
X226578Y-79565D01*
X226700Y-79829D01*
X226822Y-80094D01*
X226924Y-80379D01*
X227025Y-80704D01*
X227086Y-81050D01*
X227127Y-81396D01*
X227147Y-81783D01*
Y-81986D01*
X227127Y-82128D01*
X227107Y-82312D01*
X227066Y-82515D01*
X227025Y-82739D01*
X226964Y-82983D01*
X226801Y-83512D01*
X226700Y-83797D01*
X226557Y-84082D01*
X226395Y-84346D01*
X226211Y-84611D01*
X226008Y-84875D01*
X225764Y-85119D01*
X225743Y-85140D01*
X225703Y-85180D01*
X225621Y-85241D01*
X225499Y-85302D01*
X225377Y-85404D01*
X225194Y-85506D01*
X224991Y-85608D01*
X224767Y-85730D01*
X224502Y-85852D01*
X224217Y-85953D01*
X223912Y-86055D01*
X223566Y-86157D01*
X223200Y-86218D01*
X222814Y-86279D01*
X222407Y-86320D01*
X221959Y-86340D01*
X221939D01*
X221857D01*
X221735D01*
X221552Y-86320D01*
X221349Y-86299D01*
X221125Y-86279D01*
X220861Y-86238D01*
X220576Y-86177D01*
X219965Y-86035D01*
X219660Y-85933D01*
X219335Y-85831D01*
X219030Y-85689D01*
X218724Y-85526D01*
X218419Y-85343D01*
X218155Y-85119D01*
X218134Y-85099D01*
X218094Y-85058D01*
X218032Y-84997D01*
X217931Y-84895D01*
X217829Y-84773D01*
X217707Y-84611D01*
X217585Y-84448D01*
X217442Y-84244D01*
X217320Y-84000D01*
X217198Y-83756D01*
X217076Y-83492D01*
X216975Y-83186D01*
X216873Y-82861D01*
X216812Y-82535D01*
X216771Y-82169D01*
X216751Y-81783D01*
Y-81579D01*
X216771Y-81437D01*
X216791Y-81254D01*
X216832Y-81050D01*
X216873Y-80826D01*
X216934Y-80582D01*
X216995Y-80338D01*
X217097Y-80053D01*
X217198Y-79789D01*
X217341Y-79504D01*
X217504Y-79239D01*
X217687Y-78955D01*
X217910Y-78710D01*
X218155Y-78466D01*
X218175Y-78446D01*
X218216Y-78405D01*
X218297Y-78344D01*
X218419Y-78263D01*
X218561Y-78182D01*
X218724Y-78080D01*
X218928Y-77958D01*
X219151Y-77836D01*
X219416Y-77734D01*
X219701Y-77612D01*
X220006Y-77510D01*
X220352Y-77408D01*
X220718Y-77347D01*
X221105Y-77286D01*
X221512Y-77246D01*
X221959Y-77225D01*
X221980D01*
X222061D01*
X222183D01*
X222366Y-77246D01*
D02*
G37*
G36*
X218826Y-87337D02*
X218806Y-87378D01*
Y-87459D01*
X218785Y-87540D01*
X218745Y-87764D01*
X218704Y-88029D01*
Y-88090D01*
X218684Y-88171D01*
Y-88375D01*
X218663Y-88517D01*
Y-88965D01*
X218684Y-89127D01*
X218704Y-89310D01*
X218745Y-89534D01*
X218806Y-89799D01*
X218887Y-90063D01*
X219009Y-90328D01*
X219030Y-90368D01*
X219070Y-90450D01*
X219151Y-90592D01*
X219253Y-90755D01*
X219375Y-90979D01*
X219518Y-91202D01*
X219701Y-91447D01*
X219884Y-91691D01*
X226883D01*
Y-93359D01*
X217015D01*
Y-91691D01*
X218480D01*
Y-91671D01*
X218439Y-91650D01*
X218358Y-91528D01*
X218216Y-91345D01*
X218032Y-91101D01*
X217849Y-90836D01*
X217666Y-90552D01*
X217504Y-90246D01*
X217361Y-89961D01*
X217341Y-89921D01*
X217300Y-89839D01*
X217259Y-89677D01*
X217178Y-89494D01*
X217117Y-89249D01*
X217076Y-89005D01*
X217036Y-88720D01*
X217015Y-88435D01*
Y-88191D01*
X217036Y-87988D01*
Y-87907D01*
X217056Y-87825D01*
Y-87785D01*
X217076Y-87662D01*
X217097Y-87479D01*
X217137Y-87215D01*
X218826D01*
Y-87337D01*
D02*
G37*
G36*
X247069Y-88751D02*
X241474D01*
X241434D01*
X241352D01*
X241230D01*
X241047D01*
X240864Y-88771D01*
X240640Y-88792D01*
X240193Y-88832D01*
X240172D01*
X240091Y-88853D01*
X239989Y-88873D01*
X239847Y-88893D01*
X239542Y-88995D01*
X239399Y-89056D01*
X239257Y-89137D01*
X239237D01*
X239196Y-89178D01*
X239135Y-89239D01*
X239053Y-89300D01*
X238870Y-89504D01*
X238708Y-89768D01*
Y-89789D01*
X238687Y-89850D01*
X238647Y-89931D01*
X238606Y-90053D01*
X238585Y-90216D01*
X238545Y-90399D01*
X238524Y-90602D01*
Y-90969D01*
X238545Y-91091D01*
X238565Y-91274D01*
X238606Y-91497D01*
X238667Y-91721D01*
X238748Y-91986D01*
X238870Y-92271D01*
X238891Y-92311D01*
X238931Y-92393D01*
X238992Y-92535D01*
X239094Y-92718D01*
X239216Y-92942D01*
X239359Y-93166D01*
X239542Y-93430D01*
X239725Y-93674D01*
X247069D01*
Y-95343D01*
X237202D01*
Y-93674D01*
X238321D01*
X238301Y-93634D01*
X238219Y-93532D01*
X238097Y-93390D01*
X237955Y-93186D01*
X237792Y-92942D01*
X237609Y-92678D01*
X237446Y-92393D01*
X237304Y-92087D01*
X237283Y-92047D01*
X237243Y-91945D01*
X237182Y-91782D01*
X237121Y-91559D01*
X237059Y-91294D01*
X236999Y-91009D01*
X236958Y-90704D01*
X236938Y-90379D01*
Y-90216D01*
X236958Y-90114D01*
Y-89972D01*
X236978Y-89829D01*
X237059Y-89463D01*
X237182Y-89076D01*
X237344Y-88670D01*
X237589Y-88283D01*
X237751Y-88100D01*
X237914Y-87937D01*
X237934Y-87917D01*
X237955Y-87896D01*
X238016Y-87856D01*
X238097Y-87795D01*
X238199Y-87734D01*
X238321Y-87673D01*
X238463Y-87591D01*
X238626Y-87510D01*
X238809Y-87429D01*
X239013Y-87347D01*
X239237Y-87286D01*
X239481Y-87225D01*
X239745Y-87164D01*
X240050Y-87123D01*
X240681Y-87083D01*
X247069D01*
Y-88751D01*
D02*
G37*
G36*
X270898Y-94661D02*
Y-96431D01*
X266788Y-94600D01*
X257389Y-98527D01*
Y-96736D01*
X264713Y-93705D01*
X257389Y-90633D01*
Y-88883D01*
X270898Y-94661D01*
D02*
G37*
G36*
X267195Y-99442D02*
X267215Y-99503D01*
X267236Y-99605D01*
X267256Y-99727D01*
X267276Y-99890D01*
X267317Y-100053D01*
X267378Y-100460D01*
Y-100480D01*
X267399Y-100561D01*
Y-100663D01*
X267419Y-100785D01*
X267439Y-101111D01*
X267460Y-101436D01*
Y-101579D01*
X267439Y-101680D01*
Y-101803D01*
X267419Y-101945D01*
X267358Y-102291D01*
X267256Y-102657D01*
X267134Y-103043D01*
X266931Y-103410D01*
X266666Y-103735D01*
X266625Y-103776D01*
X266503Y-103857D01*
X266422Y-103918D01*
X266320Y-103979D01*
X266178Y-104040D01*
X266035Y-104122D01*
X265852Y-104203D01*
X265669Y-104264D01*
X265445Y-104325D01*
X265222Y-104386D01*
X264957Y-104427D01*
X264672Y-104468D01*
X264367Y-104508D01*
X264042D01*
X258792D01*
Y-105627D01*
X257389D01*
Y-104508D01*
X254561D01*
Y-102840D01*
X257389D01*
Y-99422D01*
X258792D01*
Y-102840D01*
X263309D01*
X263350D01*
X263431D01*
X263574D01*
X263757D01*
X263940D01*
X264143D01*
X264347Y-102820D01*
X264530D01*
X264550D01*
X264611Y-102799D01*
X264693D01*
X264794Y-102779D01*
X265059Y-102698D01*
X265344Y-102576D01*
X265364D01*
X265405Y-102535D01*
X265527Y-102433D01*
X265710Y-102270D01*
X265852Y-102047D01*
Y-102026D01*
X265873Y-101986D01*
X265893Y-101904D01*
X265934Y-101782D01*
X265954Y-101640D01*
X265995Y-101457D01*
X266015Y-101253D01*
Y-100846D01*
X265995Y-100744D01*
Y-100622D01*
X265954Y-100480D01*
X265893Y-100154D01*
Y-100134D01*
X265873Y-100073D01*
X265852Y-100012D01*
X265812Y-99910D01*
X265751Y-99707D01*
X265730Y-99605D01*
X265690Y-99524D01*
Y-99422D01*
X267195D01*
Y-99442D01*
D02*
G37*
G36*
X222285Y-95943D02*
X222590Y-95963D01*
X222915Y-96004D01*
X223282Y-96065D01*
X223668Y-96146D01*
X224055Y-96269D01*
X224075D01*
X224095Y-96289D01*
X224217Y-96330D01*
X224401Y-96411D01*
X224624Y-96513D01*
X224889Y-96655D01*
X225174Y-96818D01*
X225459Y-97021D01*
X225723Y-97245D01*
X225743Y-97265D01*
X225825Y-97347D01*
X225947Y-97469D01*
X226089Y-97632D01*
X226252Y-97835D01*
X226435Y-98079D01*
X226598Y-98344D01*
X226740Y-98629D01*
X226761Y-98669D01*
X226801Y-98771D01*
X226842Y-98934D01*
X226903Y-99137D01*
X226985Y-99381D01*
X227025Y-99666D01*
X227066Y-99971D01*
X227086Y-100297D01*
Y-100582D01*
X227066Y-100765D01*
X227045Y-100989D01*
X227025Y-101212D01*
X226924Y-101701D01*
Y-101721D01*
X226883Y-101803D01*
X226862Y-101924D01*
X226801Y-102087D01*
X226720Y-102291D01*
X226639Y-102494D01*
X226415Y-102962D01*
X230525D01*
Y-104630D01*
X217015D01*
Y-102962D01*
X218073D01*
X218053Y-102942D01*
X217971Y-102840D01*
X217870Y-102718D01*
X217748Y-102535D01*
X217585Y-102311D01*
X217442Y-102067D01*
X217280Y-101782D01*
X217137Y-101477D01*
X217117Y-101436D01*
X217076Y-101334D01*
X217015Y-101172D01*
X216934Y-100948D01*
X216873Y-100683D01*
X216812Y-100378D01*
X216771Y-100053D01*
X216751Y-99707D01*
Y-99544D01*
X216771Y-99402D01*
X216791Y-99259D01*
X216832Y-99096D01*
X216914Y-98690D01*
X217076Y-98242D01*
X217198Y-97998D01*
X217320Y-97774D01*
X217483Y-97550D01*
X217666Y-97326D01*
X217870Y-97123D01*
X218114Y-96920D01*
X218134Y-96899D01*
X218175Y-96879D01*
X218256Y-96818D01*
X218358Y-96757D01*
X218500Y-96696D01*
X218663Y-96594D01*
X218867Y-96513D01*
X219090Y-96411D01*
X219335Y-96330D01*
X219620Y-96228D01*
X219925Y-96146D01*
X220250Y-96085D01*
X220616Y-96004D01*
X221003Y-95963D01*
X221410Y-95943D01*
X221857Y-95923D01*
X221878D01*
X221919D01*
X221980D01*
X222061D01*
X222285Y-95943D01*
D02*
G37*
G36*
X242309Y-98557D02*
X242654Y-98578D01*
X243041Y-98618D01*
X243448Y-98680D01*
X243875Y-98761D01*
X244303Y-98863D01*
X244323D01*
X244343Y-98883D01*
X244404Y-98903D01*
X244486Y-98924D01*
X244669Y-99005D01*
X244913Y-99107D01*
X245198Y-99249D01*
X245483Y-99432D01*
X245788Y-99636D01*
X246052Y-99900D01*
X246073Y-99921D01*
X246154Y-100022D01*
X246276Y-100165D01*
X246418Y-100348D01*
X246581Y-100592D01*
X246744Y-100856D01*
X246907Y-101162D01*
X247029Y-101487D01*
X247049Y-101528D01*
X247069Y-101650D01*
X247131Y-101833D01*
X247171Y-102098D01*
X247232Y-102403D01*
X247293Y-102769D01*
X247314Y-103176D01*
X247334Y-103603D01*
Y-103806D01*
X247314Y-104051D01*
X247293Y-104335D01*
X247253Y-104681D01*
X247192Y-105048D01*
X247110Y-105414D01*
X247008Y-105780D01*
X246988Y-105821D01*
X246947Y-105922D01*
X246866Y-106105D01*
X246764Y-106309D01*
X246622Y-106553D01*
X246459Y-106818D01*
X246276Y-107062D01*
X246052Y-107306D01*
X246012Y-107347D01*
X245930Y-107428D01*
X245767Y-107550D01*
X245564Y-107713D01*
X245320Y-107876D01*
X245015Y-108059D01*
X244689Y-108201D01*
X244323Y-108343D01*
X244303D01*
X244282Y-108364D01*
X244221D01*
X244140Y-108384D01*
X244038Y-108405D01*
X243916Y-108445D01*
X243611Y-108486D01*
X243244Y-108547D01*
X242817Y-108608D01*
X242329Y-108628D01*
X241800Y-108649D01*
X233926D01*
Y-106899D01*
X241881D01*
X241902D01*
X241922D01*
X241983D01*
X242064D01*
X242248D01*
X242492Y-106879D01*
X242756Y-106858D01*
X243041Y-106838D01*
X243326Y-106797D01*
X243570Y-106757D01*
X243590D01*
X243672Y-106736D01*
X243794Y-106695D01*
X243936Y-106635D01*
X244119Y-106573D01*
X244303Y-106492D01*
X244689Y-106268D01*
X244709Y-106248D01*
X244791Y-106187D01*
X244893Y-106105D01*
X245015Y-105983D01*
X245157Y-105841D01*
X245279Y-105658D01*
X245422Y-105455D01*
X245544Y-105210D01*
X245564Y-105170D01*
X245584Y-105088D01*
X245625Y-104946D01*
X245686Y-104763D01*
X245747Y-104519D01*
X245788Y-104254D01*
X245808Y-103949D01*
X245828Y-103603D01*
Y-103440D01*
X245808Y-103278D01*
X245788Y-103054D01*
X245767Y-102789D01*
X245706Y-102525D01*
X245645Y-102260D01*
X245544Y-101996D01*
X245523Y-101975D01*
X245483Y-101894D01*
X245422Y-101772D01*
X245320Y-101609D01*
X245218Y-101446D01*
X245055Y-101263D01*
X244893Y-101101D01*
X244689Y-100938D01*
X244669Y-100918D01*
X244608Y-100877D01*
X244486Y-100816D01*
X244343Y-100755D01*
X244180Y-100673D01*
X243977Y-100592D01*
X243773Y-100511D01*
X243529Y-100449D01*
X243509D01*
X243407Y-100429D01*
X243265Y-100388D01*
X243082Y-100368D01*
X242858Y-100327D01*
X242573Y-100307D01*
X242268Y-100287D01*
X241922D01*
X233926D01*
Y-98537D01*
X241800D01*
X241820D01*
X241861D01*
X241942D01*
X242044D01*
X242166D01*
X242309Y-98557D01*
D02*
G37*
G36*
X267256Y-109473D02*
X253523D01*
Y-107804D01*
X267256D01*
Y-109473D01*
D02*
G37*
G36*
Y-114396D02*
X266157D01*
X266178Y-114437D01*
X266259Y-114539D01*
X266381Y-114701D01*
X266544Y-114925D01*
X266707Y-115169D01*
X266870Y-115434D01*
X267032Y-115739D01*
X267175Y-116024D01*
X267195Y-116065D01*
X267236Y-116146D01*
X267276Y-116309D01*
X267338Y-116512D01*
X267419Y-116756D01*
X267460Y-117062D01*
X267500Y-117367D01*
X267521Y-117713D01*
Y-117855D01*
X267500Y-117977D01*
Y-118099D01*
X267480Y-118242D01*
X267399Y-118587D01*
X267297Y-118974D01*
X267134Y-119381D01*
X266890Y-119788D01*
X266747Y-119971D01*
X266585Y-120134D01*
X266564D01*
X266544Y-120174D01*
X266483Y-120215D01*
X266402Y-120276D01*
X266300Y-120337D01*
X266178Y-120398D01*
X266035Y-120479D01*
X265873Y-120561D01*
X265690Y-120642D01*
X265486Y-120724D01*
X265262Y-120785D01*
X264998Y-120846D01*
X264733Y-120907D01*
X264449Y-120948D01*
X264123Y-120968D01*
X263797Y-120988D01*
X257389D01*
Y-119320D01*
X263004D01*
X263045D01*
X263126D01*
X263269D01*
X263452D01*
X263655Y-119299D01*
X263859D01*
X264082Y-119279D01*
X264286Y-119259D01*
X264306D01*
X264367Y-119239D01*
X264469Y-119218D01*
X264591Y-119198D01*
X264896Y-119096D01*
X265201Y-118954D01*
X265222Y-118933D01*
X265262Y-118913D01*
X265323Y-118852D01*
X265425Y-118791D01*
X265608Y-118608D01*
X265771Y-118343D01*
Y-118323D01*
X265791Y-118262D01*
X265812Y-118181D01*
X265852Y-118058D01*
X265873Y-117896D01*
X265913Y-117713D01*
X265934Y-117489D01*
Y-117122D01*
X265913Y-117001D01*
X265893Y-116817D01*
X265852Y-116614D01*
X265791Y-116370D01*
X265710Y-116126D01*
X265608Y-115841D01*
X265588Y-115800D01*
X265547Y-115719D01*
X265486Y-115556D01*
X265384Y-115373D01*
X265262Y-115149D01*
X265100Y-114905D01*
X264937Y-114640D01*
X264754Y-114396D01*
X257389D01*
Y-112728D01*
X267256D01*
Y-114396D01*
D02*
G37*
G36*
X266666Y-123084D02*
X266707Y-123186D01*
X266788Y-123348D01*
X266870Y-123552D01*
X266971Y-123796D01*
X267073Y-124060D01*
X267256Y-124630D01*
Y-124671D01*
X267297Y-124752D01*
X267317Y-124915D01*
X267358Y-125118D01*
X267399Y-125342D01*
X267439Y-125607D01*
X267460Y-125912D01*
X267480Y-126217D01*
Y-126400D01*
X267460Y-126603D01*
X267439Y-126848D01*
X267399Y-127153D01*
X267358Y-127478D01*
X267276Y-127824D01*
X267175Y-128170D01*
X267155Y-128211D01*
X267114Y-128313D01*
X267053Y-128496D01*
X266931Y-128699D01*
X266809Y-128943D01*
X266646Y-129187D01*
X266442Y-129452D01*
X266219Y-129696D01*
X266198Y-129716D01*
X266096Y-129798D01*
X265974Y-129920D01*
X265791Y-130062D01*
X265547Y-130225D01*
X265283Y-130388D01*
X264977Y-130550D01*
X264632Y-130693D01*
X264611D01*
X264591Y-130713D01*
X264530Y-130734D01*
X264449Y-130754D01*
X264245Y-130795D01*
X263981Y-130856D01*
X263655Y-130937D01*
X263248Y-130978D01*
X262821Y-131018D01*
X262353Y-131039D01*
X262333D01*
X262251D01*
X262129D01*
X261946Y-131018D01*
X261743Y-130998D01*
X261519Y-130978D01*
X261254Y-130937D01*
X260970Y-130876D01*
X260359Y-130713D01*
X260034Y-130611D01*
X259728Y-130490D01*
X259403Y-130327D01*
X259118Y-130144D01*
X258813Y-129940D01*
X258548Y-129716D01*
X258528Y-129696D01*
X258487Y-129655D01*
X258426Y-129574D01*
X258325Y-129472D01*
X258223Y-129350D01*
X258101Y-129187D01*
X257979Y-129004D01*
X257857Y-128780D01*
X257735Y-128536D01*
X257592Y-128272D01*
X257490Y-127987D01*
X257389Y-127682D01*
X257287Y-127356D01*
X257226Y-126990D01*
X257185Y-126624D01*
X257165Y-126217D01*
Y-126074D01*
X257185Y-125912D01*
Y-125688D01*
X257226Y-125423D01*
X257267Y-125159D01*
X257328Y-124854D01*
X257409Y-124549D01*
X257429Y-124508D01*
X257450Y-124406D01*
X257511Y-124264D01*
X257572Y-124060D01*
X257653Y-123816D01*
X257755Y-123572D01*
X257999Y-123043D01*
X259830D01*
Y-123145D01*
X259810Y-123186D01*
X259728Y-123267D01*
X259627Y-123430D01*
X259505Y-123613D01*
X259362Y-123857D01*
X259220Y-124121D01*
X259057Y-124406D01*
X258935Y-124711D01*
X258915Y-124752D01*
X258874Y-124854D01*
X258833Y-125017D01*
X258772Y-125220D01*
X258711Y-125464D01*
X258650Y-125729D01*
X258630Y-126013D01*
X258609Y-126298D01*
Y-126441D01*
X258630Y-126522D01*
Y-126644D01*
X258650Y-126787D01*
X258731Y-127092D01*
X258833Y-127458D01*
X259016Y-127824D01*
X259240Y-128190D01*
X259403Y-128353D01*
X259566Y-128516D01*
X259586D01*
X259606Y-128557D01*
X259667Y-128597D01*
X259749Y-128638D01*
X259851Y-128699D01*
X259972Y-128780D01*
X260115Y-128841D01*
X260278Y-128923D01*
X260461Y-129004D01*
X260664Y-129065D01*
X260888Y-129147D01*
X261153Y-129208D01*
X261417Y-129248D01*
X261702Y-129289D01*
X262027Y-129330D01*
X262353D01*
X262373D01*
X262434D01*
X262516D01*
X262638Y-129309D01*
X262801D01*
X262963Y-129289D01*
X263350Y-129228D01*
X263797Y-129126D01*
X264245Y-129004D01*
X264693Y-128801D01*
X265079Y-128536D01*
X265120Y-128496D01*
X265222Y-128394D01*
X265384Y-128211D01*
X265547Y-127967D01*
X265730Y-127641D01*
X265893Y-127255D01*
X265995Y-126807D01*
X266015Y-126563D01*
X266035Y-126298D01*
Y-126115D01*
X266015Y-125973D01*
Y-125830D01*
X265974Y-125647D01*
X265913Y-125281D01*
Y-125261D01*
X265893Y-125200D01*
X265852Y-125098D01*
X265832Y-124956D01*
X265710Y-124650D01*
X265567Y-124325D01*
Y-124305D01*
X265527Y-124264D01*
X265506Y-124182D01*
X265445Y-124101D01*
X265323Y-123877D01*
X265181Y-123653D01*
Y-123633D01*
X265140Y-123592D01*
X265059Y-123470D01*
X264937Y-123308D01*
X264815Y-123145D01*
Y-123043D01*
X266646D01*
X266666Y-123084D01*
D02*
G37*
G36*
X267256Y-135210D02*
X266198D01*
X266219Y-135250D01*
X266320Y-135372D01*
X266442Y-135555D01*
X266625Y-135820D01*
X266646Y-135840D01*
X266666Y-135881D01*
X266727Y-135962D01*
X266768Y-136044D01*
X266910Y-136268D01*
X267053Y-136532D01*
Y-136552D01*
X267093Y-136613D01*
X267114Y-136695D01*
X267175Y-136817D01*
X267215Y-136959D01*
X267276Y-137122D01*
X267378Y-137488D01*
Y-137509D01*
X267399Y-137590D01*
X267419Y-137692D01*
X267439Y-137834D01*
X267480Y-138038D01*
X267500Y-138241D01*
X267521Y-138485D01*
Y-138872D01*
X267500Y-138974D01*
Y-139075D01*
X267480Y-139218D01*
X267419Y-139523D01*
X267297Y-139869D01*
X267155Y-140255D01*
X266931Y-140622D01*
X266809Y-140805D01*
X266646Y-140988D01*
X266625D01*
X266605Y-141028D01*
X266483Y-141130D01*
X266300Y-141272D01*
X266035Y-141435D01*
X265710Y-141618D01*
X265323Y-141761D01*
X264876Y-141863D01*
X264632Y-141883D01*
X264387Y-141903D01*
X264367D01*
X264347D01*
X264286D01*
X264204D01*
X264001Y-141883D01*
X263736Y-141842D01*
X263452Y-141781D01*
X263146Y-141700D01*
X262862Y-141598D01*
X262577Y-141435D01*
X262536Y-141415D01*
X262455Y-141354D01*
X262333Y-141232D01*
X262170Y-141089D01*
X262007Y-140886D01*
X261824Y-140662D01*
X261641Y-140377D01*
X261478Y-140072D01*
Y-140052D01*
X261458Y-140031D01*
X261417Y-139909D01*
X261356Y-139726D01*
X261275Y-139462D01*
X261173Y-139157D01*
X261091Y-138790D01*
X261010Y-138363D01*
X260949Y-137915D01*
Y-137854D01*
X260929Y-137794D01*
Y-137692D01*
X260908Y-137570D01*
Y-137448D01*
X260868Y-137102D01*
X260827Y-136695D01*
X260786Y-136247D01*
X260766Y-135739D01*
X260725Y-135210D01*
X260481D01*
X260461D01*
X260379D01*
X260278D01*
X260156Y-135230D01*
X259851Y-135291D01*
X259545Y-135413D01*
X259525D01*
X259484Y-135454D01*
X259403Y-135494D01*
X259321Y-135555D01*
X259138Y-135739D01*
X258955Y-135983D01*
X258935Y-136003D01*
X258915Y-136044D01*
X258874Y-136125D01*
X258833Y-136227D01*
X258792Y-136349D01*
X258731Y-136491D01*
X258670Y-136837D01*
Y-136858D01*
X258650Y-136919D01*
Y-137020D01*
X258630Y-137142D01*
X258609Y-137305D01*
Y-137468D01*
X258589Y-137854D01*
Y-138099D01*
X258609Y-138282D01*
X258630Y-138485D01*
X258670Y-138729D01*
X258711Y-139014D01*
X258772Y-139299D01*
Y-139340D01*
X258813Y-139441D01*
X258853Y-139604D01*
X258894Y-139808D01*
X258976Y-140052D01*
X259057Y-140337D01*
X259159Y-140622D01*
X259281Y-140947D01*
Y-141028D01*
X257612D01*
Y-141008D01*
X257592Y-140947D01*
X257551Y-140825D01*
X257511Y-140682D01*
X257470Y-140479D01*
X257429Y-140255D01*
X257368Y-139970D01*
X257307Y-139645D01*
Y-139604D01*
X257287Y-139482D01*
X257246Y-139299D01*
X257226Y-139075D01*
X257185Y-138790D01*
X257165Y-138485D01*
X257145Y-137834D01*
Y-137468D01*
X257165Y-137224D01*
X257185Y-136939D01*
X257226Y-136634D01*
X257267Y-136329D01*
X257328Y-136023D01*
Y-135983D01*
X257368Y-135901D01*
X257409Y-135739D01*
X257470Y-135555D01*
X257551Y-135352D01*
X257653Y-135128D01*
X257775Y-134904D01*
X257918Y-134681D01*
X257938Y-134660D01*
X257999Y-134599D01*
X258080Y-134497D01*
X258202Y-134375D01*
X258345Y-134233D01*
X258528Y-134091D01*
X258752Y-133968D01*
X258976Y-133847D01*
X258996Y-133826D01*
X259098Y-133806D01*
X259220Y-133745D01*
X259403Y-133684D01*
X259647Y-133643D01*
X259911Y-133582D01*
X260217Y-133562D01*
X260562Y-133541D01*
X267256D01*
Y-135210D01*
D02*
G37*
G36*
X255659Y-149716D02*
X259382D01*
Y-143999D01*
X260929D01*
Y-149716D01*
X267256D01*
Y-151466D01*
X254113D01*
Y-143063D01*
X255659D01*
Y-149716D01*
D02*
G37*
%LPC*%
G36*
X264550Y133797D02*
X259179D01*
X259159Y133777D01*
X259138Y133675D01*
X259077Y133553D01*
X259016Y133390D01*
X258935Y133207D01*
X258874Y132984D01*
X258752Y132556D01*
Y132536D01*
X258731Y132455D01*
X258711Y132353D01*
X258670Y132210D01*
X258650Y132027D01*
X258630Y131844D01*
X258609Y131417D01*
Y131274D01*
X258630Y131193D01*
Y131071D01*
X258650Y130929D01*
X258731Y130623D01*
X258833Y130278D01*
X258996Y129911D01*
X259240Y129565D01*
X259382Y129403D01*
X259545Y129240D01*
X259586Y129199D01*
X259647Y129179D01*
X259708Y129118D01*
X259810Y129057D01*
X259932Y128996D01*
X260054Y128935D01*
X260217Y128853D01*
X260400Y128772D01*
X260603Y128711D01*
X261051Y128589D01*
X261600Y128507D01*
X262211Y128467D01*
X262231D01*
X262292D01*
X262373D01*
X262475D01*
X262617Y128487D01*
X262780Y128507D01*
X263146Y128548D01*
X263553Y128609D01*
X263960Y128711D01*
X264367Y128853D01*
X264713Y129036D01*
X264754Y129057D01*
X264855Y129158D01*
X264977Y129301D01*
X265140Y129504D01*
X265303Y129769D01*
X265425Y130115D01*
X265527Y130522D01*
X265567Y130990D01*
Y131112D01*
X265547Y131254D01*
X265527Y131437D01*
X265506Y131661D01*
X265445Y131905D01*
X265384Y132170D01*
X265303Y132434D01*
X265283Y132475D01*
X265242Y132556D01*
X265181Y132699D01*
X265100Y132882D01*
X264998Y133085D01*
X264855Y133309D01*
X264550Y133797D01*
D02*
G37*
G36*
X261234Y99251D02*
X261214D01*
X261173D01*
X261112D01*
X261010Y99230D01*
X260786Y99210D01*
X260501Y99169D01*
X260176Y99088D01*
X259830Y98966D01*
X259505Y98803D01*
X259220Y98579D01*
X259179Y98559D01*
X259098Y98457D01*
X258996Y98294D01*
X258853Y98091D01*
X258711Y97806D01*
X258609Y97481D01*
X258528Y97074D01*
X258487Y96606D01*
Y96484D01*
X258508Y96382D01*
Y96280D01*
X258528Y96138D01*
X258589Y95833D01*
X258670Y95487D01*
X258813Y95141D01*
X259016Y94795D01*
X259281Y94470D01*
X259321Y94429D01*
X259423Y94347D01*
X259586Y94205D01*
X259830Y94063D01*
X260115Y93900D01*
X260441Y93757D01*
X260807Y93635D01*
X261234Y93574D01*
Y99251D01*
D02*
G37*
G36*
X244648Y90980D02*
X241881D01*
Y90838D01*
X241902Y90675D01*
X241922Y90472D01*
X241942Y90207D01*
X241963Y89902D01*
X242003Y89556D01*
X242024Y89190D01*
Y89149D01*
X242044Y89027D01*
X242064Y88844D01*
X242085Y88600D01*
X242126Y88356D01*
X242166Y88091D01*
X242227Y87827D01*
X242288Y87583D01*
Y87542D01*
X242329Y87461D01*
X242370Y87338D01*
X242451Y87176D01*
X242533Y86993D01*
X242634Y86789D01*
X242777Y86606D01*
X242919Y86423D01*
X242939Y86403D01*
X243000Y86362D01*
X243102Y86281D01*
X243224Y86220D01*
X243387Y86138D01*
X243590Y86057D01*
X243835Y86016D01*
X244099Y85996D01*
X244140D01*
X244242D01*
X244384Y86016D01*
X244567Y86057D01*
X244771Y86118D01*
X244974Y86220D01*
X245177Y86342D01*
X245361Y86504D01*
X245381Y86525D01*
X245422Y86606D01*
X245503Y86728D01*
X245564Y86891D01*
X245645Y87115D01*
X245727Y87379D01*
X245767Y87684D01*
X245788Y88051D01*
Y88193D01*
X245767Y88356D01*
X245747Y88580D01*
X245706Y88824D01*
X245645Y89088D01*
X245564Y89373D01*
X245462Y89638D01*
X245442Y89678D01*
X245401Y89760D01*
X245320Y89902D01*
X245238Y90065D01*
X245116Y90289D01*
X244974Y90512D01*
X244648Y90980D01*
D02*
G37*
G36*
X261234Y88468D02*
X261214D01*
X261173D01*
X261112D01*
X261010Y88447D01*
X260786Y88427D01*
X260501Y88386D01*
X260176Y88305D01*
X259830Y88183D01*
X259505Y88020D01*
X259220Y87796D01*
X259179Y87776D01*
X259098Y87674D01*
X258996Y87512D01*
X258853Y87308D01*
X258711Y87023D01*
X258609Y86698D01*
X258528Y86291D01*
X258487Y85823D01*
Y85701D01*
X258508Y85599D01*
Y85497D01*
X258528Y85355D01*
X258589Y85050D01*
X258670Y84704D01*
X258813Y84358D01*
X259016Y84012D01*
X259281Y83687D01*
X259321Y83646D01*
X259423Y83565D01*
X259586Y83422D01*
X259830Y83280D01*
X260115Y83117D01*
X260441Y82975D01*
X260807Y82852D01*
X261234Y82791D01*
Y88468D01*
D02*
G37*
G36*
X220861Y75569D02*
X220840D01*
X220800D01*
X220739D01*
X220637Y75548D01*
X220413Y75528D01*
X220128Y75487D01*
X219803Y75406D01*
X219457Y75284D01*
X219131Y75121D01*
X218846Y74897D01*
X218806Y74877D01*
X218724Y74775D01*
X218622Y74612D01*
X218480Y74409D01*
X218338Y74124D01*
X218236Y73799D01*
X218155Y73392D01*
X218114Y72924D01*
Y72802D01*
X218134Y72700D01*
Y72598D01*
X218155Y72456D01*
X218216Y72151D01*
X218297Y71805D01*
X218439Y71459D01*
X218643Y71113D01*
X218907Y70788D01*
X218948Y70747D01*
X219050Y70665D01*
X219213Y70523D01*
X219457Y70381D01*
X219741Y70218D01*
X220067Y70075D01*
X220433Y69953D01*
X220861Y69892D01*
Y75569D01*
D02*
G37*
G36*
X244648Y68661D02*
X241881D01*
Y68519D01*
X241902Y68356D01*
X241922Y68153D01*
X241942Y67888D01*
X241963Y67583D01*
X242003Y67237D01*
X242024Y66871D01*
Y66830D01*
X242044Y66708D01*
X242064Y66525D01*
X242085Y66281D01*
X242126Y66037D01*
X242166Y65772D01*
X242227Y65508D01*
X242288Y65264D01*
Y65223D01*
X242329Y65142D01*
X242370Y65020D01*
X242451Y64857D01*
X242533Y64674D01*
X242634Y64470D01*
X242777Y64287D01*
X242919Y64104D01*
X242939Y64084D01*
X243000Y64043D01*
X243102Y63962D01*
X243224Y63901D01*
X243387Y63819D01*
X243590Y63738D01*
X243835Y63697D01*
X244099Y63677D01*
X244140D01*
X244242D01*
X244384Y63697D01*
X244567Y63738D01*
X244771Y63799D01*
X244974Y63901D01*
X245177Y64023D01*
X245361Y64186D01*
X245381Y64206D01*
X245422Y64287D01*
X245503Y64409D01*
X245564Y64572D01*
X245645Y64796D01*
X245727Y65060D01*
X245767Y65366D01*
X245788Y65732D01*
Y65874D01*
X245767Y66037D01*
X245747Y66261D01*
X245706Y66505D01*
X245645Y66769D01*
X245564Y67054D01*
X245462Y67319D01*
X245442Y67359D01*
X245401Y67441D01*
X245320Y67583D01*
X245238Y67746D01*
X245116Y67970D01*
X244974Y68193D01*
X244648Y68661D01*
D02*
G37*
G36*
X264550Y60493D02*
X259179D01*
X259159Y60472D01*
X259138Y60371D01*
X259077Y60249D01*
X259016Y60086D01*
X258935Y59903D01*
X258874Y59679D01*
X258752Y59252D01*
Y59231D01*
X258731Y59150D01*
X258711Y59048D01*
X258670Y58906D01*
X258650Y58723D01*
X258630Y58540D01*
X258609Y58112D01*
Y57970D01*
X258630Y57889D01*
Y57766D01*
X258650Y57624D01*
X258731Y57319D01*
X258833Y56973D01*
X258996Y56607D01*
X259240Y56261D01*
X259382Y56098D01*
X259545Y55935D01*
X259586Y55895D01*
X259647Y55874D01*
X259708Y55813D01*
X259810Y55752D01*
X259932Y55691D01*
X260054Y55630D01*
X260217Y55549D01*
X260400Y55468D01*
X260603Y55406D01*
X261051Y55284D01*
X261600Y55203D01*
X262211Y55162D01*
X262231D01*
X262292D01*
X262373D01*
X262475D01*
X262617Y55183D01*
X262780Y55203D01*
X263146Y55244D01*
X263553Y55305D01*
X263960Y55406D01*
X264367Y55549D01*
X264713Y55732D01*
X264754Y55752D01*
X264855Y55854D01*
X264977Y55996D01*
X265140Y56200D01*
X265303Y56464D01*
X265425Y56810D01*
X265527Y57217D01*
X265567Y57685D01*
Y57807D01*
X265547Y57950D01*
X265527Y58133D01*
X265506Y58356D01*
X265445Y58601D01*
X265384Y58865D01*
X265303Y59130D01*
X265283Y59170D01*
X265242Y59252D01*
X265181Y59394D01*
X265100Y59577D01*
X264998Y59781D01*
X264855Y60005D01*
X264550Y60493D01*
D02*
G37*
G36*
X222305Y55122D02*
X221959D01*
X221939D01*
X221878D01*
X221776D01*
X221654Y55101D01*
X221491D01*
X221308Y55081D01*
X220901Y55020D01*
X220433Y54939D01*
X219965Y54796D01*
X219518Y54613D01*
X219314Y54491D01*
X219131Y54349D01*
X219111D01*
X219090Y54308D01*
X218989Y54206D01*
X218826Y54043D01*
X218663Y53799D01*
X218500Y53514D01*
X218338Y53148D01*
X218236Y52741D01*
X218195Y52517D01*
Y52151D01*
X218216Y52049D01*
Y51927D01*
X218236Y51805D01*
X218317Y51500D01*
X218419Y51154D01*
X218582Y50808D01*
X218826Y50462D01*
X218968Y50300D01*
X219131Y50157D01*
X219151D01*
X219172Y50117D01*
X219233Y50096D01*
X219314Y50035D01*
X219396Y49995D01*
X219518Y49934D01*
X219660Y49852D01*
X219843Y49791D01*
X220026Y49730D01*
X220230Y49649D01*
X220474Y49588D01*
X220718Y49547D01*
X221003Y49486D01*
X221288Y49466D01*
X221613Y49425D01*
X221959D01*
X221980D01*
X222041D01*
X222142D01*
X222264Y49445D01*
X222427D01*
X222590Y49466D01*
X222997Y49527D01*
X223465Y49608D01*
X223933Y49750D01*
X224380Y49934D01*
X224584Y50056D01*
X224767Y50178D01*
X224808Y50218D01*
X224909Y50320D01*
X225072Y50483D01*
X225235Y50727D01*
X225398Y51012D01*
X225560Y51378D01*
X225662Y51805D01*
X225682Y52029D01*
X225703Y52273D01*
Y52395D01*
X225682Y52497D01*
X225662Y52741D01*
X225581Y53026D01*
X225479Y53352D01*
X225316Y53697D01*
X225072Y54043D01*
X224930Y54206D01*
X224767Y54349D01*
X224746D01*
X224726Y54389D01*
X224665Y54430D01*
X224584Y54471D01*
X224482Y54532D01*
X224380Y54593D01*
X224238Y54654D01*
X224055Y54735D01*
X223872Y54816D01*
X223668Y54878D01*
X223444Y54939D01*
X223180Y54999D01*
X222915Y55061D01*
X222610Y55081D01*
X222305Y55122D01*
D02*
G37*
G36*
X242471Y47238D02*
X242126D01*
X242105D01*
X242044D01*
X241963D01*
X241841D01*
X241678Y47217D01*
X241515D01*
X241129Y47156D01*
X240701Y47095D01*
X240254Y46994D01*
X239827Y46851D01*
X239440Y46648D01*
X239420D01*
X239399Y46627D01*
X239298Y46546D01*
X239155Y46383D01*
X238972Y46200D01*
X238809Y45936D01*
X238667Y45610D01*
X238565Y45203D01*
X238524Y45000D01*
Y44633D01*
X238545Y44491D01*
X238565Y44288D01*
X238606Y44064D01*
X238667Y43820D01*
X238748Y43555D01*
X238850Y43270D01*
X238870Y43230D01*
X238911Y43148D01*
X238972Y43006D01*
X239074Y42823D01*
X239175Y42619D01*
X239318Y42396D01*
X239481Y42151D01*
X239664Y41907D01*
X245299D01*
X245320Y41948D01*
X245340Y42029D01*
X245401Y42151D01*
X245462Y42314D01*
X245544Y42497D01*
X245605Y42701D01*
X245727Y43108D01*
Y43128D01*
X245747Y43209D01*
X245767Y43311D01*
X245788Y43453D01*
X245808Y43616D01*
X245828Y43820D01*
X245849Y44267D01*
Y44410D01*
X245828Y44491D01*
Y44613D01*
X245808Y44756D01*
X245727Y45061D01*
X245625Y45407D01*
X245462Y45773D01*
X245238Y46119D01*
X245116Y46281D01*
X244954Y46444D01*
X244933D01*
X244913Y46485D01*
X244852Y46526D01*
X244791Y46566D01*
X244689Y46627D01*
X244567Y46688D01*
X244425Y46770D01*
X244262Y46851D01*
X244079Y46912D01*
X243875Y46994D01*
X243631Y47055D01*
X243387Y47116D01*
X243102Y47156D01*
X242797Y47197D01*
X242471Y47238D01*
D02*
G37*
G36*
X206757Y44074D02*
X203990D01*
Y43932D01*
X204011Y43769D01*
X204031Y43565D01*
X204051Y43301D01*
X204072Y42996D01*
X204112Y42650D01*
X204133Y42284D01*
Y42243D01*
X204153Y42121D01*
X204173Y41938D01*
X204194Y41694D01*
X204234Y41449D01*
X204275Y41185D01*
X204336Y40921D01*
X204397Y40676D01*
Y40636D01*
X204438Y40554D01*
X204478Y40432D01*
X204560Y40269D01*
X204641Y40086D01*
X204743Y39883D01*
X204885Y39700D01*
X205028Y39517D01*
X205048Y39496D01*
X205109Y39456D01*
X205211Y39374D01*
X205333Y39313D01*
X205496Y39232D01*
X205699Y39151D01*
X205943Y39110D01*
X206208Y39089D01*
X206248D01*
X206350D01*
X206493Y39110D01*
X206676Y39151D01*
X206879Y39211D01*
X207083Y39313D01*
X207286Y39435D01*
X207469Y39598D01*
X207490Y39618D01*
X207530Y39700D01*
X207612Y39822D01*
X207673Y39985D01*
X207754Y40208D01*
X207835Y40473D01*
X207876Y40778D01*
X207896Y41144D01*
Y41287D01*
X207876Y41449D01*
X207856Y41673D01*
X207815Y41917D01*
X207754Y42182D01*
X207673Y42467D01*
X207571Y42731D01*
X207551Y42772D01*
X207510Y42853D01*
X207428Y42996D01*
X207347Y43158D01*
X207225Y43382D01*
X207083Y43606D01*
X206757Y44074D01*
D02*
G37*
G36*
X220861Y16465D02*
X220840D01*
X220800D01*
X220739D01*
X220637Y16445D01*
X220413Y16425D01*
X220128Y16384D01*
X219803Y16303D01*
X219457Y16180D01*
X219131Y16018D01*
X218846Y15794D01*
X218806Y15774D01*
X218724Y15672D01*
X218622Y15509D01*
X218480Y15306D01*
X218338Y15021D01*
X218236Y14695D01*
X218155Y14288D01*
X218114Y13820D01*
Y13698D01*
X218134Y13597D01*
Y13495D01*
X218155Y13353D01*
X218216Y13047D01*
X218297Y12701D01*
X218439Y12356D01*
X218643Y12010D01*
X218907Y11684D01*
X218948Y11644D01*
X219050Y11562D01*
X219213Y11420D01*
X219457Y11277D01*
X219741Y11114D01*
X220067Y10972D01*
X220433Y10850D01*
X220861Y10789D01*
Y16465D01*
D02*
G37*
G36*
X264835Y15102D02*
X262068D01*
Y14960D01*
X262089Y14797D01*
X262109Y14594D01*
X262129Y14329D01*
X262150Y14024D01*
X262190Y13678D01*
X262211Y13312D01*
Y13271D01*
X262231Y13149D01*
X262251Y12966D01*
X262272Y12722D01*
X262312Y12478D01*
X262353Y12213D01*
X262414Y11949D01*
X262475Y11704D01*
Y11664D01*
X262516Y11582D01*
X262556Y11460D01*
X262638Y11298D01*
X262719Y11114D01*
X262821Y10911D01*
X262963Y10728D01*
X263106Y10545D01*
X263126Y10524D01*
X263187Y10484D01*
X263289Y10402D01*
X263411Y10341D01*
X263574Y10260D01*
X263777Y10179D01*
X264021Y10138D01*
X264286Y10118D01*
X264326D01*
X264428D01*
X264571Y10138D01*
X264754Y10179D01*
X264957Y10240D01*
X265161Y10341D01*
X265364Y10464D01*
X265547Y10626D01*
X265567Y10647D01*
X265608Y10728D01*
X265690Y10850D01*
X265751Y11013D01*
X265832Y11237D01*
X265913Y11501D01*
X265954Y11806D01*
X265974Y12172D01*
Y12315D01*
X265954Y12478D01*
X265934Y12701D01*
X265893Y12946D01*
X265832Y13210D01*
X265751Y13495D01*
X265649Y13759D01*
X265629Y13800D01*
X265588Y13881D01*
X265506Y14024D01*
X265425Y14187D01*
X265303Y14411D01*
X265161Y14634D01*
X264835Y15102D01*
D02*
G37*
G36*
X224462Y-2191D02*
X221695D01*
Y-2334D01*
X221715Y-2497D01*
X221735Y-2700D01*
X221756Y-2964D01*
X221776Y-3270D01*
X221817Y-3616D01*
X221837Y-3982D01*
Y-4022D01*
X221857Y-4144D01*
X221878Y-4328D01*
X221898Y-4572D01*
X221939Y-4816D01*
X221980Y-5080D01*
X222041Y-5345D01*
X222102Y-5589D01*
Y-5630D01*
X222142Y-5711D01*
X222183Y-5833D01*
X222264Y-5996D01*
X222346Y-6179D01*
X222447Y-6382D01*
X222590Y-6566D01*
X222732Y-6749D01*
X222753Y-6769D01*
X222814Y-6810D01*
X222915Y-6891D01*
X223037Y-6952D01*
X223200Y-7034D01*
X223404Y-7115D01*
X223648Y-7156D01*
X223912Y-7176D01*
X223953D01*
X224055D01*
X224197Y-7156D01*
X224380Y-7115D01*
X224584Y-7054D01*
X224787Y-6952D01*
X224991Y-6830D01*
X225174Y-6667D01*
X225194Y-6647D01*
X225235Y-6566D01*
X225316Y-6444D01*
X225377Y-6281D01*
X225459Y-6057D01*
X225540Y-5792D01*
X225581Y-5487D01*
X225601Y-5121D01*
Y-4979D01*
X225581Y-4816D01*
X225560Y-4592D01*
X225520Y-4348D01*
X225459Y-4083D01*
X225377Y-3799D01*
X225275Y-3534D01*
X225255Y-3494D01*
X225215Y-3412D01*
X225133Y-3270D01*
X225052Y-3107D01*
X224930Y-2883D01*
X224787Y-2659D01*
X224462Y-2191D01*
D02*
G37*
G36*
X242492Y-4521D02*
X242146D01*
X242126D01*
X242064D01*
X241963D01*
X241841Y-4541D01*
X241678D01*
X241495Y-4562D01*
X241088Y-4623D01*
X240620Y-4704D01*
X240152Y-4846D01*
X239704Y-5030D01*
X239501Y-5152D01*
X239318Y-5294D01*
X239298D01*
X239277Y-5335D01*
X239175Y-5436D01*
X239013Y-5599D01*
X238850Y-5843D01*
X238687Y-6128D01*
X238524Y-6494D01*
X238423Y-6901D01*
X238382Y-7125D01*
Y-7491D01*
X238402Y-7593D01*
Y-7715D01*
X238423Y-7837D01*
X238504Y-8142D01*
X238606Y-8488D01*
X238769Y-8834D01*
X239013Y-9180D01*
X239155Y-9343D01*
X239318Y-9485D01*
X239338D01*
X239359Y-9526D01*
X239420Y-9546D01*
X239501Y-9607D01*
X239582Y-9648D01*
X239704Y-9709D01*
X239847Y-9790D01*
X240030Y-9851D01*
X240213Y-9912D01*
X240417Y-9994D01*
X240661Y-10055D01*
X240905Y-10096D01*
X241190Y-10157D01*
X241474Y-10177D01*
X241800Y-10218D01*
X242146D01*
X242166D01*
X242227D01*
X242329D01*
X242451Y-10197D01*
X242614D01*
X242777Y-10177D01*
X243183Y-10116D01*
X243652Y-10035D01*
X244119Y-9892D01*
X244567Y-9709D01*
X244771Y-9587D01*
X244954Y-9465D01*
X244994Y-9424D01*
X245096Y-9323D01*
X245259Y-9160D01*
X245422Y-8916D01*
X245584Y-8631D01*
X245747Y-8264D01*
X245849Y-7837D01*
X245869Y-7613D01*
X245889Y-7369D01*
Y-7247D01*
X245869Y-7146D01*
X245849Y-6901D01*
X245767Y-6617D01*
X245666Y-6291D01*
X245503Y-5945D01*
X245259Y-5599D01*
X245116Y-5436D01*
X244954Y-5294D01*
X244933D01*
X244913Y-5253D01*
X244852Y-5213D01*
X244771Y-5172D01*
X244669Y-5111D01*
X244567Y-5050D01*
X244425Y-4989D01*
X244242Y-4908D01*
X244058Y-4826D01*
X243855Y-4765D01*
X243631Y-4704D01*
X243367Y-4643D01*
X243102Y-4582D01*
X242797Y-4562D01*
X242492Y-4521D01*
D02*
G37*
G36*
X203156Y-22028D02*
X203136D01*
X203095D01*
X203034D01*
X202932Y-22048D01*
X202708Y-22069D01*
X202423Y-22109D01*
X202098Y-22191D01*
X201752Y-22313D01*
X201427Y-22476D01*
X201142Y-22699D01*
X201101Y-22720D01*
X201020Y-22822D01*
X200918Y-22984D01*
X200776Y-23188D01*
X200633Y-23473D01*
X200531Y-23798D01*
X200450Y-24205D01*
X200409Y-24673D01*
Y-24795D01*
X200430Y-24897D01*
Y-24999D01*
X200450Y-25141D01*
X200511Y-25446D01*
X200592Y-25792D01*
X200735Y-26138D01*
X200938Y-26484D01*
X201203Y-26809D01*
X201243Y-26850D01*
X201345Y-26931D01*
X201508Y-27074D01*
X201752Y-27216D01*
X202037Y-27379D01*
X202362Y-27521D01*
X202729Y-27643D01*
X203156Y-27705D01*
Y-22028D01*
D02*
G37*
G36*
X261234Y-33605D02*
X261214D01*
X261173D01*
X261112D01*
X261010Y-33625D01*
X260786Y-33645D01*
X260501Y-33686D01*
X260176Y-33767D01*
X259830Y-33890D01*
X259505Y-34052D01*
X259220Y-34276D01*
X259179Y-34296D01*
X259098Y-34398D01*
X258996Y-34561D01*
X258853Y-34764D01*
X258711Y-35049D01*
X258609Y-35375D01*
X258528Y-35782D01*
X258487Y-36250D01*
Y-36372D01*
X258508Y-36473D01*
Y-36575D01*
X258528Y-36718D01*
X258589Y-37023D01*
X258670Y-37369D01*
X258813Y-37715D01*
X259016Y-38060D01*
X259281Y-38386D01*
X259321Y-38426D01*
X259423Y-38508D01*
X259586Y-38650D01*
X259830Y-38793D01*
X260115Y-38956D01*
X260441Y-39098D01*
X260807Y-39220D01*
X261234Y-39281D01*
Y-33605D01*
D02*
G37*
G36*
X224462Y-49006D02*
X218826D01*
X218806Y-49026D01*
X218785Y-49128D01*
X218724Y-49250D01*
X218663Y-49413D01*
X218602Y-49616D01*
X218541Y-49820D01*
X218419Y-50227D01*
Y-50247D01*
X218399Y-50329D01*
X218378Y-50430D01*
X218358Y-50573D01*
X218338Y-50736D01*
X218317Y-50939D01*
X218297Y-51387D01*
Y-51529D01*
X218317Y-51610D01*
Y-51732D01*
X218338Y-51875D01*
X218419Y-52180D01*
X218541Y-52526D01*
X218704Y-52892D01*
X218948Y-53238D01*
X219111Y-53421D01*
X219274Y-53563D01*
X219294D01*
X219314Y-53604D01*
X219375Y-53625D01*
X219457Y-53686D01*
X219558Y-53747D01*
X219660Y-53808D01*
X219803Y-53869D01*
X219965Y-53950D01*
X220149Y-54032D01*
X220352Y-54092D01*
X220820Y-54215D01*
X221369Y-54296D01*
X222000Y-54337D01*
X222020D01*
X222081D01*
X222163D01*
X222285D01*
X222427Y-54316D01*
X222610Y-54296D01*
X222997Y-54255D01*
X223424Y-54194D01*
X223872Y-54092D01*
X224279Y-53950D01*
X224665Y-53747D01*
X224706Y-53726D01*
X224808Y-53625D01*
X224950Y-53482D01*
X225113Y-53279D01*
X225275Y-53014D01*
X225418Y-52668D01*
X225520Y-52282D01*
X225540Y-52058D01*
X225560Y-51814D01*
Y-51692D01*
X225540Y-51549D01*
X225520Y-51366D01*
X225479Y-51142D01*
X225438Y-50898D01*
X225357Y-50634D01*
X225255Y-50369D01*
X225235Y-50329D01*
X225194Y-50247D01*
X225133Y-50105D01*
X225031Y-49922D01*
X224930Y-49718D01*
X224787Y-49494D01*
X224462Y-49006D01*
D02*
G37*
G36*
X204601Y-50573D02*
X204255D01*
X204234D01*
X204173D01*
X204072D01*
X203950Y-50593D01*
X203787D01*
X203604Y-50613D01*
X203197Y-50675D01*
X202729Y-50756D01*
X202261Y-50898D01*
X201813Y-51081D01*
X201610Y-51203D01*
X201427Y-51346D01*
X201406D01*
X201386Y-51387D01*
X201284Y-51488D01*
X201121Y-51651D01*
X200959Y-51895D01*
X200796Y-52180D01*
X200633Y-52546D01*
X200531Y-52953D01*
X200491Y-53177D01*
Y-53543D01*
X200511Y-53645D01*
Y-53767D01*
X200531Y-53889D01*
X200613Y-54194D01*
X200714Y-54540D01*
X200877Y-54886D01*
X201121Y-55232D01*
X201264Y-55395D01*
X201427Y-55537D01*
X201447D01*
X201467Y-55578D01*
X201528Y-55598D01*
X201610Y-55659D01*
X201691Y-55700D01*
X201813Y-55761D01*
X201956Y-55842D01*
X202139Y-55903D01*
X202322Y-55964D01*
X202525Y-56046D01*
X202769Y-56107D01*
X203014Y-56147D01*
X203298Y-56208D01*
X203583Y-56229D01*
X203909Y-56269D01*
X204255D01*
X204275D01*
X204336D01*
X204438D01*
X204560Y-56249D01*
X204723D01*
X204885Y-56229D01*
X205292Y-56168D01*
X205760Y-56086D01*
X206228Y-55944D01*
X206676Y-55761D01*
X206879Y-55639D01*
X207062Y-55517D01*
X207103Y-55476D01*
X207205Y-55374D01*
X207367Y-55212D01*
X207530Y-54967D01*
X207693Y-54682D01*
X207856Y-54316D01*
X207957Y-53889D01*
X207978Y-53665D01*
X207998Y-53421D01*
Y-53299D01*
X207978Y-53197D01*
X207957Y-52953D01*
X207876Y-52668D01*
X207774Y-52343D01*
X207612Y-51997D01*
X207367Y-51651D01*
X207225Y-51488D01*
X207062Y-51346D01*
X207042D01*
X207022Y-51305D01*
X206961Y-51265D01*
X206879Y-51224D01*
X206777Y-51163D01*
X206676Y-51102D01*
X206533Y-51041D01*
X206350Y-50959D01*
X206167Y-50878D01*
X205964Y-50817D01*
X205740Y-50756D01*
X205475Y-50695D01*
X205211Y-50634D01*
X204906Y-50613D01*
X204601Y-50573D01*
D02*
G37*
G36*
X241047Y-61590D02*
X241027D01*
X240986D01*
X240925D01*
X240823Y-61610D01*
X240600Y-61631D01*
X240315Y-61671D01*
X239989Y-61753D01*
X239643Y-61875D01*
X239318Y-62037D01*
X239033Y-62261D01*
X238992Y-62281D01*
X238911Y-62383D01*
X238809Y-62546D01*
X238667Y-62750D01*
X238524Y-63034D01*
X238423Y-63360D01*
X238341Y-63767D01*
X238301Y-64235D01*
Y-64357D01*
X238321Y-64458D01*
Y-64560D01*
X238341Y-64703D01*
X238402Y-65008D01*
X238484Y-65354D01*
X238626Y-65700D01*
X238830Y-66045D01*
X239094Y-66371D01*
X239135Y-66412D01*
X239237Y-66493D01*
X239399Y-66635D01*
X239643Y-66778D01*
X239928Y-66941D01*
X240254Y-67083D01*
X240620Y-67205D01*
X241047Y-67266D01*
Y-61590D01*
D02*
G37*
G36*
X202607Y-61783D02*
X202586D01*
X202546D01*
X202464D01*
X202342D01*
X202220Y-61803D01*
X202057D01*
X201691Y-61844D01*
X201284Y-61926D01*
X200857Y-62007D01*
X200409Y-62149D01*
X200002Y-62332D01*
X199982D01*
X199962Y-62353D01*
X199901Y-62393D01*
X199819Y-62434D01*
X199636Y-62556D01*
X199392Y-62739D01*
X199128Y-62963D01*
X198843Y-63248D01*
X198578Y-63573D01*
X198334Y-63940D01*
X198314Y-63980D01*
X198253Y-64082D01*
X198192Y-64225D01*
X198090Y-64428D01*
X197988Y-64693D01*
X197887Y-64977D01*
X197805Y-65283D01*
X197724Y-65608D01*
Y-65649D01*
X197703Y-65771D01*
X197663Y-65954D01*
X197622Y-66198D01*
X197602Y-66503D01*
X197561Y-66869D01*
X197541Y-67256D01*
Y-69331D01*
X207673D01*
Y-67378D01*
X207652Y-67256D01*
Y-66951D01*
X207632Y-66605D01*
X207591Y-66218D01*
X207551Y-65852D01*
X207490Y-65486D01*
Y-65445D01*
X207449Y-65323D01*
X207408Y-65140D01*
X207327Y-64916D01*
X207245Y-64652D01*
X207123Y-64367D01*
X206981Y-64062D01*
X206818Y-63757D01*
Y-63736D01*
X206798Y-63716D01*
X206696Y-63594D01*
X206574Y-63431D01*
X206371Y-63207D01*
X206147Y-62963D01*
X205862Y-62719D01*
X205536Y-62495D01*
X205170Y-62292D01*
X205150D01*
X205130Y-62271D01*
X205068Y-62251D01*
X204987Y-62210D01*
X204885Y-62170D01*
X204763Y-62129D01*
X204458Y-62027D01*
X204092Y-61946D01*
X203644Y-61864D01*
X203156Y-61803D01*
X202607Y-61783D01*
D02*
G37*
G36*
X262679Y-73644D02*
X262333D01*
X262312D01*
X262251D01*
X262150D01*
X262027Y-73665D01*
X261865D01*
X261681Y-73685D01*
X261275Y-73746D01*
X260807Y-73828D01*
X260339Y-73970D01*
X259891Y-74153D01*
X259688Y-74275D01*
X259505Y-74418D01*
X259484D01*
X259464Y-74458D01*
X259362Y-74560D01*
X259199Y-74723D01*
X259037Y-74967D01*
X258874Y-75252D01*
X258711Y-75618D01*
X258609Y-76025D01*
X258569Y-76249D01*
Y-76615D01*
X258589Y-76717D01*
Y-76839D01*
X258609Y-76961D01*
X258691Y-77266D01*
X258792Y-77612D01*
X258955Y-77958D01*
X259199Y-78303D01*
X259342Y-78466D01*
X259505Y-78609D01*
X259525D01*
X259545Y-78649D01*
X259606Y-78670D01*
X259688Y-78731D01*
X259769Y-78772D01*
X259891Y-78833D01*
X260034Y-78914D01*
X260217Y-78975D01*
X260400Y-79036D01*
X260603Y-79117D01*
X260847Y-79178D01*
X261091Y-79219D01*
X261376Y-79280D01*
X261661Y-79300D01*
X261987Y-79341D01*
X262333D01*
X262353D01*
X262414D01*
X262516D01*
X262638Y-79321D01*
X262801D01*
X262963Y-79300D01*
X263370Y-79239D01*
X263838Y-79158D01*
X264306Y-79016D01*
X264754Y-78833D01*
X264957Y-78710D01*
X265140Y-78588D01*
X265181Y-78548D01*
X265283Y-78446D01*
X265445Y-78283D01*
X265608Y-78039D01*
X265771Y-77754D01*
X265934Y-77388D01*
X266035Y-76961D01*
X266056Y-76737D01*
X266076Y-76493D01*
Y-76371D01*
X266056Y-76269D01*
X266035Y-76025D01*
X265954Y-75740D01*
X265852Y-75415D01*
X265690Y-75069D01*
X265445Y-74723D01*
X265303Y-74560D01*
X265140Y-74418D01*
X265120D01*
X265100Y-74377D01*
X265039Y-74336D01*
X264957Y-74296D01*
X264855Y-74234D01*
X264754Y-74173D01*
X264611Y-74112D01*
X264428Y-74031D01*
X264245Y-73950D01*
X264042Y-73889D01*
X263818Y-73828D01*
X263553Y-73766D01*
X263289Y-73706D01*
X262984Y-73685D01*
X262679Y-73644D01*
D02*
G37*
G36*
X222305Y-78934D02*
X221959D01*
X221939D01*
X221878D01*
X221776D01*
X221654Y-78955D01*
X221491D01*
X221308Y-78975D01*
X220901Y-79036D01*
X220433Y-79117D01*
X219965Y-79260D01*
X219518Y-79443D01*
X219314Y-79565D01*
X219131Y-79707D01*
X219111D01*
X219090Y-79748D01*
X218989Y-79850D01*
X218826Y-80013D01*
X218663Y-80257D01*
X218500Y-80541D01*
X218338Y-80908D01*
X218236Y-81315D01*
X218195Y-81538D01*
Y-81905D01*
X218216Y-82006D01*
Y-82128D01*
X218236Y-82250D01*
X218317Y-82556D01*
X218419Y-82902D01*
X218582Y-83247D01*
X218826Y-83593D01*
X218968Y-83756D01*
X219131Y-83898D01*
X219151D01*
X219172Y-83939D01*
X219233Y-83960D01*
X219314Y-84021D01*
X219396Y-84061D01*
X219518Y-84122D01*
X219660Y-84204D01*
X219843Y-84265D01*
X220026Y-84326D01*
X220230Y-84407D01*
X220474Y-84468D01*
X220718Y-84509D01*
X221003Y-84570D01*
X221288Y-84590D01*
X221613Y-84631D01*
X221959D01*
X221980D01*
X222041D01*
X222142D01*
X222264Y-84611D01*
X222427D01*
X222590Y-84590D01*
X222997Y-84529D01*
X223465Y-84448D01*
X223933Y-84305D01*
X224380Y-84122D01*
X224584Y-84000D01*
X224767Y-83878D01*
X224808Y-83837D01*
X224909Y-83736D01*
X225072Y-83573D01*
X225235Y-83329D01*
X225398Y-83044D01*
X225560Y-82678D01*
X225662Y-82250D01*
X225682Y-82027D01*
X225703Y-81783D01*
Y-81660D01*
X225682Y-81559D01*
X225662Y-81315D01*
X225581Y-81030D01*
X225479Y-80704D01*
X225316Y-80358D01*
X225072Y-80013D01*
X224930Y-79850D01*
X224767Y-79707D01*
X224746D01*
X224726Y-79667D01*
X224665Y-79626D01*
X224584Y-79585D01*
X224482Y-79524D01*
X224380Y-79463D01*
X224238Y-79402D01*
X224055Y-79321D01*
X223872Y-79239D01*
X223668Y-79178D01*
X223444Y-79117D01*
X223180Y-79056D01*
X222915Y-78995D01*
X222610Y-78975D01*
X222305Y-78934D01*
D02*
G37*
G36*
X222224Y-97632D02*
X221898D01*
X221878D01*
X221817D01*
X221735D01*
X221613D01*
X221451Y-97652D01*
X221288Y-97672D01*
X220901Y-97713D01*
X220454Y-97794D01*
X220026Y-97896D01*
X219599Y-98059D01*
X219416Y-98161D01*
X219233Y-98262D01*
X219213D01*
X219192Y-98283D01*
X219090Y-98384D01*
X218948Y-98527D01*
X218785Y-98730D01*
X218622Y-98995D01*
X218480Y-99300D01*
X218378Y-99686D01*
X218338Y-99910D01*
Y-100256D01*
X218358Y-100399D01*
X218378Y-100582D01*
X218419Y-100806D01*
X218480Y-101050D01*
X218561Y-101314D01*
X218663Y-101579D01*
X218684Y-101619D01*
X218724Y-101701D01*
X218785Y-101843D01*
X218887Y-102026D01*
X218989Y-102230D01*
X219131Y-102474D01*
X219294Y-102718D01*
X219477Y-102962D01*
X225072D01*
X225092Y-102921D01*
X225113Y-102840D01*
X225174Y-102718D01*
X225235Y-102555D01*
X225316Y-102372D01*
X225377Y-102169D01*
X225499Y-101762D01*
Y-101741D01*
X225520Y-101660D01*
X225540Y-101558D01*
Y-101416D01*
X225560Y-101253D01*
X225581Y-101050D01*
X225601Y-100602D01*
Y-100460D01*
X225581Y-100378D01*
Y-100256D01*
X225560Y-100114D01*
X225479Y-99809D01*
X225377Y-99463D01*
X225215Y-99096D01*
X224970Y-98730D01*
X224828Y-98567D01*
X224665Y-98425D01*
X224645D01*
X224624Y-98384D01*
X224563Y-98344D01*
X224482Y-98303D01*
X224401Y-98242D01*
X224279Y-98181D01*
X224136Y-98100D01*
X223973Y-98018D01*
X223790Y-97957D01*
X223587Y-97876D01*
X223343Y-97815D01*
X223099Y-97754D01*
X222834Y-97713D01*
X222549Y-97672D01*
X222224Y-97632D01*
D02*
G37*
G36*
X264835Y-135210D02*
X262068D01*
Y-135352D01*
X262089Y-135515D01*
X262109Y-135718D01*
X262129Y-135983D01*
X262150Y-136288D01*
X262190Y-136634D01*
X262211Y-137000D01*
Y-137041D01*
X262231Y-137163D01*
X262251Y-137346D01*
X262272Y-137590D01*
X262312Y-137834D01*
X262353Y-138099D01*
X262414Y-138363D01*
X262475Y-138607D01*
Y-138648D01*
X262516Y-138729D01*
X262556Y-138851D01*
X262638Y-139014D01*
X262719Y-139197D01*
X262821Y-139401D01*
X262963Y-139584D01*
X263106Y-139767D01*
X263126Y-139787D01*
X263187Y-139828D01*
X263289Y-139909D01*
X263411Y-139970D01*
X263574Y-140052D01*
X263777Y-140133D01*
X264021Y-140174D01*
X264286Y-140194D01*
X264326D01*
X264428D01*
X264571Y-140174D01*
X264754Y-140133D01*
X264957Y-140072D01*
X265161Y-139970D01*
X265364Y-139848D01*
X265547Y-139686D01*
X265567Y-139665D01*
X265608Y-139584D01*
X265690Y-139462D01*
X265751Y-139299D01*
X265832Y-139075D01*
X265913Y-138811D01*
X265954Y-138506D01*
X265974Y-138139D01*
Y-137997D01*
X265954Y-137834D01*
X265934Y-137610D01*
X265893Y-137366D01*
X265832Y-137102D01*
X265751Y-136817D01*
X265649Y-136552D01*
X265629Y-136512D01*
X265588Y-136430D01*
X265506Y-136288D01*
X265425Y-136125D01*
X265303Y-135901D01*
X265161Y-135678D01*
X264835Y-135210D01*
D02*
G37*
%LPD*%
D10*
X103139Y-125196D02*
G03*
X103139Y-125196I-1000J0D01*
G01*
X-101139Y125196D02*
G03*
X-101139Y125196I-1000J0D01*
G01*
X-197942Y-221999D02*
G03*
X-197942Y-221999I-1000J0D01*
G01*
X199942Y221999D02*
G03*
X199942Y221999I-1000J0D01*
G01*
X153583Y-77700D02*
X246439Y-170556D01*
X202256Y-214739D02*
X246439Y-170556D01*
X109400Y-121883D02*
X153583Y-77700D01*
X109400Y-121883D02*
X110158Y-122641D01*
X201498Y-213980D02*
X202256Y-214739D01*
X-77000Y-77000D02*
X0Y0D01*
X248118Y248118D01*
X-248118D02*
X0Y0D01*
X248118Y-248118D01*
X-202256Y214739D02*
X-201498Y213980D01*
X-110158Y122641D02*
X-109400Y121883D01*
X-153583Y77700D02*
X-109400Y121883D01*
X-246439Y170556D02*
X-202256Y214739D01*
X-246439Y170556D02*
X-153583Y77700D01*
X-246439Y-170556D02*
X-153583Y-77700D01*
X-109400Y-121883D01*
X-246439Y-170556D02*
X-202256Y-214739D01*
X-201498Y-213980D01*
X-110158Y-122641D02*
X-109400Y-121883D01*
X153583Y77700D02*
X246439Y170556D01*
X109400Y121883D02*
X153583Y77700D01*
X202256Y214739D02*
X246439Y170556D01*
X201498Y213980D02*
X202256Y214739D01*
X109400Y121883D02*
X110158Y122641D01*
X-248118Y-248118D02*
X-77000Y-77000D01*
X-107000Y156000D02*
X-101000D01*
X58000Y103000D02*
Y109000D01*
D11*
X172534Y-0D02*
G03*
X172534Y-0I-172534J0D01*
G01*
X306460Y-115915D02*
X291225D01*
Y-108298D01*
X293764Y-105758D01*
X298843D01*
X301382Y-108298D01*
Y-115915D01*
X306460Y-100680D02*
X291225D01*
Y-93062D01*
X293764Y-90523D01*
X298843D01*
X301382Y-93062D01*
Y-100680D01*
Y-95602D02*
X306460Y-90523D01*
X291225Y-77827D02*
Y-82906D01*
X293764Y-85445D01*
X303921D01*
X306460Y-82906D01*
Y-77827D01*
X303921Y-75288D01*
X293764D01*
X291225Y-77827D01*
Y-60053D02*
Y-65132D01*
Y-62592D01*
X303921D01*
X306460Y-65132D01*
Y-67671D01*
X303921Y-70210D01*
X291225Y-44818D02*
Y-54975D01*
X306460D01*
Y-44818D01*
X298843Y-54975D02*
Y-49896D01*
X291225Y-39740D02*
X306460D01*
X301382D01*
X291225Y-29583D01*
X298843Y-37201D01*
X306460Y-29583D01*
X291225Y-24505D02*
Y-14348D01*
Y-19426D01*
X306460D01*
X291225Y5965D02*
X306460D01*
X301382D01*
X291225Y16122D01*
X298843Y8505D01*
X306460Y16122D01*
X291225Y28818D02*
Y23740D01*
X293764Y21201D01*
X303921D01*
X306460Y23740D01*
Y28818D01*
X303921Y31357D01*
X293764D01*
X291225Y28818D01*
Y36436D02*
X306460D01*
Y46592D01*
X291225Y51671D02*
Y56749D01*
Y54210D01*
X306460D01*
Y51671D01*
Y56749D01*
X291225Y64367D02*
X306460D01*
Y71984D01*
X303921Y74523D01*
X301382D01*
X298843Y71984D01*
Y64367D01*
Y71984D01*
X296303Y74523D01*
X293764D01*
X291225Y71984D01*
Y64367D01*
X306460Y79602D02*
X291225D01*
Y87219D01*
X293764Y89758D01*
X298843D01*
X301382Y87219D01*
Y79602D01*
Y84680D02*
X306460Y89758D01*
X291225Y94837D02*
Y99915D01*
Y97376D01*
X306460D01*
Y94837D01*
Y99915D01*
X-195770Y-13424D02*
X-204234Y-21888D01*
Y-13424D02*
X-195770Y-21888D01*
X-200002Y-13424D02*
Y-21888D01*
X-204234Y-17656D02*
X-195770D01*
Y86576D02*
X-204234Y78112D01*
Y86576D02*
X-195770Y78112D01*
X-200002Y86576D02*
Y78112D01*
X-204234Y82344D02*
X-195770D01*
D12*
X62339Y276731D02*
X66515Y272555D01*
X-71209Y274724D02*
Y280993D01*
Y139007D02*
X-64940D01*
X70777D02*
Y145276D01*
X64508Y280993D02*
X70777D01*
X-71209D02*
X-64940D01*
X-71209Y139007D02*
Y145276D01*
X64508Y139007D02*
X70777D01*
Y274724D02*
Y280993D01*
X-187046Y28664D02*
X-185268D01*
X-214732Y71336D02*
X-212954D01*
X-187046D02*
X-185268D01*
Y28664D02*
Y71336D01*
X-214732Y28664D02*
X-212954D01*
X-214732D02*
Y71336D01*
X-187046Y-71336D02*
X-185268D01*
X-214732Y-28664D02*
X-212954D01*
X-187046D02*
X-185268D01*
Y-71336D02*
Y-28664D01*
X-214732Y-71336D02*
X-212954D01*
X-214732D02*
Y-28664D01*
D13*
X115327Y-115417D02*
X208721Y-208811D01*
X-208721Y208811D02*
X-115327Y115417D01*
X-208721Y-208811D02*
X-115327Y-115417D01*
X115327Y115417D02*
X208721Y208811D01*
D14*
X91000Y270000D02*
X95000D01*
X-95000Y149000D02*
X-91000D01*
X-94000Y268000D02*
X-90000D01*
X-35000Y300000D02*
Y304000D01*
X10000Y300000D02*
Y304000D01*
X30000Y300000D02*
Y304000D01*
X61000Y115000D02*
Y119000D01*
D15*
X70324Y304107D02*
X61860Y295643D01*
Y304107D02*
X70324Y295643D01*
X66092Y304107D02*
Y295643D01*
X61860Y299875D02*
X70324D01*
M02*
