G04*
G04 #@! TF.GenerationSoftware,Altium Limited,Altium Designer,22.6.1 (34)*
G04*
G04 Layer_Physical_Order=1*
G04 Layer_Color=255*
%FSLAX44Y44*%
%MOMM*%
G71*
G04*
G04 #@! TF.SameCoordinates,2749D786-5B7B-4281-819F-A1242ED465B1*
G04*
G04*
G04 #@! TF.FilePolarity,Positive*
G04*
G01*
G75*
%ADD11C,0.2540*%
%ADD13C,0.1000*%
%ADD14C,0.1500*%
%ADD16R,0.2794X1.4732*%
%ADD17R,1.4732X0.2794*%
%ADD18R,0.9000X0.7000*%
%ADD19R,1.9050X0.8128*%
G04:AMPARAMS|DCode=20|XSize=0.7874mm|YSize=1.4986mm|CornerRadius=0mm|HoleSize=0mm|Usage=FLASHONLY|Rotation=315.000|XOffset=0mm|YOffset=0mm|HoleType=Round|Shape=Rectangle|*
%AMROTATEDRECTD20*
4,1,4,-0.8082,-0.2515,0.2515,0.8082,0.8082,0.2515,-0.2515,-0.8082,-0.8082,-0.2515,0.0*
%
%ADD20ROTATEDRECTD20*%

G04:AMPARAMS|DCode=21|XSize=0.7874mm|YSize=1.4986mm|CornerRadius=0mm|HoleSize=0mm|Usage=FLASHONLY|Rotation=225.000|XOffset=0mm|YOffset=0mm|HoleType=Round|Shape=Rectangle|*
%AMROTATEDRECTD21*
4,1,4,-0.2515,0.8082,0.8082,-0.2515,0.2515,-0.8082,-0.8082,0.2515,-0.2515,0.8082,0.0*
%
%ADD21ROTATEDRECTD21*%

%ADD22R,0.6500X0.6500*%
%ADD23R,0.6500X0.6500*%
%ADD24R,0.7000X0.9000*%
G04:AMPARAMS|DCode=25|XSize=0.55mm|YSize=0.5mm|CornerRadius=0.0625mm|HoleSize=0mm|Usage=FLASHONLY|Rotation=180.000|XOffset=0mm|YOffset=0mm|HoleType=Round|Shape=RoundedRectangle|*
%AMROUNDEDRECTD25*
21,1,0.5500,0.3750,0,0,180.0*
21,1,0.4250,0.5000,0,0,180.0*
1,1,0.1250,-0.2125,0.1875*
1,1,0.1250,0.2125,0.1875*
1,1,0.1250,0.2125,-0.1875*
1,1,0.1250,-0.2125,-0.1875*
%
%ADD25ROUNDEDRECTD25*%
G04:AMPARAMS|DCode=26|XSize=0.55mm|YSize=0.5mm|CornerRadius=0.0625mm|HoleSize=0mm|Usage=FLASHONLY|Rotation=270.000|XOffset=0mm|YOffset=0mm|HoleType=Round|Shape=RoundedRectangle|*
%AMROUNDEDRECTD26*
21,1,0.5500,0.3750,0,0,270.0*
21,1,0.4250,0.5000,0,0,270.0*
1,1,0.1250,-0.1875,-0.2125*
1,1,0.1250,-0.1875,0.2125*
1,1,0.1250,0.1875,0.2125*
1,1,0.1250,0.1875,-0.2125*
%
%ADD26ROUNDEDRECTD26*%
G04:AMPARAMS|DCode=27|XSize=0.76mm|YSize=0.6604mm|CornerRadius=0.0825mm|HoleSize=0mm|Usage=FLASHONLY|Rotation=0.000|XOffset=0mm|YOffset=0mm|HoleType=Round|Shape=RoundedRectangle|*
%AMROUNDEDRECTD27*
21,1,0.7600,0.4953,0,0,0.0*
21,1,0.5949,0.6604,0,0,0.0*
1,1,0.1651,0.2975,-0.2477*
1,1,0.1651,-0.2975,-0.2477*
1,1,0.1651,-0.2975,0.2477*
1,1,0.1651,0.2975,0.2477*
%
%ADD27ROUNDEDRECTD27*%
G04:AMPARAMS|DCode=28|XSize=0.76mm|YSize=0.6604mm|CornerRadius=0.0825mm|HoleSize=0mm|Usage=FLASHONLY|Rotation=90.000|XOffset=0mm|YOffset=0mm|HoleType=Round|Shape=RoundedRectangle|*
%AMROUNDEDRECTD28*
21,1,0.7600,0.4953,0,0,90.0*
21,1,0.5949,0.6604,0,0,90.0*
1,1,0.1651,0.2477,0.2975*
1,1,0.1651,0.2477,-0.2975*
1,1,0.1651,-0.2477,-0.2975*
1,1,0.1651,-0.2477,0.2975*
%
%ADD28ROUNDEDRECTD28*%
%ADD50C,1.0000*%
%ADD51C,0.5000*%
%ADD52C,0.3000*%
%ADD53C,0.4000*%
%ADD54C,2.0000*%
%ADD55C,0.7000*%
%ADD56C,1.5748*%
%ADD57C,16.0000*%
%ADD58C,1.5000*%
%ADD59C,1.0000*%
%ADD60C,0.6000*%
%ADD61C,0.5000*%
G36*
X18158Y346476D02*
X36266Y345051D01*
X54275Y342680D01*
X72135Y339370D01*
X89798Y335130D01*
X107214Y329971D01*
X124336Y323908D01*
X141118Y316956D01*
X157513Y309136D01*
X173476Y300469D01*
X188963Y290978D01*
X203933Y280690D01*
X218344Y269632D01*
X232156Y257836D01*
X245332Y245332D01*
X257835Y232156D01*
X269632Y218344D01*
X280690Y203933D01*
X290978Y188964D01*
X300469Y173476D01*
X309136Y157513D01*
X316956Y141118D01*
X323907Y124336D01*
X329971Y107214D01*
X335130Y89798D01*
X339370Y72135D01*
X342680Y54275D01*
X345051Y36266D01*
X346476Y18158D01*
X346946Y229D01*
X346900Y-0D01*
X346946Y-229D01*
X346476Y-18158D01*
X345051Y-36266D01*
X342680Y-54275D01*
X339370Y-72135D01*
X335130Y-89798D01*
X329971Y-107214D01*
X323907Y-124337D01*
X316956Y-141118D01*
X309136Y-157513D01*
X300469Y-173476D01*
X290978Y-188964D01*
X280690Y-203933D01*
X269632Y-218344D01*
X257835Y-232156D01*
X245332Y-245332D01*
X232156Y-257836D01*
X218344Y-269632D01*
X203933Y-280690D01*
X188963Y-290978D01*
X173476Y-300469D01*
X157513Y-309137D01*
X141118Y-316956D01*
X124336Y-323908D01*
X107214Y-329971D01*
X89798Y-335130D01*
X72135Y-339370D01*
X54275Y-342680D01*
X36266Y-345051D01*
X18158Y-346477D01*
X228Y-346946D01*
X-0Y-346900D01*
X-229Y-346946D01*
X-18158Y-346477D01*
X-36267Y-345051D01*
X-54275Y-342680D01*
X-72136Y-339370D01*
X-89798Y-335130D01*
X-107214Y-329971D01*
X-124337Y-323908D01*
X-141118Y-316956D01*
X-157513Y-309137D01*
X-173476Y-300469D01*
X-188964Y-290978D01*
X-203933Y-280690D01*
X-218344Y-269632D01*
X-232156Y-257836D01*
X-245332Y-245332D01*
X-257836Y-232156D01*
X-269632Y-218344D01*
X-280690Y-203933D01*
X-290979Y-188964D01*
X-300469Y-173476D01*
X-309137Y-157513D01*
X-316957Y-141118D01*
X-323908Y-124337D01*
X-329971Y-107214D01*
X-335130Y-89798D01*
X-339370Y-72135D01*
X-342681Y-54275D01*
X-345051Y-36266D01*
X-346477Y-18158D01*
X-346946Y-229D01*
X-346901Y-0D01*
X-346946Y229D01*
X-346477Y18158D01*
X-345051Y36266D01*
X-342681Y54275D01*
X-339370Y72135D01*
X-335130Y89798D01*
X-329971Y107214D01*
X-323908Y124336D01*
X-316957Y141118D01*
X-309137Y157513D01*
X-300469Y173476D01*
X-290979Y188964D01*
X-280690Y203933D01*
X-269632Y218344D01*
X-257836Y232156D01*
X-245332Y245332D01*
X-232156Y257836D01*
X-218344Y269632D01*
X-203933Y280690D01*
X-188964Y290978D01*
X-173476Y300469D01*
X-157513Y309136D01*
X-141118Y316956D01*
X-124337Y323908D01*
X-107214Y329971D01*
X-89798Y335130D01*
X-72136Y339370D01*
X-54275Y342680D01*
X-36267Y345051D01*
X-18158Y346476D01*
X-229Y346946D01*
X-0Y346900D01*
X228Y346946D01*
X18158Y346476D01*
D02*
G37*
%LPC*%
G36*
X-28625Y307352D02*
X-29230D01*
Y303270D01*
X-25398D01*
Y304125D01*
X-25644Y305360D01*
X-26343Y306407D01*
X-27390Y307106D01*
X-28625Y307352D01*
D02*
G37*
G36*
X-60000Y317119D02*
X-115000D01*
X-116576Y316806D01*
X-117913Y315913D01*
X-152913Y280913D01*
X-153806Y279576D01*
X-154119Y278000D01*
Y276790D01*
X-155790D01*
Y265210D01*
Y260197D01*
X-155879Y259750D01*
X-155879Y259750D01*
Y255628D01*
X-158234Y253273D01*
X-158234Y253273D01*
X-187838Y223669D01*
X-189144Y224976D01*
X-203333Y210787D01*
X-202387Y209841D01*
X-204283Y207945D01*
X-205581Y208443D01*
X-205974Y209910D01*
X-206966Y211630D01*
X-208370Y213034D01*
X-210090Y214026D01*
X-212007Y214540D01*
X-213993D01*
X-215910Y214026D01*
X-217630Y213034D01*
X-219034Y211630D01*
X-220026Y209910D01*
X-220540Y207993D01*
Y206007D01*
X-220026Y204090D01*
X-219034Y202370D01*
X-218975Y202312D01*
X-219461Y201139D01*
X-220000D01*
X-221966Y200748D01*
X-223634Y199634D01*
X-253251Y170016D01*
X-254365Y168349D01*
X-254756Y166383D01*
Y158786D01*
X-255121Y158421D01*
X-256040Y156201D01*
Y153799D01*
X-255121Y151579D01*
X-253421Y149880D01*
X-251201Y148960D01*
X-248799D01*
X-247490Y149502D01*
X-246518Y148530D01*
X-247060Y147221D01*
Y144818D01*
X-246140Y142598D01*
X-244441Y140899D01*
X-242221Y139980D01*
X-239818D01*
X-238509Y140522D01*
X-237537Y139550D01*
X-238079Y138241D01*
Y135838D01*
X-237160Y133618D01*
X-235461Y131919D01*
X-233241Y130999D01*
X-230838D01*
X-229529Y131542D01*
X-228557Y130570D01*
X-229099Y129261D01*
Y126858D01*
X-228180Y124638D01*
X-226481Y122939D01*
X-224261Y122019D01*
X-221858D01*
X-220549Y122562D01*
X-219577Y121589D01*
X-220119Y120280D01*
Y117878D01*
X-219199Y115658D01*
X-217500Y113959D01*
X-215280Y113039D01*
X-212878D01*
X-211569Y113581D01*
X-210597Y112609D01*
X-211139Y111300D01*
Y108897D01*
X-210219Y106677D01*
X-208520Y104978D01*
X-206300Y104059D01*
X-203897D01*
X-202588Y104601D01*
X-201616Y103629D01*
X-202159Y102320D01*
Y99917D01*
X-201267Y97766D01*
X-197017Y102016D01*
X-192766Y106267D01*
X-194917Y107158D01*
X-197320D01*
X-198629Y106616D01*
X-199601Y107588D01*
X-199091Y108820D01*
X-150521Y157389D01*
X-149330Y156784D01*
X-145770Y153224D01*
X-138675Y160318D01*
X-136879Y158522D01*
X-143974Y151428D01*
X-139677Y147130D01*
X-188833Y97974D01*
X-189649Y97636D01*
X-190621Y98608D01*
X-190079Y99917D01*
Y102320D01*
X-190970Y104471D01*
X-195221Y100220D01*
X-199471Y95970D01*
X-197320Y95078D01*
X-194917D01*
X-193608Y95621D01*
X-192636Y94649D01*
X-193178Y93340D01*
Y90937D01*
X-192277Y88761D01*
Y82516D01*
X-194853Y79941D01*
X-195272Y80027D01*
X-197241Y79651D01*
X-197333Y79591D01*
X-212065D01*
Y73202D01*
X-222227Y63040D01*
X-229040D01*
Y50960D01*
X-214960D01*
Y55773D01*
X-204350Y66383D01*
X-196636D01*
X-196609Y66341D01*
X-194942Y65227D01*
X-192975Y64836D01*
X-191008Y65227D01*
X-189341Y66341D01*
X-189314Y66383D01*
X-187935D01*
Y69479D01*
X-187836Y69975D01*
Y71423D01*
X-187935Y71919D01*
Y72324D01*
X-183505Y76754D01*
X-182939Y77601D01*
X-181579Y78038D01*
X-179359Y77118D01*
X-176957D01*
X-175648Y77660D01*
X-174676Y76688D01*
X-175199Y75423D01*
X-202484Y48139D01*
X-214960D01*
Y49040D01*
X-229040D01*
Y36960D01*
X-214960D01*
Y37861D01*
X-200355D01*
X-198389Y38252D01*
X-196722Y39366D01*
X-167932Y68156D01*
X-165800Y69039D01*
X-154822D01*
X-152856Y69430D01*
X-151189Y70544D01*
X-124366Y97366D01*
X-123252Y99033D01*
X-122861Y101000D01*
Y113187D01*
X-114297Y121751D01*
X-113351Y120805D01*
X-99162Y134994D01*
X-105990Y141822D01*
X-105464Y143092D01*
X-105270D01*
Y149000D01*
X-102730D01*
Y143092D01*
X-101025D01*
X-99712Y143353D01*
X-99622Y143414D01*
X-98352Y142735D01*
Y142625D01*
X-98106Y141390D01*
X-97407Y140343D01*
X-96360Y139644D01*
X-95125Y139398D01*
X-93185D01*
X-93000Y139361D01*
X-87500D01*
X-87004Y139460D01*
X-85898D01*
X-83862Y140303D01*
X-82303Y141862D01*
X-81460Y143898D01*
Y146063D01*
X-67526D01*
Y153937D01*
X-77432D01*
Y156062D01*
X-67526D01*
Y156063D01*
Y166063D01*
Y176063D01*
Y186063D01*
Y196063D01*
Y206063D01*
Y216063D01*
Y226063D01*
Y236063D01*
Y246063D01*
Y256063D01*
Y267895D01*
X-66256Y268421D01*
X-65138Y267303D01*
X-63270Y266530D01*
Y272000D01*
X-62000D01*
Y273270D01*
X-56530D01*
X-57303Y275138D01*
X-58205Y276040D01*
X-57679Y277310D01*
X-31279D01*
Y287216D01*
X-29154D01*
Y277310D01*
X-8885D01*
Y269609D01*
X-32138Y246355D01*
X-41345D01*
X-42997Y247040D01*
X-45002D01*
X-46855Y246273D01*
X-48273Y244855D01*
X-49040Y243002D01*
Y240998D01*
X-48273Y239145D01*
X-46855Y237727D01*
X-45002Y236960D01*
X-42997D01*
X-41145Y237727D01*
X-40286Y238586D01*
X-30529D01*
X-29043Y238882D01*
X-27782Y239724D01*
X-10213Y257293D01*
X-8944Y256766D01*
X-8273Y255145D01*
X-6855Y253727D01*
X-5002Y252960D01*
X-2998D01*
X-1145Y253727D01*
X273Y255145D01*
X1040Y256998D01*
Y257546D01*
X2500Y259006D01*
X3960Y257546D01*
Y256998D01*
X4727Y255145D01*
X6145Y253727D01*
X7997Y252960D01*
X10002D01*
X11855Y253727D01*
X13273Y255145D01*
X14040Y256998D01*
Y259002D01*
X13273Y260855D01*
X11855Y262273D01*
X10002Y263040D01*
X9454D01*
X8885Y263609D01*
Y277310D01*
X13722D01*
Y286393D01*
X13885Y287216D01*
X15847D01*
Y277310D01*
X63721D01*
Y297122D01*
X39781D01*
X39191Y298392D01*
X39356Y298640D01*
X39602Y299875D01*
Y301815D01*
X39639Y302000D01*
Y303804D01*
X39697Y303862D01*
X40540Y305898D01*
Y308102D01*
X39697Y310138D01*
X38138Y311697D01*
X36102Y312540D01*
X33898D01*
X31862Y311697D01*
X30303Y310138D01*
X29460Y308102D01*
Y308066D01*
X29241Y307818D01*
X28190Y307190D01*
X27375Y307352D01*
X26770D01*
Y302000D01*
X24230D01*
Y307352D01*
X23625D01*
X22390Y307106D01*
X21343Y306407D01*
X20649Y305369D01*
X20603Y305360D01*
X19397D01*
X19351Y305369D01*
X18657Y306407D01*
X17610Y307106D01*
X16375Y307352D01*
X15770D01*
Y302000D01*
X13230D01*
Y307352D01*
X12625D01*
X11390Y307106D01*
X10343Y306407D01*
X9657D01*
X8610Y307106D01*
X7375Y307352D01*
X3625D01*
X2553Y307139D01*
X2071D01*
X1102Y307540D01*
X-1102D01*
X-3138Y306697D01*
X-4697Y305138D01*
X-5540Y303102D01*
Y300898D01*
X-4697Y298862D01*
X-4227Y298392D01*
X-4753Y297122D01*
X-25131D01*
X-25809Y298392D01*
X-25644Y298640D01*
X-25398Y299875D01*
Y300730D01*
X-30500D01*
Y302000D01*
X-31770D01*
Y307352D01*
X-32375D01*
X-33358Y307156D01*
X-34379Y307425D01*
X-34736Y307573D01*
X-34752Y307655D01*
X-35866Y309322D01*
X-36460Y309915D01*
Y310102D01*
X-37303Y312138D01*
X-38862Y313697D01*
X-40898Y314540D01*
X-43102D01*
X-45138Y313697D01*
X-46697Y312138D01*
X-47540Y310102D01*
Y308161D01*
X-48292Y307668D01*
X-48713Y307539D01*
X-57087Y315913D01*
X-58424Y316806D01*
X-60000Y317119D01*
D02*
G37*
G36*
X94102Y285540D02*
X91898D01*
X89862Y284697D01*
X88303Y283138D01*
X87460Y281102D01*
Y278898D01*
X87576Y278619D01*
X87167Y277243D01*
X85907Y276401D01*
X83518Y274012D01*
X77343D01*
X76968Y273937D01*
X67191D01*
X66855Y274273D01*
X65002Y275040D01*
X62997D01*
X61145Y274273D01*
X59727Y272855D01*
X58960Y271003D01*
Y268997D01*
X59727Y267145D01*
X61145Y265727D01*
X62997Y264960D01*
X65002D01*
X65824Y265300D01*
X67094Y264452D01*
Y256063D01*
Y246063D01*
Y236063D01*
Y226063D01*
Y216063D01*
Y206063D01*
Y196063D01*
Y186063D01*
Y176063D01*
Y166063D01*
Y156063D01*
Y146063D01*
X76084D01*
X77000Y145881D01*
X102000D01*
X103576Y146194D01*
X104913Y147087D01*
X109453Y151627D01*
X110346Y152964D01*
X110659Y154540D01*
Y184460D01*
X110346Y186036D01*
X109453Y187373D01*
X106540Y190285D01*
Y191102D01*
X105697Y193138D01*
X104138Y194697D01*
X102102Y195540D01*
X99898D01*
X97862Y194697D01*
X96303Y193138D01*
X95460Y191102D01*
Y188898D01*
X96303Y186862D01*
X97862Y185303D01*
X99898Y184460D01*
X100715D01*
X102421Y182754D01*
Y163125D01*
X101672Y162750D01*
X101151Y162677D01*
X96081Y167747D01*
X94821Y168589D01*
X93334Y168885D01*
X86906D01*
Y176063D01*
Y186063D01*
Y196063D01*
Y206063D01*
Y216063D01*
Y226115D01*
X125325D01*
X125727Y225145D01*
X127145Y223727D01*
X128997Y222960D01*
X131003D01*
X132855Y223727D01*
X134273Y225145D01*
X135040Y226998D01*
Y229002D01*
X134781Y229628D01*
X135002Y229960D01*
X136855Y230727D01*
X138273Y232145D01*
X139040Y233997D01*
Y236003D01*
X138273Y237855D01*
X136855Y239273D01*
X135002Y240040D01*
X132998D01*
X131145Y239273D01*
X130757Y238885D01*
X100539D01*
X99691Y240155D01*
X100040Y240998D01*
Y243002D01*
X99273Y244855D01*
X99186Y244942D01*
X99672Y246115D01*
X168391D01*
X188519Y225987D01*
X189144Y224976D01*
X179985Y215816D01*
X171004Y206836D01*
X162024Y197856D01*
X153044Y188875D01*
X150496Y186327D01*
X144370Y192453D01*
X143034Y193346D01*
X141457Y193659D01*
X129716D01*
X129138Y194237D01*
X127102Y195080D01*
X124898D01*
X122862Y194237D01*
X121303Y192678D01*
X120460Y190642D01*
Y188438D01*
X121303Y186402D01*
X122435Y185270D01*
X121303Y184138D01*
X120460Y182102D01*
Y179898D01*
X121303Y177862D01*
X122862Y176303D01*
X124898Y175460D01*
X127102D01*
X129138Y176303D01*
X129716Y176881D01*
X132452D01*
X136751Y172582D01*
X131581Y167412D01*
X138675Y160318D01*
X145770Y153224D01*
X150224Y157678D01*
X150309Y157621D01*
X199077Y108853D01*
X199601Y107588D01*
X198629Y106616D01*
X197320Y107158D01*
X194917D01*
X192766Y106267D01*
X197017Y102016D01*
X201267Y97766D01*
X202159Y99917D01*
Y102320D01*
X201616Y103629D01*
X202588Y104601D01*
X203897Y104059D01*
X206300D01*
X208520Y104978D01*
X210219Y106677D01*
X211139Y108897D01*
Y111300D01*
X210597Y112609D01*
X211569Y113581D01*
X212878Y113039D01*
X215280D01*
X217500Y113959D01*
X219200Y115658D01*
X220119Y117878D01*
Y120280D01*
X219577Y121589D01*
X220549Y122562D01*
X221858Y122019D01*
X224261D01*
X226481Y122939D01*
X228180Y124638D01*
X229099Y126858D01*
Y129261D01*
X228557Y130570D01*
X229529Y131542D01*
X230838Y130999D01*
X233241D01*
X235461Y131919D01*
X237160Y133618D01*
X238079Y135838D01*
Y138241D01*
X237537Y139550D01*
X238509Y140522D01*
X239818Y139980D01*
X242221D01*
X244441Y140899D01*
X246140Y142598D01*
X247060Y144818D01*
Y147221D01*
X246518Y148530D01*
X247490Y149502D01*
X248799Y148960D01*
X251201D01*
X253421Y149880D01*
X255121Y151579D01*
X256040Y153799D01*
Y156201D01*
X255121Y158421D01*
X254756Y158786D01*
Y167383D01*
X254365Y169349D01*
X253251Y171016D01*
X247981Y176287D01*
X248456Y177607D01*
X250138Y178303D01*
X251697Y179862D01*
X252540Y181898D01*
Y184102D01*
X251697Y186138D01*
X250138Y187697D01*
X248102Y188540D01*
X246954D01*
X222507Y212986D01*
X223165Y214125D01*
X224623Y213734D01*
X227925D01*
X231114Y214589D01*
X233974Y216240D01*
X236308Y218574D01*
X237959Y221434D01*
X238814Y224623D01*
Y227925D01*
X237959Y231114D01*
X236308Y233974D01*
X233974Y236309D01*
X231114Y237960D01*
X227925Y238814D01*
X224623D01*
X221434Y237960D01*
X218574Y236309D01*
X216239Y233974D01*
X214589Y231114D01*
X213734Y227925D01*
Y224623D01*
X214125Y223165D01*
X212986Y222508D01*
X176747Y258747D01*
X175487Y259589D01*
X174000Y259885D01*
X97510D01*
X97125Y261155D01*
X97407Y261343D01*
X98106Y262390D01*
X98352Y263625D01*
Y264230D01*
X93000D01*
Y266770D01*
X98352D01*
Y267375D01*
X98106Y268610D01*
X97407Y269657D01*
Y270343D01*
X98106Y271390D01*
X98352Y272625D01*
Y276375D01*
X98139Y277447D01*
Y277929D01*
X98540Y278898D01*
Y281102D01*
X97697Y283138D01*
X96138Y284697D01*
X94102Y285540D01*
D02*
G37*
G36*
X-56530Y270730D02*
X-60730D01*
Y266530D01*
X-58862Y267303D01*
X-57303Y268862D01*
X-56530Y270730D01*
D02*
G37*
G36*
X42270Y243470D02*
Y239270D01*
X46470D01*
X45697Y241138D01*
X44138Y242697D01*
X42270Y243470D01*
D02*
G37*
G36*
X39730D02*
X37862Y242697D01*
X36303Y241138D01*
X35530Y239270D01*
X39730D01*
Y243470D01*
D02*
G37*
G36*
X46470Y236730D02*
X42270D01*
Y232530D01*
X44138Y233303D01*
X45697Y234862D01*
X46470Y236730D01*
D02*
G37*
G36*
X39730D02*
X35530D01*
X36303Y234862D01*
X37862Y233303D01*
X39730Y232530D01*
Y236730D01*
D02*
G37*
G36*
X-224624Y238814D02*
X-227925D01*
X-231115Y237959D01*
X-233974Y236309D01*
X-236309Y233974D01*
X-237960Y231114D01*
X-238814Y227925D01*
Y224623D01*
X-237960Y221434D01*
X-236309Y218574D01*
X-233974Y216240D01*
X-231115Y214589D01*
X-227925Y213734D01*
X-224624D01*
X-221434Y214589D01*
X-218575Y216240D01*
X-216240Y218574D01*
X-214589Y221434D01*
X-213734Y224623D01*
Y227925D01*
X-214589Y231114D01*
X-216240Y233974D01*
X-218575Y236309D01*
X-221434Y237959D01*
X-224624Y238814D01*
D02*
G37*
G36*
X-148730Y152470D02*
Y148270D01*
X-144530D01*
X-145303Y150138D01*
X-146862Y151697D01*
X-148730Y152470D01*
D02*
G37*
G36*
X-151270D02*
X-153138Y151697D01*
X-154697Y150138D01*
X-155470Y148270D01*
X-151270D01*
Y152470D01*
D02*
G37*
G36*
X155388Y148510D02*
Y144310D01*
X159589D01*
X158815Y146178D01*
X157257Y147736D01*
X155388Y148510D01*
D02*
G37*
G36*
X152849D02*
X150980Y147736D01*
X149422Y146178D01*
X148648Y144310D01*
X152849D01*
Y148510D01*
D02*
G37*
G36*
X-144530Y145730D02*
X-148730D01*
Y141530D01*
X-146862Y142303D01*
X-145303Y143862D01*
X-144530Y145730D01*
D02*
G37*
G36*
X-151270D02*
X-155470D01*
X-154697Y143862D01*
X-153138Y142303D01*
X-151270Y141530D01*
Y145730D01*
D02*
G37*
G36*
X159589Y141770D02*
X155388D01*
Y137569D01*
X157257Y138343D01*
X158815Y139901D01*
X159589Y141770D01*
D02*
G37*
G36*
X152849D02*
X148648D01*
X149422Y139901D01*
X150980Y138343D01*
X152849Y137569D01*
Y141770D01*
D02*
G37*
G36*
X44102Y175540D02*
X41898D01*
X39862Y174697D01*
X38303Y173138D01*
X37460Y171102D01*
Y170285D01*
X31871Y164697D01*
X30978Y163360D01*
X30665Y161784D01*
Y142690D01*
X-64153D01*
Y124885D01*
X-96050D01*
X-96862Y125697D01*
X-98898Y126540D01*
X-101102D01*
X-103138Y125697D01*
X-104697Y124138D01*
X-105540Y122102D01*
Y119898D01*
X-105085Y118800D01*
X-105803Y117480D01*
X-106541Y117376D01*
X-106862Y117697D01*
X-108898Y118540D01*
X-111102D01*
X-113138Y117697D01*
X-114697Y116138D01*
X-115540Y114102D01*
Y111898D01*
X-114697Y109862D01*
X-113138Y108303D01*
X-111102Y107460D01*
X-108898D01*
X-106862Y108303D01*
X-106050Y109115D01*
X-98038D01*
X-97552Y107942D01*
X-140747Y64747D01*
X-141589Y63487D01*
X-141885Y62000D01*
Y21344D01*
X-143155Y20818D01*
X-143370Y21033D01*
X-145090Y22026D01*
X-146730Y22466D01*
Y15000D01*
Y7534D01*
X-145090Y7974D01*
X-143370Y8967D01*
X-143155Y9182D01*
X-141885Y8656D01*
Y-2050D01*
X-142697Y-2862D01*
X-143540Y-4898D01*
Y-7102D01*
X-142697Y-9138D01*
X-141138Y-10697D01*
X-139102Y-11540D01*
X-137352D01*
X-136422Y-12613D01*
X-136540Y-12898D01*
Y-15102D01*
X-135697Y-17138D01*
X-134138Y-18697D01*
X-132102Y-19540D01*
X-129898D01*
X-127862Y-18697D01*
X-126303Y-17138D01*
X-126155Y-16779D01*
X-124885Y-17032D01*
Y-39391D01*
X-231954Y-146460D01*
X-233102D01*
X-235138Y-147303D01*
X-236697Y-148862D01*
X-237540Y-150898D01*
Y-153102D01*
X-236697Y-155138D01*
X-235138Y-156697D01*
X-233102Y-157540D01*
X-232762D01*
X-232029Y-158810D01*
X-232704Y-159980D01*
X-233414Y-162629D01*
Y-165371D01*
X-232704Y-168020D01*
X-231333Y-170394D01*
X-229394Y-172333D01*
X-227020Y-173704D01*
X-224371Y-174414D01*
X-221629D01*
X-218980Y-173704D01*
X-216606Y-172333D01*
X-214667Y-170394D01*
X-213296Y-168020D01*
X-212586Y-165371D01*
Y-162629D01*
X-213296Y-159980D01*
X-214667Y-157606D01*
X-216606Y-155667D01*
X-218980Y-154296D01*
X-221629Y-153586D01*
X-224371D01*
X-225518Y-153893D01*
X-226460Y-152831D01*
Y-151954D01*
X-170878Y-96371D01*
X-169842Y-97119D01*
X-170552Y-99767D01*
Y-102509D01*
X-169842Y-105158D01*
X-168472Y-107533D01*
X-166533Y-109472D01*
X-164158Y-110843D01*
X-161509Y-111552D01*
X-158767D01*
X-156119Y-110843D01*
X-153744Y-109472D01*
X-151805Y-107533D01*
X-150434Y-105158D01*
X-149724Y-102509D01*
Y-99767D01*
X-150434Y-97119D01*
X-151805Y-94744D01*
X-153744Y-92805D01*
X-156119Y-91434D01*
X-158767Y-90724D01*
X-161509D01*
X-164158Y-91434D01*
X-164905Y-90399D01*
X-119155Y-44648D01*
X-117885Y-45174D01*
Y-74391D01*
X-120954Y-77460D01*
X-122102D01*
X-124138Y-78303D01*
X-125697Y-79862D01*
X-126540Y-81898D01*
Y-84102D01*
X-125697Y-86138D01*
X-124138Y-87697D01*
X-122102Y-88540D01*
X-119898D01*
X-117862Y-87697D01*
X-116303Y-86138D01*
X-115460Y-84102D01*
Y-82954D01*
X-111253Y-78747D01*
X-110411Y-77487D01*
X-110115Y-76000D01*
Y59391D01*
X-90778Y78728D01*
X-89540Y78170D01*
Y75349D01*
X-88686Y72160D01*
X-87035Y69300D01*
X-84700Y66965D01*
X-81840Y65314D01*
X-78651Y64460D01*
X-75349D01*
X-73274Y65016D01*
X-72616Y63877D01*
X-105747Y30747D01*
X-106589Y29487D01*
X-106885Y28000D01*
Y-77800D01*
X-106589Y-79287D01*
X-105747Y-80547D01*
X-74991Y-111303D01*
X-75485Y-112160D01*
X-75843Y-113493D01*
X-77157D01*
X-77515Y-112160D01*
X-79166Y-109300D01*
X-81500Y-106966D01*
X-84360Y-105315D01*
X-87549Y-104460D01*
X-90851D01*
X-94040Y-105315D01*
X-96900Y-106966D01*
X-99235Y-109300D01*
X-100885Y-112160D01*
X-101740Y-115349D01*
Y-118651D01*
X-100885Y-121840D01*
X-99235Y-124700D01*
X-96900Y-127035D01*
X-94040Y-128685D01*
X-90851Y-129540D01*
X-87549D01*
X-84360Y-128685D01*
X-81500Y-127035D01*
X-79166Y-124700D01*
X-77515Y-121840D01*
X-77157Y-120507D01*
X-75843D01*
X-75485Y-121840D01*
X-73835Y-124700D01*
X-71500Y-127035D01*
X-68640Y-128685D01*
X-65451Y-129540D01*
X-62149D01*
X-58960Y-128685D01*
X-56100Y-127035D01*
X-53766Y-124700D01*
X-52115Y-121840D01*
X-51757Y-120507D01*
X-50443D01*
X-50085Y-121840D01*
X-48435Y-124700D01*
X-46100Y-127035D01*
X-43240Y-128685D01*
X-40051Y-129540D01*
X-36749D01*
X-33560Y-128685D01*
X-30700Y-127035D01*
X-28365Y-124700D01*
X-26715Y-121840D01*
X-26357Y-120507D01*
X-25043D01*
X-24685Y-121840D01*
X-23035Y-124700D01*
X-20700Y-127035D01*
X-17840Y-128685D01*
X-14651Y-129540D01*
X-11349D01*
X-8160Y-128685D01*
X-5300Y-127035D01*
X-2966Y-124700D01*
X-1315Y-121840D01*
X-957Y-120507D01*
X357D01*
X715Y-121840D01*
X2366Y-124700D01*
X4700Y-127035D01*
X7560Y-128685D01*
X10749Y-129540D01*
X14051D01*
X17240Y-128685D01*
X20100Y-127035D01*
X22434Y-124700D01*
X24085Y-121840D01*
X24443Y-120507D01*
X25757D01*
X26115Y-121840D01*
X27766Y-124700D01*
X30100Y-127035D01*
X32761Y-128571D01*
Y-130960D01*
X31960D01*
Y-145040D01*
X44040D01*
Y-130960D01*
X43039D01*
Y-128455D01*
X45500Y-127035D01*
X47835Y-124700D01*
X49485Y-121840D01*
X49843Y-120507D01*
X51157D01*
X51515Y-121840D01*
X53165Y-124700D01*
X55500Y-127035D01*
X58360Y-128685D01*
X61549Y-129540D01*
X64851D01*
X68040Y-128685D01*
X70900Y-127035D01*
X73235Y-124700D01*
X74885Y-121840D01*
X75243Y-120507D01*
X76557D01*
X76915Y-121840D01*
X78566Y-124700D01*
X80900Y-127035D01*
X83760Y-128685D01*
X86949Y-129540D01*
X90251D01*
X93440Y-128685D01*
X96300Y-127035D01*
X98635Y-124700D01*
X100285Y-121840D01*
X101140Y-118651D01*
Y-115349D01*
X100285Y-112160D01*
X98782Y-109555D01*
X98860Y-109150D01*
X99928Y-108747D01*
X100297Y-108791D01*
X112831Y-121325D01*
X99162Y-134994D01*
X100118Y-135950D01*
X87899Y-148170D01*
X85756Y-149057D01*
X84057Y-150756D01*
X83138Y-152976D01*
Y-155379D01*
X84057Y-157599D01*
X85756Y-159298D01*
X87976Y-160218D01*
X90379D01*
X91688Y-159676D01*
X92660Y-160648D01*
X92118Y-161957D01*
Y-164359D01*
X93038Y-166579D01*
X94737Y-168278D01*
X96957Y-169198D01*
X99359D01*
X100668Y-168656D01*
X101640Y-169628D01*
X101098Y-170937D01*
Y-173340D01*
X102018Y-175560D01*
X103717Y-177259D01*
X105937Y-178178D01*
X108340D01*
X109649Y-177636D01*
X110621Y-178608D01*
X110078Y-179917D01*
Y-182320D01*
X110970Y-184471D01*
X115220Y-180220D01*
X119471Y-175970D01*
X117320Y-175079D01*
X114917D01*
X113608Y-175621D01*
X112636Y-174649D01*
X113174Y-173350D01*
X125005Y-161519D01*
X126244Y-162076D01*
X129785Y-165616D01*
X136879Y-158522D01*
X138675Y-160318D01*
X131581Y-167412D01*
X136039Y-171871D01*
X123820Y-184091D01*
X122588Y-184601D01*
X121616Y-183629D01*
X122158Y-182320D01*
Y-179917D01*
X121267Y-177766D01*
X117016Y-182017D01*
X112766Y-186267D01*
X114917Y-187159D01*
X117320D01*
X118629Y-186616D01*
X119601Y-187588D01*
X119059Y-188897D01*
Y-191300D01*
X119978Y-193520D01*
X121677Y-195219D01*
X123897Y-196139D01*
X126300D01*
X127609Y-195597D01*
X128581Y-196569D01*
X128039Y-197878D01*
Y-200280D01*
X128959Y-202500D01*
X130658Y-204199D01*
X132878Y-205119D01*
X135280D01*
X136589Y-204577D01*
X137561Y-205549D01*
X137019Y-206858D01*
Y-209261D01*
X137939Y-211481D01*
X139638Y-213180D01*
X141858Y-214099D01*
X144261D01*
X145570Y-213557D01*
X146542Y-214529D01*
X145999Y-215838D01*
Y-218241D01*
X146919Y-220461D01*
X148618Y-222160D01*
X150838Y-223079D01*
X153241D01*
X154550Y-222537D01*
X155522Y-223509D01*
X154980Y-224818D01*
Y-227221D01*
X155899Y-229441D01*
X157598Y-231140D01*
X159818Y-232060D01*
X162221D01*
X163530Y-231518D01*
X164502Y-232490D01*
X163960Y-233799D01*
Y-236201D01*
X164879Y-238421D01*
X166579Y-240121D01*
X168799Y-241040D01*
X171201D01*
X173421Y-240121D01*
X175121Y-238421D01*
X176036Y-236212D01*
X188208Y-224039D01*
X189144Y-224976D01*
X202813Y-211307D01*
X205460Y-213954D01*
Y-215102D01*
X206303Y-217138D01*
X207862Y-218697D01*
X209898Y-219540D01*
X212102D01*
X214138Y-218697D01*
X215697Y-217138D01*
X216540Y-215102D01*
Y-212898D01*
X216337Y-212407D01*
X217270Y-211343D01*
X218007Y-211540D01*
X219993D01*
X221910Y-211026D01*
X223630Y-210033D01*
X225033Y-208630D01*
X226026Y-206910D01*
X226540Y-204993D01*
Y-203007D01*
X226026Y-201090D01*
X225033Y-199370D01*
X223630Y-197966D01*
X221910Y-196974D01*
X219993Y-196460D01*
X218007D01*
X216090Y-196974D01*
X214370Y-197966D01*
X212966Y-199370D01*
X211974Y-201090D01*
X211460Y-203007D01*
Y-204993D01*
X211839Y-206409D01*
X211221Y-207545D01*
X210988Y-207742D01*
X210310Y-207816D01*
X112207Y-109713D01*
X112617Y-108327D01*
X114138Y-107697D01*
X115697Y-106138D01*
X116540Y-104102D01*
Y-101898D01*
X115697Y-99862D01*
X114138Y-98303D01*
X112102Y-97460D01*
X110954D01*
X106115Y-92621D01*
Y31770D01*
X105819Y33257D01*
X104977Y34517D01*
X76304Y63190D01*
X76830Y64460D01*
X78651D01*
X81840Y65315D01*
X84699Y66965D01*
X87034Y69300D01*
X88685Y72160D01*
X89540Y75349D01*
Y78651D01*
X88685Y81840D01*
X87034Y84700D01*
X84699Y87035D01*
X81840Y88685D01*
X78651Y89540D01*
X75349D01*
X72160Y88685D01*
X69300Y87035D01*
X66965Y84700D01*
X65314Y81840D01*
X64460Y78651D01*
Y76830D01*
X63190Y76304D01*
X33669Y105825D01*
Y122878D01*
X45899D01*
Y111105D01*
X45353Y110288D01*
X45092Y108975D01*
Y103026D01*
X45353Y101712D01*
X46097Y100599D01*
X47210Y99855D01*
X48524Y99594D01*
X53477D01*
X54790Y99855D01*
X55903Y100599D01*
X56647Y101712D01*
X56908Y103026D01*
Y108975D01*
X56647Y110288D01*
X56586Y110378D01*
X57265Y111648D01*
X58375D01*
X58790Y111731D01*
X59554Y110588D01*
X59353Y110288D01*
X59092Y108975D01*
Y107270D01*
X65000D01*
X70908D01*
Y108975D01*
X70647Y110288D01*
X69982Y111283D01*
X69657Y112246D01*
Y112593D01*
X70356Y113640D01*
X70602Y114875D01*
Y116815D01*
X70639Y117000D01*
Y120804D01*
X70697Y120862D01*
X71540Y122898D01*
Y125102D01*
X70697Y127138D01*
X69138Y128697D01*
X67102Y129540D01*
X64898D01*
X64852Y129521D01*
X63796Y130226D01*
Y132657D01*
X63721Y133032D01*
Y142690D01*
X55846D01*
Y132784D01*
X53721D01*
Y142690D01*
X51321D01*
X50795Y143960D01*
X51697Y144862D01*
X52540Y146898D01*
Y149102D01*
X51697Y151138D01*
X50138Y152697D01*
X48102Y153540D01*
X45989D01*
X45867Y153566D01*
X44803Y154461D01*
X44833Y154763D01*
X46138Y155303D01*
X47697Y156862D01*
X48540Y158898D01*
Y161102D01*
X47697Y163138D01*
X46664Y164170D01*
X46279Y165000D01*
X46664Y165830D01*
X47697Y166862D01*
X48540Y168898D01*
Y171102D01*
X47697Y173138D01*
X46138Y174697D01*
X44102Y175540D01*
D02*
G37*
G36*
X70908Y104730D02*
X66270D01*
Y99594D01*
X67477D01*
X68790Y99855D01*
X69903Y100599D01*
X70647Y101712D01*
X70908Y103026D01*
Y104730D01*
D02*
G37*
G36*
X63730D02*
X59092D01*
Y103026D01*
X59353Y101712D01*
X60097Y100599D01*
X61210Y99855D01*
X62523Y99594D01*
X63730D01*
Y104730D01*
D02*
G37*
G36*
X129785Y165616D02*
X126103Y161935D01*
X117123Y152954D01*
X108143Y143974D01*
X99162Y134994D01*
X106922Y127234D01*
X107203Y126813D01*
X110861Y123155D01*
Y105000D01*
X111252Y103034D01*
X112366Y101366D01*
X143189Y70544D01*
X144856Y69430D01*
X146822Y69039D01*
X165800D01*
X167976Y68138D01*
X170379D01*
X172599Y69057D01*
X174298Y70756D01*
X175218Y72976D01*
Y75379D01*
X174676Y76688D01*
X175648Y77660D01*
X176957Y77118D01*
X179359D01*
X181579Y78038D01*
X183278Y79737D01*
X184198Y81957D01*
Y84359D01*
X183656Y85668D01*
X184628Y86640D01*
X185937Y86098D01*
X188340D01*
X190560Y87018D01*
X192259Y88717D01*
X193178Y90937D01*
Y93340D01*
X192636Y94649D01*
X193608Y95621D01*
X194917Y95078D01*
X197320D01*
X199471Y95970D01*
X195221Y100220D01*
X190970Y104471D01*
X190079Y102320D01*
Y99917D01*
X190364Y99228D01*
X189454Y98115D01*
X188611Y98196D01*
X139677Y147130D01*
X143974Y151428D01*
X136879Y158522D01*
X129785Y165616D01*
D02*
G37*
G36*
X111322Y82040D02*
X108678D01*
X106125Y81356D01*
X103835Y80034D01*
X101966Y78165D01*
X100644Y75875D01*
X99960Y73322D01*
Y70678D01*
X100644Y68125D01*
X101966Y65835D01*
X103835Y63966D01*
X106125Y62644D01*
X108678Y61960D01*
X111322D01*
X113875Y62644D01*
X116165Y63966D01*
X118034Y65835D01*
X119356Y68125D01*
X120040Y70678D01*
Y73322D01*
X119356Y75875D01*
X118034Y78165D01*
X116165Y80034D01*
X113875Y81356D01*
X111322Y82040D01*
D02*
G37*
G36*
X281322Y64040D02*
X278678D01*
X276125Y63356D01*
X273835Y62034D01*
X271966Y60165D01*
X270644Y57875D01*
X269960Y55322D01*
Y52678D01*
X270644Y50125D01*
X271966Y47835D01*
X273835Y45966D01*
X276125Y44644D01*
X278678Y43960D01*
X281322D01*
X283875Y44644D01*
X286165Y45966D01*
X288034Y47835D01*
X289356Y50125D01*
X290040Y52678D01*
Y55322D01*
X289356Y57875D01*
X288034Y60165D01*
X286165Y62034D01*
X283875Y63356D01*
X281322Y64040D01*
D02*
G37*
G36*
X-187935Y33617D02*
X-198730D01*
Y28283D01*
X-187935D01*
Y33617D01*
D02*
G37*
G36*
X-201270D02*
X-212065D01*
Y28283D01*
X-201270D01*
Y33617D01*
D02*
G37*
G36*
X137322Y37040D02*
X137270D01*
Y28270D01*
X146040D01*
Y28322D01*
X145356Y30875D01*
X144034Y33165D01*
X142165Y35034D01*
X139875Y36356D01*
X137322Y37040D01*
D02*
G37*
G36*
X134730D02*
X134678D01*
X132125Y36356D01*
X129835Y35034D01*
X127966Y33165D01*
X126644Y30875D01*
X125960Y28322D01*
Y28270D01*
X134730D01*
Y37040D01*
D02*
G37*
G36*
X-187935Y25743D02*
X-198730D01*
Y20409D01*
X-187935D01*
Y25743D01*
D02*
G37*
G36*
X-201270D02*
X-212065D01*
Y20409D01*
X-201270D01*
Y25743D01*
D02*
G37*
G36*
X146040Y25730D02*
X137270D01*
Y16960D01*
X137322D01*
X139875Y17644D01*
X142165Y18966D01*
X144034Y20835D01*
X145356Y23125D01*
X146040Y25678D01*
Y25730D01*
D02*
G37*
G36*
X134730D02*
X125960D01*
Y25678D01*
X126644Y23125D01*
X127966Y20835D01*
X129835Y18966D01*
X132125Y17644D01*
X134678Y16960D01*
X134730D01*
Y25730D01*
D02*
G37*
G36*
X-149270Y22466D02*
X-150910Y22026D01*
X-152630Y21033D01*
X-154033Y19630D01*
X-155026Y17910D01*
X-155466Y16270D01*
X-149270D01*
Y22466D01*
D02*
G37*
G36*
Y13730D02*
X-155466D01*
X-155026Y12090D01*
X-154033Y10370D01*
X-152630Y8967D01*
X-150910Y7974D01*
X-149270Y7534D01*
Y13730D01*
D02*
G37*
G36*
X-260007Y17540D02*
X-261993D01*
X-263910Y17026D01*
X-265630Y16034D01*
X-267034Y14630D01*
X-268026Y12910D01*
X-268540Y10993D01*
Y9007D01*
X-268026Y7090D01*
X-267034Y5370D01*
X-265630Y3966D01*
X-263910Y2974D01*
X-261993Y2460D01*
X-260007D01*
X-258090Y2974D01*
X-256370Y3966D01*
X-254967Y5370D01*
X-253974Y7090D01*
X-253460Y9007D01*
Y10993D01*
X-253974Y12910D01*
X-254967Y14630D01*
X-256370Y16034D01*
X-258090Y17026D01*
X-260007Y17540D01*
D02*
G37*
G36*
X127372Y-13010D02*
X127320D01*
Y-21780D01*
X136090D01*
Y-21728D01*
X135406Y-19175D01*
X134084Y-16885D01*
X132215Y-15016D01*
X129925Y-13694D01*
X127372Y-13010D01*
D02*
G37*
G36*
X124780D02*
X124728D01*
X122175Y-13694D01*
X119885Y-15016D01*
X118016Y-16885D01*
X116694Y-19175D01*
X116010Y-21728D01*
Y-21780D01*
X124780D01*
Y-13010D01*
D02*
G37*
G36*
X167322Y-12960D02*
X164678D01*
X162125Y-13644D01*
X159835Y-14966D01*
X157966Y-16835D01*
X156644Y-19125D01*
X155960Y-21678D01*
Y-24322D01*
X156644Y-26875D01*
X157966Y-29165D01*
X159835Y-31034D01*
X162125Y-32356D01*
X164678Y-33040D01*
X167322D01*
X169875Y-32356D01*
X172165Y-31034D01*
X174034Y-29165D01*
X175356Y-26875D01*
X176040Y-24322D01*
Y-21678D01*
X175356Y-19125D01*
X174034Y-16835D01*
X172165Y-14966D01*
X169875Y-13644D01*
X167322Y-12960D01*
D02*
G37*
G36*
X136090Y-24320D02*
X127320D01*
Y-33090D01*
X127372D01*
X129925Y-32406D01*
X132215Y-31084D01*
X134084Y-29215D01*
X135406Y-26925D01*
X136090Y-24372D01*
Y-24320D01*
D02*
G37*
G36*
X124780D02*
X116010D01*
Y-24372D01*
X116694Y-26925D01*
X118016Y-29215D01*
X119885Y-31084D01*
X122175Y-32406D01*
X124728Y-33090D01*
X124780D01*
Y-24320D01*
D02*
G37*
G36*
X-214960Y-36960D02*
X-220730D01*
Y-41730D01*
X-214960D01*
Y-36960D01*
D02*
G37*
G36*
X-223270D02*
X-229040D01*
Y-41730D01*
X-223270D01*
Y-36960D01*
D02*
G37*
G36*
X-214960Y-44270D02*
X-220730D01*
Y-49040D01*
X-214960D01*
Y-44270D01*
D02*
G37*
G36*
X-223270D02*
X-229040D01*
Y-49040D01*
X-223270D01*
Y-44270D01*
D02*
G37*
G36*
X-195475Y-20344D02*
X-195969Y-20409D01*
X-212065D01*
Y-33617D01*
X-200562D01*
X-171802Y-62378D01*
X-170227Y-63586D01*
X-169467Y-63901D01*
X-168392Y-64346D01*
X-167064Y-64521D01*
X-166993Y-64540D01*
X-166918D01*
X-166424Y-64605D01*
X-166000D01*
X-165506Y-64540D01*
X-165007D01*
X-164526Y-64411D01*
X-164032Y-64346D01*
X-163571Y-64155D01*
X-163090Y-64026D01*
X-162658Y-63777D01*
X-162197Y-63586D01*
X-161802Y-63283D01*
X-161370Y-63033D01*
X-161018Y-62681D01*
X-160622Y-62378D01*
X-160319Y-61982D01*
X-159966Y-61630D01*
X-159717Y-61198D01*
X-159414Y-60802D01*
X-159223Y-60342D01*
X-158974Y-59910D01*
X-158845Y-59429D01*
X-158654Y-58968D01*
X-158589Y-58474D01*
X-158460Y-57993D01*
Y-57494D01*
X-158395Y-57000D01*
X-158460Y-56506D01*
Y-56007D01*
X-158589Y-55526D01*
X-158654Y-55032D01*
X-158845Y-54571D01*
X-158974Y-54090D01*
X-159223Y-53658D01*
X-159414Y-53197D01*
X-159717Y-52802D01*
X-159966Y-52370D01*
X-160319Y-52018D01*
X-160622Y-51622D01*
X-161018Y-51319D01*
X-161370Y-50967D01*
X-161802Y-50717D01*
X-162197Y-50414D01*
X-162296Y-50373D01*
X-187935Y-24734D01*
Y-20409D01*
X-194981D01*
X-195475Y-20344D01*
D02*
G37*
G36*
X-214960Y-50960D02*
X-229040D01*
Y-63040D01*
X-222227D01*
X-212065Y-73202D01*
Y-79591D01*
X-187935D01*
Y-78132D01*
X-171086D01*
X-170102Y-78540D01*
X-167898D01*
X-165862Y-77697D01*
X-164303Y-76138D01*
X-163460Y-74102D01*
Y-71898D01*
X-164303Y-69862D01*
X-165862Y-68303D01*
X-167898Y-67460D01*
X-170102D01*
X-171055Y-67855D01*
X-187935D01*
Y-66383D01*
X-204350D01*
X-214960Y-55773D01*
Y-50960D01*
D02*
G37*
G36*
X134602Y-70960D02*
X132398D01*
X130362Y-71803D01*
X128803Y-73362D01*
X127960Y-75398D01*
Y-77602D01*
X128803Y-79638D01*
X130362Y-81197D01*
X132398Y-82040D01*
X134602D01*
X136638Y-81197D01*
X138197Y-79638D01*
X139040Y-77602D01*
Y-75398D01*
X138197Y-73362D01*
X136638Y-71803D01*
X134602Y-70960D01*
D02*
G37*
G36*
X-105730Y-90530D02*
Y-94730D01*
X-101530D01*
X-102303Y-92862D01*
X-103862Y-91303D01*
X-105730Y-90530D01*
D02*
G37*
G36*
X-108270D02*
X-110138Y-91303D01*
X-111697Y-92862D01*
X-112470Y-94730D01*
X-108270D01*
Y-90530D01*
D02*
G37*
G36*
X-101530Y-97270D02*
X-105730D01*
Y-101470D01*
X-103862Y-100697D01*
X-102303Y-99138D01*
X-101530Y-97270D01*
D02*
G37*
G36*
X-108270D02*
X-112470D01*
X-111697Y-99138D01*
X-110138Y-100697D01*
X-108270Y-101470D01*
Y-97270D01*
D02*
G37*
G36*
X197270Y-100530D02*
Y-104730D01*
X201470D01*
X200697Y-102862D01*
X199138Y-101303D01*
X197270Y-100530D01*
D02*
G37*
G36*
X194730D02*
X192862Y-101303D01*
X191303Y-102862D01*
X190530Y-104730D01*
X194730D01*
Y-100530D01*
D02*
G37*
G36*
X201470Y-107270D02*
X197270D01*
Y-111470D01*
X199138Y-110697D01*
X200697Y-109138D01*
X201470Y-107270D01*
D02*
G37*
G36*
X194730D02*
X190530D01*
X191303Y-109138D01*
X192862Y-110697D01*
X194730Y-111470D01*
Y-107270D01*
D02*
G37*
G36*
X161509Y-90724D02*
X158767D01*
X156119Y-91434D01*
X153744Y-92805D01*
X151805Y-94744D01*
X150434Y-97119D01*
X149724Y-99767D01*
Y-102509D01*
X150434Y-105158D01*
X151805Y-107533D01*
X153744Y-109472D01*
X156119Y-110843D01*
X158767Y-111552D01*
X161509D01*
X164158Y-110843D01*
X166533Y-109472D01*
X168472Y-107533D01*
X169842Y-105158D01*
X170552Y-102509D01*
Y-99767D01*
X169842Y-97119D01*
X168472Y-94744D01*
X166533Y-92805D01*
X164158Y-91434D01*
X161509Y-90724D01*
D02*
G37*
G36*
X168270Y-128530D02*
Y-132730D01*
X172470D01*
X171697Y-130862D01*
X170138Y-129303D01*
X168270Y-128530D01*
D02*
G37*
G36*
X165730D02*
X163862Y-129303D01*
X162303Y-130862D01*
X161530Y-132730D01*
X165730D01*
Y-128530D01*
D02*
G37*
G36*
X172470Y-135270D02*
X168270D01*
Y-139470D01*
X170138Y-138697D01*
X171697Y-137138D01*
X172470Y-135270D01*
D02*
G37*
G36*
X165730D02*
X161530D01*
X162303Y-137138D01*
X163862Y-138697D01*
X165730Y-139470D01*
Y-135270D01*
D02*
G37*
G36*
X58040Y-130960D02*
X45960D01*
Y-145040D01*
X58040D01*
Y-143540D01*
X60102D01*
X62138Y-142697D01*
X63697Y-141138D01*
X64540Y-139102D01*
Y-136898D01*
X63697Y-134862D01*
X62138Y-133303D01*
X60102Y-132460D01*
X58040D01*
Y-130960D01*
D02*
G37*
G36*
X-113351Y-120805D02*
X-122511Y-129965D01*
X-131491Y-138945D01*
X-140471Y-147925D01*
X-143974Y-151428D01*
X-136879Y-158522D01*
X-129785Y-165616D01*
X-125346Y-161178D01*
X-113174Y-173350D01*
X-112636Y-174649D01*
X-113608Y-175621D01*
X-114917Y-175079D01*
X-117320D01*
X-119471Y-175970D01*
X-115220Y-180221D01*
X-110970Y-184471D01*
X-110078Y-182320D01*
Y-179917D01*
X-110621Y-178608D01*
X-109649Y-177636D01*
X-108340Y-178178D01*
X-105937D01*
X-103717Y-177259D01*
X-102018Y-175560D01*
X-101098Y-173340D01*
Y-170937D01*
X-101640Y-169628D01*
X-100668Y-168656D01*
X-99359Y-169198D01*
X-96957D01*
X-94737Y-168278D01*
X-93038Y-166579D01*
X-92118Y-164359D01*
Y-161957D01*
X-92660Y-160648D01*
X-91688Y-159676D01*
X-90379Y-160218D01*
X-87976D01*
X-85756Y-159298D01*
X-84057Y-157599D01*
X-83138Y-155379D01*
Y-152976D01*
X-84057Y-150756D01*
X-85756Y-149057D01*
X-87898Y-148170D01*
X-100118Y-135950D01*
X-99162Y-134994D01*
X-113351Y-120805D01*
D02*
G37*
G36*
X224371Y-153586D02*
X221629D01*
X218980Y-154296D01*
X216606Y-155667D01*
X214667Y-157606D01*
X213296Y-159980D01*
X212586Y-162629D01*
Y-165371D01*
X213296Y-168020D01*
X214667Y-170394D01*
X216606Y-172333D01*
X218980Y-173704D01*
X221629Y-174414D01*
X224371D01*
X227020Y-173704D01*
X229394Y-172333D01*
X231333Y-170394D01*
X232704Y-168020D01*
X233414Y-165371D01*
Y-162629D01*
X232704Y-159980D01*
X231333Y-157606D01*
X229394Y-155667D01*
X227020Y-154296D01*
X224371Y-153586D01*
D02*
G37*
G36*
X-145770Y-153224D02*
X-149452Y-156906D01*
X-158432Y-165886D01*
X-167412Y-174866D01*
X-176392Y-183846D01*
X-185373Y-192827D01*
X-194353Y-201807D01*
X-203333Y-210787D01*
X-189144Y-224976D01*
X-188208Y-224039D01*
X-176036Y-236212D01*
X-175121Y-238421D01*
X-173421Y-240121D01*
X-171201Y-241040D01*
X-168799D01*
X-166579Y-240121D01*
X-164879Y-238421D01*
X-163960Y-236201D01*
Y-233799D01*
X-164502Y-232490D01*
X-163530Y-231518D01*
X-162221Y-232060D01*
X-159818D01*
X-157598Y-231140D01*
X-155899Y-229441D01*
X-154980Y-227221D01*
Y-224818D01*
X-155522Y-223509D01*
X-154550Y-222537D01*
X-153241Y-223079D01*
X-150838D01*
X-148618Y-222160D01*
X-146919Y-220461D01*
X-145999Y-218241D01*
Y-215838D01*
X-146542Y-214529D01*
X-145570Y-213557D01*
X-144261Y-214099D01*
X-141858D01*
X-139638Y-213180D01*
X-137939Y-211481D01*
X-137019Y-209261D01*
Y-206858D01*
X-137561Y-205549D01*
X-136589Y-204577D01*
X-135280Y-205119D01*
X-132878D01*
X-130658Y-204199D01*
X-128959Y-202500D01*
X-128039Y-200280D01*
Y-197878D01*
X-128581Y-196569D01*
X-127609Y-195597D01*
X-126300Y-196139D01*
X-123897D01*
X-121677Y-195219D01*
X-119978Y-193520D01*
X-119059Y-191300D01*
Y-188897D01*
X-119601Y-187588D01*
X-118629Y-186616D01*
X-117320Y-187159D01*
X-114917D01*
X-112766Y-186267D01*
X-117016Y-182017D01*
X-121267Y-177766D01*
X-122158Y-179917D01*
Y-182320D01*
X-121616Y-183629D01*
X-122588Y-184601D01*
X-123820Y-184091D01*
X-136039Y-171871D01*
X-131581Y-167412D01*
X-138675Y-160318D01*
X-145770Y-153224D01*
D02*
G37*
G36*
X-218007Y-195460D02*
X-219993D01*
X-221910Y-195974D01*
X-223630Y-196966D01*
X-225033Y-198370D01*
X-226026Y-200090D01*
X-226540Y-202007D01*
Y-203993D01*
X-226026Y-205910D01*
X-225033Y-207630D01*
X-223630Y-209034D01*
X-221910Y-210026D01*
X-219993Y-210540D01*
X-218007D01*
X-216090Y-210026D01*
X-214370Y-209034D01*
X-212966Y-207630D01*
X-211974Y-205910D01*
X-211460Y-203993D01*
Y-202007D01*
X-211974Y-200090D01*
X-212966Y-198370D01*
X-214370Y-196966D01*
X-216090Y-195974D01*
X-218007Y-195460D01*
D02*
G37*
G36*
X227925Y-213734D02*
X224623D01*
X221434Y-214589D01*
X218574Y-216240D01*
X216239Y-218575D01*
X214589Y-221434D01*
X213734Y-224623D01*
Y-227925D01*
X214589Y-231115D01*
X216239Y-233974D01*
X218574Y-236309D01*
X221434Y-237960D01*
X224623Y-238814D01*
X227925D01*
X231114Y-237960D01*
X233974Y-236309D01*
X236308Y-233974D01*
X237959Y-231115D01*
X238814Y-227925D01*
Y-224623D01*
X237959Y-221434D01*
X236308Y-218575D01*
X233974Y-216240D01*
X231114Y-214589D01*
X227925Y-213734D01*
D02*
G37*
G36*
X-224624D02*
X-227925D01*
X-231115Y-214589D01*
X-233974Y-216240D01*
X-236309Y-218575D01*
X-237960Y-221434D01*
X-238814Y-224623D01*
Y-227925D01*
X-237960Y-231115D01*
X-236309Y-233974D01*
X-233974Y-236309D01*
X-231115Y-237960D01*
X-227925Y-238814D01*
X-224624D01*
X-221434Y-237960D01*
X-218575Y-236309D01*
X-216240Y-233974D01*
X-214589Y-231115D01*
X-213734Y-227925D01*
Y-224623D01*
X-214589Y-221434D01*
X-216240Y-218575D01*
X-218575Y-216240D01*
X-221434Y-214589D01*
X-224624Y-213734D01*
D02*
G37*
G36*
X87330Y-231460D02*
X86949D01*
X83760Y-232315D01*
X80900Y-233965D01*
X78566Y-236300D01*
X76915Y-239160D01*
X76557Y-240493D01*
X75243D01*
X74885Y-239160D01*
X73235Y-236300D01*
X70900Y-233965D01*
X68040Y-232315D01*
X64851Y-231460D01*
X61549D01*
X58360Y-232315D01*
X55500Y-233965D01*
X53165Y-236300D01*
X51515Y-239160D01*
X51157Y-240493D01*
X49843D01*
X49485Y-239160D01*
X47835Y-236300D01*
X45500Y-233965D01*
X42640Y-232315D01*
X39451Y-231460D01*
X36149D01*
X32960Y-232315D01*
X30100Y-233965D01*
X27766Y-236300D01*
X26115Y-239160D01*
X25757Y-240493D01*
X24443D01*
X24085Y-239160D01*
X22434Y-236300D01*
X20100Y-233965D01*
X17240Y-232315D01*
X14051Y-231460D01*
X10749D01*
X7560Y-232315D01*
X4700Y-233965D01*
X2366Y-236300D01*
X715Y-239160D01*
X357Y-240493D01*
X-957D01*
X-1315Y-239160D01*
X-2966Y-236300D01*
X-5300Y-233965D01*
X-8160Y-232315D01*
X-11349Y-231460D01*
X-14651D01*
X-17840Y-232315D01*
X-20700Y-233965D01*
X-23035Y-236300D01*
X-24685Y-239160D01*
X-25043Y-240493D01*
X-26357D01*
X-26715Y-239160D01*
X-28365Y-236300D01*
X-30700Y-233965D01*
X-33560Y-232315D01*
X-36749Y-231460D01*
X-40051D01*
X-43240Y-232315D01*
X-46100Y-233965D01*
X-48435Y-236300D01*
X-50085Y-239160D01*
X-50443Y-240493D01*
X-51757D01*
X-52115Y-239160D01*
X-53766Y-236300D01*
X-56100Y-233965D01*
X-58960Y-232315D01*
X-62149Y-231460D01*
X-62530D01*
Y-244000D01*
Y-256540D01*
X-62149D01*
X-58960Y-255685D01*
X-56100Y-254035D01*
X-53766Y-251700D01*
X-52115Y-248840D01*
X-51757Y-247507D01*
X-50443D01*
X-50085Y-248840D01*
X-48435Y-251700D01*
X-46100Y-254035D01*
X-43240Y-255685D01*
X-40051Y-256540D01*
X-36749D01*
X-33560Y-255685D01*
X-30700Y-254035D01*
X-28365Y-251700D01*
X-26715Y-248840D01*
X-26357Y-247507D01*
X-25043D01*
X-24685Y-248840D01*
X-23035Y-251700D01*
X-20700Y-254035D01*
X-17840Y-255685D01*
X-14651Y-256540D01*
X-11349D01*
X-8160Y-255685D01*
X-5300Y-254035D01*
X-2966Y-251700D01*
X-1315Y-248840D01*
X-957Y-247507D01*
X357D01*
X715Y-248840D01*
X2366Y-251700D01*
X4700Y-254035D01*
X7560Y-255685D01*
X10749Y-256540D01*
X14051D01*
X17240Y-255685D01*
X20100Y-254035D01*
X22434Y-251700D01*
X24085Y-248840D01*
X24443Y-247507D01*
X25757D01*
X26115Y-248840D01*
X27766Y-251700D01*
X30100Y-254035D01*
X32960Y-255685D01*
X36149Y-256540D01*
X39451D01*
X42640Y-255685D01*
X45500Y-254035D01*
X47835Y-251700D01*
X49485Y-248840D01*
X49843Y-247507D01*
X51157D01*
X51515Y-248840D01*
X53165Y-251700D01*
X55500Y-254035D01*
X58360Y-255685D01*
X61549Y-256540D01*
X64851D01*
X68040Y-255685D01*
X70900Y-254035D01*
X73235Y-251700D01*
X74885Y-248840D01*
X75243Y-247507D01*
X76557D01*
X76915Y-248840D01*
X78566Y-251700D01*
X80900Y-254035D01*
X83760Y-255685D01*
X86949Y-256540D01*
X87330D01*
Y-244000D01*
Y-231460D01*
D02*
G37*
G36*
X-65070D02*
X-65451D01*
X-68640Y-232315D01*
X-71500Y-233965D01*
X-73835Y-236300D01*
X-75485Y-239160D01*
X-75843Y-240493D01*
X-77157D01*
X-77515Y-239160D01*
X-79166Y-236300D01*
X-81500Y-233965D01*
X-84360Y-232315D01*
X-87549Y-231460D01*
X-90851D01*
X-94040Y-232315D01*
X-96900Y-233965D01*
X-99235Y-236300D01*
X-100885Y-239160D01*
X-101740Y-242349D01*
Y-245651D01*
X-100885Y-248840D01*
X-99235Y-251700D01*
X-96900Y-254035D01*
X-94040Y-255685D01*
X-90851Y-256540D01*
X-87549D01*
X-84360Y-255685D01*
X-81500Y-254035D01*
X-79166Y-251700D01*
X-77515Y-248840D01*
X-77157Y-247507D01*
X-75843D01*
X-75485Y-248840D01*
X-73835Y-251700D01*
X-71500Y-254035D01*
X-68640Y-255685D01*
X-65451Y-256540D01*
X-65070D01*
Y-244000D01*
Y-231460D01*
D02*
G37*
G36*
X90251D02*
X89870D01*
Y-242730D01*
X101140D01*
Y-242349D01*
X100285Y-239160D01*
X98635Y-236300D01*
X96300Y-233965D01*
X93440Y-232315D01*
X90251Y-231460D01*
D02*
G37*
G36*
X101140Y-245270D02*
X89870D01*
Y-256540D01*
X90251D01*
X93440Y-255685D01*
X96300Y-254035D01*
X98635Y-251700D01*
X100285Y-248840D01*
X101140Y-245651D01*
Y-245270D01*
D02*
G37*
%LPD*%
G36*
X-64335Y287216D02*
X-64153Y286300D01*
Y277310D01*
X-64842Y276875D01*
X-65138Y276697D01*
X-65138Y276697D01*
X-66697Y275138D01*
X-66785Y274926D01*
X-67526Y273937D01*
Y273937D01*
X-67526Y273937D01*
X-76162D01*
Y270000D01*
X-78702D01*
Y273937D01*
X-86648D01*
Y274375D01*
X-86894Y275610D01*
X-87593Y276657D01*
X-88640Y277356D01*
X-89875Y277602D01*
X-90730D01*
Y272500D01*
X-92000D01*
Y271230D01*
X-97352D01*
Y270625D01*
X-97106Y269390D01*
X-96905Y269089D01*
X-97747Y268063D01*
X-98898Y268540D01*
X-101102D01*
X-103138Y267697D01*
X-104697Y266138D01*
X-105540Y264102D01*
Y261898D01*
X-104697Y259862D01*
X-103138Y258303D01*
X-101102Y257460D01*
X-98898D01*
X-96862Y258303D01*
X-96056Y259109D01*
X-95360Y258644D01*
X-94125Y258398D01*
X-89875D01*
X-88640Y258644D01*
X-88608Y258665D01*
X-87338Y257986D01*
Y253885D01*
X-93210D01*
Y255790D01*
X-114210D01*
Y265210D01*
Y276790D01*
X-114210Y276790D01*
X-114210D01*
X-113465Y277710D01*
X-98294Y292881D01*
X-64335D01*
Y287216D01*
D02*
G37*
G36*
X-87338Y211063D02*
Y199119D01*
X-111000D01*
X-112576Y198806D01*
X-113913Y197913D01*
X-128913Y182913D01*
X-129806Y181576D01*
X-130119Y180000D01*
Y167610D01*
X-131292Y167124D01*
X-135263Y171094D01*
X-144243Y180075D01*
X-154000Y189832D01*
X-125970Y217861D01*
X-122071D01*
X-121102Y217460D01*
X-118898D01*
X-117929Y217861D01*
X-114790D01*
Y217210D01*
X-93210D01*
Y221115D01*
X-87338D01*
Y211063D01*
D02*
G37*
%LPC*%
G36*
X-93270Y277602D02*
X-94125D01*
X-95360Y277356D01*
X-96407Y276657D01*
X-97106Y275610D01*
X-97352Y274375D01*
Y273770D01*
X-93270D01*
Y277602D01*
D02*
G37*
%LPD*%
D11*
X-90666Y170000D02*
X-77432D01*
X-97000Y176334D02*
X-90666Y170000D01*
X-97000Y176334D02*
Y177000D01*
X-121000Y-83000D02*
X-114000Y-76000D01*
Y61000D01*
X98529Y157471D02*
X99000Y157000D01*
X98529Y157471D02*
Y159805D01*
X93334Y165000D02*
X98529Y159805D01*
X77000Y165000D02*
X93334D01*
X77000Y160000D02*
X88176D01*
X91000Y157176D01*
Y157000D02*
Y157176D01*
X111000Y-103000D02*
X111000D01*
X102230Y-94230D02*
X111000Y-103000D01*
X102230Y-94230D02*
Y31770D01*
X29784Y104216D02*
X102230Y31770D01*
X98690Y-101690D02*
Y30304D01*
X24784Y104210D02*
X98690Y30304D01*
Y-101690D02*
X211000Y-214000D01*
X92992Y256000D02*
X174000D01*
X247000Y183000D01*
X90387Y250000D02*
X170000D01*
X209000Y211000D01*
X-216Y109216D02*
Y132784D01*
Y109216D02*
X13000Y96000D01*
X23000D01*
X-94000Y-37000D02*
Y28000D01*
Y-37000D02*
X-38400Y-92600D01*
X-94000Y28000D02*
X-35000Y87000D01*
X-17000D01*
X-5216Y98784D01*
Y132784D01*
X-38400Y-117000D02*
Y-92600D01*
X-103000Y28000D02*
X-38000Y93000D01*
X-103000Y-77800D02*
Y28000D01*
Y-77800D02*
X-63800Y-117000D01*
X-38000Y93000D02*
X-20076D01*
X-10216Y102860D01*
Y132784D01*
X63190Y-116990D02*
Y-113810D01*
X91000Y-86000D02*
Y28000D01*
X63190Y-113810D02*
X91000Y-86000D01*
X23000Y96000D02*
X91000Y28000D01*
X24784Y104210D02*
Y132784D01*
X29784Y104216D02*
Y132784D01*
X17000Y107000D02*
Y107666D01*
X19784Y110450D02*
Y132784D01*
X17000Y107666D02*
X19784Y110450D01*
X13000Y115666D02*
X14784Y117450D01*
Y132784D01*
X13000Y115000D02*
Y115666D01*
X49784Y107216D02*
Y132784D01*
Y107216D02*
X51000Y106000D01*
X-97000Y225000D02*
X-77432D01*
X-99000Y232000D02*
X-97000Y230000D01*
X-77432D01*
X-77432Y250000D02*
X-77432Y250000D01*
X-99000Y250000D02*
X-77432D01*
X-99000Y241000D02*
X-91000D01*
X-87000Y245000D02*
X-77432D01*
X-91000Y241000D02*
X-87000Y245000D01*
X-40216Y110778D02*
Y132784D01*
X-52994Y98000D02*
X-40216Y110778D01*
X-35216Y107784D02*
Y132784D01*
X-51000Y92000D02*
X-35216Y107784D01*
X-19718Y102000D02*
X-15216Y106502D01*
Y132784D01*
X-20000Y102000D02*
X-19718D01*
X-20216Y115784D02*
Y132784D01*
X-25000Y111000D02*
X-20216Y115784D01*
X88992Y260000D02*
X92992Y256000D01*
X77000Y260000D02*
X88992D01*
X77000Y255000D02*
X77127Y254873D01*
X84300Y254667D02*
X85721D01*
X77127Y254873D02*
X84094D01*
X85721Y254667D02*
X90387Y250000D01*
X84094Y254873D02*
X84300Y254667D01*
X-121000Y-41000D02*
Y62000D01*
X-232000Y-152000D02*
X-121000Y-41000D01*
X-92000Y108000D02*
X-58000D01*
X-50216Y115784D01*
X-138000Y62000D02*
X-92000Y108000D01*
X-131000Y60000D02*
X-88000Y103000D01*
X-56000D02*
X-45216Y113784D01*
X-88000Y103000D02*
X-56000D01*
X-121000Y62000D02*
X-85000Y98000D01*
X-52994D01*
X-83000Y92000D02*
X-51000D01*
X-114000Y61000D02*
X-83000Y92000D01*
X-131000Y-14000D02*
Y60000D01*
X-138000Y-6000D02*
Y62000D01*
X-45216Y113784D02*
Y132784D01*
X-50216Y115784D02*
Y132784D01*
X-110000Y113000D02*
X-61488D01*
X-55216Y119272D01*
X-61704Y121000D02*
X-60216Y122488D01*
Y132784D01*
X-100000Y121000D02*
X-61704D01*
X-55216Y119272D02*
Y132784D01*
X-30127Y287343D02*
Y301627D01*
X-30500Y302000D02*
X-30127Y301627D01*
X5000Y262000D02*
Y287216D01*
X85127Y270127D02*
X88654Y273654D01*
X92154D02*
X93000Y274500D01*
X88654Y273654D02*
X92154D01*
X77000Y240000D02*
X92334D01*
X94334Y242000D01*
X35000Y287216D02*
Y301500D01*
X77000Y230000D02*
X127334D01*
X129334Y228000D01*
X-91250Y155000D02*
X-77216D01*
X-92656Y153594D02*
X-91250Y155000D01*
X-77432Y155000D02*
X-64000D01*
X-94000Y165000D02*
X-77432D01*
X-100690Y171690D02*
X-94000Y165000D01*
X77343Y265127D02*
X92627D01*
X93000Y265500D01*
X-89250Y270000D02*
X-77216D01*
X-90750Y271500D02*
X-89250Y270000D01*
X15000Y287216D02*
Y300250D01*
X77000Y235000D02*
X134000D01*
X-40216Y287216D02*
Y301284D01*
X-39500Y302000D01*
X-86992Y150000D02*
X-77216D01*
X-91262Y145730D02*
X-86992Y150000D01*
X0Y262000D02*
Y287216D01*
X-89032Y265000D02*
X-77216D01*
X-92250Y263250D02*
X-90770Y264730D01*
X-89302D01*
X-89032Y265000D01*
X-99750Y263250D02*
X-92250D01*
X10000Y287216D02*
Y296594D01*
X-99127Y160127D02*
X-77343D01*
X-102000Y163000D02*
X-99127Y160127D01*
X54784Y118966D02*
Y132784D01*
X-5000Y268000D02*
Y287216D01*
X77216Y270000D02*
X77343Y270127D01*
X85127D01*
X-77343Y160127D02*
X-77216Y160000D01*
X94334Y242000D02*
X95000D01*
X-30529Y242471D02*
X-5000Y268000D01*
X-43529Y242471D02*
X-30529D01*
X-44000Y242000D02*
X-43529Y242471D01*
X54784Y118966D02*
X56500Y117250D01*
Y117000D02*
Y117250D01*
X6730Y299864D02*
X10000Y296594D01*
X-4000Y258000D02*
X0Y262000D01*
X-91770Y145730D02*
X-91262D01*
X-93000Y144500D02*
X-91770Y145730D01*
X134000Y235000D02*
X134000Y235000D01*
X14500Y299750D02*
Y302000D01*
Y299750D02*
X15000Y300250D01*
X-92000Y271500D02*
X-90750D01*
X-106690Y171690D02*
X-100690D01*
X-107000Y172000D02*
X-106690Y171690D01*
X129334Y228000D02*
X130000D01*
X5000Y262000D02*
X9000Y258000D01*
X59911Y124080D02*
X64270Y119720D01*
X59911Y124080D02*
Y132657D01*
X59784Y132784D02*
X59911Y132657D01*
X-100000Y263000D02*
X-99750Y263250D01*
X52000Y-138000D02*
X59000D01*
X-92000Y272500D02*
Y279000D01*
X20000Y302000D02*
X25500D01*
X14500D02*
X20000D01*
Y307000D01*
X62197Y108530D02*
X62968D01*
X57709Y113017D02*
X62197Y108530D01*
X62968D02*
X65000Y106498D01*
Y106000D02*
Y106498D01*
X57709Y113017D02*
Y115791D01*
X56500Y117000D02*
X57709Y115791D01*
X-101470Y151032D02*
X-100470D01*
X-103502Y149000D02*
X-101470Y151032D01*
X-100470D02*
X-98072Y153430D01*
X-93070D02*
X-93000Y153500D01*
X-103502Y148000D02*
Y149000D01*
X-98072Y153430D02*
X-93070D01*
D13*
X77000Y270000D02*
X77216D01*
X64000D02*
X77000D01*
D14*
X4784Y111028D02*
Y132784D01*
Y111028D02*
X15812Y100000D01*
X24000D01*
X95000Y-107318D02*
Y29000D01*
X24000Y100000D02*
X95000Y29000D01*
X88600Y-117000D02*
Y-113719D01*
X95000Y-107318D01*
D16*
X59784Y287216D02*
D03*
X54784D02*
D03*
X49784D02*
D03*
X44784D02*
D03*
X39784D02*
D03*
X34784D02*
D03*
X29784D02*
D03*
X24784D02*
D03*
X19784D02*
D03*
X14784D02*
D03*
X9784D02*
D03*
X4784D02*
D03*
X-216D02*
D03*
X-5216D02*
D03*
X-10216D02*
D03*
X-15216D02*
D03*
X-20216D02*
D03*
X-25216D02*
D03*
X-30216D02*
D03*
X-35216D02*
D03*
X-40216D02*
D03*
X-45216D02*
D03*
X-50216D02*
D03*
X-55216D02*
D03*
X-60216D02*
D03*
Y132784D02*
D03*
X-55216D02*
D03*
X-50216D02*
D03*
X-45216D02*
D03*
X-40216D02*
D03*
X-35216D02*
D03*
X-30216D02*
D03*
X-25216D02*
D03*
X-20216D02*
D03*
X-15216D02*
D03*
X-10216D02*
D03*
X-5216D02*
D03*
X-216D02*
D03*
X4784D02*
D03*
X9784D02*
D03*
X14784D02*
D03*
X19784D02*
D03*
X24784D02*
D03*
X29784D02*
D03*
X34784D02*
D03*
X39784D02*
D03*
X44784D02*
D03*
X49784D02*
D03*
X54784D02*
D03*
X59784D02*
D03*
D17*
X-77432Y270000D02*
D03*
Y265000D02*
D03*
Y260000D02*
D03*
Y255000D02*
D03*
Y250000D02*
D03*
Y245000D02*
D03*
Y240000D02*
D03*
Y235000D02*
D03*
Y230000D02*
D03*
Y225000D02*
D03*
Y220000D02*
D03*
Y215000D02*
D03*
Y210000D02*
D03*
Y205000D02*
D03*
Y200000D02*
D03*
Y195000D02*
D03*
Y190000D02*
D03*
Y185000D02*
D03*
Y180000D02*
D03*
Y175000D02*
D03*
Y170000D02*
D03*
Y165000D02*
D03*
Y160000D02*
D03*
Y155000D02*
D03*
Y150000D02*
D03*
X77000D02*
D03*
Y155000D02*
D03*
Y160000D02*
D03*
Y165000D02*
D03*
Y170000D02*
D03*
Y175000D02*
D03*
Y180000D02*
D03*
Y185000D02*
D03*
Y190000D02*
D03*
Y195000D02*
D03*
Y200000D02*
D03*
Y205000D02*
D03*
Y210000D02*
D03*
Y215000D02*
D03*
Y220000D02*
D03*
Y225000D02*
D03*
Y230000D02*
D03*
Y235000D02*
D03*
Y240000D02*
D03*
Y245000D02*
D03*
Y250000D02*
D03*
Y255000D02*
D03*
Y260000D02*
D03*
Y265000D02*
D03*
Y270000D02*
D03*
D18*
X-222000Y57000D02*
D03*
Y43000D02*
D03*
Y-43000D02*
D03*
Y-57000D02*
D03*
D19*
X-200000Y27013D02*
D03*
Y72987D02*
D03*
Y-72987D02*
D03*
Y-27013D02*
D03*
D20*
X110837Y-132479D02*
D03*
X119817Y-141460D02*
D03*
X128797Y-150440D02*
D03*
X137777Y-159420D02*
D03*
X146758Y-168400D02*
D03*
X155738Y-177381D02*
D03*
X164718Y-186361D02*
D03*
X173698Y-195341D02*
D03*
X182679Y-204321D02*
D03*
X191659Y-213302D02*
D03*
X-191659Y213302D02*
D03*
X-182679Y204321D02*
D03*
X-173698Y195341D02*
D03*
X-164718Y186361D02*
D03*
X-155738Y177381D02*
D03*
X-146758Y168400D02*
D03*
X-137777Y159420D02*
D03*
X-128797Y150440D02*
D03*
X-119817Y141460D02*
D03*
X-110837Y132479D02*
D03*
D21*
X146758Y168400D02*
D03*
X155738Y177381D02*
D03*
X-191659Y-213302D02*
D03*
X-182679Y-204321D02*
D03*
X-173698Y-195341D02*
D03*
X-164718Y-186361D02*
D03*
X-155738Y-177381D02*
D03*
X-146758Y-168400D02*
D03*
X-137777Y-159420D02*
D03*
X-128797Y-150440D02*
D03*
X-119817Y-141460D02*
D03*
X-110837Y-132479D02*
D03*
X191659Y213302D02*
D03*
X182679Y204321D02*
D03*
X173698Y195341D02*
D03*
X164718Y186361D02*
D03*
X137777Y159420D02*
D03*
X128797Y150440D02*
D03*
X119817Y141460D02*
D03*
X110837Y132479D02*
D03*
D22*
X-150000Y261000D02*
D03*
Y271000D02*
D03*
X-140000Y261000D02*
D03*
Y271000D02*
D03*
X-130000Y261000D02*
D03*
Y271000D02*
D03*
X-120000Y261000D02*
D03*
Y271000D02*
D03*
D23*
X-109000Y250000D02*
D03*
X-99000D02*
D03*
X-109000Y241000D02*
D03*
X-99000D02*
D03*
X-109000Y232000D02*
D03*
X-99000D02*
D03*
X-109000Y223000D02*
D03*
X-99000D02*
D03*
D24*
X52000Y-138000D02*
D03*
X38000D02*
D03*
D25*
X93000Y274500D02*
D03*
Y265500D02*
D03*
X-93000Y144500D02*
D03*
Y153500D02*
D03*
X-92000Y263500D02*
D03*
Y272500D02*
D03*
D26*
X-39500Y302000D02*
D03*
X-30500D02*
D03*
X5500D02*
D03*
X14500D02*
D03*
X34500D02*
D03*
X25500D02*
D03*
X65500Y117000D02*
D03*
X56500D02*
D03*
D27*
X-104000Y163000D02*
D03*
Y149000D02*
D03*
D28*
X51000Y106000D02*
D03*
X65000D02*
D03*
D50*
X-166424Y-57000D02*
X-166000D01*
X-195475Y-27949D02*
X-166424Y-57000D01*
X-89200Y-246706D02*
Y-244000D01*
D51*
X-194013Y27013D02*
Y27539D01*
X-194539Y27013D02*
X-194013D01*
X-200000D02*
X-194539D01*
X-205461D02*
X-200000D01*
X-222000Y10474D02*
X-205461Y27013D01*
X-222000Y-43000D02*
Y10474D01*
X-169007Y-72993D02*
X-169000Y-73000D01*
X-200000Y-72987D02*
X-199993Y-72993D01*
X-169007D01*
X-223000Y-57000D02*
X-222000D01*
X-221000D01*
X-207025Y-70975D01*
Y-71423D02*
Y-70975D01*
Y-71423D02*
X-205461Y-72987D01*
X-222000Y43000D02*
X-200355D01*
X-169178Y74178D01*
X-195310Y74889D02*
X-194539Y72987D01*
X-205461D02*
X-200000D01*
X-221000Y57000D02*
X-207025Y70975D01*
Y71423D01*
X-222000Y57000D02*
X-221000D01*
X-207025Y71423D02*
X-205461Y72987D01*
X-192975Y69975D02*
Y71423D01*
X-194539Y72987D02*
X-192975Y71423D01*
X-223000Y57000D02*
X-222000D01*
X-128000Y115316D02*
X-110837Y132479D01*
X-128000Y101000D02*
Y115316D01*
X-154822Y74178D02*
X-128000Y101000D01*
X-169178Y74178D02*
X-154822D01*
X-222000Y-43000D02*
X-221000D01*
X-148000Y-33000D02*
Y-5000D01*
X-182337Y14337D02*
X-167337D01*
X-148000Y-5000D01*
X-194539Y27013D02*
X-192975Y25449D01*
Y24975D02*
Y25449D01*
Y24975D02*
X-182337Y14337D01*
X-194013Y27013D02*
X-160013D01*
X-194013Y27539D02*
X-192975Y28577D01*
X-192449D01*
X-186026Y35000D02*
X-165000D01*
X-148000Y52000D01*
X-192449Y28577D02*
X-186026Y35000D01*
X-160013Y27013D02*
X-148000Y15000D01*
X-187138Y80388D02*
Y92138D01*
X-194539Y72987D02*
X-187138Y80388D01*
Y92138D02*
Y92401D01*
X-141410Y119866D02*
X-119817Y141460D01*
X-141410Y101603D02*
Y119866D01*
X-178158Y83158D02*
X-159855D01*
X-141410Y101603D01*
X-129100Y150440D02*
X-128797D01*
X-187138Y92401D02*
X-129100Y150440D01*
X-196099Y101118D02*
X-137797Y159420D01*
X-119817Y-141479D02*
X-98158Y-163138D01*
Y-163158D02*
Y-163138D01*
X-128797Y-150459D02*
X-107138Y-172118D01*
Y-172138D02*
Y-172118D01*
X107138Y-172138D02*
Y-172118D01*
X128797Y-150460D01*
X98158Y-163138D02*
X119817Y-141479D01*
X98158Y-163158D02*
Y-163138D01*
X110837Y130447D02*
Y132479D01*
X116000Y105000D02*
X146822Y74178D01*
X110837Y130447D02*
X116000Y125284D01*
Y105000D02*
Y125284D01*
X119817Y141460D02*
X143000Y118276D01*
Y98000D02*
Y118276D01*
Y98000D02*
X157842Y83158D01*
X129100Y150440D02*
X187138Y92401D01*
Y92138D02*
Y92401D01*
X157842Y83158D02*
X178158D01*
X146822Y74178D02*
X169178D01*
X154158Y143040D02*
X196079Y101118D01*
X196099D01*
X154118Y143040D02*
X154158D01*
X137777Y159381D02*
X154118Y143040D01*
X137777Y159381D02*
Y159420D01*
X152039Y-217020D02*
X173698Y-195361D01*
X143059Y-208039D02*
X164718Y-186381D01*
X146758Y-168420D02*
Y-168400D01*
X155738Y-177400D02*
Y-177381D01*
X170000Y-234980D02*
X191659Y-213321D01*
X170000Y-235000D02*
Y-234980D01*
X134079Y-199059D02*
X155738Y-177400D01*
X134079Y-199079D02*
Y-199059D01*
X143059Y-208059D02*
Y-208039D01*
X116118Y-181099D02*
X137777Y-159440D01*
X116118Y-181119D02*
Y-181099D01*
X89178Y-154158D02*
X110837Y-132499D01*
X89178Y-154178D02*
Y-154158D01*
X152039Y-217040D02*
Y-217020D01*
X161020Y-226000D02*
X182679Y-204341D01*
X161020Y-226020D02*
Y-226000D01*
X125099Y-190079D02*
X146758Y-168420D01*
X125099Y-190099D02*
Y-190079D01*
X-89178Y-154178D02*
Y-154158D01*
X-110837Y-132499D02*
X-89178Y-154158D01*
X-136737Y232000D02*
X-109000D01*
X-231697Y137039D02*
X-173698Y195039D01*
Y195039D02*
X-136737Y232000D01*
X-201422Y185578D02*
X-182679Y204321D01*
X-214059Y119079D02*
X-155758Y177381D01*
X-182679Y204321D02*
X-146000Y241000D01*
X-205079Y110099D02*
X-146777Y168400D01*
X-223039Y128059D02*
X-164738Y186361D01*
X-164738D02*
X-128099Y223000D01*
X-208961Y196000D02*
X-191659Y213302D01*
X-164738Y186361D02*
X-164738D01*
X-173698Y195039D02*
Y195039D01*
X-137797Y159420D02*
X-137777D01*
X-155758Y177381D02*
X-155738D01*
X-220000Y196000D02*
X-208961D01*
X-249617Y166383D02*
X-220000Y196000D01*
X-249617Y155383D02*
Y166383D01*
X-250000Y155000D02*
X-249617Y155383D01*
X-128099Y223000D02*
X-120000D01*
X-205099Y110099D02*
X-205079D01*
X-140000Y241000D02*
Y241000D01*
X-146000D02*
X-140000D01*
X-219685Y185578D02*
X-201422D01*
X-241020Y164243D02*
X-219685Y185578D01*
X-241020Y146020D02*
Y164243D01*
X-232040Y137039D02*
X-231697D01*
X-125099Y-190099D02*
Y-190079D01*
X-146758Y-168420D02*
X-125099Y-190079D01*
X-134079Y-199079D02*
Y-199059D01*
X-155738Y-177400D02*
X-134079Y-199059D01*
X65500Y117000D02*
Y123500D01*
X155738Y177381D02*
X214039Y119079D01*
X214079D01*
X146758Y168400D02*
X153824Y161334D01*
X153863D01*
X205099Y110099D01*
X-120000Y223000D02*
X-109000D01*
X-120000Y257540D02*
Y261000D01*
X-130000Y257540D02*
Y261000D01*
X-140000Y241000D02*
X-109000D01*
X-140000Y257540D02*
Y261000D01*
X37900Y-137900D02*
Y-117100D01*
Y-137900D02*
X38000Y-138000D01*
X-161020Y-226020D02*
Y-226000D01*
X-182679Y-204341D02*
X-161020Y-226000D01*
X249617Y155383D02*
Y167383D01*
X228292Y188708D02*
X249617Y167383D01*
X216252Y188708D02*
X228292D01*
X182679Y204321D02*
X207000Y180000D01*
X225263D01*
X241020Y164243D01*
X191659Y213302D02*
X216252Y188708D01*
X249617Y155383D02*
X250000Y155000D01*
X241020Y146020D02*
Y164243D01*
X178280Y188720D02*
Y188727D01*
Y188720D02*
X229578Y137422D01*
X173698Y193309D02*
Y195341D01*
Y193309D02*
X178280Y188727D01*
X231657Y137422D02*
X232040Y137039D01*
X229578Y137422D02*
X231657D01*
X164738Y186361D02*
X223039Y128059D01*
X223059D01*
X-191659Y-213321D02*
X-170000Y-234980D01*
Y-235000D02*
Y-234980D01*
X-173698Y-195361D02*
X-152039Y-217020D01*
Y-217040D02*
Y-217020D01*
X-164718Y-186381D02*
X-143059Y-208039D01*
Y-208059D02*
Y-208039D01*
X-137777Y-159440D02*
X-116118Y-181099D01*
Y-181119D02*
Y-181099D01*
X65500Y123500D02*
X66000Y124000D01*
X-87500Y144500D02*
X-87000Y145000D01*
X-93000Y144500D02*
X-87500D01*
X65000Y106000D02*
X72000D01*
X93000Y265500D02*
X98500D01*
X93000Y274500D02*
Y280000D01*
X34500Y302000D02*
Y306500D01*
X35000Y307000D01*
X0Y302000D02*
X5500D01*
X-30500Y305688D02*
X-28000Y308188D01*
X-30500Y302000D02*
Y305688D01*
X-28000Y308188D02*
Y309000D01*
X-42000Y308188D02*
Y309000D01*
Y308188D02*
X-39500Y305688D01*
Y302000D02*
Y305688D01*
D52*
X-92000Y184000D02*
X-88000Y180000D01*
X-106000Y184000D02*
X-92000D01*
X-117000Y173000D02*
X-106000Y184000D01*
X-117000Y147723D02*
Y173000D01*
X-88000Y180000D02*
X-77432D01*
X-126000D02*
X-111000Y195000D01*
X-126000Y156683D02*
Y180000D01*
X-128797Y150440D02*
Y153886D01*
X-126000Y156683D01*
X-119817Y141460D02*
Y144906D01*
X-117000Y147723D01*
X-111000Y195000D02*
X-77432D01*
X77000Y150000D02*
X102000D01*
X106540Y154540D02*
Y184460D01*
X102000Y150000D02*
X106540Y154540D01*
X43000Y159959D02*
Y160000D01*
X39784Y156743D02*
X43000Y159959D01*
X39784Y132784D02*
Y156743D01*
X34784Y161784D02*
X43000Y170000D01*
X34784Y132784D02*
Y161784D01*
Y132784D02*
X34784Y132784D01*
X44784Y144972D02*
X47000Y147188D01*
X44784Y132784D02*
Y144972D01*
X47000Y147188D02*
Y148000D01*
X101000Y190000D02*
X106540Y184460D01*
X-98500Y223500D02*
X-97000D01*
X-99000Y250000D02*
X-99000Y250000D01*
X-60343Y307000D02*
X-50216Y296873D01*
X-110000Y307000D02*
X-60343D01*
X-45216Y287216D02*
Y298216D01*
X-99000Y223000D02*
X-98500Y223500D01*
X-60216Y287216D02*
Y295216D01*
X-61000Y302000D02*
X-55216Y296216D01*
X-60000Y313000D02*
X-45216Y298216D01*
X-115000Y313000D02*
X-60000D01*
X-105000Y302000D02*
X-61000D01*
X-50216Y287216D02*
Y296873D01*
X-55216Y287216D02*
Y296216D01*
X-130007Y276993D02*
X-105000Y302000D01*
X-130007Y271007D02*
Y276993D01*
Y271007D02*
X-130000Y271000D01*
X-62000Y297000D02*
X-60216Y295216D01*
X-100000Y297000D02*
X-62000D01*
X-120000Y277000D02*
X-100000Y297000D01*
X-120000Y271000D02*
Y277000D01*
X-150000Y278000D02*
X-115000Y313000D01*
X-150000Y271000D02*
Y278000D01*
X-140000Y277000D02*
X-110000Y307000D01*
X-140000Y271000D02*
Y277000D01*
X141457Y189540D02*
X153617Y177381D01*
X155738D01*
X126000Y189540D02*
X141457D01*
X134158Y181000D02*
X146758Y168400D01*
X126000Y181000D02*
X134158D01*
D53*
X-191659Y213302D02*
X-154960Y250000D01*
X205079Y110099D02*
X205099D01*
X-154960Y250000D02*
X-151250Y253710D01*
Y259750D01*
X-150000Y261000D01*
X-154960Y250000D02*
X-109000D01*
D54*
X88600Y-117000D02*
D03*
X63200D02*
D03*
X37800D02*
D03*
X12400D02*
D03*
X-13000D02*
D03*
X-38400D02*
D03*
X-63800D02*
D03*
X88600Y-244000D02*
D03*
X63200D02*
D03*
X37800D02*
D03*
X12400D02*
D03*
X-13000D02*
D03*
X-38400D02*
D03*
X-63800D02*
D03*
X-89200Y-117000D02*
D03*
Y-244000D02*
D03*
X226274Y226274D02*
D03*
X-226274Y-226274D02*
D03*
X77000Y77000D02*
D03*
X-77000Y77000D02*
D03*
Y-77000D02*
D03*
X77000D02*
D03*
X-226274Y226274D02*
D03*
X226274Y-226274D02*
D03*
D55*
X-169178Y74178D02*
D03*
X169178D02*
D03*
X178158Y83158D02*
D03*
X205099Y110099D02*
D03*
X214079Y119079D02*
D03*
X250000Y155000D02*
D03*
X241020Y146020D02*
D03*
X232040Y137039D02*
D03*
X223059Y128059D02*
D03*
X196119Y101118D02*
D03*
X187138Y92138D02*
D03*
X-98158Y-163158D02*
D03*
X98158D02*
D03*
X-89178Y-154178D02*
D03*
X89178D02*
D03*
X-178158Y83158D02*
D03*
X-125099Y-190099D02*
D03*
X-205099Y110099D02*
D03*
X125099Y-190099D02*
D03*
X-214079Y119079D02*
D03*
X-134079Y-199079D02*
D03*
X134079D02*
D03*
X170000Y-235000D02*
D03*
X161020Y-226020D02*
D03*
X152039Y-217040D02*
D03*
X143059Y-208059D02*
D03*
X116118Y-181119D02*
D03*
X107138Y-172138D02*
D03*
X-187138Y92138D02*
D03*
X-196119Y101118D02*
D03*
X-223059Y128059D02*
D03*
X-232040Y137039D02*
D03*
X-241020Y146020D02*
D03*
X-250000Y155000D02*
D03*
X-170000Y-235000D02*
D03*
X-161020Y-226020D02*
D03*
X-152039Y-217040D02*
D03*
X-143059Y-208059D02*
D03*
X-116118Y-181119D02*
D03*
X-107138Y-172138D02*
D03*
D56*
X160138Y-101138D02*
D03*
X223000Y-164000D02*
D03*
X-223000Y164000D02*
D03*
X-160138Y101138D02*
D03*
X-223000Y-164000D02*
D03*
X-160138Y-101138D02*
D03*
X223000Y164000D02*
D03*
X160138Y101138D02*
D03*
D57*
X-0Y-0D02*
D03*
D58*
X280000Y54000D02*
D03*
X166000Y-23000D02*
D03*
X126050Y-23050D02*
D03*
X136000Y27000D02*
D03*
X110000Y72000D02*
D03*
D59*
X-166000Y-57000D02*
D03*
X-261000Y10000D02*
D03*
X-148000Y52000D02*
D03*
Y-33000D02*
D03*
X129000Y114000D02*
D03*
X-148000Y15000D02*
D03*
X219000Y-204000D02*
D03*
X-195000Y-101000D02*
D03*
X140000Y199000D02*
D03*
X-219000Y-203000D02*
D03*
X-213000Y207000D02*
D03*
X-139991Y182709D02*
D03*
D60*
X-169000Y-73000D02*
D03*
X-232000Y-152000D02*
D03*
X-121000Y-83000D02*
D03*
X-107000Y-96000D02*
D03*
X196000Y-106000D02*
D03*
X167000Y-134000D02*
D03*
X154118Y143040D02*
D03*
X133500Y-76500D02*
D03*
X43000Y160000D02*
D03*
Y170000D02*
D03*
X47000Y148000D02*
D03*
X101000Y190000D02*
D03*
X111000Y-103000D02*
D03*
X209000Y211000D02*
D03*
X247000Y183000D02*
D03*
X211000Y-214000D02*
D03*
X-131000Y-14000D02*
D03*
X-138000Y-6000D02*
D03*
X-110000Y113000D02*
D03*
X-100000Y121000D02*
D03*
X126000Y189540D02*
D03*
Y181000D02*
D03*
X-120000Y223000D02*
D03*
Y257540D02*
D03*
X-130000Y232000D02*
D03*
Y257540D02*
D03*
X-140000Y241000D02*
D03*
Y257540D02*
D03*
X-100000Y263000D02*
D03*
X59000Y-138000D02*
D03*
X-150000Y147000D02*
D03*
X-62000Y272000D02*
D03*
X41000Y238000D02*
D03*
X-92000Y279000D02*
D03*
X72000Y106000D02*
D03*
X66000Y124000D02*
D03*
X-64000Y155000D02*
D03*
X-87000Y145000D02*
D03*
X98500Y265500D02*
D03*
X93000Y280000D02*
D03*
X35000Y307000D02*
D03*
X20000Y307000D02*
D03*
X0Y302000D02*
D03*
X-28000Y309000D02*
D03*
X-42000D02*
D03*
D61*
X-97000Y177000D02*
D03*
X99000Y157000D02*
D03*
X91000D02*
D03*
X17000Y107000D02*
D03*
X13000Y115000D02*
D03*
X-25000Y111000D02*
D03*
X-20000Y102000D02*
D03*
X95000Y242000D02*
D03*
X-107000Y172000D02*
D03*
X130000Y228000D02*
D03*
X134000Y235000D02*
D03*
X64000Y270000D02*
D03*
X9000Y258000D02*
D03*
X-4000D02*
D03*
X-44000Y242000D02*
D03*
M02*
