G04*
G04 #@! TF.GenerationSoftware,Altium Limited,Altium Designer,22.6.1 (34)*
G04*
G04 Layer_Color=128*
%FSLAX44Y44*%
%MOMM*%
G71*
G04*
G04 #@! TF.SameCoordinates,2749D786-5B7B-4281-819F-A1242ED465B1*
G04*
G04*
G04 #@! TF.FilePolarity,Positive*
G04*
G01*
G75*
%ADD18R,0.9000X0.7000*%
%ADD24R,0.7000X0.9000*%
G04:AMPARAMS|DCode=25|XSize=0.55mm|YSize=0.5mm|CornerRadius=0.0625mm|HoleSize=0mm|Usage=FLASHONLY|Rotation=180.000|XOffset=0mm|YOffset=0mm|HoleType=Round|Shape=RoundedRectangle|*
%AMROUNDEDRECTD25*
21,1,0.5500,0.3750,0,0,180.0*
21,1,0.4250,0.5000,0,0,180.0*
1,1,0.1250,-0.2125,0.1875*
1,1,0.1250,0.2125,0.1875*
1,1,0.1250,0.2125,-0.1875*
1,1,0.1250,-0.2125,-0.1875*
%
%ADD25ROUNDEDRECTD25*%
%ADD62R,0.9500X0.9500*%
%ADD63R,2.1900X1.6000*%
G04:AMPARAMS|DCode=64|XSize=0.5mm|YSize=1.8mm|CornerRadius=0mm|HoleSize=0mm|Usage=FLASHONLY|Rotation=315.000|XOffset=0mm|YOffset=0mm|HoleType=Round|Shape=Rectangle|*
%AMROTATEDRECTD64*
4,1,4,-0.8132,-0.4596,0.4596,0.8132,0.8132,0.4596,-0.4596,-0.8132,-0.8132,-0.4596,0.0*
%
%ADD64ROTATEDRECTD64*%

G04:AMPARAMS|DCode=65|XSize=1.4mm|YSize=1.8mm|CornerRadius=0mm|HoleSize=0mm|Usage=FLASHONLY|Rotation=315.000|XOffset=0mm|YOffset=0mm|HoleType=Round|Shape=Rectangle|*
%AMROTATEDRECTD65*
4,1,4,-1.1314,-0.1414,0.1414,1.1314,1.1314,0.1414,-0.1414,-1.1314,-1.1314,-0.1414,0.0*
%
%ADD65ROTATEDRECTD65*%

G04:AMPARAMS|DCode=66|XSize=0.5mm|YSize=1.8mm|CornerRadius=0mm|HoleSize=0mm|Usage=FLASHONLY|Rotation=225.000|XOffset=0mm|YOffset=0mm|HoleType=Round|Shape=Rectangle|*
%AMROTATEDRECTD66*
4,1,4,-0.4596,0.8132,0.8132,-0.4596,0.4596,-0.8132,-0.8132,0.4596,-0.4596,0.8132,0.0*
%
%ADD66ROTATEDRECTD66*%

G04:AMPARAMS|DCode=67|XSize=1.4mm|YSize=1.8mm|CornerRadius=0mm|HoleSize=0mm|Usage=FLASHONLY|Rotation=225.000|XOffset=0mm|YOffset=0mm|HoleType=Round|Shape=Rectangle|*
%AMROTATEDRECTD67*
4,1,4,-0.1414,1.1314,1.1314,-0.1414,0.1414,-1.1314,-1.1314,0.1414,-0.1414,1.1314,0.0*
%
%ADD67ROTATEDRECTD67*%

%ADD68R,1.8000X0.5000*%
%ADD69R,1.8000X1.4000*%
%ADD70R,0.5000X1.0000*%
%ADD71R,1.0000X0.5000*%
%ADD72R,0.5900X1.3400*%
%ADD73R,2.8000X2.0000*%
%ADD74R,1.8000X1.3000*%
%ADD75R,0.8000X1.0000*%
G04:AMPARAMS|DCode=76|XSize=0.9mm|YSize=0.7mm|CornerRadius=0mm|HoleSize=0mm|Usage=FLASHONLY|Rotation=315.000|XOffset=0mm|YOffset=0mm|HoleType=Round|Shape=Rectangle|*
%AMROTATEDRECTD76*
4,1,4,-0.5657,0.0707,-0.0707,0.5657,0.5657,-0.0707,0.0707,-0.5657,-0.5657,0.0707,0.0*
%
%ADD76ROTATEDRECTD76*%

G04:AMPARAMS|DCode=77|XSize=0.9mm|YSize=0.7mm|CornerRadius=0mm|HoleSize=0mm|Usage=FLASHONLY|Rotation=45.000|XOffset=0mm|YOffset=0mm|HoleType=Round|Shape=Rectangle|*
%AMROTATEDRECTD77*
4,1,4,-0.0707,-0.5657,-0.5657,-0.0707,0.0707,0.5657,0.5657,0.0707,-0.0707,-0.5657,0.0*
%
%ADD77ROTATEDRECTD77*%

%ADD78R,1.9500X2.9500*%
D18*
X172000Y-39000D02*
D03*
Y-53000D02*
D03*
D24*
X159000Y-64000D02*
D03*
X173000D02*
D03*
X-226000Y2000D02*
D03*
X-212000D02*
D03*
X-226000Y18000D02*
D03*
X-212000D02*
D03*
D25*
X-53000Y255500D02*
D03*
Y264500D02*
D03*
D62*
X113000Y-36750D02*
D03*
Y-49250D02*
D03*
X41000Y267250D02*
D03*
Y254750D02*
D03*
X-37000Y267250D02*
D03*
Y254750D02*
D03*
D63*
X-43900Y201000D02*
D03*
X47900D02*
D03*
D64*
X170105Y179104D02*
D03*
X177176Y172032D02*
D03*
X184248Y164961D02*
D03*
X191319Y157890D02*
D03*
X198390Y150819D02*
D03*
X151013Y152941D02*
D03*
X158085Y145869D02*
D03*
X165156Y138798D02*
D03*
X172227Y131727D02*
D03*
X179298Y124656D02*
D03*
X-169105Y-179104D02*
D03*
X-176176Y-172032D02*
D03*
X-183248Y-164961D02*
D03*
X-190319Y-157890D02*
D03*
X-197390Y-150819D02*
D03*
X-150014Y-152941D02*
D03*
X-157085Y-145869D02*
D03*
X-164156Y-138798D02*
D03*
X-171227Y-131727D02*
D03*
X-178298Y-124656D02*
D03*
D65*
X160206Y189003D02*
D03*
X211825Y137384D02*
D03*
X189197Y114757D02*
D03*
X137578Y166376D02*
D03*
X-159206Y-189003D02*
D03*
X-210825Y-137384D02*
D03*
X-188197Y-114757D02*
D03*
X-136579Y-166376D02*
D03*
D66*
X199482Y-145840D02*
D03*
X192411Y-152912D02*
D03*
X185340Y-159983D02*
D03*
X178269Y-167054D02*
D03*
X171198Y-174125D02*
D03*
X173319Y-126749D02*
D03*
X166248Y-133820D02*
D03*
X159177Y-140891D02*
D03*
X152106Y-147962D02*
D03*
X145035Y-155033D02*
D03*
X-145035Y155033D02*
D03*
X-152106Y147962D02*
D03*
X-159177Y140891D02*
D03*
X-166248Y133820D02*
D03*
X-173319Y126749D02*
D03*
X-171198Y174125D02*
D03*
X-178269Y167054D02*
D03*
X-185340Y159983D02*
D03*
X-192411Y152912D02*
D03*
X-199482Y145841D02*
D03*
D67*
X209382Y-135941D02*
D03*
X157763Y-187560D02*
D03*
X135135Y-164932D02*
D03*
X186754Y-113314D02*
D03*
X-135135Y164932D02*
D03*
X-186754Y113314D02*
D03*
X-209382Y135941D02*
D03*
X-157763Y187560D02*
D03*
D68*
X-164000Y24875D02*
D03*
Y14875D02*
D03*
Y4875D02*
D03*
Y-5125D02*
D03*
Y-15125D02*
D03*
X-196000Y19875D02*
D03*
Y9875D02*
D03*
Y-125D02*
D03*
Y-10125D02*
D03*
Y-20125D02*
D03*
D69*
X-164000Y38875D02*
D03*
Y-34125D02*
D03*
X-196000D02*
D03*
Y38875D02*
D03*
D70*
X64000Y231000D02*
D03*
X56000D02*
D03*
X48000D02*
D03*
D71*
X112000Y180000D02*
D03*
Y172000D02*
D03*
Y164000D02*
D03*
Y206000D02*
D03*
Y198000D02*
D03*
Y190000D02*
D03*
D72*
X148000Y-23100D02*
D03*
X138500D02*
D03*
X157500D02*
D03*
Y-46900D02*
D03*
X148000D02*
D03*
X138500D02*
D03*
D73*
X148000Y4000D02*
D03*
Y54000D02*
D03*
D74*
X187000Y-21000D02*
D03*
Y7000D02*
D03*
X109000Y54000D02*
D03*
Y26000D02*
D03*
X187000Y54000D02*
D03*
Y26000D02*
D03*
D75*
X133500Y-64000D02*
D03*
X148500D02*
D03*
X56500Y245000D02*
D03*
X71500D02*
D03*
D76*
X-193050Y-178050D02*
D03*
X-202950Y-187950D02*
D03*
X-182050Y-189050D02*
D03*
X-191950Y-198950D02*
D03*
X130050Y131050D02*
D03*
X139950Y140950D02*
D03*
X147050Y114050D02*
D03*
X156950Y123950D02*
D03*
D77*
X212950Y-175950D02*
D03*
X203050Y-166050D02*
D03*
X204950Y-184950D02*
D03*
X195050Y-175050D02*
D03*
X-204950Y182950D02*
D03*
X-195050Y173050D02*
D03*
X-193950Y193950D02*
D03*
X-184050Y184050D02*
D03*
D78*
X-19500Y258000D02*
D03*
X23500D02*
D03*
M02*
