ISO-10303-21;
HEADER;
FILE_DESCRIPTION((''),'2;1');
FILE_NAME('SLIP_CONNECTION_MOTHERBOARD','2023-08-28T21:37:45',('Domen'),(''),
'CREO PARAMETRIC BY PTC INC, 2022073','CREO PARAMETRIC BY PTC INC, 2022073','');
FILE_SCHEMA(('CONFIG_CONTROL_DESIGN'));
ENDSEC;
DATA;
#1=CARTESIAN_POINT('',(0.E0,0.E0,0.E0));
#2=DIRECTION('',(0.E0,-1.E0,0.E0));
#3=DIRECTION('',(1.E0,0.E0,0.E0));
#4=AXIS2_PLACEMENT_3D('',#1,#2,#3);
#6=CARTESIAN_POINT('',(0.E0,0.E0,0.E0));
#7=DIRECTION('',(0.E0,-1.E0,0.E0));
#8=DIRECTION('',(-1.E0,0.E0,0.E0));
#9=AXIS2_PLACEMENT_3D('',#6,#7,#8);
#11=CARTESIAN_POINT('',(0.E0,0.E0,0.E0));
#12=DIRECTION('',(0.E0,-1.E0,0.E0));
#13=DIRECTION('',(1.E0,0.E0,0.E0));
#14=AXIS2_PLACEMENT_3D('',#11,#12,#13);
#16=CARTESIAN_POINT('',(0.E0,0.E0,0.E0));
#17=DIRECTION('',(0.E0,-1.E0,0.E0));
#18=DIRECTION('',(-1.E0,0.E0,0.E0));
#19=AXIS2_PLACEMENT_3D('',#16,#17,#18);
#21=DIRECTION('',(0.E0,1.E0,0.E0));
#22=VECTOR('',#21,1.E0);
#23=CARTESIAN_POINT('',(2.5E0,0.E0,0.E0));
#24=LINE('',#23,#22);
#25=DIRECTION('',(0.E0,1.E0,0.E0));
#26=VECTOR('',#25,1.E0);
#27=CARTESIAN_POINT('',(-2.5E0,0.E0,0.E0));
#28=LINE('',#27,#26);
#29=CARTESIAN_POINT('',(0.E0,1.E0,0.E0));
#30=DIRECTION('',(0.E0,1.E0,0.E0));
#31=DIRECTION('',(-1.E0,0.E0,0.E0));
#32=AXIS2_PLACEMENT_3D('',#29,#30,#31);
#34=CARTESIAN_POINT('',(0.E0,1.E0,0.E0));
#35=DIRECTION('',(0.E0,1.E0,0.E0));
#36=DIRECTION('',(-6.262736243406E-1,0.E0,7.796033269909E-1));
#37=AXIS2_PLACEMENT_3D('',#34,#35,#36);
#39=DIRECTION('',(1.E0,0.E0,0.E0));
#40=VECTOR('',#39,9.9E0);
#41=CARTESIAN_POINT('',(-9.9E0,1.E0,9.9E0));
#42=LINE('',#41,#40);
#43=DIRECTION('',(0.E0,0.E0,1.E0));
#44=VECTOR('',#43,9.9E0);
#45=CARTESIAN_POINT('',(-9.9E0,1.E0,0.E0));
#46=LINE('',#45,#44);
#47=CARTESIAN_POINT('',(0.E0,1.E0,0.E0));
#48=DIRECTION('',(0.E0,1.E0,0.E0));
#49=DIRECTION('',(0.E0,0.E0,1.E0));
#50=AXIS2_PLACEMENT_3D('',#47,#48,#49);
#52=CARTESIAN_POINT('',(0.E0,1.E0,0.E0));
#53=DIRECTION('',(0.E0,1.E0,0.E0));
#54=DIRECTION('',(7.796033269909E-1,0.E0,6.262736243406E-1));
#55=AXIS2_PLACEMENT_3D('',#52,#53,#54);
#57=DIRECTION('',(0.E0,0.E0,-1.E0));
#58=VECTOR('',#57,9.9E0);
#59=CARTESIAN_POINT('',(9.9E0,1.E0,9.9E0));
#60=LINE('',#59,#58);
#61=DIRECTION('',(1.E0,0.E0,0.E0));
#62=VECTOR('',#61,9.9E0);
#63=CARTESIAN_POINT('',(0.E0,1.E0,9.9E0));
#64=LINE('',#63,#62);
#65=CARTESIAN_POINT('',(-7.7E0,1.E0,-7.7E0));
#66=DIRECTION('',(0.E0,1.E0,0.E0));
#67=DIRECTION('',(-1.E0,0.E0,0.E0));
#68=AXIS2_PLACEMENT_3D('',#65,#66,#67);
#70=CARTESIAN_POINT('',(-7.7E0,1.E0,-7.7E0));
#71=DIRECTION('',(0.E0,-1.E0,0.E0));
#72=DIRECTION('',(-1.E0,0.E0,0.E0));
#73=AXIS2_PLACEMENT_3D('',#70,#71,#72);
#75=CARTESIAN_POINT('',(7.7E0,1.E0,-7.7E0));
#76=DIRECTION('',(0.E0,1.E0,0.E0));
#77=DIRECTION('',(-1.E0,0.E0,0.E0));
#78=AXIS2_PLACEMENT_3D('',#75,#76,#77);
#80=CARTESIAN_POINT('',(7.7E0,1.E0,-7.7E0));
#81=DIRECTION('',(0.E0,-1.E0,0.E0));
#82=DIRECTION('',(-1.E0,0.E0,0.E0));
#83=AXIS2_PLACEMENT_3D('',#80,#81,#82);
#85=CARTESIAN_POINT('',(0.E0,1.E0,0.E0));
#86=DIRECTION('',(0.E0,-1.E0,0.E0));
#87=DIRECTION('',(1.E0,0.E0,0.E0));
#88=AXIS2_PLACEMENT_3D('',#85,#86,#87);
#90=CARTESIAN_POINT('',(0.E0,1.E0,0.E0));
#91=DIRECTION('',(0.E0,-1.E0,0.E0));
#92=DIRECTION('',(-1.E0,0.E0,0.E0));
#93=AXIS2_PLACEMENT_3D('',#90,#91,#92);
#95=CARTESIAN_POINT('',(0.E0,1.E0,0.E0));
#96=DIRECTION('',(0.E0,1.E0,0.E0));
#97=DIRECTION('',(-1.E0,0.E0,0.E0));
#98=AXIS2_PLACEMENT_3D('',#95,#96,#97);
#100=CARTESIAN_POINT('',(0.E0,1.E0,0.E0));
#101=DIRECTION('',(0.E0,1.E0,0.E0));
#102=DIRECTION('',(1.E0,0.E0,0.E0));
#103=AXIS2_PLACEMENT_3D('',#100,#101,#102);
#105=CARTESIAN_POINT('',(0.E0,1.E0,0.E0));
#106=DIRECTION('',(0.E0,1.E0,0.E0));
#107=DIRECTION('',(1.E0,0.E0,0.E0));
#108=AXIS2_PLACEMENT_3D('',#105,#106,#107);
#110=CARTESIAN_POINT('',(0.E0,1.E0,0.E0));
#111=DIRECTION('',(0.E0,1.E0,0.E0));
#112=DIRECTION('',(6.262736243406E-1,0.E0,-7.796033269909E-1));
#113=AXIS2_PLACEMENT_3D('',#110,#111,#112);
#115=DIRECTION('',(-1.E0,0.E0,0.E0));
#116=VECTOR('',#115,9.9E0);
#117=CARTESIAN_POINT('',(9.9E0,1.E0,-9.9E0));
#118=LINE('',#117,#116);
#119=DIRECTION('',(0.E0,0.E0,-1.E0));
#120=VECTOR('',#119,9.9E0);
#121=CARTESIAN_POINT('',(9.9E0,1.E0,0.E0));
#122=LINE('',#121,#120);
#123=CARTESIAN_POINT('',(0.E0,1.E0,0.E0));
#124=DIRECTION('',(0.E0,1.E0,0.E0));
#125=DIRECTION('',(0.E0,0.E0,-1.E0));
#126=AXIS2_PLACEMENT_3D('',#123,#124,#125);
#128=CARTESIAN_POINT('',(0.E0,1.E0,0.E0));
#129=DIRECTION('',(0.E0,1.E0,0.E0));
#130=DIRECTION('',(-7.796033269909E-1,0.E0,-6.262736243406E-1));
#131=AXIS2_PLACEMENT_3D('',#128,#129,#130);
#133=DIRECTION('',(0.E0,0.E0,1.E0));
#134=VECTOR('',#133,9.9E0);
#135=CARTESIAN_POINT('',(-9.9E0,1.E0,-9.9E0));
#136=LINE('',#135,#134);
#137=DIRECTION('',(-1.E0,0.E0,0.E0));
#138=VECTOR('',#137,9.9E0);
#139=CARTESIAN_POINT('',(0.E0,1.E0,-9.9E0));
#140=LINE('',#139,#138);
#141=CARTESIAN_POINT('',(-7.7E0,1.E0,7.7E0));
#142=DIRECTION('',(0.E0,1.E0,0.E0));
#143=DIRECTION('',(1.E0,0.E0,0.E0));
#144=AXIS2_PLACEMENT_3D('',#141,#142,#143);
#146=CARTESIAN_POINT('',(-7.7E0,1.E0,7.7E0));
#147=DIRECTION('',(0.E0,-1.E0,0.E0));
#148=DIRECTION('',(1.E0,0.E0,0.E0));
#149=AXIS2_PLACEMENT_3D('',#146,#147,#148);
#151=CARTESIAN_POINT('',(7.7E0,1.E0,7.7E0));
#152=DIRECTION('',(0.E0,1.E0,0.E0));
#153=DIRECTION('',(1.E0,0.E0,0.E0));
#154=AXIS2_PLACEMENT_3D('',#151,#152,#153);
#156=CARTESIAN_POINT('',(7.7E0,1.E0,7.7E0));
#157=DIRECTION('',(0.E0,-1.E0,0.E0));
#158=DIRECTION('',(1.E0,0.E0,0.E0));
#159=AXIS2_PLACEMENT_3D('',#156,#157,#158);
#161=DIRECTION('',(0.E0,1.E0,0.E0));
#162=VECTOR('',#161,5.E0);
#163=CARTESIAN_POINT('',(6.200108880971E0,1.E0,7.718072937210E0));
#164=LINE('',#163,#162);
#165=DIRECTION('',(0.E0,1.E0,0.E0));
#166=VECTOR('',#165,5.E0);
#167=CARTESIAN_POINT('',(-6.200108880971E0,1.E0,7.718072937210E0));
#168=LINE('',#167,#166);
#169=CARTESIAN_POINT('',(0.E0,6.E0,0.E0));
#170=DIRECTION('',(0.E0,1.E0,0.E0));
#171=DIRECTION('',(-7.796033269909E-1,0.E0,-6.262736243406E-1));
#172=AXIS2_PLACEMENT_3D('',#169,#170,#171);
#174=DIRECTION('',(0.E0,1.E0,0.E0));
#175=VECTOR('',#174,5.E0);
#176=CARTESIAN_POINT('',(-7.718072937210E0,1.E0,6.200108880971E0));
#177=LINE('',#176,#175);
#178=DIRECTION('',(0.E0,-1.E0,0.E0));
#179=VECTOR('',#178,5.E0);
#180=CARTESIAN_POINT('',(-7.718072937210E0,6.E0,-6.200108880971E0));
#181=LINE('',#180,#179);
#182=DIRECTION('',(0.E0,-1.E0,0.E0));
#183=VECTOR('',#182,5.E0);
#184=CARTESIAN_POINT('',(7.718072937210E0,6.E0,6.200108880971E0));
#185=LINE('',#184,#183);
#186=CARTESIAN_POINT('',(0.E0,6.E0,0.E0));
#187=DIRECTION('',(0.E0,1.E0,0.E0));
#188=DIRECTION('',(7.796033269909E-1,0.E0,6.262736243406E-1));
#189=AXIS2_PLACEMENT_3D('',#186,#187,#188);
#191=DIRECTION('',(0.E0,1.E0,0.E0));
#192=VECTOR('',#191,5.E0);
#193=CARTESIAN_POINT('',(7.718072937210E0,1.E0,-6.200108880971E0));
#194=LINE('',#193,#192);
#195=DIRECTION('',(0.E0,1.E0,0.E0));
#196=VECTOR('',#195,5.E0);
#197=CARTESIAN_POINT('',(-6.200108880971E0,1.E0,-7.718072937210E0));
#198=LINE('',#197,#196);
#199=DIRECTION('',(0.E0,1.E0,0.E0));
#200=VECTOR('',#199,5.E0);
#201=CARTESIAN_POINT('',(6.200108880971E0,1.E0,-7.718072937210E0));
#202=LINE('',#201,#200);
#203=CARTESIAN_POINT('',(0.E0,6.E0,0.E0));
#204=DIRECTION('',(0.E0,-1.E0,0.E0));
#205=DIRECTION('',(1.E0,0.E0,0.E0));
#206=AXIS2_PLACEMENT_3D('',#203,#204,#205);
#208=CARTESIAN_POINT('',(0.E0,6.E0,0.E0));
#209=DIRECTION('',(0.E0,-1.E0,0.E0));
#210=DIRECTION('',(-1.E0,0.E0,0.E0));
#211=AXIS2_PLACEMENT_3D('',#208,#209,#210);
#213=CARTESIAN_POINT('',(0.E0,6.E0,0.E0));
#214=DIRECTION('',(0.E0,1.E0,0.E0));
#215=DIRECTION('',(6.262736243406E-1,0.E0,-7.796033269909E-1));
#216=AXIS2_PLACEMENT_3D('',#213,#214,#215);
#218=CARTESIAN_POINT('',(0.E0,6.E0,0.E0));
#219=DIRECTION('',(0.E0,1.E0,0.E0));
#220=DIRECTION('',(-6.262736243406E-1,0.E0,7.796033269909E-1));
#221=AXIS2_PLACEMENT_3D('',#218,#219,#220);
#223=DIRECTION('',(0.E0,1.E0,0.E0));
#224=VECTOR('',#223,5.E0);
#225=CARTESIAN_POINT('',(8.E0,1.E0,0.E0));
#226=LINE('',#225,#224);
#227=DIRECTION('',(0.E0,1.E0,0.E0));
#228=VECTOR('',#227,5.E0);
#229=CARTESIAN_POINT('',(-8.E0,1.E0,0.E0));
#230=LINE('',#229,#228);
#231=CARTESIAN_POINT('',(-7.7E0,6.E0,-7.7E0));
#232=DIRECTION('',(0.E0,-1.E0,0.E0));
#233=DIRECTION('',(9.999274126857E-1,0.E0,-1.204862480688E-2));
#234=AXIS2_PLACEMENT_3D('',#231,#232,#233);
#236=CARTESIAN_POINT('',(-7.7E0,1.E0,-7.7E0));
#237=DIRECTION('',(0.E0,1.E0,0.E0));
#238=DIRECTION('',(-1.204862480688E-2,0.E0,9.999274126857E-1));
#239=AXIS2_PLACEMENT_3D('',#236,#237,#238);
#241=CARTESIAN_POINT('',(7.7E0,1.E0,-7.7E0));
#242=DIRECTION('',(0.E0,1.E0,0.E0));
#243=DIRECTION('',(-9.999274126857E-1,0.E0,-1.204862480688E-2));
#244=AXIS2_PLACEMENT_3D('',#241,#242,#243);
#246=CARTESIAN_POINT('',(7.7E0,6.E0,-7.7E0));
#247=DIRECTION('',(0.E0,-1.E0,0.E0));
#248=DIRECTION('',(1.204862480688E-2,0.E0,9.999274126857E-1));
#249=AXIS2_PLACEMENT_3D('',#246,#247,#248);
#251=CARTESIAN_POINT('',(7.7E0,1.E0,7.7E0));
#252=DIRECTION('',(0.E0,1.E0,0.E0));
#253=DIRECTION('',(1.204862480688E-2,0.E0,-9.999274126857E-1));
#254=AXIS2_PLACEMENT_3D('',#251,#252,#253);
#256=CARTESIAN_POINT('',(7.7E0,6.E0,7.7E0));
#257=DIRECTION('',(0.E0,-1.E0,0.E0));
#258=DIRECTION('',(-9.999274126857E-1,0.E0,1.204862480688E-2));
#259=AXIS2_PLACEMENT_3D('',#256,#257,#258);
#261=CARTESIAN_POINT('',(-7.7E0,6.E0,7.7E0));
#262=DIRECTION('',(0.E0,-1.E0,0.E0));
#263=DIRECTION('',(-1.204862480688E-2,0.E0,-9.999274126857E-1));
#264=AXIS2_PLACEMENT_3D('',#261,#262,#263);
#266=CARTESIAN_POINT('',(-7.7E0,1.E0,7.7E0));
#267=DIRECTION('',(0.E0,1.E0,0.E0));
#268=DIRECTION('',(9.999274126857E-1,0.E0,1.204862480688E-2));
#269=AXIS2_PLACEMENT_3D('',#266,#267,#268);
#271=DIRECTION('',(0.E0,-1.E0,0.E0));
#272=VECTOR('',#271,1.9E0);
#273=CARTESIAN_POINT('',(9.9E0,1.E0,9.9E0));
#274=LINE('',#273,#272);
#275=DIRECTION('',(0.E0,1.E0,0.E0));
#276=VECTOR('',#275,1.9E0);
#277=CARTESIAN_POINT('',(-9.9E0,-9.E-1,9.9E0));
#278=LINE('',#277,#276);
#279=DIRECTION('',(0.E0,-1.E0,0.E0));
#280=VECTOR('',#279,1.9E0);
#281=CARTESIAN_POINT('',(9.9E0,1.E0,-9.9E0));
#282=LINE('',#281,#280);
#283=DIRECTION('',(0.E0,-1.E0,0.E0));
#284=VECTOR('',#283,1.9E0);
#285=CARTESIAN_POINT('',(-9.9E0,1.E0,-9.9E0));
#286=LINE('',#285,#284);
#287=CARTESIAN_POINT('',(0.E0,-9.E-1,0.E0));
#288=DIRECTION('',(0.E0,1.E0,0.E0));
#289=DIRECTION('',(-1.E0,0.E0,0.E0));
#290=AXIS2_PLACEMENT_3D('',#287,#288,#289);
#292=CARTESIAN_POINT('',(0.E0,-9.E-1,0.E0));
#293=DIRECTION('',(0.E0,1.E0,0.E0));
#294=DIRECTION('',(1.E0,0.E0,0.E0));
#295=AXIS2_PLACEMENT_3D('',#292,#293,#294);
#297=DIRECTION('',(0.E0,0.E0,-1.E0));
#298=VECTOR('',#297,1.98E1);
#299=CARTESIAN_POINT('',(-9.9E0,-9.E-1,9.9E0));
#300=LINE('',#299,#298);
#301=DIRECTION('',(-1.E0,0.E0,0.E0));
#302=VECTOR('',#301,1.98E1);
#303=CARTESIAN_POINT('',(9.9E0,-9.E-1,9.9E0));
#304=LINE('',#303,#302);
#305=DIRECTION('',(0.E0,0.E0,1.E0));
#306=VECTOR('',#305,1.98E1);
#307=CARTESIAN_POINT('',(9.9E0,-9.E-1,-9.9E0));
#308=LINE('',#307,#306);
#309=DIRECTION('',(1.E0,0.E0,0.E0));
#310=VECTOR('',#309,1.98E1);
#311=CARTESIAN_POINT('',(-9.9E0,-9.E-1,-9.9E0));
#312=LINE('',#311,#310);
#313=CARTESIAN_POINT('',(7.7E0,-9.E-1,-7.7E0));
#314=DIRECTION('',(0.E0,1.E0,0.E0));
#315=DIRECTION('',(-1.E0,0.E0,0.E0));
#316=AXIS2_PLACEMENT_3D('',#313,#314,#315);
#318=CARTESIAN_POINT('',(7.7E0,-9.E-1,-7.7E0));
#319=DIRECTION('',(0.E0,1.E0,0.E0));
#320=DIRECTION('',(1.E0,0.E0,0.E0));
#321=AXIS2_PLACEMENT_3D('',#318,#319,#320);
#323=CARTESIAN_POINT('',(-7.7E0,-9.E-1,-7.7E0));
#324=DIRECTION('',(0.E0,1.E0,0.E0));
#325=DIRECTION('',(-1.E0,0.E0,0.E0));
#326=AXIS2_PLACEMENT_3D('',#323,#324,#325);
#328=CARTESIAN_POINT('',(-7.7E0,-9.E-1,-7.7E0));
#329=DIRECTION('',(0.E0,1.E0,0.E0));
#330=DIRECTION('',(1.E0,0.E0,0.E0));
#331=AXIS2_PLACEMENT_3D('',#328,#329,#330);
#333=CARTESIAN_POINT('',(7.7E0,-9.E-1,7.7E0));
#334=DIRECTION('',(0.E0,1.E0,0.E0));
#335=DIRECTION('',(-1.E0,0.E0,0.E0));
#336=AXIS2_PLACEMENT_3D('',#333,#334,#335);
#338=CARTESIAN_POINT('',(7.7E0,-9.E-1,7.7E0));
#339=DIRECTION('',(0.E0,1.E0,0.E0));
#340=DIRECTION('',(1.E0,0.E0,0.E0));
#341=AXIS2_PLACEMENT_3D('',#338,#339,#340);
#343=CARTESIAN_POINT('',(-7.7E0,-9.E-1,7.7E0));
#344=DIRECTION('',(0.E0,1.E0,0.E0));
#345=DIRECTION('',(-1.E0,0.E0,0.E0));
#346=AXIS2_PLACEMENT_3D('',#343,#344,#345);
#348=CARTESIAN_POINT('',(-7.7E0,-9.E-1,7.7E0));
#349=DIRECTION('',(0.E0,1.E0,0.E0));
#350=DIRECTION('',(1.E0,0.E0,0.E0));
#351=AXIS2_PLACEMENT_3D('',#348,#349,#350);
#353=DIRECTION('',(0.E0,-1.E0,0.E0));
#354=VECTOR('',#353,9.E-1);
#355=CARTESIAN_POINT('',(-8.E0,0.E0,0.E0));
#356=LINE('',#355,#354);
#357=DIRECTION('',(0.E0,-1.E0,0.E0));
#358=VECTOR('',#357,9.E-1);
#359=CARTESIAN_POINT('',(8.E0,0.E0,0.E0));
#360=LINE('',#359,#358);
#361=DIRECTION('',(0.E0,-1.E0,0.E0));
#362=VECTOR('',#361,1.9E0);
#363=CARTESIAN_POINT('',(8.7E0,1.E0,-7.7E0));
#364=LINE('',#363,#362);
#365=DIRECTION('',(0.E0,1.E0,0.E0));
#366=VECTOR('',#365,1.9E0);
#367=CARTESIAN_POINT('',(6.7E0,-9.E-1,-7.7E0));
#368=LINE('',#367,#366);
#369=DIRECTION('',(0.E0,-1.E0,0.E0));
#370=VECTOR('',#369,1.9E0);
#371=CARTESIAN_POINT('',(-6.7E0,1.E0,-7.7E0));
#372=LINE('',#371,#370);
#373=DIRECTION('',(0.E0,1.E0,0.E0));
#374=VECTOR('',#373,1.9E0);
#375=CARTESIAN_POINT('',(-8.7E0,-9.E-1,-7.7E0));
#376=LINE('',#375,#374);
#377=DIRECTION('',(0.E0,-1.E0,0.E0));
#378=VECTOR('',#377,1.9E0);
#379=CARTESIAN_POINT('',(8.7E0,1.E0,7.7E0));
#380=LINE('',#379,#378);
#381=DIRECTION('',(0.E0,1.E0,0.E0));
#382=VECTOR('',#381,1.9E0);
#383=CARTESIAN_POINT('',(6.7E0,-9.E-1,7.7E0));
#384=LINE('',#383,#382);
#385=DIRECTION('',(0.E0,-1.E0,0.E0));
#386=VECTOR('',#385,1.9E0);
#387=CARTESIAN_POINT('',(-6.7E0,1.E0,7.7E0));
#388=LINE('',#387,#386);
#389=DIRECTION('',(0.E0,1.E0,0.E0));
#390=VECTOR('',#389,1.9E0);
#391=CARTESIAN_POINT('',(-8.7E0,-9.E-1,7.7E0));
#392=LINE('',#391,#390);
#393=CARTESIAN_POINT('',(2.5E0,0.E0,0.E0));
#394=CARTESIAN_POINT('',(-2.5E0,0.E0,0.E0));
#395=VERTEX_POINT('',#393);
#396=VERTEX_POINT('',#394);
#397=CARTESIAN_POINT('',(2.5E0,1.E0,0.E0));
#398=CARTESIAN_POINT('',(-2.5E0,1.E0,0.E0));
#399=VERTEX_POINT('',#397);
#400=VERTEX_POINT('',#398);
#401=CARTESIAN_POINT('',(-8.7E0,1.E0,-7.7E0));
#402=CARTESIAN_POINT('',(-6.7E0,1.E0,-7.7E0));
#403=VERTEX_POINT('',#401);
#404=VERTEX_POINT('',#402);
#405=CARTESIAN_POINT('',(6.7E0,1.E0,-7.7E0));
#406=CARTESIAN_POINT('',(8.7E0,1.E0,-7.7E0));
#407=VERTEX_POINT('',#405);
#408=VERTEX_POINT('',#406);
#409=CARTESIAN_POINT('',(8.7E0,1.E0,7.7E0));
#410=CARTESIAN_POINT('',(6.7E0,1.E0,7.7E0));
#411=VERTEX_POINT('',#409);
#412=VERTEX_POINT('',#410);
#413=CARTESIAN_POINT('',(-6.7E0,1.E0,7.7E0));
#414=CARTESIAN_POINT('',(-8.7E0,1.E0,7.7E0));
#415=VERTEX_POINT('',#413);
#416=VERTEX_POINT('',#414);
#417=CARTESIAN_POINT('',(8.E0,6.E0,0.E0));
#418=CARTESIAN_POINT('',(-8.E0,6.E0,0.E0));
#419=VERTEX_POINT('',#417);
#420=VERTEX_POINT('',#418);
#421=CARTESIAN_POINT('',(-8.E0,1.E0,0.E0));
#422=CARTESIAN_POINT('',(8.E0,1.E0,0.E0));
#423=VERTEX_POINT('',#421);
#424=VERTEX_POINT('',#422);
#425=CARTESIAN_POINT('',(-7.718072937210E0,6.E0,-6.200108880971E0));
#426=CARTESIAN_POINT('',(-7.718072937210E0,1.E0,-6.200108880971E0));
#427=VERTEX_POINT('',#425);
#428=VERTEX_POINT('',#426);
#429=CARTESIAN_POINT('',(7.718072937210E0,1.E0,-6.200108880971E0));
#430=CARTESIAN_POINT('',(7.718072937210E0,6.E0,-6.200108880971E0));
#431=VERTEX_POINT('',#429);
#432=VERTEX_POINT('',#430);
#433=CARTESIAN_POINT('',(7.718072937210E0,6.E0,6.200108880971E0));
#434=CARTESIAN_POINT('',(7.718072937210E0,1.E0,6.200108880971E0));
#435=VERTEX_POINT('',#433);
#436=VERTEX_POINT('',#434);
#437=CARTESIAN_POINT('',(-7.718072937210E0,1.E0,6.200108880971E0));
#438=CARTESIAN_POINT('',(-7.718072937210E0,6.E0,6.200108880971E0));
#439=VERTEX_POINT('',#437);
#440=VERTEX_POINT('',#438);
#441=CARTESIAN_POINT('',(6.200108880971E0,6.E0,-7.718072937210E0));
#442=CARTESIAN_POINT('',(-6.200108880971E0,6.E0,-7.718072937210E0));
#443=VERTEX_POINT('',#441);
#444=VERTEX_POINT('',#442);
#445=CARTESIAN_POINT('',(-6.200108880971E0,6.E0,7.718072937210E0));
#446=CARTESIAN_POINT('',(6.200108880971E0,6.E0,7.718072937210E0));
#447=VERTEX_POINT('',#445);
#448=VERTEX_POINT('',#446);
#449=CARTESIAN_POINT('',(9.9E0,1.E0,0.E0));
#450=VERTEX_POINT('',#449);
#451=CARTESIAN_POINT('',(-9.9E0,1.E0,0.E0));
#452=VERTEX_POINT('',#451);
#453=CARTESIAN_POINT('',(-9.9E0,1.E0,-9.9E0));
#454=VERTEX_POINT('',#453);
#455=CARTESIAN_POINT('',(-9.9E0,1.E0,9.9E0));
#456=VERTEX_POINT('',#455);
#457=CARTESIAN_POINT('',(0.E0,1.E0,9.9E0));
#458=VERTEX_POINT('',#457);
#459=CARTESIAN_POINT('',(9.9E0,1.E0,9.9E0));
#460=VERTEX_POINT('',#459);
#461=CARTESIAN_POINT('',(9.9E0,1.E0,-9.9E0));
#462=VERTEX_POINT('',#461);
#463=CARTESIAN_POINT('',(0.E0,1.E0,-9.9E0));
#464=VERTEX_POINT('',#463);
#465=CARTESIAN_POINT('',(-6.200108880971E0,1.E0,-7.718072937210E0));
#466=VERTEX_POINT('',#465);
#467=CARTESIAN_POINT('',(6.200108880971E0,1.E0,-7.718072937210E0));
#468=VERTEX_POINT('',#467);
#469=CARTESIAN_POINT('',(6.200108880971E0,1.E0,7.718072937210E0));
#470=VERTEX_POINT('',#469);
#471=CARTESIAN_POINT('',(-6.200108880971E0,1.E0,7.718072937210E0));
#472=VERTEX_POINT('',#471);
#473=CARTESIAN_POINT('',(-8.E0,-9.E-1,0.E0));
#474=CARTESIAN_POINT('',(8.E0,-9.E-1,0.E0));
#475=VERTEX_POINT('',#473);
#476=VERTEX_POINT('',#474);
#477=CARTESIAN_POINT('',(-9.9E0,-9.E-1,9.9E0));
#478=CARTESIAN_POINT('',(-9.9E0,-9.E-1,-9.9E0));
#479=VERTEX_POINT('',#477);
#480=VERTEX_POINT('',#478);
#481=CARTESIAN_POINT('',(9.9E0,-9.E-1,-9.9E0));
#482=VERTEX_POINT('',#481);
#483=CARTESIAN_POINT('',(9.9E0,-9.E-1,9.9E0));
#484=VERTEX_POINT('',#483);
#485=CARTESIAN_POINT('',(6.7E0,-9.E-1,-7.7E0));
#486=CARTESIAN_POINT('',(8.7E0,-9.E-1,-7.7E0));
#487=VERTEX_POINT('',#485);
#488=VERTEX_POINT('',#486);
#489=CARTESIAN_POINT('',(-8.7E0,-9.E-1,-7.7E0));
#490=CARTESIAN_POINT('',(-6.7E0,-9.E-1,-7.7E0));
#491=VERTEX_POINT('',#489);
#492=VERTEX_POINT('',#490);
#493=CARTESIAN_POINT('',(6.7E0,-9.E-1,7.7E0));
#494=CARTESIAN_POINT('',(8.7E0,-9.E-1,7.7E0));
#495=VERTEX_POINT('',#493);
#496=VERTEX_POINT('',#494);
#497=CARTESIAN_POINT('',(-8.7E0,-9.E-1,7.7E0));
#498=CARTESIAN_POINT('',(-6.7E0,-9.E-1,7.7E0));
#499=VERTEX_POINT('',#497);
#500=VERTEX_POINT('',#498);
#501=CARTESIAN_POINT('',(8.E0,0.E0,0.E0));
#502=CARTESIAN_POINT('',(-8.E0,0.E0,0.E0));
#503=VERTEX_POINT('',#501);
#504=VERTEX_POINT('',#502);
#505=CARTESIAN_POINT('',(0.E0,0.E0,0.E0));
#506=DIRECTION('',(0.E0,1.E0,0.E0));
#507=DIRECTION('',(1.E0,0.E0,0.E0));
#508=AXIS2_PLACEMENT_3D('',#505,#506,#507);
#509=PLANE('',#508);
#511=ORIENTED_EDGE('',*,*,#510,.F.);
#513=ORIENTED_EDGE('',*,*,#512,.F.);
#514=EDGE_LOOP('',(#511,#513));
#515=FACE_OUTER_BOUND('',#514,.F.);
#517=ORIENTED_EDGE('',*,*,#516,.T.);
#519=ORIENTED_EDGE('',*,*,#518,.T.);
#520=EDGE_LOOP('',(#517,#519));
#521=FACE_BOUND('',#520,.F.);
#522=ADVANCED_FACE('',(#515,#521),#509,.F.);
#523=CARTESIAN_POINT('',(0.E0,0.E0,0.E0));
#524=DIRECTION('',(0.E0,1.E0,0.E0));
#525=DIRECTION('',(1.E0,0.E0,0.E0));
#526=AXIS2_PLACEMENT_3D('',#523,#524,#525);
#527=CYLINDRICAL_SURFACE('',#526,2.5E0);
#528=ORIENTED_EDGE('',*,*,#516,.F.);
#530=ORIENTED_EDGE('',*,*,#529,.T.);
#532=ORIENTED_EDGE('',*,*,#531,.T.);
#534=ORIENTED_EDGE('',*,*,#533,.F.);
#535=EDGE_LOOP('',(#528,#530,#532,#534));
#536=FACE_OUTER_BOUND('',#535,.F.);
#537=ADVANCED_FACE('',(#536),#527,.F.);
#538=CARTESIAN_POINT('',(0.E0,0.E0,0.E0));
#539=DIRECTION('',(0.E0,1.E0,0.E0));
#540=DIRECTION('',(1.E0,0.E0,0.E0));
#541=AXIS2_PLACEMENT_3D('',#538,#539,#540);
#542=CYLINDRICAL_SURFACE('',#541,2.5E0);
#543=ORIENTED_EDGE('',*,*,#518,.F.);
#544=ORIENTED_EDGE('',*,*,#533,.T.);
#546=ORIENTED_EDGE('',*,*,#545,.T.);
#547=ORIENTED_EDGE('',*,*,#529,.F.);
#548=EDGE_LOOP('',(#543,#544,#546,#547));
#549=FACE_OUTER_BOUND('',#548,.F.);
#550=ADVANCED_FACE('',(#549),#542,.F.);
#551=CARTESIAN_POINT('',(0.E0,1.E0,0.E0));
#552=DIRECTION('',(0.E0,1.E0,0.E0));
#553=DIRECTION('',(1.E0,0.E0,0.E0));
#554=AXIS2_PLACEMENT_3D('',#551,#552,#553);
#555=PLANE('',#554);
#557=ORIENTED_EDGE('',*,*,#556,.T.);
#559=ORIENTED_EDGE('',*,*,#558,.F.);
#561=ORIENTED_EDGE('',*,*,#560,.T.);
#563=ORIENTED_EDGE('',*,*,#562,.F.);
#565=ORIENTED_EDGE('',*,*,#564,.F.);
#566=EDGE_LOOP('',(#557,#559,#561,#563,#565));
#567=FACE_OUTER_BOUND('',#566,.F.);
#569=ORIENTED_EDGE('',*,*,#568,.T.);
#571=ORIENTED_EDGE('',*,*,#570,.F.);
#572=EDGE_LOOP('',(#569,#571));
#573=FACE_BOUND('',#572,.F.);
#574=ADVANCED_FACE('',(#567,#573),#555,.T.);
#575=CARTESIAN_POINT('',(0.E0,1.E0,0.E0));
#576=DIRECTION('',(0.E0,1.E0,0.E0));
#577=DIRECTION('',(1.E0,0.E0,0.E0));
#578=AXIS2_PLACEMENT_3D('',#575,#576,#577);
#579=PLANE('',#578);
#581=ORIENTED_EDGE('',*,*,#580,.T.);
#583=ORIENTED_EDGE('',*,*,#582,.F.);
#585=ORIENTED_EDGE('',*,*,#584,.T.);
#587=ORIENTED_EDGE('',*,*,#586,.F.);
#589=ORIENTED_EDGE('',*,*,#588,.F.);
#590=EDGE_LOOP('',(#581,#583,#585,#587,#589));
#591=FACE_OUTER_BOUND('',#590,.F.);
#593=ORIENTED_EDGE('',*,*,#592,.T.);
#595=ORIENTED_EDGE('',*,*,#594,.F.);
#596=EDGE_LOOP('',(#593,#595));
#597=FACE_BOUND('',#596,.F.);
#598=ADVANCED_FACE('',(#591,#597),#579,.T.);
#599=CARTESIAN_POINT('',(0.E0,1.E0,0.E0));
#600=DIRECTION('',(0.E0,1.E0,0.E0));
#601=DIRECTION('',(1.E0,0.E0,0.E0));
#602=AXIS2_PLACEMENT_3D('',#599,#600,#601);
#603=PLANE('',#602);
#605=ORIENTED_EDGE('',*,*,#604,.F.);
#607=ORIENTED_EDGE('',*,*,#606,.F.);
#608=EDGE_LOOP('',(#605,#607));
#609=FACE_OUTER_BOUND('',#608,.F.);
#610=ORIENTED_EDGE('',*,*,#531,.F.);
#611=ORIENTED_EDGE('',*,*,#545,.F.);
#612=EDGE_LOOP('',(#610,#611));
#613=FACE_BOUND('',#612,.F.);
#614=ADVANCED_FACE('',(#609,#613),#603,.T.);
#615=CARTESIAN_POINT('',(0.E0,1.E0,0.E0));
#616=DIRECTION('',(0.E0,1.E0,0.E0));
#617=DIRECTION('',(1.E0,0.E0,0.E0));
#618=AXIS2_PLACEMENT_3D('',#615,#616,#617);
#619=PLANE('',#618);
#621=ORIENTED_EDGE('',*,*,#620,.T.);
#623=ORIENTED_EDGE('',*,*,#622,.F.);
#625=ORIENTED_EDGE('',*,*,#624,.T.);
#627=ORIENTED_EDGE('',*,*,#626,.F.);
#629=ORIENTED_EDGE('',*,*,#628,.F.);
#630=EDGE_LOOP('',(#621,#623,#625,#627,#629));
#631=FACE_OUTER_BOUND('',#630,.F.);
#633=ORIENTED_EDGE('',*,*,#632,.T.);
#635=ORIENTED_EDGE('',*,*,#634,.F.);
#636=EDGE_LOOP('',(#633,#635));
#637=FACE_BOUND('',#636,.F.);
#638=ADVANCED_FACE('',(#631,#637),#619,.T.);
#639=CARTESIAN_POINT('',(0.E0,1.E0,0.E0));
#640=DIRECTION('',(0.E0,1.E0,0.E0));
#641=DIRECTION('',(1.E0,0.E0,0.E0));
#642=AXIS2_PLACEMENT_3D('',#639,#640,#641);
#643=PLANE('',#642);
#645=ORIENTED_EDGE('',*,*,#644,.T.);
#647=ORIENTED_EDGE('',*,*,#646,.F.);
#649=ORIENTED_EDGE('',*,*,#648,.T.);
#651=ORIENTED_EDGE('',*,*,#650,.F.);
#653=ORIENTED_EDGE('',*,*,#652,.F.);
#654=EDGE_LOOP('',(#645,#647,#649,#651,#653));
#655=FACE_OUTER_BOUND('',#654,.F.);
#657=ORIENTED_EDGE('',*,*,#656,.T.);
#659=ORIENTED_EDGE('',*,*,#658,.F.);
#660=EDGE_LOOP('',(#657,#659));
#661=FACE_BOUND('',#660,.F.);
#662=ADVANCED_FACE('',(#655,#661),#643,.T.);
#663=CARTESIAN_POINT('',(0.E0,1.E0,0.E0));
#664=DIRECTION('',(0.E0,1.E0,0.E0));
#665=DIRECTION('',(1.E0,0.E0,0.E0));
#666=AXIS2_PLACEMENT_3D('',#663,#664,#665);
#667=CYLINDRICAL_SURFACE('',#666,9.9E0);
#669=ORIENTED_EDGE('',*,*,#668,.T.);
#671=ORIENTED_EDGE('',*,*,#670,.F.);
#672=ORIENTED_EDGE('',*,*,#580,.F.);
#673=ORIENTED_EDGE('',*,*,#560,.F.);
#675=ORIENTED_EDGE('',*,*,#674,.T.);
#676=EDGE_LOOP('',(#669,#671,#672,#673,#675));
#677=FACE_OUTER_BOUND('',#676,.F.);
#678=ADVANCED_FACE('',(#677),#667,.T.);
#679=CARTESIAN_POINT('',(0.E0,1.E0,0.E0));
#680=DIRECTION('',(0.E0,1.E0,0.E0));
#681=DIRECTION('',(1.E0,0.E0,0.E0));
#682=AXIS2_PLACEMENT_3D('',#679,#680,#681);
#683=CYLINDRICAL_SURFACE('',#682,9.9E0);
#685=ORIENTED_EDGE('',*,*,#684,.T.);
#687=ORIENTED_EDGE('',*,*,#686,.F.);
#688=ORIENTED_EDGE('',*,*,#556,.F.);
#689=ORIENTED_EDGE('',*,*,#648,.F.);
#691=ORIENTED_EDGE('',*,*,#690,.F.);
#692=EDGE_LOOP('',(#685,#687,#688,#689,#691));
#693=FACE_OUTER_BOUND('',#692,.F.);
#694=ADVANCED_FACE('',(#693),#683,.T.);
#695=CARTESIAN_POINT('',(0.E0,1.E0,0.E0));
#696=DIRECTION('',(0.E0,1.E0,0.E0));
#697=DIRECTION('',(1.E0,0.E0,0.E0));
#698=AXIS2_PLACEMENT_3D('',#695,#696,#697);
#699=CYLINDRICAL_SURFACE('',#698,9.9E0);
#700=ORIENTED_EDGE('',*,*,#620,.F.);
#701=ORIENTED_EDGE('',*,*,#584,.F.);
#703=ORIENTED_EDGE('',*,*,#702,.F.);
#705=ORIENTED_EDGE('',*,*,#704,.T.);
#707=ORIENTED_EDGE('',*,*,#706,.F.);
#708=EDGE_LOOP('',(#700,#701,#703,#705,#707));
#709=FACE_OUTER_BOUND('',#708,.F.);
#710=ADVANCED_FACE('',(#709),#699,.T.);
#711=CARTESIAN_POINT('',(0.E0,1.E0,0.E0));
#712=DIRECTION('',(0.E0,1.E0,0.E0));
#713=DIRECTION('',(1.E0,0.E0,0.E0));
#714=AXIS2_PLACEMENT_3D('',#711,#712,#713);
#715=CYLINDRICAL_SURFACE('',#714,9.9E0);
#717=ORIENTED_EDGE('',*,*,#716,.T.);
#719=ORIENTED_EDGE('',*,*,#718,.F.);
#720=ORIENTED_EDGE('',*,*,#644,.F.);
#721=ORIENTED_EDGE('',*,*,#624,.F.);
#723=ORIENTED_EDGE('',*,*,#722,.T.);
#724=EDGE_LOOP('',(#717,#719,#720,#721,#723));
#725=FACE_OUTER_BOUND('',#724,.F.);
#726=ADVANCED_FACE('',(#725),#715,.T.);
#727=CARTESIAN_POINT('',(0.E0,6.E0,0.E0));
#728=DIRECTION('',(0.E0,1.E0,0.E0));
#729=DIRECTION('',(1.E0,0.E0,0.E0));
#730=AXIS2_PLACEMENT_3D('',#727,#728,#729);
#731=PLANE('',#730);
#733=ORIENTED_EDGE('',*,*,#732,.F.);
#734=ORIENTED_EDGE('',*,*,#716,.F.);
#736=ORIENTED_EDGE('',*,*,#735,.F.);
#737=ORIENTED_EDGE('',*,*,#704,.F.);
#739=ORIENTED_EDGE('',*,*,#738,.F.);
#740=ORIENTED_EDGE('',*,*,#668,.F.);
#742=ORIENTED_EDGE('',*,*,#741,.F.);
#743=ORIENTED_EDGE('',*,*,#684,.F.);
#744=EDGE_LOOP('',(#733,#734,#736,#737,#739,#740,#742,#743));
#745=FACE_OUTER_BOUND('',#744,.F.);
#747=ORIENTED_EDGE('',*,*,#746,.F.);
#749=ORIENTED_EDGE('',*,*,#748,.F.);
#750=EDGE_LOOP('',(#747,#749));
#751=FACE_BOUND('',#750,.F.);
#752=ADVANCED_FACE('',(#745,#751),#731,.T.);
#753=CARTESIAN_POINT('',(0.E0,1.E0,0.E0));
#754=DIRECTION('',(0.E0,1.E0,0.E0));
#755=DIRECTION('',(1.E0,0.E0,0.E0));
#756=AXIS2_PLACEMENT_3D('',#753,#754,#755);
#757=CYLINDRICAL_SURFACE('',#756,8.E0);
#758=ORIENTED_EDGE('',*,*,#604,.T.);
#760=ORIENTED_EDGE('',*,*,#759,.T.);
#761=ORIENTED_EDGE('',*,*,#746,.T.);
#763=ORIENTED_EDGE('',*,*,#762,.F.);
#764=EDGE_LOOP('',(#758,#760,#761,#763));
#765=FACE_OUTER_BOUND('',#764,.F.);
#766=ADVANCED_FACE('',(#765),#757,.F.);
#767=CARTESIAN_POINT('',(0.E0,1.E0,0.E0));
#768=DIRECTION('',(0.E0,1.E0,0.E0));
#769=DIRECTION('',(1.E0,0.E0,0.E0));
#770=AXIS2_PLACEMENT_3D('',#767,#768,#769);
#771=CYLINDRICAL_SURFACE('',#770,8.E0);
#772=ORIENTED_EDGE('',*,*,#606,.T.);
#773=ORIENTED_EDGE('',*,*,#762,.T.);
#774=ORIENTED_EDGE('',*,*,#748,.T.);
#775=ORIENTED_EDGE('',*,*,#759,.F.);
#776=EDGE_LOOP('',(#772,#773,#774,#775));
#777=FACE_OUTER_BOUND('',#776,.F.);
#778=ADVANCED_FACE('',(#777),#771,.F.);
#779=CARTESIAN_POINT('',(-7.7E0,1.E0,-7.7E0));
#780=DIRECTION('',(0.E0,1.E0,0.E0));
#781=DIRECTION('',(1.E0,0.E0,0.E0));
#782=AXIS2_PLACEMENT_3D('',#779,#780,#781);
#783=CYLINDRICAL_SURFACE('',#782,1.5E0);
#784=ORIENTED_EDGE('',*,*,#732,.T.);
#785=ORIENTED_EDGE('',*,*,#690,.T.);
#786=ORIENTED_EDGE('',*,*,#646,.T.);
#787=ORIENTED_EDGE('',*,*,#718,.T.);
#788=EDGE_LOOP('',(#784,#785,#786,#787));
#789=FACE_OUTER_BOUND('',#788,.F.);
#790=ADVANCED_FACE('',(#789),#783,.F.);
#791=CARTESIAN_POINT('',(7.7E0,1.E0,-7.7E0));
#792=DIRECTION('',(0.E0,1.E0,0.E0));
#793=DIRECTION('',(1.E0,0.E0,0.E0));
#794=AXIS2_PLACEMENT_3D('',#791,#792,#793);
#795=CYLINDRICAL_SURFACE('',#794,1.5E0);
#796=ORIENTED_EDGE('',*,*,#622,.T.);
#797=ORIENTED_EDGE('',*,*,#706,.T.);
#798=ORIENTED_EDGE('',*,*,#735,.T.);
#799=ORIENTED_EDGE('',*,*,#722,.F.);
#800=EDGE_LOOP('',(#796,#797,#798,#799));
#801=FACE_OUTER_BOUND('',#800,.F.);
#802=ADVANCED_FACE('',(#801),#795,.F.);
#803=CARTESIAN_POINT('',(7.7E0,1.E0,7.7E0));
#804=DIRECTION('',(0.E0,1.E0,0.E0));
#805=DIRECTION('',(1.E0,0.E0,0.E0));
#806=AXIS2_PLACEMENT_3D('',#803,#804,#805);
#807=CYLINDRICAL_SURFACE('',#806,1.5E0);
#808=ORIENTED_EDGE('',*,*,#582,.T.);
#809=ORIENTED_EDGE('',*,*,#670,.T.);
#810=ORIENTED_EDGE('',*,*,#738,.T.);
#811=ORIENTED_EDGE('',*,*,#702,.T.);
#812=EDGE_LOOP('',(#808,#809,#810,#811));
#813=FACE_OUTER_BOUND('',#812,.F.);
#814=ADVANCED_FACE('',(#813),#807,.F.);
#815=CARTESIAN_POINT('',(-7.7E0,1.E0,7.7E0));
#816=DIRECTION('',(0.E0,1.E0,0.E0));
#817=DIRECTION('',(1.E0,0.E0,0.E0));
#818=AXIS2_PLACEMENT_3D('',#815,#816,#817);
#819=CYLINDRICAL_SURFACE('',#818,1.5E0);
#820=ORIENTED_EDGE('',*,*,#741,.T.);
#821=ORIENTED_EDGE('',*,*,#674,.F.);
#822=ORIENTED_EDGE('',*,*,#558,.T.);
#823=ORIENTED_EDGE('',*,*,#686,.T.);
#824=EDGE_LOOP('',(#820,#821,#822,#823));
#825=FACE_OUTER_BOUND('',#824,.F.);
#826=ADVANCED_FACE('',(#825),#819,.F.);
#827=CARTESIAN_POINT('',(-9.9E0,0.E0,9.9E0));
#828=DIRECTION('',(0.E0,0.E0,1.E0));
#829=DIRECTION('',(1.E0,0.E0,0.E0));
#830=AXIS2_PLACEMENT_3D('',#827,#828,#829);
#831=PLANE('',#830);
#833=ORIENTED_EDGE('',*,*,#832,.T.);
#835=ORIENTED_EDGE('',*,*,#834,.T.);
#837=ORIENTED_EDGE('',*,*,#836,.T.);
#838=ORIENTED_EDGE('',*,*,#562,.T.);
#839=ORIENTED_EDGE('',*,*,#588,.T.);
#840=EDGE_LOOP('',(#833,#835,#837,#838,#839));
#841=FACE_OUTER_BOUND('',#840,.F.);
#842=ADVANCED_FACE('',(#841),#831,.T.);
#843=CARTESIAN_POINT('',(9.9E0,0.E0,9.9E0));
#844=DIRECTION('',(1.E0,0.E0,0.E0));
#845=DIRECTION('',(0.E0,0.E0,-1.E0));
#846=AXIS2_PLACEMENT_3D('',#843,#844,#845);
#847=PLANE('',#846);
#849=ORIENTED_EDGE('',*,*,#848,.T.);
#851=ORIENTED_EDGE('',*,*,#850,.T.);
#852=ORIENTED_EDGE('',*,*,#832,.F.);
#853=ORIENTED_EDGE('',*,*,#586,.T.);
#854=ORIENTED_EDGE('',*,*,#628,.T.);
#855=EDGE_LOOP('',(#849,#851,#852,#853,#854));
#856=FACE_OUTER_BOUND('',#855,.F.);
#857=ADVANCED_FACE('',(#856),#847,.T.);
#858=CARTESIAN_POINT('',(9.9E0,0.E0,-9.9E0));
#859=DIRECTION('',(0.E0,0.E0,-1.E0));
#860=DIRECTION('',(-1.E0,0.E0,0.E0));
#861=AXIS2_PLACEMENT_3D('',#858,#859,#860);
#862=PLANE('',#861);
#864=ORIENTED_EDGE('',*,*,#863,.T.);
#866=ORIENTED_EDGE('',*,*,#865,.T.);
#867=ORIENTED_EDGE('',*,*,#848,.F.);
#868=ORIENTED_EDGE('',*,*,#626,.T.);
#869=ORIENTED_EDGE('',*,*,#652,.T.);
#870=EDGE_LOOP('',(#864,#866,#867,#868,#869));
#871=FACE_OUTER_BOUND('',#870,.F.);
#872=ADVANCED_FACE('',(#871),#862,.T.);
#873=CARTESIAN_POINT('',(-9.9E0,0.E0,-9.9E0));
#874=DIRECTION('',(-1.E0,0.E0,0.E0));
#875=DIRECTION('',(0.E0,0.E0,1.E0));
#876=AXIS2_PLACEMENT_3D('',#873,#874,#875);
#877=PLANE('',#876);
#878=ORIENTED_EDGE('',*,*,#836,.F.);
#880=ORIENTED_EDGE('',*,*,#879,.T.);
#881=ORIENTED_EDGE('',*,*,#863,.F.);
#882=ORIENTED_EDGE('',*,*,#650,.T.);
#883=ORIENTED_EDGE('',*,*,#564,.T.);
#884=EDGE_LOOP('',(#878,#880,#881,#882,#883));
#885=FACE_OUTER_BOUND('',#884,.F.);
#886=ADVANCED_FACE('',(#885),#877,.T.);
#887=CARTESIAN_POINT('',(0.E0,-9.E-1,0.E0));
#888=DIRECTION('',(0.E0,-1.E0,0.E0));
#889=DIRECTION('',(-1.E0,0.E0,0.E0));
#890=AXIS2_PLACEMENT_3D('',#887,#888,#889);
#891=PLANE('',#890);
#892=ORIENTED_EDGE('',*,*,#879,.F.);
#893=ORIENTED_EDGE('',*,*,#834,.F.);
#894=ORIENTED_EDGE('',*,*,#850,.F.);
#895=ORIENTED_EDGE('',*,*,#865,.F.);
#896=EDGE_LOOP('',(#892,#893,#894,#895));
#897=FACE_OUTER_BOUND('',#896,.F.);
#899=ORIENTED_EDGE('',*,*,#898,.F.);
#901=ORIENTED_EDGE('',*,*,#900,.F.);
#902=EDGE_LOOP('',(#899,#901));
#903=FACE_BOUND('',#902,.F.);
#905=ORIENTED_EDGE('',*,*,#904,.F.);
#907=ORIENTED_EDGE('',*,*,#906,.F.);
#908=EDGE_LOOP('',(#905,#907));
#909=FACE_BOUND('',#908,.F.);
#911=ORIENTED_EDGE('',*,*,#910,.F.);
#913=ORIENTED_EDGE('',*,*,#912,.F.);
#914=EDGE_LOOP('',(#911,#913));
#915=FACE_BOUND('',#914,.F.);
#917=ORIENTED_EDGE('',*,*,#916,.F.);
#919=ORIENTED_EDGE('',*,*,#918,.F.);
#920=EDGE_LOOP('',(#917,#919));
#921=FACE_BOUND('',#920,.F.);
#923=ORIENTED_EDGE('',*,*,#922,.F.);
#925=ORIENTED_EDGE('',*,*,#924,.F.);
#926=EDGE_LOOP('',(#923,#925));
#927=FACE_BOUND('',#926,.F.);
#928=ADVANCED_FACE('',(#897,#903,#909,#915,#921,#927),#891,.T.);
#929=CARTESIAN_POINT('',(0.E0,0.E0,0.E0));
#930=DIRECTION('',(0.E0,-1.E0,0.E0));
#931=DIRECTION('',(-1.E0,0.E0,0.E0));
#932=AXIS2_PLACEMENT_3D('',#929,#930,#931);
#933=CYLINDRICAL_SURFACE('',#932,8.E0);
#934=ORIENTED_EDGE('',*,*,#510,.T.);
#936=ORIENTED_EDGE('',*,*,#935,.T.);
#937=ORIENTED_EDGE('',*,*,#898,.T.);
#939=ORIENTED_EDGE('',*,*,#938,.F.);
#940=EDGE_LOOP('',(#934,#936,#937,#939));
#941=FACE_OUTER_BOUND('',#940,.F.);
#942=ADVANCED_FACE('',(#941),#933,.F.);
#943=CARTESIAN_POINT('',(0.E0,0.E0,0.E0));
#944=DIRECTION('',(0.E0,-1.E0,0.E0));
#945=DIRECTION('',(-1.E0,0.E0,0.E0));
#946=AXIS2_PLACEMENT_3D('',#943,#944,#945);
#947=CYLINDRICAL_SURFACE('',#946,8.E0);
#948=ORIENTED_EDGE('',*,*,#512,.T.);
#949=ORIENTED_EDGE('',*,*,#938,.T.);
#950=ORIENTED_EDGE('',*,*,#900,.T.);
#951=ORIENTED_EDGE('',*,*,#935,.F.);
#952=EDGE_LOOP('',(#948,#949,#950,#951));
#953=FACE_OUTER_BOUND('',#952,.F.);
#954=ADVANCED_FACE('',(#953),#947,.F.);
#955=CARTESIAN_POINT('',(7.7E0,0.E0,-7.7E0));
#956=DIRECTION('',(0.E0,1.E0,0.E0));
#957=DIRECTION('',(1.E0,0.E0,0.E0));
#958=AXIS2_PLACEMENT_3D('',#955,#956,#957);
#959=CYLINDRICAL_SURFACE('',#958,1.E0);
#961=ORIENTED_EDGE('',*,*,#960,.F.);
#962=ORIENTED_EDGE('',*,*,#904,.T.);
#964=ORIENTED_EDGE('',*,*,#963,.F.);
#965=ORIENTED_EDGE('',*,*,#632,.F.);
#966=EDGE_LOOP('',(#961,#962,#964,#965));
#967=FACE_OUTER_BOUND('',#966,.F.);
#968=ADVANCED_FACE('',(#967),#959,.F.);
#969=CARTESIAN_POINT('',(7.7E0,0.E0,-7.7E0));
#970=DIRECTION('',(0.E0,1.E0,0.E0));
#971=DIRECTION('',(1.E0,0.E0,0.E0));
#972=AXIS2_PLACEMENT_3D('',#969,#970,#971);
#973=CYLINDRICAL_SURFACE('',#972,1.E0);
#974=ORIENTED_EDGE('',*,*,#963,.T.);
#975=ORIENTED_EDGE('',*,*,#906,.T.);
#976=ORIENTED_EDGE('',*,*,#960,.T.);
#977=ORIENTED_EDGE('',*,*,#634,.T.);
#978=EDGE_LOOP('',(#974,#975,#976,#977));
#979=FACE_OUTER_BOUND('',#978,.F.);
#980=ADVANCED_FACE('',(#979),#973,.F.);
#981=CARTESIAN_POINT('',(-7.7E0,0.E0,-7.7E0));
#982=DIRECTION('',(0.E0,1.E0,0.E0));
#983=DIRECTION('',(1.E0,0.E0,0.E0));
#984=AXIS2_PLACEMENT_3D('',#981,#982,#983);
#985=CYLINDRICAL_SURFACE('',#984,1.E0);
#987=ORIENTED_EDGE('',*,*,#986,.F.);
#988=ORIENTED_EDGE('',*,*,#910,.T.);
#990=ORIENTED_EDGE('',*,*,#989,.F.);
#991=ORIENTED_EDGE('',*,*,#656,.F.);
#992=EDGE_LOOP('',(#987,#988,#990,#991));
#993=FACE_OUTER_BOUND('',#992,.F.);
#994=ADVANCED_FACE('',(#993),#985,.F.);
#995=CARTESIAN_POINT('',(-7.7E0,0.E0,-7.7E0));
#996=DIRECTION('',(0.E0,1.E0,0.E0));
#997=DIRECTION('',(1.E0,0.E0,0.E0));
#998=AXIS2_PLACEMENT_3D('',#995,#996,#997);
#999=CYLINDRICAL_SURFACE('',#998,1.E0);
#1000=ORIENTED_EDGE('',*,*,#989,.T.);
#1001=ORIENTED_EDGE('',*,*,#912,.T.);
#1002=ORIENTED_EDGE('',*,*,#986,.T.);
#1003=ORIENTED_EDGE('',*,*,#658,.T.);
#1004=EDGE_LOOP('',(#1000,#1001,#1002,#1003));
#1005=FACE_OUTER_BOUND('',#1004,.F.);
#1006=ADVANCED_FACE('',(#1005),#999,.F.);
#1007=CARTESIAN_POINT('',(7.7E0,0.E0,7.7E0));
#1008=DIRECTION('',(0.E0,1.E0,0.E0));
#1009=DIRECTION('',(1.E0,0.E0,0.E0));
#1010=AXIS2_PLACEMENT_3D('',#1007,#1008,#1009);
#1011=CYLINDRICAL_SURFACE('',#1010,1.E0);
#1013=ORIENTED_EDGE('',*,*,#1012,.F.);
#1014=ORIENTED_EDGE('',*,*,#916,.T.);
#1016=ORIENTED_EDGE('',*,*,#1015,.F.);
#1017=ORIENTED_EDGE('',*,*,#594,.T.);
#1018=EDGE_LOOP('',(#1013,#1014,#1016,#1017));
#1019=FACE_OUTER_BOUND('',#1018,.F.);
#1020=ADVANCED_FACE('',(#1019),#1011,.F.);
#1021=CARTESIAN_POINT('',(7.7E0,0.E0,7.7E0));
#1022=DIRECTION('',(0.E0,1.E0,0.E0));
#1023=DIRECTION('',(1.E0,0.E0,0.E0));
#1024=AXIS2_PLACEMENT_3D('',#1021,#1022,#1023);
#1025=CYLINDRICAL_SURFACE('',#1024,1.E0);
#1026=ORIENTED_EDGE('',*,*,#1015,.T.);
#1027=ORIENTED_EDGE('',*,*,#918,.T.);
#1028=ORIENTED_EDGE('',*,*,#1012,.T.);
#1029=ORIENTED_EDGE('',*,*,#592,.F.);
#1030=EDGE_LOOP('',(#1026,#1027,#1028,#1029));
#1031=FACE_OUTER_BOUND('',#1030,.F.);
#1032=ADVANCED_FACE('',(#1031),#1025,.F.);
#1033=CARTESIAN_POINT('',(-7.7E0,0.E0,7.7E0));
#1034=DIRECTION('',(0.E0,1.E0,0.E0));
#1035=DIRECTION('',(1.E0,0.E0,0.E0));
#1036=AXIS2_PLACEMENT_3D('',#1033,#1034,#1035);
#1037=CYLINDRICAL_SURFACE('',#1036,1.E0);
#1039=ORIENTED_EDGE('',*,*,#1038,.F.);
#1040=ORIENTED_EDGE('',*,*,#922,.T.);
#1042=ORIENTED_EDGE('',*,*,#1041,.F.);
#1043=ORIENTED_EDGE('',*,*,#570,.T.);
#1044=EDGE_LOOP('',(#1039,#1040,#1042,#1043));
#1045=FACE_OUTER_BOUND('',#1044,.F.);
#1046=ADVANCED_FACE('',(#1045),#1037,.F.);
#1047=CARTESIAN_POINT('',(-7.7E0,0.E0,7.7E0));
#1048=DIRECTION('',(0.E0,1.E0,0.E0));
#1049=DIRECTION('',(1.E0,0.E0,0.E0));
#1050=AXIS2_PLACEMENT_3D('',#1047,#1048,#1049);
#1051=CYLINDRICAL_SURFACE('',#1050,1.E0);
#1052=ORIENTED_EDGE('',*,*,#1041,.T.);
#1053=ORIENTED_EDGE('',*,*,#924,.T.);
#1054=ORIENTED_EDGE('',*,*,#1038,.T.);
#1055=ORIENTED_EDGE('',*,*,#568,.F.);
#1056=EDGE_LOOP('',(#1052,#1053,#1054,#1055));
#1057=FACE_OUTER_BOUND('',#1056,.F.);
#1058=ADVANCED_FACE('',(#1057),#1051,.F.);
#1062=DIMENSIONAL_EXPONENTS(0.E0,0.E0,0.E0,0.E0,0.E0,0.E0,0.E0);
#1064=PLANE_ANGLE_MEASURE_WITH_UNIT(PLANE_ANGLE_MEASURE(1.745329251994E-2),
#1063);
#1065=(CONVERSION_BASED_UNIT('DEGREE',#1064)NAMED_UNIT(*)PLANE_ANGLE_UNIT());
#1067=UNCERTAINTY_MEASURE_WITH_UNIT(LENGTH_MEASURE(1.E-2),#1061,'closure',
'Maximum model space distance between geometric entities at asserted connectivities');
#1068=(GEOMETRIC_REPRESENTATION_CONTEXT(3)GLOBAL_UNCERTAINTY_ASSIGNED_CONTEXT((
#1067))GLOBAL_UNIT_ASSIGNED_CONTEXT((#1061,#1065,#1066))REPRESENTATION_CONTEXT(
'ID1','3'));
#1070=APPLICATION_CONTEXT(
'CONFIGURATION CONTROLLED 3D DESIGNS OF MECHANICAL PARTS AND ASSEMBLIES');
#1071=APPLICATION_PROTOCOL_DEFINITION('international standard',
'config_control_design',1994,#1070);
#1072=DESIGN_CONTEXT('',#1070,'design');
#1073=MECHANICAL_CONTEXT('',#1070,'mechanical');
#1074=PRODUCT('SLIP_CONNECTION_MOTHERBOARD','SLIP_CONNECTION_MOTHERBOARD',
'NOT SPECIFIED',(#1073));
#1075=PRODUCT_DEFINITION_FORMATION_WITH_SPECIFIED_SOURCE('6','LAST_VERSION',
#1074,.MADE.);
#1079=PRODUCT_CATEGORY('part','');
#1080=PRODUCT_RELATED_PRODUCT_CATEGORY('detail','',(#1074));
#1081=PRODUCT_CATEGORY_RELATIONSHIP('','',#1079,#1080);
#1082=SECURITY_CLASSIFICATION_LEVEL('unclassified');
#1083=SECURITY_CLASSIFICATION('','',#1082);
#1084=CC_DESIGN_SECURITY_CLASSIFICATION(#1083,(#1075));
#1085=APPROVAL_STATUS('approved');
#1086=APPROVAL(#1085,'');
#1087=CC_DESIGN_APPROVAL(#1086,(#1083,#1075,#1076));
#1088=CALENDAR_DATE(123,28,8);
#1089=COORDINATED_UNIVERSAL_TIME_OFFSET(2,0,.AHEAD.);
#1090=LOCAL_TIME(21,37,4.5E1,#1089);
#1091=DATE_AND_TIME(#1088,#1090);
#1092=APPROVAL_DATE_TIME(#1091,#1086);
#1093=DATE_TIME_ROLE('creation_date');
#1094=CC_DESIGN_DATE_AND_TIME_ASSIGNMENT(#1091,#1093,(#1076));
#1095=DATE_TIME_ROLE('classification_date');
#1096=CC_DESIGN_DATE_AND_TIME_ASSIGNMENT(#1091,#1095,(#1083));
#1097=PERSON('UNSPECIFIED','UNSPECIFIED',$,$,$,$);
#1098=ORGANIZATION('UNSPECIFIED','UNSPECIFIED','UNSPECIFIED');
#1099=PERSON_AND_ORGANIZATION(#1097,#1098);
#1100=APPROVAL_ROLE('approver');
#1101=APPROVAL_PERSON_ORGANIZATION(#1099,#1086,#1100);
#1102=PERSON_AND_ORGANIZATION_ROLE('creator');
#1103=CC_DESIGN_PERSON_AND_ORGANIZATION_ASSIGNMENT(#1099,#1102,(#1075,#1076));
#1104=PERSON_AND_ORGANIZATION_ROLE('design_supplier');
#1105=CC_DESIGN_PERSON_AND_ORGANIZATION_ASSIGNMENT(#1099,#1104,(#1075));
#1106=PERSON_AND_ORGANIZATION_ROLE('classification_officer');
#1107=CC_DESIGN_PERSON_AND_ORGANIZATION_ASSIGNMENT(#1099,#1106,(#1083));
#1108=PERSON_AND_ORGANIZATION_ROLE('design_owner');
#1109=CC_DESIGN_PERSON_AND_ORGANIZATION_ASSIGNMENT(#1099,#1108,(#1074));
#5=CIRCLE('',#4,2.5E0);
#10=CIRCLE('',#9,2.5E0);
#15=CIRCLE('',#14,8.E0);
#20=CIRCLE('',#19,8.E0);
#33=CIRCLE('',#32,9.9E0);
#38=CIRCLE('',#37,9.9E0);
#51=CIRCLE('',#50,9.9E0);
#56=CIRCLE('',#55,9.9E0);
#69=CIRCLE('',#68,1.E0);
#74=CIRCLE('',#73,1.E0);
#79=CIRCLE('',#78,1.E0);
#84=CIRCLE('',#83,1.E0);
#89=CIRCLE('',#88,2.5E0);
#94=CIRCLE('',#93,2.5E0);
#99=CIRCLE('',#98,8.E0);
#104=CIRCLE('',#103,8.E0);
#109=CIRCLE('',#108,9.9E0);
#114=CIRCLE('',#113,9.9E0);
#127=CIRCLE('',#126,9.9E0);
#132=CIRCLE('',#131,9.9E0);
#145=CIRCLE('',#144,1.E0);
#150=CIRCLE('',#149,1.E0);
#155=CIRCLE('',#154,1.E0);
#160=CIRCLE('',#159,1.E0);
#173=CIRCLE('',#172,9.9E0);
#190=CIRCLE('',#189,9.9E0);
#207=CIRCLE('',#206,8.E0);
#212=CIRCLE('',#211,8.E0);
#217=CIRCLE('',#216,9.9E0);
#222=CIRCLE('',#221,9.9E0);
#235=CIRCLE('',#234,1.5E0);
#240=CIRCLE('',#239,1.5E0);
#245=CIRCLE('',#244,1.5E0);
#250=CIRCLE('',#249,1.5E0);
#255=CIRCLE('',#254,1.5E0);
#260=CIRCLE('',#259,1.5E0);
#265=CIRCLE('',#264,1.5E0);
#270=CIRCLE('',#269,1.5E0);
#291=CIRCLE('',#290,8.E0);
#296=CIRCLE('',#295,8.E0);
#317=CIRCLE('',#316,1.E0);
#322=CIRCLE('',#321,1.E0);
#327=CIRCLE('',#326,1.E0);
#332=CIRCLE('',#331,1.E0);
#337=CIRCLE('',#336,1.E0);
#342=CIRCLE('',#341,1.E0);
#347=CIRCLE('',#346,1.E0);
#352=CIRCLE('',#351,1.E0);
#510=EDGE_CURVE('',#503,#504,#15,.T.);
#512=EDGE_CURVE('',#504,#503,#20,.T.);
#516=EDGE_CURVE('',#395,#396,#5,.T.);
#518=EDGE_CURVE('',#396,#395,#10,.T.);
#529=EDGE_CURVE('',#395,#399,#24,.T.);
#531=EDGE_CURVE('',#399,#400,#89,.T.);
#533=EDGE_CURVE('',#396,#400,#28,.T.);
#545=EDGE_CURVE('',#400,#399,#94,.T.);
#556=EDGE_CURVE('',#452,#439,#33,.T.);
#558=EDGE_CURVE('',#472,#439,#270,.T.);
#560=EDGE_CURVE('',#472,#458,#38,.T.);
#562=EDGE_CURVE('',#456,#458,#42,.T.);
#564=EDGE_CURVE('',#452,#456,#46,.T.);
#568=EDGE_CURVE('',#415,#416,#145,.T.);
#570=EDGE_CURVE('',#415,#416,#150,.T.);
#580=EDGE_CURVE('',#458,#470,#51,.T.);
#582=EDGE_CURVE('',#436,#470,#255,.T.);
#584=EDGE_CURVE('',#436,#450,#56,.T.);
#586=EDGE_CURVE('',#460,#450,#60,.T.);
#588=EDGE_CURVE('',#458,#460,#64,.T.);
#592=EDGE_CURVE('',#411,#412,#155,.T.);
#594=EDGE_CURVE('',#411,#412,#160,.T.);
#604=EDGE_CURVE('',#423,#424,#99,.T.);
#606=EDGE_CURVE('',#424,#423,#104,.T.);
#620=EDGE_CURVE('',#450,#431,#109,.T.);
#622=EDGE_CURVE('',#468,#431,#245,.T.);
#624=EDGE_CURVE('',#468,#464,#114,.T.);
#626=EDGE_CURVE('',#462,#464,#118,.T.);
#628=EDGE_CURVE('',#450,#462,#122,.T.);
#632=EDGE_CURVE('',#407,#408,#79,.T.);
#634=EDGE_CURVE('',#407,#408,#84,.T.);
#644=EDGE_CURVE('',#464,#466,#127,.T.);
#646=EDGE_CURVE('',#428,#466,#240,.T.);
#648=EDGE_CURVE('',#428,#452,#132,.T.);
#650=EDGE_CURVE('',#454,#452,#136,.T.);
#652=EDGE_CURVE('',#464,#454,#140,.T.);
#656=EDGE_CURVE('',#403,#404,#69,.T.);
#658=EDGE_CURVE('',#403,#404,#74,.T.);
#668=EDGE_CURVE('',#447,#448,#222,.T.);
#670=EDGE_CURVE('',#470,#448,#164,.T.);
#674=EDGE_CURVE('',#472,#447,#168,.T.);
#684=EDGE_CURVE('',#427,#440,#173,.T.);
#686=EDGE_CURVE('',#439,#440,#177,.T.);
#690=EDGE_CURVE('',#427,#428,#181,.T.);
#702=EDGE_CURVE('',#435,#436,#185,.T.);
#704=EDGE_CURVE('',#435,#432,#190,.T.);
#706=EDGE_CURVE('',#431,#432,#194,.T.);
#716=EDGE_CURVE('',#443,#444,#217,.T.);
#718=EDGE_CURVE('',#466,#444,#198,.T.);
#722=EDGE_CURVE('',#468,#443,#202,.T.);
#732=EDGE_CURVE('',#444,#427,#235,.T.);
#735=EDGE_CURVE('',#432,#443,#250,.T.);
#738=EDGE_CURVE('',#448,#435,#260,.T.);
#741=EDGE_CURVE('',#440,#447,#265,.T.);
#746=EDGE_CURVE('',#419,#420,#207,.T.);
#748=EDGE_CURVE('',#420,#419,#212,.T.);
#759=EDGE_CURVE('',#424,#419,#226,.T.);
#762=EDGE_CURVE('',#423,#420,#230,.T.);
#832=EDGE_CURVE('',#460,#484,#274,.T.);
#834=EDGE_CURVE('',#484,#479,#304,.T.);
#836=EDGE_CURVE('',#479,#456,#278,.T.);
#848=EDGE_CURVE('',#462,#482,#282,.T.);
#850=EDGE_CURVE('',#482,#484,#308,.T.);
#863=EDGE_CURVE('',#454,#480,#286,.T.);
#865=EDGE_CURVE('',#480,#482,#312,.T.);
#879=EDGE_CURVE('',#479,#480,#300,.T.);
#898=EDGE_CURVE('',#475,#476,#291,.T.);
#900=EDGE_CURVE('',#476,#475,#296,.T.);
#904=EDGE_CURVE('',#487,#488,#317,.T.);
#906=EDGE_CURVE('',#488,#487,#322,.T.);
#910=EDGE_CURVE('',#491,#492,#327,.T.);
#912=EDGE_CURVE('',#492,#491,#332,.T.);
#916=EDGE_CURVE('',#495,#496,#337,.T.);
#918=EDGE_CURVE('',#496,#495,#342,.T.);
#922=EDGE_CURVE('',#499,#500,#347,.T.);
#924=EDGE_CURVE('',#500,#499,#352,.T.);
#935=EDGE_CURVE('',#504,#475,#356,.T.);
#938=EDGE_CURVE('',#503,#476,#360,.T.);
#960=EDGE_CURVE('',#487,#407,#368,.T.);
#963=EDGE_CURVE('',#408,#488,#364,.T.);
#986=EDGE_CURVE('',#491,#403,#376,.T.);
#989=EDGE_CURVE('',#404,#492,#372,.T.);
#1012=EDGE_CURVE('',#495,#412,#384,.T.);
#1015=EDGE_CURVE('',#411,#496,#380,.T.);
#1038=EDGE_CURVE('',#499,#416,#392,.T.);
#1041=EDGE_CURVE('',#415,#500,#388,.T.);
#1059=CLOSED_SHELL('',(#522,#537,#550,#574,#598,#614,#638,#662,#678,#694,#710,
#726,#752,#766,#778,#790,#802,#814,#826,#842,#857,#872,#886,#928,#942,#954,#968,
#980,#994,#1006,#1020,#1032,#1046,#1058));
#1060=MANIFOLD_SOLID_BREP('',#1059);
#1061=(LENGTH_UNIT()NAMED_UNIT(*)SI_UNIT(.MILLI.,.METRE.));
#1063=(NAMED_UNIT(*)PLANE_ANGLE_UNIT()SI_UNIT($,.RADIAN.));
#1066=(NAMED_UNIT(*)SI_UNIT($,.STERADIAN.)SOLID_ANGLE_UNIT());
#1069=ADVANCED_BREP_SHAPE_REPRESENTATION('',(#1060),#1068);
#1076=PRODUCT_DEFINITION('design','',#1075,#1072);
#1077=PRODUCT_DEFINITION_SHAPE('','SHAPE FOR SLIP_CONNECTION_MOTHERBOARD.',
#1076);
#1078=SHAPE_DEFINITION_REPRESENTATION(#1077,#1069);
ENDSEC;
END-ISO-10303-21;
