G04*
G04 #@! TF.GenerationSoftware,Altium Limited,Altium Designer,22.6.1 (34)*
G04*
G04 Layer_Physical_Order=3*
G04 Layer_Color=16440176*
%FSLAX44Y44*%
%MOMM*%
G71*
G04*
G04 #@! TF.SameCoordinates,31187167-A265-4164-9C29-98D214726901*
G04*
G04*
G04 #@! TF.FilePolarity,Positive*
G04*
G01*
G75*
%ADD21C,0.5000*%
%ADD23C,0.8000*%
%ADD24C,0.4000*%
G36*
X98376Y13166D02*
X97106Y12825D01*
X96673Y13576D01*
X95456Y14793D01*
X93964Y15654D01*
X92710Y15990D01*
Y9560D01*
Y3130D01*
X93964Y3466D01*
X95456Y4327D01*
X96673Y5544D01*
X97106Y6295D01*
X98376Y5954D01*
Y1624D01*
X13044D01*
X12877Y2894D01*
X14757Y3397D01*
X16723Y4532D01*
X18328Y6137D01*
X19462Y8103D01*
X20050Y10295D01*
Y12565D01*
X19462Y14757D01*
X18328Y16723D01*
X16723Y18328D01*
X14757Y19462D01*
X12565Y20050D01*
X10295D01*
X8103Y19462D01*
X6137Y18328D01*
X4532Y16723D01*
X3397Y14757D01*
X2894Y12877D01*
X1624Y13044D01*
Y138376D01*
X98376D01*
Y13166D01*
D02*
G37*
%LPC*%
G36*
X52070Y128848D02*
Y125730D01*
X55188D01*
X54649Y127032D01*
X53372Y128309D01*
X52070Y128848D01*
D02*
G37*
G36*
X49530D02*
X48228Y128309D01*
X46951Y127032D01*
X46412Y125730D01*
X49530D01*
Y128848D01*
D02*
G37*
G36*
X86957Y127460D02*
X85763D01*
X84661Y127003D01*
X83817Y126159D01*
X83360Y125057D01*
Y123863D01*
X83817Y122761D01*
X84661Y121917D01*
X85763Y121460D01*
X86957D01*
X88059Y121917D01*
X88903Y122761D01*
X89360Y123863D01*
Y125057D01*
X88903Y126159D01*
X88059Y127003D01*
X86957Y127460D01*
D02*
G37*
G36*
X15837D02*
X14643D01*
X13541Y127003D01*
X12697Y126159D01*
X12240Y125057D01*
Y123863D01*
X12697Y122761D01*
X13541Y121917D01*
X14643Y121460D01*
X15837D01*
X16939Y121917D01*
X17783Y122761D01*
X18240Y123863D01*
Y125057D01*
X17783Y126159D01*
X16939Y127003D01*
X15837Y127460D01*
D02*
G37*
G36*
X55188Y123190D02*
X52070D01*
Y120072D01*
X53372Y120611D01*
X54649Y121888D01*
X55188Y123190D01*
D02*
G37*
G36*
X49530D02*
X46412D01*
X46951Y121888D01*
X48228Y120611D01*
X49530Y120072D01*
Y123190D01*
D02*
G37*
G36*
X28537Y99520D02*
X27343D01*
X26241Y99063D01*
X25397Y98219D01*
X24940Y97117D01*
Y95923D01*
X25397Y94821D01*
X26241Y93977D01*
X27343Y93520D01*
X28537D01*
X29639Y93977D01*
X30483Y94821D01*
X30940Y95923D01*
Y97117D01*
X30483Y98219D01*
X29639Y99063D01*
X28537Y99520D01*
D02*
G37*
G36*
X31750Y67888D02*
Y64770D01*
X34868D01*
X34329Y66072D01*
X33052Y67349D01*
X31750Y67888D01*
D02*
G37*
G36*
X29210D02*
X27908Y67349D01*
X26631Y66072D01*
X26092Y64770D01*
X29210D01*
Y67888D01*
D02*
G37*
G36*
X20917Y66500D02*
X19723D01*
X18621Y66043D01*
X17777Y65199D01*
X17320Y64097D01*
Y62903D01*
X17777Y61801D01*
X18621Y60957D01*
X19723Y60500D01*
X20917D01*
X22019Y60957D01*
X22863Y61801D01*
X23320Y62903D01*
Y64097D01*
X22863Y65199D01*
X22019Y66043D01*
X20917Y66500D01*
D02*
G37*
G36*
X34868Y62230D02*
X31750D01*
Y59112D01*
X33052Y59651D01*
X34329Y60928D01*
X34868Y62230D01*
D02*
G37*
G36*
X29210D02*
X26092D01*
X26631Y60928D01*
X27908Y59651D01*
X29210Y59112D01*
Y62230D01*
D02*
G37*
G36*
X92435Y66560D02*
X90445D01*
X88608Y65799D01*
X87201Y64392D01*
X86440Y62555D01*
Y60565D01*
X87201Y58728D01*
X88608Y57321D01*
X90445Y56560D01*
X92435D01*
X94272Y57321D01*
X95679Y58728D01*
X96440Y60565D01*
Y62555D01*
X95679Y64392D01*
X94272Y65799D01*
X92435Y66560D01*
D02*
G37*
G36*
X51411Y61448D02*
X50218D01*
X49115Y60991D01*
X48271Y60147D01*
X47815Y59045D01*
Y57851D01*
X48271Y56749D01*
X49115Y55905D01*
X50218Y55448D01*
X51411D01*
X52514Y55905D01*
X53358Y56749D01*
X53815Y57851D01*
Y59045D01*
X53358Y60147D01*
X52514Y60991D01*
X51411Y61448D01*
D02*
G37*
G36*
X20917Y56340D02*
X19723D01*
X18621Y55883D01*
X17777Y55039D01*
X17320Y53937D01*
Y52743D01*
X17777Y51641D01*
X18621Y50797D01*
X19723Y50340D01*
X20917D01*
X22019Y50797D01*
X22863Y51641D01*
X23320Y52743D01*
Y53937D01*
X22863Y55039D01*
X22019Y55883D01*
X20917Y56340D01*
D02*
G37*
G36*
X9885Y54530D02*
X7895D01*
X6058Y53769D01*
X4651Y52362D01*
X3890Y50525D01*
Y48535D01*
X4651Y46698D01*
X6058Y45291D01*
X7895Y44530D01*
X9885D01*
X11722Y45291D01*
X13129Y46698D01*
X13890Y48535D01*
Y50525D01*
X13129Y52362D01*
X11722Y53769D01*
X9885Y54530D01*
D02*
G37*
G36*
X70144Y49687D02*
X68950D01*
X67848Y49230D01*
X67004Y48386D01*
X66547Y47284D01*
Y46090D01*
X67004Y44988D01*
X67848Y44144D01*
X68950Y43687D01*
X70144D01*
X71246Y44144D01*
X72090Y44988D01*
X72547Y46090D01*
Y47284D01*
X72090Y48386D01*
X71246Y49230D01*
X70144Y49687D01*
D02*
G37*
G36*
X92435Y53560D02*
X90445D01*
X88608Y52799D01*
X87201Y51392D01*
X86440Y49555D01*
Y47565D01*
X87201Y45728D01*
X88608Y44321D01*
X90445Y43560D01*
X92435D01*
X94272Y44321D01*
X95679Y45728D01*
X96440Y47565D01*
Y49555D01*
X95679Y51392D01*
X94272Y52799D01*
X92435Y53560D01*
D02*
G37*
G36*
X20917Y47340D02*
X19723D01*
X18621Y46883D01*
X17777Y46039D01*
X17320Y44937D01*
Y43743D01*
X17777Y42641D01*
X18621Y41797D01*
X19723Y41340D01*
X20917D01*
X22019Y41797D01*
X22863Y42641D01*
X23320Y43743D01*
Y44937D01*
X22863Y46039D01*
X22019Y46883D01*
X20917Y47340D01*
D02*
G37*
G36*
X92435Y40560D02*
X90445D01*
X88608Y39799D01*
X87201Y38392D01*
X86440Y36555D01*
Y34565D01*
X87201Y32728D01*
X88608Y31321D01*
X90445Y30560D01*
X92435D01*
X94272Y31321D01*
X95679Y32728D01*
X96440Y34565D01*
Y36555D01*
X95679Y38392D01*
X94272Y39799D01*
X92435Y40560D01*
D02*
G37*
G36*
X52070Y32328D02*
Y29210D01*
X55188D01*
X54649Y30512D01*
X53372Y31789D01*
X52070Y32328D01*
D02*
G37*
G36*
X49530D02*
X48228Y31789D01*
X46951Y30512D01*
X46412Y29210D01*
X49530D01*
Y32328D01*
D02*
G37*
G36*
X9885Y38020D02*
X7895D01*
X6058Y37259D01*
X4651Y35852D01*
X3890Y34015D01*
Y32025D01*
X4651Y30188D01*
X6058Y28781D01*
X7895Y28020D01*
X9885D01*
X11722Y28781D01*
X13129Y30188D01*
X13890Y32025D01*
Y34015D01*
X13129Y35852D01*
X11722Y37259D01*
X9885Y38020D01*
D02*
G37*
G36*
X55188Y26670D02*
X52070D01*
Y23552D01*
X53372Y24091D01*
X54649Y25368D01*
X55188Y26670D01*
D02*
G37*
G36*
X49530D02*
X46412D01*
X46951Y25368D01*
X48228Y24091D01*
X49530Y23552D01*
Y26670D01*
D02*
G37*
G36*
X92435Y27560D02*
X90445D01*
X88608Y26799D01*
X87201Y25392D01*
X86440Y23555D01*
Y21565D01*
X87201Y19728D01*
X88608Y18321D01*
X90445Y17560D01*
X92435D01*
X94272Y18321D01*
X95679Y19728D01*
X96440Y21565D01*
Y23555D01*
X95679Y25392D01*
X94272Y26799D01*
X92435Y27560D01*
D02*
G37*
G36*
X51397Y18240D02*
X50203D01*
X49101Y17783D01*
X48257Y16939D01*
X47800Y15837D01*
Y14643D01*
X48257Y13541D01*
X49101Y12697D01*
X50203Y12240D01*
X51397D01*
X52499Y12697D01*
X53343Y13541D01*
X53800Y14643D01*
Y15837D01*
X53343Y16939D01*
X52499Y17783D01*
X51397Y18240D01*
D02*
G37*
G36*
X90170Y15990D02*
X88916Y15654D01*
X87424Y14793D01*
X86207Y13576D01*
X85346Y12084D01*
X85010Y10830D01*
X90170D01*
Y15990D01*
D02*
G37*
G36*
Y8290D02*
X85010D01*
X85346Y7036D01*
X86207Y5544D01*
X87424Y4327D01*
X88916Y3466D01*
X90170Y3130D01*
Y8290D01*
D02*
G37*
%LPD*%
D21*
X50800Y27940D02*
Y48260D01*
Y83820D02*
X58420Y76200D01*
X50800Y83820D02*
Y124460D01*
X58420Y55880D02*
Y76200D01*
X50800Y48260D02*
X58420Y55880D01*
D23*
X91440Y9560D02*
D03*
D24*
X30480Y63500D02*
D03*
X50800Y27940D02*
D03*
Y124460D02*
D03*
M02*
