G04*
G04 #@! TF.GenerationSoftware,Altium Limited,Altium Designer,22.6.1 (34)*
G04*
G04 Layer_Physical_Order=1*
G04 Layer_Color=255*
%FSLAX44Y44*%
%MOMM*%
G71*
G04*
G04 #@! TF.SameCoordinates,31187167-A265-4164-9C29-98D214726901*
G04*
G04*
G04 #@! TF.FilePolarity,Positive*
G04*
G01*
G75*
%ADD12R,0.5080X0.5334*%
%ADD13R,0.5334X0.5080*%
%ADD14R,1.1938X2.3114*%
%ADD15R,0.9500X0.9500*%
%ADD20C,0.2540*%
%ADD21C,0.5000*%
%ADD22C,1.5240*%
%ADD23C,0.8000*%
%ADD24C,0.4000*%
G36*
X98376Y26166D02*
X97106Y25826D01*
X96673Y26576D01*
X95456Y27793D01*
X93964Y28654D01*
X92710Y28990D01*
Y22560D01*
Y16130D01*
X93964Y16466D01*
X95456Y17327D01*
X96673Y18544D01*
X97106Y19295D01*
X98376Y18954D01*
Y1624D01*
X17305D01*
X16964Y2894D01*
X17668Y3300D01*
X19560Y5192D01*
X20898Y7508D01*
X21590Y10092D01*
Y10160D01*
X11430D01*
Y11430D01*
X10160D01*
Y21590D01*
X10092D01*
X7508Y20898D01*
X5192Y19560D01*
X3300Y17668D01*
X2894Y16964D01*
X1624Y17305D01*
Y138376D01*
X98376D01*
Y26166D01*
D02*
G37*
%LPC*%
G36*
X87630Y128848D02*
Y125730D01*
X90748D01*
X90209Y127032D01*
X88932Y128309D01*
X87630Y128848D01*
D02*
G37*
G36*
X85090D02*
X83788Y128309D01*
X82511Y127032D01*
X81972Y125730D01*
X85090D01*
Y128848D01*
D02*
G37*
G36*
X16510D02*
Y125730D01*
X19628D01*
X19089Y127032D01*
X17812Y128309D01*
X16510Y128848D01*
D02*
G37*
G36*
X13970D02*
X12668Y128309D01*
X11391Y127032D01*
X10852Y125730D01*
X13970D01*
Y128848D01*
D02*
G37*
G36*
X90748Y123190D02*
X87630D01*
Y120072D01*
X88932Y120611D01*
X90209Y121888D01*
X90748Y123190D01*
D02*
G37*
G36*
X85090D02*
X81972D01*
X82511Y121888D01*
X83788Y120611D01*
X85090Y120072D01*
Y123190D01*
D02*
G37*
G36*
X19628D02*
X16510D01*
Y120072D01*
X17812Y120611D01*
X19089Y121888D01*
X19628Y123190D01*
D02*
G37*
G36*
X13970D02*
X10852D01*
X11391Y121888D01*
X12668Y120611D01*
X13970Y120072D01*
Y123190D01*
D02*
G37*
G36*
X50800Y128029D02*
X49434Y127757D01*
X48277Y126983D01*
X45017Y123723D01*
X44243Y122566D01*
X43971Y121200D01*
Y118968D01*
X42513Y117510D01*
X36600D01*
Y119050D01*
X30580D01*
Y111760D01*
Y104470D01*
X36600D01*
Y106010D01*
X38106D01*
X38330Y105965D01*
X38554Y106010D01*
X47231D01*
Y97194D01*
X46501Y96438D01*
X46006Y96287D01*
X45863Y96287D01*
X42545D01*
Y91080D01*
X41275D01*
Y89810D01*
X36195D01*
Y85873D01*
Y84850D01*
X41275D01*
Y82310D01*
X36195D01*
Y78394D01*
X32900D01*
X32014Y78218D01*
X31263Y77717D01*
X20047Y66500D01*
X19723D01*
X18621Y66043D01*
X17777Y65199D01*
X17585Y64735D01*
X16315Y64988D01*
Y68041D01*
X29577Y81303D01*
X30078Y82054D01*
X30254Y82940D01*
Y94592D01*
X30483Y94821D01*
X30940Y95923D01*
Y97117D01*
X30483Y98219D01*
X29639Y99063D01*
X28537Y99520D01*
X27343D01*
X26241Y99063D01*
X25397Y98219D01*
X24940Y97117D01*
Y95923D01*
X25397Y94821D01*
X25626Y94592D01*
Y83899D01*
X12363Y70637D01*
X11862Y69886D01*
X11686Y69000D01*
Y59660D01*
X11862Y58774D01*
X12363Y58023D01*
X17320Y53067D01*
Y52743D01*
X17777Y51641D01*
X18621Y50797D01*
X19723Y50340D01*
X20917D01*
X22019Y50797D01*
X22248Y51026D01*
X28537D01*
X29422Y51202D01*
X30173Y51703D01*
X35022Y56552D01*
X36195Y56066D01*
Y54850D01*
X41275D01*
Y52310D01*
X36195D01*
Y48373D01*
X34991Y48215D01*
X22275D01*
X21389Y48038D01*
X20638Y47537D01*
X20442Y47340D01*
X19723D01*
X18621Y46883D01*
X17777Y46039D01*
X17320Y44937D01*
Y43743D01*
X17777Y42641D01*
X18621Y41797D01*
X19723Y41340D01*
X20917D01*
X22019Y41797D01*
X22863Y42641D01*
X23255Y43586D01*
X37735D01*
Y42413D01*
X44815D01*
Y47512D01*
X44928Y47625D01*
X46063Y48233D01*
X46636Y48007D01*
X46692Y47962D01*
X46753Y47888D01*
X47066Y47119D01*
X47077Y47082D01*
X47133Y46615D01*
X47133Y40529D01*
X47231D01*
Y31539D01*
X47213Y31527D01*
X46905Y31219D01*
X44060D01*
X43715Y31150D01*
X36600D01*
Y32690D01*
X30580D01*
Y25400D01*
Y18110D01*
X36600D01*
Y19650D01*
X46448D01*
X46993Y19650D01*
X47519Y18380D01*
X46951Y17812D01*
X46412Y16510D01*
X55188D01*
X54649Y17812D01*
X54081Y18380D01*
X54607Y19650D01*
X55131Y19650D01*
X65000D01*
Y18110D01*
X71020D01*
Y25400D01*
Y32690D01*
X65000D01*
Y31150D01*
X57885D01*
X57540Y31219D01*
X54695D01*
X54387Y31527D01*
X54369Y31539D01*
Y39966D01*
X55099Y40722D01*
X55595Y40873D01*
X55737Y40873D01*
X59055D01*
Y46080D01*
X61595D01*
Y40873D01*
X65405D01*
Y45529D01*
X66675Y45781D01*
X67004Y44988D01*
X67848Y44144D01*
X68950Y43687D01*
X70144D01*
X71246Y44144D01*
X72090Y44988D01*
X72547Y46090D01*
Y47284D01*
X72090Y48386D01*
X71246Y49230D01*
X70144Y49687D01*
X69823D01*
X65483Y54027D01*
X64732Y54528D01*
X63865Y54701D01*
Y57247D01*
X63865D01*
Y57413D01*
X63865D01*
Y58766D01*
X71961D01*
X84363Y46363D01*
X85114Y45862D01*
X86000Y45686D01*
X87243D01*
X88608Y44321D01*
X90445Y43560D01*
X92435D01*
X94272Y44321D01*
X95679Y45728D01*
X96440Y47565D01*
Y49555D01*
X95679Y51392D01*
X94272Y52799D01*
X92435Y53560D01*
X90445D01*
X88608Y52799D01*
X87201Y51392D01*
X86100Y51173D01*
X74557Y62717D01*
X73806Y63218D01*
X72920Y63394D01*
X63865D01*
Y64747D01*
X63865D01*
Y64913D01*
X63865D01*
Y66266D01*
X75461D01*
X82363Y59363D01*
X83114Y58862D01*
X84000Y58685D01*
X87243D01*
X88608Y57321D01*
X90445Y56560D01*
X92435D01*
X94272Y57321D01*
X95679Y58728D01*
X96440Y60565D01*
Y62555D01*
X95679Y64392D01*
X94272Y65799D01*
X92435Y66560D01*
X90445D01*
X88608Y65799D01*
X87201Y64392D01*
X86755Y63314D01*
X84959D01*
X78057Y70217D01*
X77306Y70718D01*
X76420Y70894D01*
X64763D01*
X63865Y71792D01*
Y72247D01*
X63865D01*
Y72413D01*
X63865Y72413D01*
Y78373D01*
X65405D01*
Y82310D01*
X60325D01*
Y84850D01*
X65405D01*
Y85873D01*
Y89810D01*
X60325D01*
Y91080D01*
X59055D01*
Y96287D01*
X55595Y96287D01*
X55099Y96438D01*
X54369Y97194D01*
Y106010D01*
X63046D01*
X63270Y105965D01*
X63494Y106010D01*
X65000D01*
Y104470D01*
X71020D01*
Y111760D01*
Y119050D01*
X65000D01*
Y117510D01*
X59087D01*
X57629Y118968D01*
Y121200D01*
X57357Y122566D01*
X56583Y123723D01*
X53323Y126983D01*
X52166Y127757D01*
X50800Y128029D01*
D02*
G37*
G36*
X79580Y119050D02*
X73560D01*
Y113030D01*
X79580D01*
Y119050D01*
D02*
G37*
G36*
X28040D02*
X22020D01*
Y113030D01*
X28040D01*
Y119050D01*
D02*
G37*
G36*
X79580Y110490D02*
X73560D01*
Y104470D01*
X79580D01*
Y110490D01*
D02*
G37*
G36*
X28040D02*
X22020D01*
Y104470D01*
X28040D01*
Y110490D01*
D02*
G37*
G36*
X61595Y96287D02*
Y92350D01*
X65405D01*
Y96287D01*
X61595D01*
D02*
G37*
G36*
X40005D02*
X36195D01*
Y92350D01*
X40005D01*
Y96287D01*
D02*
G37*
G36*
X9885Y54530D02*
X7895D01*
X6058Y53769D01*
X4651Y52362D01*
X3890Y50525D01*
Y48535D01*
X4651Y46698D01*
X6058Y45291D01*
X7895Y44530D01*
X9885D01*
X11722Y45291D01*
X13129Y46698D01*
X13890Y48535D01*
Y50525D01*
X13129Y52362D01*
X11722Y53769D01*
X9885Y54530D01*
D02*
G37*
G36*
X92435Y40560D02*
X90445D01*
X88608Y39799D01*
X87201Y38392D01*
X86440Y36555D01*
Y34565D01*
X87201Y32728D01*
X88608Y31321D01*
X90445Y30560D01*
X92435D01*
X94272Y31321D01*
X95679Y32728D01*
X96440Y34565D01*
Y36555D01*
X95679Y38392D01*
X94272Y39799D01*
X92435Y40560D01*
D02*
G37*
G36*
X9885Y38020D02*
X7895D01*
X6058Y37259D01*
X4651Y35852D01*
X3890Y34015D01*
Y32025D01*
X4651Y30188D01*
X6058Y28781D01*
X7895Y28020D01*
X9885D01*
X11722Y28781D01*
X13129Y30188D01*
X13890Y32025D01*
Y34015D01*
X13129Y35852D01*
X11722Y37259D01*
X9885Y38020D01*
D02*
G37*
G36*
X79580Y32690D02*
X73560D01*
Y26670D01*
X79580D01*
Y32690D01*
D02*
G37*
G36*
X28040D02*
X22020D01*
Y26670D01*
X28040D01*
Y32690D01*
D02*
G37*
G36*
X90170Y28990D02*
X88916Y28654D01*
X87424Y27793D01*
X86207Y26576D01*
X85346Y25084D01*
X85010Y23830D01*
X90170D01*
Y28990D01*
D02*
G37*
G36*
X79580Y24130D02*
X73560D01*
Y18110D01*
X79580D01*
Y24130D01*
D02*
G37*
G36*
X28040D02*
X22020D01*
Y18110D01*
X28040D01*
Y24130D01*
D02*
G37*
G36*
X90170Y21290D02*
X85010D01*
X85346Y20036D01*
X86207Y18544D01*
X87424Y17327D01*
X88916Y16466D01*
X90170Y16130D01*
Y21290D01*
D02*
G37*
G36*
X12768Y21590D02*
X12700D01*
Y12700D01*
X21590D01*
Y12768D01*
X20898Y15352D01*
X19560Y17668D01*
X17668Y19560D01*
X15352Y20898D01*
X12768Y21590D01*
D02*
G37*
G36*
X55188Y13970D02*
X52070D01*
Y10852D01*
X53372Y11391D01*
X54649Y12668D01*
X55188Y13970D01*
D02*
G37*
G36*
X49530D02*
X46412D01*
X46951Y12668D01*
X48228Y11391D01*
X49530Y10852D01*
Y13970D01*
D02*
G37*
G36*
X92435Y14560D02*
X90445D01*
X88608Y13799D01*
X87201Y12392D01*
X86440Y10555D01*
Y8565D01*
X87201Y6728D01*
X88608Y5321D01*
X90445Y4560D01*
X92435D01*
X94272Y5321D01*
X95679Y6728D01*
X96440Y8565D01*
Y10555D01*
X95679Y12392D01*
X94272Y13799D01*
X92435Y14560D01*
D02*
G37*
%LPD*%
D12*
X41275Y46080D02*
D03*
Y53580D02*
D03*
Y61080D02*
D03*
Y68580D02*
D03*
Y76080D02*
D03*
Y83580D02*
D03*
Y91080D02*
D03*
X60325D02*
D03*
Y83580D02*
D03*
Y76080D02*
D03*
Y68580D02*
D03*
Y61080D02*
D03*
Y53580D02*
D03*
Y46080D02*
D03*
D13*
X50800Y93091D02*
D03*
Y44069D02*
D03*
D14*
Y68580D02*
D03*
D15*
X29310Y111760D02*
D03*
X41810D02*
D03*
X72290Y25400D02*
D03*
X59790D02*
D03*
X72290Y111760D02*
D03*
X59790D02*
D03*
X29310Y25400D02*
D03*
X41810D02*
D03*
D20*
X90880Y61000D02*
X91440Y61560D01*
X84000Y61000D02*
X90880D01*
X60325Y68580D02*
X76420D01*
X84000Y61000D01*
X90880Y48000D02*
X91440Y48560D01*
X86000Y48000D02*
X90880D01*
X60325Y61080D02*
X72920D01*
X86000Y48000D01*
X59790Y111760D02*
X63270Y108280D01*
X91440Y61560D02*
Y63038D01*
X60325Y61080D02*
X60412Y61167D01*
X60325Y68580D02*
Y68707D01*
X61595Y69977D01*
X38330Y108280D02*
X41810Y111760D01*
X14000Y69000D02*
X27940Y82940D01*
X14000Y59660D02*
Y69000D01*
Y59660D02*
X20320Y53340D01*
X27940Y82940D02*
Y96520D01*
X91440Y22560D02*
Y22860D01*
X20320Y63500D02*
X32900Y76080D01*
X41275D01*
X86360Y27940D02*
X91440Y22860D01*
X72290Y25400D02*
X74830Y27940D01*
X86360D01*
X22275Y45900D02*
X41095D01*
X20715Y44340D02*
X22275Y45900D01*
X20320Y44340D02*
X20715D01*
X20320Y53340D02*
X28537D01*
X36277Y61080D01*
X30480Y63500D02*
X30759Y63779D01*
Y64414D02*
X34925Y68580D01*
X41275D01*
X36277Y61080D02*
X41275D01*
X30759Y63779D02*
Y64414D01*
X63847Y52390D02*
X69547Y46689D01*
Y46687D02*
Y46689D01*
X60325Y53580D02*
X61515Y52390D01*
X63847D01*
X41095Y45900D02*
X41275Y46080D01*
D21*
X84990Y124460D02*
X86360D01*
X72290Y111760D02*
X84990Y124460D01*
X15240D02*
X25690Y114010D01*
X27060D02*
X29310Y111760D01*
X25690Y114010D02*
X27060D01*
X50815Y58448D02*
Y60945D01*
X48789Y57023D02*
Y62971D01*
X50815Y60945D01*
X48789Y62971D02*
Y66569D01*
X45513Y53747D02*
X48789Y57023D01*
Y66569D02*
X50800Y68580D01*
X41315Y53747D02*
X45513D01*
X50800Y68580D02*
Y77652D01*
Y27940D02*
X51863Y29003D01*
X53217Y27650D01*
X57540D01*
X49737Y29003D02*
X50800Y27940D01*
X57540Y27650D02*
X59790Y25400D01*
X44060Y27650D02*
X48383D01*
X49737Y29003D01*
X50800Y27940D02*
Y44069D01*
X41810Y25400D02*
X44060Y27650D01*
X60325Y83580D02*
Y91080D01*
Y83453D02*
Y83580D01*
X47540Y121200D02*
X50800Y124460D01*
X70040Y27650D02*
Y36238D01*
X60325Y45953D02*
X70040Y36238D01*
X60325Y45953D02*
Y46080D01*
X70040Y27650D02*
X72290Y25400D01*
X29310D02*
X31560Y23150D01*
Y19786D02*
Y23150D01*
Y19786D02*
X36106Y15240D01*
X50800D01*
Y77652D02*
Y78126D01*
X70040Y19786D02*
Y23150D01*
X50800Y15240D02*
X65494D01*
X70040Y23150D02*
X72290Y25400D01*
X65494Y15240D02*
X70040Y19786D01*
X41275Y83453D02*
Y91080D01*
X50800Y77652D02*
X53285Y80137D01*
Y80611D01*
X45513Y83413D02*
X50800Y78126D01*
X53285Y80611D02*
X56087Y83413D01*
X60285D01*
X60325Y83453D01*
X41275D02*
X41315Y83413D01*
X45513D01*
X41275Y53580D02*
Y53707D01*
X41315Y53747D01*
X50800Y93091D02*
Y124460D01*
X54060Y121200D01*
Y117490D02*
X59790Y111760D01*
X54060Y117490D02*
Y121200D01*
X41810Y111760D02*
X47540Y117490D01*
Y121200D01*
D22*
X11430Y11430D02*
D03*
D23*
X8890Y49530D02*
D03*
Y33020D02*
D03*
X91440Y35560D02*
D03*
Y22560D02*
D03*
Y9560D02*
D03*
Y61560D02*
D03*
Y48560D02*
D03*
D24*
X50815Y58448D02*
D03*
X20320Y53340D02*
D03*
Y44340D02*
D03*
X30480Y63500D02*
D03*
X20320D02*
D03*
X50800Y27940D02*
D03*
X69547Y46687D02*
D03*
X27940Y96520D02*
D03*
X15240Y124460D02*
D03*
X86360D02*
D03*
X50800D02*
D03*
Y15240D02*
D03*
M02*
