G04*
G04 #@! TF.GenerationSoftware,Altium Limited,Altium Designer,22.6.1 (34)*
G04*
G04 Layer_Color=8388736*
%FSLAX44Y44*%
%MOMM*%
G71*
G04*
G04 #@! TF.SameCoordinates,31187167-A265-4164-9C29-98D214726901*
G04*
G04*
G04 #@! TF.FilePolarity,Negative*
G04*
G01*
G75*
%ADD12R,0.5080X0.5334*%
%ADD13R,0.5334X0.5080*%
%ADD14R,1.1938X2.3114*%
%ADD16R,1.1532X1.1532*%
%ADD17C,1.7272*%
%ADD18C,1.0032*%
%ADD19C,0.6032*%
D12*
X41275Y46080D02*
D03*
Y53580D02*
D03*
Y61080D02*
D03*
Y68580D02*
D03*
Y76080D02*
D03*
Y83580D02*
D03*
Y91080D02*
D03*
X60325D02*
D03*
Y83580D02*
D03*
Y76080D02*
D03*
Y68580D02*
D03*
Y61080D02*
D03*
Y53580D02*
D03*
Y46080D02*
D03*
D13*
X50800Y93091D02*
D03*
Y44069D02*
D03*
D14*
Y68580D02*
D03*
D16*
X29310Y111760D02*
D03*
X41810D02*
D03*
X72290Y25400D02*
D03*
X59790D02*
D03*
X72290Y111760D02*
D03*
X59790D02*
D03*
X29310Y25400D02*
D03*
X41810D02*
D03*
D17*
X11430Y11430D02*
D03*
D18*
X8890Y49530D02*
D03*
Y33020D02*
D03*
X91440Y35560D02*
D03*
Y22560D02*
D03*
Y9560D02*
D03*
Y61560D02*
D03*
Y48560D02*
D03*
D19*
X50815Y58448D02*
D03*
X20320Y53340D02*
D03*
Y44340D02*
D03*
X30480Y63500D02*
D03*
X20320D02*
D03*
X50800Y27940D02*
D03*
X69547Y46687D02*
D03*
X27940Y96520D02*
D03*
X15240Y124460D02*
D03*
X86360D02*
D03*
X50800D02*
D03*
Y15240D02*
D03*
M02*
