G04*
G04 #@! TF.GenerationSoftware,Altium Limited,Altium Designer,22.6.1 (34)*
G04*
G04 Layer_Physical_Order=4*
G04 Layer_Color=16711680*
%FSLAX44Y44*%
%MOMM*%
G71*
G04*
G04 #@! TF.SameCoordinates,31187167-A265-4164-9C29-98D214726901*
G04*
G04*
G04 #@! TF.FilePolarity,Positive*
G04*
G01*
G75*
%ADD15R,0.9500X0.9500*%
%ADD20C,0.2540*%
%ADD21C,0.5000*%
%ADD22C,1.5240*%
%ADD23C,0.8000*%
%ADD24C,0.4000*%
%ADD25R,0.5000X1.8000*%
%ADD26R,1.4000X1.8000*%
%ADD27R,0.9000X0.7000*%
G36*
X98376Y26166D02*
X97106Y25826D01*
X96673Y26576D01*
X95456Y27793D01*
X93964Y28654D01*
X92710Y28990D01*
Y22560D01*
X91440D01*
Y21290D01*
X85010D01*
X85067Y21076D01*
X83928Y20419D01*
X81418Y22929D01*
X80667Y23431D01*
X79781Y23607D01*
X79160D01*
Y27980D01*
X68160D01*
Y27049D01*
X66460D01*
Y27980D01*
X55460D01*
X55460Y27980D01*
X54305Y28258D01*
X54097Y29306D01*
X53323Y30463D01*
X52166Y31237D01*
X50800Y31509D01*
X49434Y31237D01*
X48277Y30463D01*
X47503Y29306D01*
X47295Y28258D01*
X46140Y27980D01*
X46140Y27980D01*
X46140Y27980D01*
X35140Y27980D01*
X34980Y29184D01*
Y29520D01*
X29210D01*
Y23480D01*
Y17440D01*
X34980D01*
Y17776D01*
X35140Y18980D01*
X36250Y18980D01*
X46140D01*
Y19284D01*
X46749Y19405D01*
X47374Y18235D01*
X46951Y17812D01*
X46412Y16510D01*
X55188D01*
X54649Y17812D01*
X54226Y18235D01*
X54851Y19405D01*
X55460Y19284D01*
Y18980D01*
X66460D01*
Y19911D01*
X68160D01*
Y18980D01*
X75839D01*
X75847Y18978D01*
X78822D01*
X86676Y11125D01*
X86440Y10555D01*
Y8565D01*
X87201Y6728D01*
X88608Y5321D01*
X90445Y4560D01*
X92435D01*
X94272Y5321D01*
X95679Y6728D01*
X96440Y8565D01*
Y10555D01*
X95679Y12392D01*
X94272Y13799D01*
X92435Y14560D01*
X90445D01*
X90256Y14794D01*
X90382Y15272D01*
X90897Y16020D01*
X92301D01*
X93964Y16466D01*
X95456Y17327D01*
X96673Y18544D01*
X97106Y19295D01*
X98376Y18954D01*
Y1624D01*
X17305D01*
X16964Y2894D01*
X17668Y3300D01*
X19560Y5192D01*
X20898Y7508D01*
X21590Y10092D01*
Y10160D01*
X11430D01*
Y11430D01*
X10160D01*
Y21590D01*
X10092D01*
X7508Y20898D01*
X5192Y19560D01*
X3300Y17668D01*
X2894Y16964D01*
X1624Y17305D01*
Y138376D01*
X98376D01*
Y26166D01*
D02*
G37*
%LPC*%
G36*
X87630Y128848D02*
Y125730D01*
X90748D01*
X90209Y127032D01*
X88932Y128309D01*
X87630Y128848D01*
D02*
G37*
G36*
X85090D02*
X83788Y128309D01*
X82511Y127032D01*
X81972Y125730D01*
X85090D01*
Y128848D01*
D02*
G37*
G36*
X16510D02*
Y125730D01*
X19628D01*
X19089Y127032D01*
X17812Y128309D01*
X16510Y128848D01*
D02*
G37*
G36*
X13970D02*
X12668Y128309D01*
X11391Y127032D01*
X10852Y125730D01*
X13970D01*
Y128848D01*
D02*
G37*
G36*
X63380Y122280D02*
X59610D01*
Y112010D01*
X63380D01*
Y122280D01*
D02*
G37*
G36*
X90906Y123190D02*
X81814D01*
X81206Y122280D01*
X77800D01*
Y112010D01*
X87340D01*
X96880D01*
Y122280D01*
X91514D01*
X90906Y123190D01*
D02*
G37*
G36*
X63380Y109470D02*
X59610D01*
Y99200D01*
X63380D01*
Y109470D01*
D02*
G37*
G36*
X57070D02*
X53300D01*
Y99200D01*
X57070D01*
Y109470D01*
D02*
G37*
G36*
X96880Y109470D02*
X88610D01*
Y99200D01*
X96880D01*
Y109470D01*
D02*
G37*
G36*
X86070D02*
X77800D01*
Y99200D01*
X86070D01*
Y109470D01*
D02*
G37*
G36*
X13070D02*
X4800D01*
Y99200D01*
X13070D01*
Y109470D01*
D02*
G37*
G36*
X19786Y123190D02*
X10694D01*
X10086Y122280D01*
X4800D01*
Y112010D01*
X14340D01*
Y110740D01*
X15610D01*
Y99200D01*
X23880D01*
Y99551D01*
X24992Y100374D01*
X25308Y100270D01*
X25826Y99750D01*
Y98648D01*
X25397Y98219D01*
X24940Y97117D01*
Y95923D01*
X25397Y94821D01*
X26241Y93977D01*
X27343Y93520D01*
X28537D01*
X29639Y93977D01*
X30483Y94821D01*
X30940Y95923D01*
Y97117D01*
X30483Y98219D01*
X30454Y98248D01*
Y100740D01*
X31840D01*
Y120740D01*
X25150D01*
X24840Y120740D01*
X23880Y121488D01*
Y122280D01*
X20394D01*
X19786Y123190D01*
D02*
G37*
G36*
X68380Y90280D02*
X64610D01*
Y80010D01*
X68380D01*
Y90280D01*
D02*
G37*
G36*
X62070D02*
X58300D01*
Y80010D01*
X62070D01*
Y90280D01*
D02*
G37*
G36*
X88610Y90280D02*
Y80010D01*
X96880D01*
Y90280D01*
X88610D01*
D02*
G37*
G36*
X23880D02*
X15610D01*
Y80010D01*
X23880D01*
Y90280D01*
D02*
G37*
G36*
X13070D02*
X4800D01*
Y80010D01*
X13070D01*
Y90280D01*
D02*
G37*
G36*
X50800Y128029D02*
X41029D01*
X39663Y127757D01*
X38506Y126983D01*
X35817Y124294D01*
X35043Y123137D01*
X34771Y121771D01*
Y110740D01*
Y93740D01*
X35043Y92374D01*
X35817Y91217D01*
X37050Y89983D01*
X37098Y89785D01*
X36497Y88740D01*
X35712Y88740D01*
X29840D01*
Y73324D01*
X27830D01*
X26944Y73148D01*
X26193Y72647D01*
X25053Y71507D01*
X23880Y71993D01*
Y77470D01*
X15610D01*
Y67200D01*
X18118D01*
X18441Y66457D01*
X18507Y65930D01*
X17777Y65199D01*
X17320Y64097D01*
Y62903D01*
X17777Y61801D01*
X18621Y60957D01*
X19723Y60500D01*
X20917D01*
X22019Y60957D01*
X22863Y61801D01*
X23320Y62903D01*
Y63227D01*
X28789Y68696D01*
X32110D01*
X32334Y68740D01*
X33567D01*
X39685Y62621D01*
X40436Y62120D01*
X41322Y61944D01*
X46230D01*
X46822Y60673D01*
X46427Y59718D01*
X50815D01*
Y57178D01*
X46030D01*
X45610Y56550D01*
X43847D01*
X34373Y66023D01*
X33216Y66797D01*
X31850Y67069D01*
X30480D01*
X29114Y66797D01*
X27957Y66023D01*
X27183Y64866D01*
X26911Y63500D01*
X27183Y62134D01*
X27957Y60977D01*
X29114Y60203D01*
X30345Y59958D01*
X38800Y51503D01*
Y50089D01*
X37530Y49563D01*
X32117Y54977D01*
X31366Y55478D01*
X30480Y55655D01*
X22248D01*
X22019Y55883D01*
X20917Y56340D01*
X19723D01*
X18621Y55883D01*
X17777Y55039D01*
X17371Y54059D01*
X15156Y51845D01*
X13343D01*
X13129Y52362D01*
X11722Y53769D01*
X9885Y54530D01*
X7895D01*
X6058Y53769D01*
X4651Y52362D01*
X3890Y50525D01*
Y48535D01*
X4651Y46698D01*
X6058Y45291D01*
X7895Y44530D01*
X9885D01*
X11722Y45291D01*
X13129Y46698D01*
X13343Y47215D01*
X16115D01*
X17001Y47392D01*
X17751Y47893D01*
X20198Y50340D01*
X20917D01*
X22019Y50797D01*
X22248Y51026D01*
X29521D01*
X34216Y46331D01*
Y42929D01*
X33440Y41980D01*
X32945Y41980D01*
X25713D01*
X23320Y44373D01*
Y44937D01*
X22863Y46039D01*
X22019Y46883D01*
X20917Y47340D01*
X19723D01*
X18621Y46883D01*
X17777Y46039D01*
X17320Y44937D01*
Y44723D01*
X10402Y37806D01*
X9885Y38020D01*
X7895D01*
X6058Y37259D01*
X4651Y35852D01*
X3890Y34015D01*
Y32025D01*
X4651Y30188D01*
X6058Y28781D01*
X7895Y28020D01*
X9885D01*
X11722Y28781D01*
X13129Y30188D01*
X13890Y32025D01*
Y34015D01*
X13676Y34532D01*
X20145Y41002D01*
X22440Y38707D01*
Y32980D01*
X33440D01*
Y37823D01*
X34710Y38419D01*
X35140Y38063D01*
Y32980D01*
X46140D01*
Y41980D01*
X38844D01*
Y45050D01*
X49760D01*
Y43510D01*
X55780D01*
Y50800D01*
X58320D01*
Y43510D01*
X59986D01*
X61057Y42271D01*
X61016Y41980D01*
X55460D01*
Y32980D01*
X66460D01*
Y41980D01*
X66460Y41980D01*
X66753Y43129D01*
X66816Y43223D01*
X67686Y44093D01*
X67970D01*
X68950Y43687D01*
X70144D01*
X71246Y44144D01*
X72090Y44988D01*
X72323Y45550D01*
X73575Y46105D01*
X73817Y46109D01*
X73885Y46066D01*
Y41980D01*
X68160D01*
Y32980D01*
X79160D01*
Y35166D01*
X86440D01*
Y34565D01*
X87201Y32728D01*
X88608Y31321D01*
X90445Y30560D01*
X92435D01*
X94272Y31321D01*
X95679Y32728D01*
X96440Y34565D01*
Y36555D01*
X95679Y38392D01*
X94272Y39799D01*
X92435Y40560D01*
X90445D01*
X88608Y39799D01*
X88510Y39701D01*
X88042Y39794D01*
X79160D01*
Y41980D01*
X78514D01*
Y48251D01*
X78338Y49136D01*
X77837Y49887D01*
X65268Y62456D01*
X65359Y63036D01*
X65724Y63726D01*
X67001D01*
X84363Y46363D01*
X85114Y45862D01*
X86000Y45686D01*
X87243D01*
X88608Y44321D01*
X90445Y43560D01*
X92435D01*
X94272Y44321D01*
X95679Y45728D01*
X96440Y47565D01*
Y49555D01*
X95679Y51392D01*
X94272Y52799D01*
X92435Y53560D01*
X90445D01*
X88608Y52799D01*
X87201Y51392D01*
X86100Y51173D01*
X69777Y67496D01*
X69969Y68247D01*
X70291Y68740D01*
X70985Y68740D01*
X72822D01*
X72933Y68573D01*
X81993Y59513D01*
X82744Y59012D01*
X83630Y58836D01*
X87156D01*
X87201Y58728D01*
X88608Y57321D01*
X90445Y56560D01*
X92435D01*
X94272Y57321D01*
X95679Y58728D01*
X96440Y60565D01*
Y62555D01*
X95679Y64392D01*
X94272Y65799D01*
X93956Y65930D01*
X94208Y67200D01*
X96880D01*
Y77470D01*
X87340D01*
Y78740D01*
X86070D01*
Y90280D01*
X77800D01*
X76909Y91181D01*
Y94300D01*
X76637Y95666D01*
X75863Y96823D01*
X71909Y100778D01*
Y110740D01*
X71840Y111085D01*
Y120740D01*
X64840D01*
Y111085D01*
X64771Y110740D01*
Y99300D01*
X65043Y97934D01*
X65817Y96777D01*
X69771Y92822D01*
Y78740D01*
X69840Y78395D01*
Y70186D01*
X69209Y69613D01*
X68570Y69369D01*
X68380Y69456D01*
Y77470D01*
X63340D01*
X58300D01*
Y73910D01*
X57030Y73231D01*
X56840Y73358D01*
Y78395D01*
X56909Y78740D01*
Y90937D01*
X56637Y92303D01*
X55863Y93460D01*
X51909Y97415D01*
Y110660D01*
X51840Y111005D01*
Y119970D01*
X52244Y120137D01*
X53300Y119431D01*
Y112010D01*
X57070D01*
Y122280D01*
X54964D01*
X54187Y123550D01*
X54369Y124460D01*
X54097Y125826D01*
X53323Y126983D01*
X52166Y127757D01*
X50800Y128029D01*
D02*
G37*
G36*
X13070Y77470D02*
X4800D01*
Y67200D01*
X13070D01*
Y77470D01*
D02*
G37*
G36*
X26670Y29520D02*
X20900D01*
Y24750D01*
X26670D01*
Y29520D01*
D02*
G37*
G36*
X90170Y28990D02*
X88916Y28654D01*
X87424Y27793D01*
X86207Y26576D01*
X85346Y25084D01*
X85010Y23830D01*
X90170D01*
Y28990D01*
D02*
G37*
G36*
X26670Y22210D02*
X20900D01*
Y17888D01*
X19630Y17547D01*
X19560Y17668D01*
X17668Y19560D01*
X15352Y20898D01*
X12768Y21590D01*
X12700D01*
Y12700D01*
X21590D01*
Y12768D01*
X20898Y15352D01*
X20276Y16429D01*
X21158Y17440D01*
X26670D01*
Y22210D01*
D02*
G37*
G36*
X55188Y13970D02*
X52070D01*
Y10852D01*
X53372Y11391D01*
X54649Y12668D01*
X55188Y13970D01*
D02*
G37*
G36*
X49530D02*
X46412D01*
X46951Y12668D01*
X48228Y11391D01*
X49530Y10852D01*
Y13970D01*
D02*
G37*
%LPD*%
G36*
X44840Y120740D02*
X44840Y119621D01*
Y111005D01*
X44771Y110660D01*
Y95937D01*
X45043Y94571D01*
X45817Y93413D01*
X49771Y89459D01*
Y78740D01*
X49840Y78395D01*
Y68740D01*
X53942D01*
X57244Y65438D01*
X57218Y64767D01*
X56818Y64068D01*
X56672Y64080D01*
X54858Y65895D01*
X54107Y66396D01*
X53221Y66572D01*
X42281D01*
X41287Y67567D01*
X41772Y68740D01*
X46840D01*
Y78395D01*
X46909Y78740D01*
Y88740D01*
X46637Y90106D01*
X45863Y91263D01*
X41909Y95218D01*
Y110740D01*
Y120293D01*
X42507Y120891D01*
X43633D01*
X44840Y120740D01*
D02*
G37*
D15*
X57050Y50800D02*
D03*
X44550D02*
D03*
D20*
X90880Y48000D02*
X91440Y48560D01*
X86000Y48000D02*
X90880D01*
X67960Y66040D02*
X86000Y48000D01*
X59916Y66040D02*
X67960D01*
X56519Y60960D02*
X63491D01*
X76200Y39710D02*
Y48251D01*
X33340Y72240D02*
Y73660D01*
X63491Y60960D02*
X76200Y48251D01*
X73660Y37480D02*
X88042D01*
X83630Y61150D02*
X91030D01*
X74570Y70210D02*
Y77510D01*
Y70210D02*
X83630Y61150D01*
X91030D02*
X91440Y61560D01*
X73340Y78740D02*
X74570Y77510D01*
X20210Y44340D02*
X20320D01*
X8890Y33020D02*
X20210Y44340D01*
X19925Y53340D02*
X30480D01*
X8890Y49530D02*
X16115D01*
X19925Y53340D01*
X73660Y23480D02*
X75847Y21293D01*
X79781D01*
X91440Y9634D01*
Y9560D02*
Y9634D01*
X88042Y37480D02*
X89963Y35560D01*
X91440D01*
X53221Y64258D02*
X56519Y60960D01*
X54946Y71010D02*
X59916Y66040D01*
X41322Y64258D02*
X53221D01*
X51026Y58448D02*
X53570Y55904D01*
X50815Y58448D02*
X51026D01*
X53340Y72240D02*
X54570Y71010D01*
X54946D01*
X26940Y37480D02*
X27940D01*
X20320Y44100D02*
Y44340D01*
Y44100D02*
X26940Y37480D01*
X30480Y53340D02*
X36530Y47290D01*
Y40590D02*
Y47290D01*
Y40590D02*
X39640Y37480D01*
X20320Y63500D02*
X27830Y71010D01*
X32110D01*
X33340Y72240D01*
Y73660D01*
X73660Y37480D02*
X73970D01*
X33340Y72240D02*
X41322Y64258D01*
X53570Y54280D02*
X57050Y50800D01*
X53570Y54280D02*
Y55904D01*
X73970Y37480D02*
X76200Y39710D01*
X53340Y72240D02*
Y78740D01*
X69268Y46408D02*
X69547Y46687D01*
X60960Y37480D02*
X61331D01*
X65070Y44696D02*
Y44750D01*
X63561Y43187D02*
X65070Y44696D01*
X63561Y39710D02*
Y43187D01*
X66728Y46408D02*
X69268D01*
X61331Y37480D02*
X63561Y39710D01*
X65070Y44750D02*
X66728Y46408D01*
X33340Y74890D02*
Y78740D01*
X28140Y96720D02*
Y110540D01*
X27940Y96520D02*
X28140Y96720D01*
Y110540D02*
X28340Y110740D01*
X39640Y37480D02*
X40640D01*
D21*
X73340Y78740D02*
Y94300D01*
X68340Y99300D02*
Y110740D01*
Y99300D02*
X73340Y94300D01*
X58340Y96600D02*
Y121531D01*
X63340Y78740D02*
Y91600D01*
X58340Y96600D02*
X63340Y91600D01*
X38340Y110740D02*
Y121771D01*
Y93740D02*
Y110740D01*
X31850Y63500D02*
X44550Y50800D01*
X30480Y63500D02*
X31850D01*
X50800Y23480D02*
Y27940D01*
X40640Y23480D02*
X50800D01*
X14340Y78740D02*
Y110740D01*
X87340Y78740D02*
Y110740D01*
X48340Y95937D02*
X53340Y90937D01*
Y78740D02*
Y90937D01*
X48340Y95937D02*
Y110660D01*
X38340Y93740D02*
X43340Y88740D01*
Y78740D02*
Y88740D01*
X38340Y121771D02*
X41029Y124460D01*
X50800D01*
X61269D02*
X86360D01*
X58340Y121531D02*
X61269Y124460D01*
X86360Y111720D02*
X87340Y110740D01*
X86360Y111720D02*
Y124460D01*
X15240Y111640D02*
Y124460D01*
X14340Y110740D02*
X15240Y111640D01*
X50800Y23480D02*
X60960D01*
X73660D01*
D22*
X11430Y11430D02*
D03*
D23*
X8890Y49530D02*
D03*
Y33020D02*
D03*
X91440Y35560D02*
D03*
Y22560D02*
D03*
Y9560D02*
D03*
Y61560D02*
D03*
Y48560D02*
D03*
D24*
X50815Y58448D02*
D03*
X20320Y53340D02*
D03*
Y44340D02*
D03*
X30480Y63500D02*
D03*
X20320D02*
D03*
X50800Y27940D02*
D03*
X69547Y46687D02*
D03*
X27940Y96520D02*
D03*
X15240Y124460D02*
D03*
X86360D02*
D03*
X50800D02*
D03*
Y15240D02*
D03*
D25*
X73340Y78740D02*
D03*
X63340D02*
D03*
X53340D02*
D03*
X43340D02*
D03*
X33340D02*
D03*
X68340Y110740D02*
D03*
X58340D02*
D03*
X48340D02*
D03*
X38340D02*
D03*
X28340D02*
D03*
D26*
X87340Y78740D02*
D03*
X14340D02*
D03*
Y110740D02*
D03*
X87340D02*
D03*
D27*
X27940Y37480D02*
D03*
Y23480D02*
D03*
X73660Y23480D02*
D03*
Y37480D02*
D03*
X40640Y23480D02*
D03*
Y37480D02*
D03*
X60960Y23480D02*
D03*
Y37480D02*
D03*
M02*
