M48
;Layer_Color=9474304
;FILE_FORMAT=4:4
METRIC,LZ
;TYPE=PLATED
T1F00S00C0.2000
T2F00S00C0.5000
T3F00S00C1.0000
%
T01
X0002032Y0004434
Y0005334
Y000635
X0003048
X00050815Y00058448
X00069547Y00046687
X000508Y0002794
Y0001524
X0002794Y0009652
X0001524Y0012446
X000508
X0008636
T02
X0000889Y0003302
Y0004953
X0009144Y0004856
Y0003556
Y0002256
Y0000956
Y0006156
T03
X0001143Y0001143
M30
