G04*
G04 #@! TF.GenerationSoftware,Altium Limited,Altium Designer,22.6.1 (34)*
G04*
G04 Layer_Physical_Order=2*
G04 Layer_Color=36540*
%FSLAX44Y44*%
%MOMM*%
G71*
G04*
G04 #@! TF.SameCoordinates,31187167-A265-4164-9C29-98D214726901*
G04*
G04*
G04 #@! TF.FilePolarity,Positive*
G04*
G01*
G75*
%ADD21C,0.5000*%
%ADD22C,1.5240*%
%ADD23C,0.8000*%
%ADD24C,0.4000*%
G36*
X98376Y26166D02*
X97106Y25826D01*
X96673Y26576D01*
X95456Y27793D01*
X93964Y28654D01*
X92710Y28990D01*
Y22560D01*
Y16130D01*
X93964Y16466D01*
X95456Y17327D01*
X96673Y18544D01*
X97106Y19295D01*
X98376Y18954D01*
Y1624D01*
X17305D01*
X16964Y2894D01*
X17668Y3300D01*
X19560Y5192D01*
X20898Y7508D01*
X21590Y10092D01*
Y10160D01*
X11430D01*
Y11430D01*
X10160D01*
Y21590D01*
X10092D01*
X7508Y20898D01*
X5192Y19560D01*
X3300Y17668D01*
X2894Y16964D01*
X1624Y17305D01*
Y138376D01*
X98376D01*
Y26166D01*
D02*
G37*
%LPC*%
G36*
X87630Y128848D02*
Y125730D01*
X90748D01*
X90209Y127032D01*
X88932Y128309D01*
X87630Y128848D01*
D02*
G37*
G36*
X85090D02*
X83788Y128309D01*
X82511Y127032D01*
X81972Y125730D01*
X85090D01*
Y128848D01*
D02*
G37*
G36*
X16510D02*
Y125730D01*
X19628D01*
X19089Y127032D01*
X17812Y128309D01*
X16510Y128848D01*
D02*
G37*
G36*
X13970D02*
X12668Y128309D01*
X11391Y127032D01*
X10852Y125730D01*
X13970D01*
Y128848D01*
D02*
G37*
G36*
X51397Y127460D02*
X50203D01*
X49101Y127003D01*
X48257Y126159D01*
X47800Y125057D01*
Y123863D01*
X48257Y122761D01*
X49101Y121917D01*
X50203Y121460D01*
X51397D01*
X52499Y121917D01*
X53343Y122761D01*
X53800Y123863D01*
Y125057D01*
X53343Y126159D01*
X52499Y127003D01*
X51397Y127460D01*
D02*
G37*
G36*
X90748Y123190D02*
X87630D01*
Y120072D01*
X88932Y120611D01*
X90209Y121888D01*
X90748Y123190D01*
D02*
G37*
G36*
X85090D02*
X81972D01*
X82511Y121888D01*
X83788Y120611D01*
X85090Y120072D01*
Y123190D01*
D02*
G37*
G36*
X19628D02*
X16510D01*
Y120072D01*
X17812Y120611D01*
X19089Y121888D01*
X19628Y123190D01*
D02*
G37*
G36*
X13970D02*
X10852D01*
X11391Y121888D01*
X12668Y120611D01*
X13970Y120072D01*
Y123190D01*
D02*
G37*
G36*
X28537Y99520D02*
X27343D01*
X26241Y99063D01*
X25397Y98219D01*
X24940Y97117D01*
Y95923D01*
X25397Y94821D01*
X26241Y93977D01*
X27343Y93520D01*
X28537D01*
X29639Y93977D01*
X30483Y94821D01*
X30940Y95923D01*
Y97117D01*
X30483Y98219D01*
X29639Y99063D01*
X28537Y99520D01*
D02*
G37*
G36*
X31077Y66500D02*
X29883D01*
X28781Y66043D01*
X27937Y65199D01*
X27480Y64097D01*
Y62903D01*
X27937Y61801D01*
X28781Y60957D01*
X29883Y60500D01*
X31077D01*
X32179Y60957D01*
X33023Y61801D01*
X33480Y62903D01*
Y64097D01*
X33023Y65199D01*
X32179Y66043D01*
X31077Y66500D01*
D02*
G37*
G36*
X20917D02*
X19723D01*
X18621Y66043D01*
X17777Y65199D01*
X17320Y64097D01*
Y62903D01*
X17777Y61801D01*
X18621Y60957D01*
X19723Y60500D01*
X20917D01*
X22019Y60957D01*
X22863Y61801D01*
X23320Y62903D01*
Y64097D01*
X22863Y65199D01*
X22019Y66043D01*
X20917Y66500D01*
D02*
G37*
G36*
X52085Y62836D02*
Y59718D01*
X55203D01*
X54664Y61020D01*
X53386Y62297D01*
X52085Y62836D01*
D02*
G37*
G36*
X49545D02*
X48243Y62297D01*
X46966Y61020D01*
X46427Y59718D01*
X49545D01*
Y62836D01*
D02*
G37*
G36*
X92435Y66560D02*
X90445D01*
X88608Y65799D01*
X87201Y64392D01*
X86440Y62555D01*
Y60565D01*
X87201Y58728D01*
X88608Y57321D01*
X90445Y56560D01*
X92435D01*
X94272Y57321D01*
X95679Y58728D01*
X96440Y60565D01*
Y62555D01*
X95679Y64392D01*
X94272Y65799D01*
X92435Y66560D01*
D02*
G37*
G36*
X55203Y57178D02*
X52085D01*
Y54060D01*
X53386Y54599D01*
X54664Y55876D01*
X55203Y57178D01*
D02*
G37*
G36*
X49545D02*
X46427D01*
X46966Y55876D01*
X48243Y54599D01*
X49545Y54060D01*
Y57178D01*
D02*
G37*
G36*
X20917Y56340D02*
X19723D01*
X18621Y55883D01*
X17777Y55039D01*
X17320Y53937D01*
Y52743D01*
X17777Y51641D01*
X18621Y50797D01*
X19723Y50340D01*
X20917D01*
X22019Y50797D01*
X22863Y51641D01*
X23320Y52743D01*
Y53937D01*
X22863Y55039D01*
X22019Y55883D01*
X20917Y56340D01*
D02*
G37*
G36*
X9885Y54530D02*
X7895D01*
X6058Y53769D01*
X4651Y52362D01*
X3890Y50525D01*
Y48535D01*
X4651Y46698D01*
X6058Y45291D01*
X7895Y44530D01*
X9885D01*
X11722Y45291D01*
X13129Y46698D01*
X13890Y48535D01*
Y50525D01*
X13129Y52362D01*
X11722Y53769D01*
X9885Y54530D01*
D02*
G37*
G36*
X70144Y49687D02*
X68950D01*
X67848Y49230D01*
X67004Y48386D01*
X66547Y47284D01*
Y46090D01*
X67004Y44988D01*
X67848Y44144D01*
X68950Y43687D01*
X70144D01*
X71246Y44144D01*
X72090Y44988D01*
X72547Y46090D01*
Y47284D01*
X72090Y48386D01*
X71246Y49230D01*
X70144Y49687D01*
D02*
G37*
G36*
X92435Y53560D02*
X90445D01*
X88608Y52799D01*
X87201Y51392D01*
X86440Y49555D01*
Y47565D01*
X87201Y45728D01*
X88608Y44321D01*
X90445Y43560D01*
X92435D01*
X94272Y44321D01*
X95679Y45728D01*
X96440Y47565D01*
Y49555D01*
X95679Y51392D01*
X94272Y52799D01*
X92435Y53560D01*
D02*
G37*
G36*
X20917Y47340D02*
X19723D01*
X18621Y46883D01*
X17777Y46039D01*
X17320Y44937D01*
Y43743D01*
X17777Y42641D01*
X18621Y41797D01*
X19723Y41340D01*
X20917D01*
X22019Y41797D01*
X22863Y42641D01*
X23320Y43743D01*
Y44937D01*
X22863Y46039D01*
X22019Y46883D01*
X20917Y47340D01*
D02*
G37*
G36*
X92435Y40560D02*
X90445D01*
X88608Y39799D01*
X87201Y38392D01*
X86440Y36555D01*
Y34565D01*
X87201Y32728D01*
X88608Y31321D01*
X90445Y30560D01*
X92435D01*
X94272Y31321D01*
X95679Y32728D01*
X96440Y34565D01*
Y36555D01*
X95679Y38392D01*
X94272Y39799D01*
X92435Y40560D01*
D02*
G37*
G36*
X9885Y38020D02*
X7895D01*
X6058Y37259D01*
X4651Y35852D01*
X3890Y34015D01*
Y32025D01*
X4651Y30188D01*
X6058Y28781D01*
X7895Y28020D01*
X9885D01*
X11722Y28781D01*
X13129Y30188D01*
X13890Y32025D01*
Y34015D01*
X13129Y35852D01*
X11722Y37259D01*
X9885Y38020D01*
D02*
G37*
G36*
X51397Y30940D02*
X50203D01*
X49101Y30483D01*
X48257Y29639D01*
X47800Y28537D01*
Y27343D01*
X48257Y26241D01*
X49101Y25397D01*
X50203Y24940D01*
X51397D01*
X52499Y25397D01*
X53343Y26241D01*
X53800Y27343D01*
Y28537D01*
X53343Y29639D01*
X52499Y30483D01*
X51397Y30940D01*
D02*
G37*
G36*
X90170Y28990D02*
X88916Y28654D01*
X87424Y27793D01*
X86207Y26576D01*
X85346Y25084D01*
X85010Y23830D01*
X90170D01*
Y28990D01*
D02*
G37*
G36*
X52070Y19628D02*
Y16510D01*
X55188D01*
X54649Y17812D01*
X53372Y19089D01*
X52070Y19628D01*
D02*
G37*
G36*
X49530D02*
X48228Y19089D01*
X46951Y17812D01*
X46412Y16510D01*
X49530D01*
Y19628D01*
D02*
G37*
G36*
X90170Y21290D02*
X85010D01*
X85346Y20036D01*
X86207Y18544D01*
X87424Y17327D01*
X88916Y16466D01*
X90170Y16130D01*
Y21290D01*
D02*
G37*
G36*
X12768Y21590D02*
X12700D01*
Y12700D01*
X21590D01*
Y12768D01*
X20898Y15352D01*
X19560Y17668D01*
X17668Y19560D01*
X15352Y20898D01*
X12768Y21590D01*
D02*
G37*
G36*
X55188Y13970D02*
X52070D01*
Y10852D01*
X53372Y11391D01*
X54649Y12668D01*
X55188Y13970D01*
D02*
G37*
G36*
X49530D02*
X46412D01*
X46951Y12668D01*
X48228Y11391D01*
X49530Y10852D01*
Y13970D01*
D02*
G37*
G36*
X92435Y14560D02*
X90445D01*
X88608Y13799D01*
X87201Y12392D01*
X86440Y10555D01*
Y8565D01*
X87201Y6728D01*
X88608Y5321D01*
X90445Y4560D01*
X92435D01*
X94272Y5321D01*
X95679Y6728D01*
X96440Y8565D01*
Y10555D01*
X95679Y12392D01*
X94272Y13799D01*
X92435Y14560D01*
D02*
G37*
%LPD*%
D21*
X15240Y124460D02*
X50815Y88885D01*
Y58448D02*
Y88915D01*
X86360Y124460D01*
X50800Y45720D02*
Y58433D01*
Y45720D02*
X57840Y38680D01*
Y22280D02*
Y38680D01*
X50800Y15240D02*
X57840Y22280D01*
D22*
X11430Y11430D02*
D03*
D23*
X91440Y22560D02*
D03*
D24*
X50815Y58448D02*
D03*
X15240Y124460D02*
D03*
X86360D02*
D03*
X50800Y15240D02*
D03*
M02*
